<?xml version="1.0" encoding="utf-8" standalone="no"?>
<!DOCTYPE svg PUBLIC "-//W3C//DTD SVG 1.1//EN"
  "http://www.w3.org/Graphics/SVG/1.1/DTD/svg11.dtd">
<!-- Created with matplotlib (https://matplotlib.org/) -->
<svg height="345.6pt" version="1.1" viewBox="0 0 460.8 345.6" width="460.8pt" xmlns="http://www.w3.org/2000/svg" xmlns:xlink="http://www.w3.org/1999/xlink">
 <defs>
  <style type="text/css">
*{stroke-linecap:butt;stroke-linejoin:round;}
  </style>
 </defs>
 <g id="figure_1">
  <g id="patch_1">
   <path d="M 0 345.6 
L 460.8 345.6 
L 460.8 0 
L 0 0 
z
" style="fill:#ffffff;"/>
  </g>
  <g id="axes_1">
   <g id="patch_2">
    <path d="M 57.6 307.584 
L 414.72 307.584 
L 414.72 41.472 
L 57.6 41.472 
z
" style="fill:#ffffff;"/>
   </g>
   <g id="matplotlib.axis_1">
    <g id="xtick_1">
     <g id="line2d_1">
      <defs>
       <path d="M 0 0 
L 0 3.5 
" id="m379b71e24d" style="stroke:#000000;stroke-width:0.8;"/>
      </defs>
      <g>
       <use style="stroke:#000000;stroke-width:0.8;" x="79.902045" xlink:href="#m379b71e24d" y="307.584"/>
      </g>
     </g>
     <g id="text_1">
      <!-- $\mathdefault{10^{-4}}$ -->
      <defs>
       <path d="M 12.40625 8.296875 
L 28.515625 8.296875 
L 28.515625 63.921875 
L 10.984375 60.40625 
L 10.984375 69.390625 
L 28.421875 72.90625 
L 38.28125 72.90625 
L 38.28125 8.296875 
L 54.390625 8.296875 
L 54.390625 0 
L 12.40625 0 
z
" id="DejaVuSans-49"/>
       <path d="M 31.78125 66.40625 
Q 24.171875 66.40625 20.328125 58.90625 
Q 16.5 51.421875 16.5 36.375 
Q 16.5 21.390625 20.328125 13.890625 
Q 24.171875 6.390625 31.78125 6.390625 
Q 39.453125 6.390625 43.28125 13.890625 
Q 47.125 21.390625 47.125 36.375 
Q 47.125 51.421875 43.28125 58.90625 
Q 39.453125 66.40625 31.78125 66.40625 
z
M 31.78125 74.21875 
Q 44.046875 74.21875 50.515625 64.515625 
Q 56.984375 54.828125 56.984375 36.375 
Q 56.984375 17.96875 50.515625 8.265625 
Q 44.046875 -1.421875 31.78125 -1.421875 
Q 19.53125 -1.421875 13.0625 8.265625 
Q 6.59375 17.96875 6.59375 36.375 
Q 6.59375 54.828125 13.0625 64.515625 
Q 19.53125 74.21875 31.78125 74.21875 
z
" id="DejaVuSans-48"/>
       <path d="M 10.59375 35.5 
L 73.1875 35.5 
L 73.1875 27.203125 
L 10.59375 27.203125 
z
" id="DejaVuSans-8722"/>
       <path d="M 37.796875 64.3125 
L 12.890625 25.390625 
L 37.796875 25.390625 
z
M 35.203125 72.90625 
L 47.609375 72.90625 
L 47.609375 25.390625 
L 58.015625 25.390625 
L 58.015625 17.1875 
L 47.609375 17.1875 
L 47.609375 0 
L 37.796875 0 
L 37.796875 17.1875 
L 4.890625 17.1875 
L 4.890625 26.703125 
z
" id="DejaVuSans-52"/>
      </defs>
      <g transform="translate(68.152045 322.182437)scale(0.1 -0.1)">
       <use transform="translate(0 0.684375)" xlink:href="#DejaVuSans-49"/>
       <use transform="translate(63.623047 0.684375)" xlink:href="#DejaVuSans-48"/>
       <use transform="translate(128.203125 38.965625)scale(0.7)" xlink:href="#DejaVuSans-8722"/>
       <use transform="translate(186.855469 38.965625)scale(0.7)" xlink:href="#DejaVuSans-52"/>
      </g>
     </g>
    </g>
    <g id="xtick_2">
     <g id="line2d_2">
      <g>
       <use style="stroke:#000000;stroke-width:0.8;" x="159.548352" xlink:href="#m379b71e24d" y="307.584"/>
      </g>
     </g>
     <g id="text_2">
      <!-- $\mathdefault{10^{-3}}$ -->
      <defs>
       <path d="M 40.578125 39.3125 
Q 47.65625 37.796875 51.625 33 
Q 55.609375 28.21875 55.609375 21.1875 
Q 55.609375 10.40625 48.1875 4.484375 
Q 40.765625 -1.421875 27.09375 -1.421875 
Q 22.515625 -1.421875 17.65625 -0.515625 
Q 12.796875 0.390625 7.625 2.203125 
L 7.625 11.71875 
Q 11.71875 9.328125 16.59375 8.109375 
Q 21.484375 6.890625 26.8125 6.890625 
Q 36.078125 6.890625 40.9375 10.546875 
Q 45.796875 14.203125 45.796875 21.1875 
Q 45.796875 27.640625 41.28125 31.265625 
Q 36.765625 34.90625 28.71875 34.90625 
L 20.21875 34.90625 
L 20.21875 43.015625 
L 29.109375 43.015625 
Q 36.375 43.015625 40.234375 45.921875 
Q 44.09375 48.828125 44.09375 54.296875 
Q 44.09375 59.90625 40.109375 62.90625 
Q 36.140625 65.921875 28.71875 65.921875 
Q 24.65625 65.921875 20.015625 65.03125 
Q 15.375 64.15625 9.8125 62.3125 
L 9.8125 71.09375 
Q 15.4375 72.65625 20.34375 73.4375 
Q 25.25 74.21875 29.59375 74.21875 
Q 40.828125 74.21875 47.359375 69.109375 
Q 53.90625 64.015625 53.90625 55.328125 
Q 53.90625 49.265625 50.4375 45.09375 
Q 46.96875 40.921875 40.578125 39.3125 
z
" id="DejaVuSans-51"/>
      </defs>
      <g transform="translate(147.798352 322.182437)scale(0.1 -0.1)">
       <use transform="translate(0 0.765625)" xlink:href="#DejaVuSans-49"/>
       <use transform="translate(63.623047 0.765625)" xlink:href="#DejaVuSans-48"/>
       <use transform="translate(128.203125 39.046875)scale(0.7)" xlink:href="#DejaVuSans-8722"/>
       <use transform="translate(186.855469 39.046875)scale(0.7)" xlink:href="#DejaVuSans-51"/>
      </g>
     </g>
    </g>
    <g id="xtick_3">
     <g id="line2d_3">
      <g>
       <use style="stroke:#000000;stroke-width:0.8;" x="239.194659" xlink:href="#m379b71e24d" y="307.584"/>
      </g>
     </g>
     <g id="text_3">
      <!-- $\mathdefault{10^{-2}}$ -->
      <defs>
       <path d="M 19.1875 8.296875 
L 53.609375 8.296875 
L 53.609375 0 
L 7.328125 0 
L 7.328125 8.296875 
Q 12.9375 14.109375 22.625 23.890625 
Q 32.328125 33.6875 34.8125 36.53125 
Q 39.546875 41.84375 41.421875 45.53125 
Q 43.3125 49.21875 43.3125 52.78125 
Q 43.3125 58.59375 39.234375 62.25 
Q 35.15625 65.921875 28.609375 65.921875 
Q 23.96875 65.921875 18.8125 64.3125 
Q 13.671875 62.703125 7.8125 59.421875 
L 7.8125 69.390625 
Q 13.765625 71.78125 18.9375 73 
Q 24.125 74.21875 28.421875 74.21875 
Q 39.75 74.21875 46.484375 68.546875 
Q 53.21875 62.890625 53.21875 53.421875 
Q 53.21875 48.921875 51.53125 44.890625 
Q 49.859375 40.875 45.40625 35.40625 
Q 44.1875 33.984375 37.640625 27.21875 
Q 31.109375 20.453125 19.1875 8.296875 
z
" id="DejaVuSans-50"/>
      </defs>
      <g transform="translate(227.444659 322.182437)scale(0.1 -0.1)">
       <use transform="translate(0 0.765625)" xlink:href="#DejaVuSans-49"/>
       <use transform="translate(63.623047 0.765625)" xlink:href="#DejaVuSans-48"/>
       <use transform="translate(128.203125 39.046875)scale(0.7)" xlink:href="#DejaVuSans-8722"/>
       <use transform="translate(186.855469 39.046875)scale(0.7)" xlink:href="#DejaVuSans-50"/>
      </g>
     </g>
    </g>
    <g id="xtick_4">
     <g id="line2d_4">
      <g>
       <use style="stroke:#000000;stroke-width:0.8;" x="318.840966" xlink:href="#m379b71e24d" y="307.584"/>
      </g>
     </g>
     <g id="text_4">
      <!-- $\mathdefault{10^{-1}}$ -->
      <g transform="translate(307.090966 322.182437)scale(0.1 -0.1)">
       <use transform="translate(0 0.684375)" xlink:href="#DejaVuSans-49"/>
       <use transform="translate(63.623047 0.684375)" xlink:href="#DejaVuSans-48"/>
       <use transform="translate(128.203125 38.965625)scale(0.7)" xlink:href="#DejaVuSans-8722"/>
       <use transform="translate(186.855469 38.965625)scale(0.7)" xlink:href="#DejaVuSans-49"/>
      </g>
     </g>
    </g>
    <g id="xtick_5">
     <g id="line2d_5">
      <g>
       <use style="stroke:#000000;stroke-width:0.8;" x="398.487273" xlink:href="#m379b71e24d" y="307.584"/>
      </g>
     </g>
     <g id="text_5">
      <!-- $\mathdefault{10^{0}}$ -->
      <g transform="translate(389.687273 322.182437)scale(0.1 -0.1)">
       <use transform="translate(0 0.765625)" xlink:href="#DejaVuSans-49"/>
       <use transform="translate(63.623047 0.765625)" xlink:href="#DejaVuSans-48"/>
       <use transform="translate(128.203125 39.046875)scale(0.7)" xlink:href="#DejaVuSans-48"/>
      </g>
     </g>
    </g>
    <g id="xtick_6">
     <g id="line2d_6">
      <defs>
       <path d="M 0 0 
L 0 2 
" id="md060ae68bf" style="stroke:#000000;stroke-width:0.6;"/>
      </defs>
      <g>
       <use style="stroke:#000000;stroke-width:0.6;" x="62.232612" xlink:href="#md060ae68bf" y="307.584"/>
      </g>
     </g>
    </g>
    <g id="xtick_7">
     <g id="line2d_7">
      <g>
       <use style="stroke:#000000;stroke-width:0.6;" x="67.564676" xlink:href="#md060ae68bf" y="307.584"/>
      </g>
     </g>
    </g>
    <g id="xtick_8">
     <g id="line2d_8">
      <g>
       <use style="stroke:#000000;stroke-width:0.6;" x="72.183521" xlink:href="#md060ae68bf" y="307.584"/>
      </g>
     </g>
    </g>
    <g id="xtick_9">
     <g id="line2d_9">
      <g>
       <use style="stroke:#000000;stroke-width:0.6;" x="76.25763" xlink:href="#md060ae68bf" y="307.584"/>
      </g>
     </g>
    </g>
    <g id="xtick_10">
     <g id="line2d_10">
      <g>
       <use style="stroke:#000000;stroke-width:0.6;" x="103.877973" xlink:href="#md060ae68bf" y="307.584"/>
      </g>
     </g>
    </g>
    <g id="xtick_11">
     <g id="line2d_11">
      <g>
       <use style="stroke:#000000;stroke-width:0.6;" x="117.902991" xlink:href="#md060ae68bf" y="307.584"/>
      </g>
     </g>
    </g>
    <g id="xtick_12">
     <g id="line2d_12">
      <g>
       <use style="stroke:#000000;stroke-width:0.6;" x="127.8539" xlink:href="#md060ae68bf" y="307.584"/>
      </g>
     </g>
    </g>
    <g id="xtick_13">
     <g id="line2d_13">
      <g>
       <use style="stroke:#000000;stroke-width:0.6;" x="135.572425" xlink:href="#md060ae68bf" y="307.584"/>
      </g>
     </g>
    </g>
    <g id="xtick_14">
     <g id="line2d_14">
      <g>
       <use style="stroke:#000000;stroke-width:0.6;" x="141.878918" xlink:href="#md060ae68bf" y="307.584"/>
      </g>
     </g>
    </g>
    <g id="xtick_15">
     <g id="line2d_15">
      <g>
       <use style="stroke:#000000;stroke-width:0.6;" x="147.210983" xlink:href="#md060ae68bf" y="307.584"/>
      </g>
     </g>
    </g>
    <g id="xtick_16">
     <g id="line2d_16">
      <g>
       <use style="stroke:#000000;stroke-width:0.6;" x="151.829827" xlink:href="#md060ae68bf" y="307.584"/>
      </g>
     </g>
    </g>
    <g id="xtick_17">
     <g id="line2d_17">
      <g>
       <use style="stroke:#000000;stroke-width:0.6;" x="155.903937" xlink:href="#md060ae68bf" y="307.584"/>
      </g>
     </g>
    </g>
    <g id="xtick_18">
     <g id="line2d_18">
      <g>
       <use style="stroke:#000000;stroke-width:0.6;" x="183.524279" xlink:href="#md060ae68bf" y="307.584"/>
      </g>
     </g>
    </g>
    <g id="xtick_19">
     <g id="line2d_19">
      <g>
       <use style="stroke:#000000;stroke-width:0.6;" x="197.549298" xlink:href="#md060ae68bf" y="307.584"/>
      </g>
     </g>
    </g>
    <g id="xtick_20">
     <g id="line2d_20">
      <g>
       <use style="stroke:#000000;stroke-width:0.6;" x="207.500207" xlink:href="#md060ae68bf" y="307.584"/>
      </g>
     </g>
    </g>
    <g id="xtick_21">
     <g id="line2d_21">
      <g>
       <use style="stroke:#000000;stroke-width:0.6;" x="215.218732" xlink:href="#md060ae68bf" y="307.584"/>
      </g>
     </g>
    </g>
    <g id="xtick_22">
     <g id="line2d_22">
      <g>
       <use style="stroke:#000000;stroke-width:0.6;" x="221.525225" xlink:href="#md060ae68bf" y="307.584"/>
      </g>
     </g>
    </g>
    <g id="xtick_23">
     <g id="line2d_23">
      <g>
       <use style="stroke:#000000;stroke-width:0.6;" x="226.85729" xlink:href="#md060ae68bf" y="307.584"/>
      </g>
     </g>
    </g>
    <g id="xtick_24">
     <g id="line2d_24">
      <g>
       <use style="stroke:#000000;stroke-width:0.6;" x="231.476134" xlink:href="#md060ae68bf" y="307.584"/>
      </g>
     </g>
    </g>
    <g id="xtick_25">
     <g id="line2d_25">
      <g>
       <use style="stroke:#000000;stroke-width:0.6;" x="235.550244" xlink:href="#md060ae68bf" y="307.584"/>
      </g>
     </g>
    </g>
    <g id="xtick_26">
     <g id="line2d_26">
      <g>
       <use style="stroke:#000000;stroke-width:0.6;" x="263.170586" xlink:href="#md060ae68bf" y="307.584"/>
      </g>
     </g>
    </g>
    <g id="xtick_27">
     <g id="line2d_27">
      <g>
       <use style="stroke:#000000;stroke-width:0.6;" x="277.195605" xlink:href="#md060ae68bf" y="307.584"/>
      </g>
     </g>
    </g>
    <g id="xtick_28">
     <g id="line2d_28">
      <g>
       <use style="stroke:#000000;stroke-width:0.6;" x="287.146514" xlink:href="#md060ae68bf" y="307.584"/>
      </g>
     </g>
    </g>
    <g id="xtick_29">
     <g id="line2d_29">
      <g>
       <use style="stroke:#000000;stroke-width:0.6;" x="294.865038" xlink:href="#md060ae68bf" y="307.584"/>
      </g>
     </g>
    </g>
    <g id="xtick_30">
     <g id="line2d_30">
      <g>
       <use style="stroke:#000000;stroke-width:0.6;" x="301.171532" xlink:href="#md060ae68bf" y="307.584"/>
      </g>
     </g>
    </g>
    <g id="xtick_31">
     <g id="line2d_31">
      <g>
       <use style="stroke:#000000;stroke-width:0.6;" x="306.503597" xlink:href="#md060ae68bf" y="307.584"/>
      </g>
     </g>
    </g>
    <g id="xtick_32">
     <g id="line2d_32">
      <g>
       <use style="stroke:#000000;stroke-width:0.6;" x="311.122441" xlink:href="#md060ae68bf" y="307.584"/>
      </g>
     </g>
    </g>
    <g id="xtick_33">
     <g id="line2d_33">
      <g>
       <use style="stroke:#000000;stroke-width:0.6;" x="315.196551" xlink:href="#md060ae68bf" y="307.584"/>
      </g>
     </g>
    </g>
    <g id="xtick_34">
     <g id="line2d_34">
      <g>
       <use style="stroke:#000000;stroke-width:0.6;" x="342.816893" xlink:href="#md060ae68bf" y="307.584"/>
      </g>
     </g>
    </g>
    <g id="xtick_35">
     <g id="line2d_35">
      <g>
       <use style="stroke:#000000;stroke-width:0.6;" x="356.841912" xlink:href="#md060ae68bf" y="307.584"/>
      </g>
     </g>
    </g>
    <g id="xtick_36">
     <g id="line2d_36">
      <g>
       <use style="stroke:#000000;stroke-width:0.6;" x="366.792821" xlink:href="#md060ae68bf" y="307.584"/>
      </g>
     </g>
    </g>
    <g id="xtick_37">
     <g id="line2d_37">
      <g>
       <use style="stroke:#000000;stroke-width:0.6;" x="374.511345" xlink:href="#md060ae68bf" y="307.584"/>
      </g>
     </g>
    </g>
    <g id="xtick_38">
     <g id="line2d_38">
      <g>
       <use style="stroke:#000000;stroke-width:0.6;" x="380.817839" xlink:href="#md060ae68bf" y="307.584"/>
      </g>
     </g>
    </g>
    <g id="xtick_39">
     <g id="line2d_39">
      <g>
       <use style="stroke:#000000;stroke-width:0.6;" x="386.149904" xlink:href="#md060ae68bf" y="307.584"/>
      </g>
     </g>
    </g>
    <g id="xtick_40">
     <g id="line2d_40">
      <g>
       <use style="stroke:#000000;stroke-width:0.6;" x="390.768748" xlink:href="#md060ae68bf" y="307.584"/>
      </g>
     </g>
    </g>
    <g id="xtick_41">
     <g id="line2d_41">
      <g>
       <use style="stroke:#000000;stroke-width:0.6;" x="394.842858" xlink:href="#md060ae68bf" y="307.584"/>
      </g>
     </g>
    </g>
    <g id="text_6">
     <!-- False Alarm Rate -->
     <defs>
      <path d="M 9.8125 72.90625 
L 51.703125 72.90625 
L 51.703125 64.59375 
L 19.671875 64.59375 
L 19.671875 43.109375 
L 48.578125 43.109375 
L 48.578125 34.8125 
L 19.671875 34.8125 
L 19.671875 0 
L 9.8125 0 
z
" id="DejaVuSans-70"/>
      <path d="M 34.28125 27.484375 
Q 23.390625 27.484375 19.1875 25 
Q 14.984375 22.515625 14.984375 16.5 
Q 14.984375 11.71875 18.140625 8.90625 
Q 21.296875 6.109375 26.703125 6.109375 
Q 34.1875 6.109375 38.703125 11.40625 
Q 43.21875 16.703125 43.21875 25.484375 
L 43.21875 27.484375 
z
M 52.203125 31.203125 
L 52.203125 0 
L 43.21875 0 
L 43.21875 8.296875 
Q 40.140625 3.328125 35.546875 0.953125 
Q 30.953125 -1.421875 24.3125 -1.421875 
Q 15.921875 -1.421875 10.953125 3.296875 
Q 6 8.015625 6 15.921875 
Q 6 25.140625 12.171875 29.828125 
Q 18.359375 34.515625 30.609375 34.515625 
L 43.21875 34.515625 
L 43.21875 35.40625 
Q 43.21875 41.609375 39.140625 45 
Q 35.0625 48.390625 27.6875 48.390625 
Q 23 48.390625 18.546875 47.265625 
Q 14.109375 46.140625 10.015625 43.890625 
L 10.015625 52.203125 
Q 14.9375 54.109375 19.578125 55.046875 
Q 24.21875 56 28.609375 56 
Q 40.484375 56 46.34375 49.84375 
Q 52.203125 43.703125 52.203125 31.203125 
z
" id="DejaVuSans-97"/>
      <path d="M 9.421875 75.984375 
L 18.40625 75.984375 
L 18.40625 0 
L 9.421875 0 
z
" id="DejaVuSans-108"/>
      <path d="M 44.28125 53.078125 
L 44.28125 44.578125 
Q 40.484375 46.53125 36.375 47.5 
Q 32.28125 48.484375 27.875 48.484375 
Q 21.1875 48.484375 17.84375 46.4375 
Q 14.5 44.390625 14.5 40.28125 
Q 14.5 37.15625 16.890625 35.375 
Q 19.28125 33.59375 26.515625 31.984375 
L 29.59375 31.296875 
Q 39.15625 29.25 43.1875 25.515625 
Q 47.21875 21.78125 47.21875 15.09375 
Q 47.21875 7.46875 41.1875 3.015625 
Q 35.15625 -1.421875 24.609375 -1.421875 
Q 20.21875 -1.421875 15.453125 -0.5625 
Q 10.6875 0.296875 5.421875 2 
L 5.421875 11.28125 
Q 10.40625 8.6875 15.234375 7.390625 
Q 20.0625 6.109375 24.8125 6.109375 
Q 31.15625 6.109375 34.5625 8.28125 
Q 37.984375 10.453125 37.984375 14.40625 
Q 37.984375 18.0625 35.515625 20.015625 
Q 33.0625 21.96875 24.703125 23.78125 
L 21.578125 24.515625 
Q 13.234375 26.265625 9.515625 29.90625 
Q 5.8125 33.546875 5.8125 39.890625 
Q 5.8125 47.609375 11.28125 51.796875 
Q 16.75 56 26.8125 56 
Q 31.78125 56 36.171875 55.265625 
Q 40.578125 54.546875 44.28125 53.078125 
z
" id="DejaVuSans-115"/>
      <path d="M 56.203125 29.59375 
L 56.203125 25.203125 
L 14.890625 25.203125 
Q 15.484375 15.921875 20.484375 11.0625 
Q 25.484375 6.203125 34.421875 6.203125 
Q 39.59375 6.203125 44.453125 7.46875 
Q 49.3125 8.734375 54.109375 11.28125 
L 54.109375 2.78125 
Q 49.265625 0.734375 44.1875 -0.34375 
Q 39.109375 -1.421875 33.890625 -1.421875 
Q 20.796875 -1.421875 13.15625 6.1875 
Q 5.515625 13.8125 5.515625 26.8125 
Q 5.515625 40.234375 12.765625 48.109375 
Q 20.015625 56 32.328125 56 
Q 43.359375 56 49.78125 48.890625 
Q 56.203125 41.796875 56.203125 29.59375 
z
M 47.21875 32.234375 
Q 47.125 39.59375 43.09375 43.984375 
Q 39.0625 48.390625 32.421875 48.390625 
Q 24.90625 48.390625 20.390625 44.140625 
Q 15.875 39.890625 15.1875 32.171875 
z
" id="DejaVuSans-101"/>
      <path id="DejaVuSans-32"/>
      <path d="M 34.1875 63.1875 
L 20.796875 26.90625 
L 47.609375 26.90625 
z
M 28.609375 72.90625 
L 39.796875 72.90625 
L 67.578125 0 
L 57.328125 0 
L 50.6875 18.703125 
L 17.828125 18.703125 
L 11.1875 0 
L 0.78125 0 
z
" id="DejaVuSans-65"/>
      <path d="M 41.109375 46.296875 
Q 39.59375 47.171875 37.8125 47.578125 
Q 36.03125 48 33.890625 48 
Q 26.265625 48 22.1875 43.046875 
Q 18.109375 38.09375 18.109375 28.8125 
L 18.109375 0 
L 9.078125 0 
L 9.078125 54.6875 
L 18.109375 54.6875 
L 18.109375 46.1875 
Q 20.953125 51.171875 25.484375 53.578125 
Q 30.03125 56 36.53125 56 
Q 37.453125 56 38.578125 55.875 
Q 39.703125 55.765625 41.0625 55.515625 
z
" id="DejaVuSans-114"/>
      <path d="M 52 44.1875 
Q 55.375 50.25 60.0625 53.125 
Q 64.75 56 71.09375 56 
Q 79.640625 56 84.28125 50.015625 
Q 88.921875 44.046875 88.921875 33.015625 
L 88.921875 0 
L 79.890625 0 
L 79.890625 32.71875 
Q 79.890625 40.578125 77.09375 44.375 
Q 74.3125 48.1875 68.609375 48.1875 
Q 61.625 48.1875 57.5625 43.546875 
Q 53.515625 38.921875 53.515625 30.90625 
L 53.515625 0 
L 44.484375 0 
L 44.484375 32.71875 
Q 44.484375 40.625 41.703125 44.40625 
Q 38.921875 48.1875 33.109375 48.1875 
Q 26.21875 48.1875 22.15625 43.53125 
Q 18.109375 38.875 18.109375 30.90625 
L 18.109375 0 
L 9.078125 0 
L 9.078125 54.6875 
L 18.109375 54.6875 
L 18.109375 46.1875 
Q 21.1875 51.21875 25.484375 53.609375 
Q 29.78125 56 35.6875 56 
Q 41.65625 56 45.828125 52.96875 
Q 50 49.953125 52 44.1875 
z
" id="DejaVuSans-109"/>
      <path d="M 44.390625 34.1875 
Q 47.5625 33.109375 50.5625 29.59375 
Q 53.5625 26.078125 56.59375 19.921875 
L 66.609375 0 
L 56 0 
L 46.6875 18.703125 
Q 43.0625 26.03125 39.671875 28.421875 
Q 36.28125 30.8125 30.421875 30.8125 
L 19.671875 30.8125 
L 19.671875 0 
L 9.8125 0 
L 9.8125 72.90625 
L 32.078125 72.90625 
Q 44.578125 72.90625 50.734375 67.671875 
Q 56.890625 62.453125 56.890625 51.90625 
Q 56.890625 45.015625 53.6875 40.46875 
Q 50.484375 35.9375 44.390625 34.1875 
z
M 19.671875 64.796875 
L 19.671875 38.921875 
L 32.078125 38.921875 
Q 39.203125 38.921875 42.84375 42.21875 
Q 46.484375 45.515625 46.484375 51.90625 
Q 46.484375 58.296875 42.84375 61.546875 
Q 39.203125 64.796875 32.078125 64.796875 
z
" id="DejaVuSans-82"/>
      <path d="M 18.3125 70.21875 
L 18.3125 54.6875 
L 36.8125 54.6875 
L 36.8125 47.703125 
L 18.3125 47.703125 
L 18.3125 18.015625 
Q 18.3125 11.328125 20.140625 9.421875 
Q 21.96875 7.515625 27.59375 7.515625 
L 36.8125 7.515625 
L 36.8125 0 
L 27.59375 0 
Q 17.1875 0 13.234375 3.875 
Q 9.28125 7.765625 9.28125 18.015625 
L 9.28125 47.703125 
L 2.6875 47.703125 
L 2.6875 54.6875 
L 9.28125 54.6875 
L 9.28125 70.21875 
z
" id="DejaVuSans-116"/>
     </defs>
     <g transform="translate(193.606875 335.860562)scale(0.1 -0.1)">
      <use xlink:href="#DejaVuSans-70"/>
      <use x="57.378906" xlink:href="#DejaVuSans-97"/>
      <use x="118.658203" xlink:href="#DejaVuSans-108"/>
      <use x="146.441406" xlink:href="#DejaVuSans-115"/>
      <use x="198.541016" xlink:href="#DejaVuSans-101"/>
      <use x="260.064453" xlink:href="#DejaVuSans-32"/>
      <use x="291.851562" xlink:href="#DejaVuSans-65"/>
      <use x="360.259766" xlink:href="#DejaVuSans-108"/>
      <use x="388.042969" xlink:href="#DejaVuSans-97"/>
      <use x="449.322266" xlink:href="#DejaVuSans-114"/>
      <use x="490.419922" xlink:href="#DejaVuSans-109"/>
      <use x="587.832031" xlink:href="#DejaVuSans-32"/>
      <use x="619.619141" xlink:href="#DejaVuSans-82"/>
      <use x="689.070312" xlink:href="#DejaVuSans-97"/>
      <use x="750.349609" xlink:href="#DejaVuSans-116"/>
      <use x="789.558594" xlink:href="#DejaVuSans-101"/>
     </g>
    </g>
   </g>
   <g id="matplotlib.axis_2">
    <g id="ytick_1">
     <g id="line2d_42">
      <defs>
       <path d="M 0 0 
L -3.5 0 
" id="m471985814a" style="stroke:#000000;stroke-width:0.8;"/>
      </defs>
      <g>
       <use style="stroke:#000000;stroke-width:0.8;" x="57.6" xlink:href="#m471985814a" y="295.488"/>
      </g>
     </g>
     <g id="text_7">
      <!-- 0.0 -->
      <defs>
       <path d="M 10.6875 12.40625 
L 21 12.40625 
L 21 0 
L 10.6875 0 
z
" id="DejaVuSans-46"/>
      </defs>
      <g transform="translate(34.696875 299.287219)scale(0.1 -0.1)">
       <use xlink:href="#DejaVuSans-48"/>
       <use x="63.623047" xlink:href="#DejaVuSans-46"/>
       <use x="95.410156" xlink:href="#DejaVuSans-48"/>
      </g>
     </g>
    </g>
    <g id="ytick_2">
     <g id="line2d_43">
      <g>
       <use style="stroke:#000000;stroke-width:0.8;" x="57.6" xlink:href="#m471985814a" y="247.104"/>
      </g>
     </g>
     <g id="text_8">
      <!-- 0.2 -->
      <g transform="translate(34.696875 250.903219)scale(0.1 -0.1)">
       <use xlink:href="#DejaVuSans-48"/>
       <use x="63.623047" xlink:href="#DejaVuSans-46"/>
       <use x="95.410156" xlink:href="#DejaVuSans-50"/>
      </g>
     </g>
    </g>
    <g id="ytick_3">
     <g id="line2d_44">
      <g>
       <use style="stroke:#000000;stroke-width:0.8;" x="57.6" xlink:href="#m471985814a" y="198.72"/>
      </g>
     </g>
     <g id="text_9">
      <!-- 0.4 -->
      <g transform="translate(34.696875 202.519219)scale(0.1 -0.1)">
       <use xlink:href="#DejaVuSans-48"/>
       <use x="63.623047" xlink:href="#DejaVuSans-46"/>
       <use x="95.410156" xlink:href="#DejaVuSans-52"/>
      </g>
     </g>
    </g>
    <g id="ytick_4">
     <g id="line2d_45">
      <g>
       <use style="stroke:#000000;stroke-width:0.8;" x="57.6" xlink:href="#m471985814a" y="150.336"/>
      </g>
     </g>
     <g id="text_10">
      <!-- 0.6 -->
      <defs>
       <path d="M 33.015625 40.375 
Q 26.375 40.375 22.484375 35.828125 
Q 18.609375 31.296875 18.609375 23.390625 
Q 18.609375 15.53125 22.484375 10.953125 
Q 26.375 6.390625 33.015625 6.390625 
Q 39.65625 6.390625 43.53125 10.953125 
Q 47.40625 15.53125 47.40625 23.390625 
Q 47.40625 31.296875 43.53125 35.828125 
Q 39.65625 40.375 33.015625 40.375 
z
M 52.59375 71.296875 
L 52.59375 62.3125 
Q 48.875 64.0625 45.09375 64.984375 
Q 41.3125 65.921875 37.59375 65.921875 
Q 27.828125 65.921875 22.671875 59.328125 
Q 17.53125 52.734375 16.796875 39.40625 
Q 19.671875 43.65625 24.015625 45.921875 
Q 28.375 48.1875 33.59375 48.1875 
Q 44.578125 48.1875 50.953125 41.515625 
Q 57.328125 34.859375 57.328125 23.390625 
Q 57.328125 12.15625 50.6875 5.359375 
Q 44.046875 -1.421875 33.015625 -1.421875 
Q 20.359375 -1.421875 13.671875 8.265625 
Q 6.984375 17.96875 6.984375 36.375 
Q 6.984375 53.65625 15.1875 63.9375 
Q 23.390625 74.21875 37.203125 74.21875 
Q 40.921875 74.21875 44.703125 73.484375 
Q 48.484375 72.75 52.59375 71.296875 
z
" id="DejaVuSans-54"/>
      </defs>
      <g transform="translate(34.696875 154.135219)scale(0.1 -0.1)">
       <use xlink:href="#DejaVuSans-48"/>
       <use x="63.623047" xlink:href="#DejaVuSans-46"/>
       <use x="95.410156" xlink:href="#DejaVuSans-54"/>
      </g>
     </g>
    </g>
    <g id="ytick_5">
     <g id="line2d_46">
      <g>
       <use style="stroke:#000000;stroke-width:0.8;" x="57.6" xlink:href="#m471985814a" y="101.952"/>
      </g>
     </g>
     <g id="text_11">
      <!-- 0.8 -->
      <defs>
       <path d="M 31.78125 34.625 
Q 24.75 34.625 20.71875 30.859375 
Q 16.703125 27.09375 16.703125 20.515625 
Q 16.703125 13.921875 20.71875 10.15625 
Q 24.75 6.390625 31.78125 6.390625 
Q 38.8125 6.390625 42.859375 10.171875 
Q 46.921875 13.96875 46.921875 20.515625 
Q 46.921875 27.09375 42.890625 30.859375 
Q 38.875 34.625 31.78125 34.625 
z
M 21.921875 38.8125 
Q 15.578125 40.375 12.03125 44.71875 
Q 8.5 49.078125 8.5 55.328125 
Q 8.5 64.0625 14.71875 69.140625 
Q 20.953125 74.21875 31.78125 74.21875 
Q 42.671875 74.21875 48.875 69.140625 
Q 55.078125 64.0625 55.078125 55.328125 
Q 55.078125 49.078125 51.53125 44.71875 
Q 48 40.375 41.703125 38.8125 
Q 48.828125 37.15625 52.796875 32.3125 
Q 56.78125 27.484375 56.78125 20.515625 
Q 56.78125 9.90625 50.3125 4.234375 
Q 43.84375 -1.421875 31.78125 -1.421875 
Q 19.734375 -1.421875 13.25 4.234375 
Q 6.78125 9.90625 6.78125 20.515625 
Q 6.78125 27.484375 10.78125 32.3125 
Q 14.796875 37.15625 21.921875 38.8125 
z
M 18.3125 54.390625 
Q 18.3125 48.734375 21.84375 45.5625 
Q 25.390625 42.390625 31.78125 42.390625 
Q 38.140625 42.390625 41.71875 45.5625 
Q 45.3125 48.734375 45.3125 54.390625 
Q 45.3125 60.0625 41.71875 63.234375 
Q 38.140625 66.40625 31.78125 66.40625 
Q 25.390625 66.40625 21.84375 63.234375 
Q 18.3125 60.0625 18.3125 54.390625 
z
" id="DejaVuSans-56"/>
      </defs>
      <g transform="translate(34.696875 105.751219)scale(0.1 -0.1)">
       <use xlink:href="#DejaVuSans-48"/>
       <use x="63.623047" xlink:href="#DejaVuSans-46"/>
       <use x="95.410156" xlink:href="#DejaVuSans-56"/>
      </g>
     </g>
    </g>
    <g id="ytick_6">
     <g id="line2d_47">
      <g>
       <use style="stroke:#000000;stroke-width:0.8;" x="57.6" xlink:href="#m471985814a" y="53.568"/>
      </g>
     </g>
     <g id="text_12">
      <!-- 1.0 -->
      <g transform="translate(34.696875 57.367219)scale(0.1 -0.1)">
       <use xlink:href="#DejaVuSans-49"/>
       <use x="63.623047" xlink:href="#DejaVuSans-46"/>
       <use x="95.410156" xlink:href="#DejaVuSans-48"/>
      </g>
     </g>
    </g>
    <g id="text_13">
     <!-- Recall -->
     <defs>
      <path d="M 48.78125 52.59375 
L 48.78125 44.1875 
Q 44.96875 46.296875 41.140625 47.34375 
Q 37.3125 48.390625 33.40625 48.390625 
Q 24.65625 48.390625 19.8125 42.84375 
Q 14.984375 37.3125 14.984375 27.296875 
Q 14.984375 17.28125 19.8125 11.734375 
Q 24.65625 6.203125 33.40625 6.203125 
Q 37.3125 6.203125 41.140625 7.25 
Q 44.96875 8.296875 48.78125 10.40625 
L 48.78125 2.09375 
Q 45.015625 0.34375 40.984375 -0.53125 
Q 36.96875 -1.421875 32.421875 -1.421875 
Q 20.0625 -1.421875 12.78125 6.34375 
Q 5.515625 14.109375 5.515625 27.296875 
Q 5.515625 40.671875 12.859375 48.328125 
Q 20.21875 56 33.015625 56 
Q 37.15625 56 41.109375 55.140625 
Q 45.0625 54.296875 48.78125 52.59375 
z
" id="DejaVuSans-99"/>
     </defs>
     <g transform="translate(28.617187 189.667062)rotate(-90)scale(0.1 -0.1)">
      <use xlink:href="#DejaVuSans-82"/>
      <use x="69.419922" xlink:href="#DejaVuSans-101"/>
      <use x="130.943359" xlink:href="#DejaVuSans-99"/>
      <use x="185.923828" xlink:href="#DejaVuSans-97"/>
      <use x="247.203125" xlink:href="#DejaVuSans-108"/>
      <use x="274.986328" xlink:href="#DejaVuSans-108"/>
     </g>
    </g>
   </g>
   <g id="line2d_48">
    <path clip-path="url(#p23162ac03d)" d="M -1 274.836293 
L 73.832727 274.836293 
L 73.832727 263.035317 
L 97.808655 263.035317 
L 97.808655 239.433366 
L 111.833673 239.433366 
L 111.833673 224.682146 
L 129.503107 224.682146 
L 129.503107 212.881171 
L 145.76051 212.881171 
L 145.76051 209.930927 
L 149.834619 209.930927 
L 149.834619 201.080195 
L 167.504053 201.080195 
L 167.504053 198.129951 
L 169.736437 198.129951 
L 169.736437 195.179707 
L 177.454962 195.179707 
L 177.454962 189.27922 
L 179.142611 189.27922 
L 179.142611 186.328976 
L 180.751736 186.328976 
L 180.751736 180.428488 
L 182.28932 180.428488 
L 182.28932 174.528 
L 189.09352 174.528 
L 189.09352 168.627512 
L 195.809367 168.627512 
L 195.809367 162.727024 
L 197.786474 162.727024 
L 197.786474 159.77678 
L 203.118538 159.77678 
L 203.118538 156.826537 
L 204.727664 156.826537 
L 204.727664 153.876293 
L 206.265248 153.876293 
L 206.265248 150.926049 
L 210.506056 150.926049 
L 210.506056 147.975805 
L 216.590106 147.975805 
L 216.590106 145.025561 
L 225.406816 145.025561 
L 225.406816 142.075317 
L 232.071759 142.075317 
L 232.071759 139.125073 
L 239.71889 139.125073 
L 239.71889 136.174829 
L 244.763899 136.174829 
L 244.763899 133.224585 
L 255.689238 133.224585 
L 255.689238 127.324098 
L 256.578488 127.324098 
L 256.578488 124.373854 
L 260.082151 124.373854 
L 260.082151 121.42361 
L 269.108462 121.42361 
L 269.108462 118.473366 
L 269.953634 118.473366 
L 269.953634 115.523122 
L 275.046321 115.523122 
L 275.046321 112.572878 
L 281.846843 112.572878 
L 281.846843 109.622634 
L 283.174199 109.622634 
L 283.174199 106.67239 
L 292.467797 106.67239 
L 292.467797 103.722146 
L 307.353 103.722146 
L 307.353 100.771902 
L 311.39563 100.771902 
L 311.61092 100.771902 
L 325.456623 100.771902 
L 325.456623 97.821659 
L 332.502255 97.821659 
L 332.502255 94.871415 
L 334.25595 94.871415 
L 334.25595 91.921171 
L 345.407846 91.921171 
L 345.407846 88.970927 
L 348.521757 88.970927 
L 348.521757 86.020683 
L 351.434951 86.020683 
L 351.434951 83.070439 
L 356.5075 83.070439 
L 356.5075 80.120195 
L 358.481893 80.120195 
L 358.481893 77.169951 
L 369.698747 77.169951 
L 369.698747 74.219707 
L 371.116915 74.219707 
L 371.116915 71.269463 
L 371.174495 71.269463 
L 371.174495 68.31922 
L 373.61759 68.31922 
L 373.629501 68.31922 
L 377.164178 68.31922 
L 377.164178 65.368976 
L 377.549109 65.368976 
L 377.549109 62.418732 
L 381.346834 62.418732 
L 381.365884 62.418732 
L 388.873322 62.418732 
L 388.873322 59.468488 
L 397.053226 59.468488 
L 397.053226 56.518244 
L 398.137228 56.518244 
L 398.137228 53.568 
L 398.487273 53.568 
" style="fill:none;stroke:#ff0000;stroke-linecap:square;stroke-width:1.5;"/>
   </g>
   <g id="line2d_49">
    <path clip-path="url(#p23162ac03d)" d="M -1 271.886049 
L 73.832727 271.886049 
L 73.832727 260.085073 
L 97.808655 260.085073 
L 97.808655 239.433366 
L 111.833673 239.433366 
L 111.833673 233.532878 
L 121.784582 233.532878 
L 121.784582 218.781659 
L 129.503107 218.781659 
L 129.503107 215.831415 
L 135.809601 215.831415 
L 135.809601 212.881171 
L 145.76051 212.881171 
L 145.76051 201.080195 
L 156.775809 201.080195 
L 156.775809 198.129951 
L 162.554201 198.129951 
L 162.554201 195.179707 
L 169.736437 195.179707 
L 169.736437 186.328976 
L 171.83344 186.328976 
L 171.83344 183.378732 
L 177.454962 183.378732 
L 177.454962 180.428488 
L 182.28932 180.428488 
L 182.28932 171.577756 
L 189.09352 171.577756 
L 189.09352 165.677268 
L 192.614178 165.677268 
L 192.614178 162.727024 
L 198.734203 162.727024 
L 198.734203 159.77678 
L 199.656656 159.77678 
L 199.656656 156.826537 
L 201.430889 156.826537 
L 201.430889 153.876293 
L 207.009146 153.876293 
L 207.009146 150.926049 
L 209.149414 150.926049 
L 209.149414 147.975805 
L 210.506056 147.975805 
L 210.506056 145.025561 
L 217.688292 145.025561 
L 217.688292 142.075317 
L 218.224581 142.075317 
L 218.224581 139.125073 
L 245.010092 139.125073 
L 245.010092 133.224585 
L 249.598258 133.224585 
L 249.598258 127.324098 
L 265.232402 127.324098 
L 265.232402 124.373854 
L 268.739827 124.373854 
L 268.739827 118.473366 
L 269.230473 118.473366 
L 269.230473 115.523122 
L 272.260485 115.523122 
L 272.260485 112.572878 
L 276.948997 112.572878 
L 276.948997 109.622634 
L 288.026246 109.622634 
L 288.026246 106.67239 
L 288.09691 106.67239 
L 288.09691 103.722146 
L 312.108115 103.722146 
L 312.31903 103.722146 
L 314.426339 103.722146 
L 314.426339 100.771902 
L 325.191933 100.771902 
L 325.191933 97.821659 
L 326.003605 97.821659 
L 326.003605 94.871415 
L 329.501422 94.871415 
L 329.501422 91.921171 
L 343.865977 91.921171 
L 343.865977 88.970927 
L 344.452261 88.970927 
L 344.452261 86.020683 
L 349.167861 86.020683 
L 349.167861 83.070439 
L 353.68995 83.070439 
L 353.68995 80.120195 
L 354.785155 80.120195 
L 354.785155 77.169951 
L 361.67871 77.169951 
L 361.67871 74.219707 
L 368.511138 74.219707 
L 368.511138 71.269463 
L 370.339871 71.269463 
L 370.339871 68.31922 
L 371.416562 68.31922 
L 371.429256 68.31922 
L 374.760049 68.31922 
L 374.760049 65.368976 
L 375.246474 65.368976 
L 375.246474 62.418732 
L 381.99807 62.418732 
L 382.016764 62.418732 
L 386.567792 62.418732 
L 386.567792 59.468488 
L 396.532012 59.468488 
L 396.532012 56.518244 
L 397.954974 56.518244 
L 397.954974 53.568 
L 398.487273 53.568 
" style="fill:none;stroke:#0000ff;stroke-linecap:square;stroke-width:1.5;"/>
   </g>
   <g id="line2d_50">
    <path clip-path="url(#p23162ac03d)" d="M -1 274.836293 
L 73.832727 274.836293 
L 73.832727 236.483122 
L 121.784582 236.483122 
L 121.784582 224.682146 
L 129.503107 224.682146 
L 129.503107 218.781659 
L 145.76051 218.781659 
L 145.76051 209.930927 
L 149.834619 209.930927 
L 149.834619 206.980683 
L 153.479034 206.980683 
L 153.479034 204.030439 
L 159.785528 204.030439 
L 159.785528 201.080195 
L 162.554201 201.080195 
L 162.554201 195.179707 
L 167.504053 195.179707 
L 167.504053 189.27922 
L 169.736437 189.27922 
L 169.736437 186.328976 
L 173.810546 186.328976 
L 173.810546 183.378732 
L 183.761455 183.378732 
L 183.761455 180.428488 
L 195.809367 180.428488 
L 195.809367 177.478244 
L 206.265248 177.478244 
L 206.265248 174.528 
L 214.283254 174.528 
L 214.283254 171.577756 
L 216.027655 171.577756 
L 216.027655 168.627512 
L 219.272841 168.627512 
L 219.272841 162.727024 
L 223.174432 162.727024 
L 223.174432 159.77678 
L 224.084747 159.77678 
L 224.084747 153.876293 
L 224.971717 153.876293 
L 224.971717 150.926049 
L 225.836511 150.926049 
L 225.836511 147.975805 
L 227.908385 147.975805 
L 227.908385 145.025561 
L 229.480926 145.025561 
L 229.480926 142.075317 
L 230.615124 142.075317 
L 230.615124 139.125073 
L 232.7777 139.125073 
L 232.7777 136.174829 
L 236.422116 136.174829 
L 236.422116 133.224585 
L 236.735149 133.224585 
L 236.735149 130.274341 
L 237.352843 130.274341 
L 237.352843 124.373854 
L 238.259182 124.373854 
L 238.259182 121.42361 
L 238.556093 121.42361 
L 238.556093 115.523122 
L 239.431835 115.523122 
L 239.431835 112.572878 
L 239.71889 112.572878 
L 239.71889 109.622634 
L 242.989667 109.622634 
L 242.989667 106.67239 
L 245.977706 106.67239 
L 245.977706 103.722146 
L 248.728025 103.722146 
L 248.728025 100.771902 
L 250.0253 100.771902 
L 250.0253 97.821659 
L 262.972663 97.821659 
L 262.972663 94.871415 
L 273.250408 94.871415 
L 273.250408 91.921171 
L 279.028801 91.921171 
L 279.028801 88.970927 
L 281.421377 88.970927 
L 281.421377 86.020683 
L 296.67988 86.020683 
L 296.67988 83.070439 
L 307.914798 83.070439 
L 307.914798 80.120195 
L 331.166724 80.120195 
L 331.166724 77.169951 
L 338.120844 77.169951 
L 338.120844 74.219707 
L 338.925871 74.219707 
L 338.925871 71.269463 
L 339.553479 71.269463 
L 339.553479 68.31922 
L 341.896322 68.31922 
L 341.896322 65.368976 
L 342.222645 65.368976 
L 342.222645 62.418732 
L 346.922591 62.418732 
L 346.922591 59.468488 
L 347.076896 59.468488 
L 347.153791 59.468488 
L 350.366672 59.468488 
L 350.366672 56.518244 
L 354.75434 56.518244 
L 354.774887 56.518244 
L 372.577576 56.518244 
L 373.252315 56.518244 
L 376.660551 56.518244 
L 376.660551 53.568 
L 381.265755 53.568 
L 381.284849 53.568 
L 398.487273 53.568 
" style="fill:none;stroke:#000000;stroke-linecap:square;stroke-width:1.5;"/>
   </g>
   <g id="line2d_51">
    <path clip-path="url(#p23162ac03d)" d="M -1 265.985561 
L 97.808655 265.985561 
L 97.808655 227.63239 
L 111.833673 227.63239 
L 111.833673 206.980683 
L 141.141665 206.980683 
L 141.141665 195.179707 
L 149.834619 195.179707 
L 149.834619 192.229463 
L 153.479034 192.229463 
L 153.479034 186.328976 
L 162.554201 186.328976 
L 162.554201 183.378732 
L 171.83344 183.378732 
L 171.83344 180.428488 
L 173.810546 180.428488 
L 173.810546 177.478244 
L 175.680729 177.478244 
L 175.680729 171.577756 
L 185.173486 171.577756 
L 185.173486 168.627512 
L 202.285005 168.627512 
L 202.285005 165.677268 
L 203.118538 165.677268 
L 203.118538 156.826537 
L 203.932457 156.826537 
L 203.932457 153.876293 
L 209.149414 153.876293 
L 209.149414 145.025561 
L 209.834386 145.025561 
L 209.834386 142.075317 
L 220.290266 142.075317 
L 220.290266 139.125073 
L 223.632584 139.125073 
L 223.632584 136.174829 
L 231.71331 136.174829 
L 231.71331 133.224585 
L 234.147779 133.224585 
L 234.147779 130.274341 
L 234.481984 130.274341 
L 234.481984 127.324098 
L 234.81299 127.324098 
L 234.81299 124.373854 
L 236.735149 124.373854 
L 236.735149 121.42361 
L 238.850477 121.42361 
L 238.850477 118.473366 
L 241.119484 118.473366 
L 241.119484 115.523122 
L 242.728609 115.523122 
L 242.728609 112.572878 
L 248.284558 112.572878 
L 248.284558 109.622634 
L 249.382744 109.622634 
L 249.382744 106.67239 
L 249.598258 106.67239 
L 249.598258 103.722146 
L 250.656137 103.722146 
L 250.656137 100.771902 
L 252.482424 100.771902 
L 252.482424 97.821659 
L 253.456853 97.821659 
L 253.456853 91.921171 
L 256.225527 91.921171 
L 256.225527 88.970927 
L 259.923116 88.970927 
L 259.923116 86.020683 
L 261.63353 86.020683 
L 261.63353 83.070439 
L 262.235109 83.070439 
L 262.235109 80.120195 
L 274.632065 80.120195 
L 274.632065 77.169951 
L 275.759541 77.169951 
L 275.759541 74.219707 
L 281.163563 74.219707 
L 281.163563 71.269463 
L 285.685229 71.269463 
L 285.685229 68.31922 
L 286.507948 68.31922 
L 286.507948 65.368976 
L 292.092495 65.368976 
L 292.092495 62.418732 
L 302.168958 62.418732 
L 302.168958 59.468488 
L 302.309663 59.468488 
L 302.309663 56.518244 
L 328.550139 56.518244 
L 328.68141 56.518244 
L 330.819494 56.518244 
L 330.819494 53.568 
L 345.096771 53.568 
L 345.123932 53.568 
L 362.991 53.568 
L 363.02338 53.568 
L 398.469854 53.568 
L 398.478565 53.568 
L 398.487273 53.568 
" style="fill:none;stroke:#d2691e;stroke-linecap:square;stroke-width:1.5;"/>
   </g>
   <g id="line2d_52">
    <path clip-path="url(#p23162ac03d)" d="M -1 274.836293 
L 73.832727 274.836293 
L 73.832727 260.085073 
L 97.808655 260.085073 
L 97.808655 239.433366 
L 111.833673 239.433366 
L 111.833673 221.731902 
L 129.503107 221.731902 
L 129.503107 212.881171 
L 141.141665 212.881171 
L 141.141665 209.930927 
L 149.834619 209.930927 
L 149.834619 201.080195 
L 167.504053 201.080195 
L 167.504053 198.129951 
L 169.736437 198.129951 
L 169.736437 195.179707 
L 175.680729 195.179707 
L 175.680729 186.328976 
L 180.751736 186.328976 
L 180.751736 177.478244 
L 185.173486 177.478244 
L 185.173486 174.528 
L 186.530129 174.528 
L 186.530129 171.577756 
L 190.307327 171.577756 
L 190.307327 168.627512 
L 196.812045 168.627512 
L 196.812045 162.727024 
L 197.786474 162.727024 
L 197.786474 159.77678 
L 203.118538 159.77678 
L 203.118538 156.826537 
L 205.504999 156.826537 
L 205.504999 150.926049 
L 209.834386 150.926049 
L 209.834386 147.975805 
L 216.027655 147.975805 
L 216.027655 145.025561 
L 223.174432 145.025561 
L 223.174432 142.075317 
L 236.422116 142.075317 
L 236.422116 139.125073 
L 239.431835 139.125073 
L 239.431835 136.174829 
L 242.989667 136.174829 
L 242.989667 133.224585 
L 253.456853 133.224585 
L 253.456853 127.324098 
L 257.955385 127.324098 
L 257.955385 124.373854 
L 260.082151 124.373854 
L 260.082151 121.42361 
L 269.953634 121.42361 
L 269.953634 118.473366 
L 271.584439 118.473366 
L 271.584439 115.523122 
L 275.149114 115.523122 
L 275.149114 112.572878 
L 279.028801 112.572878 
L 279.028801 109.622634 
L 281.762168 109.622634 
L 281.762168 106.67239 
L 292.591998 106.67239 
L 292.591998 103.722146 
L 305.780459 103.722146 
L 305.780459 100.771902 
L 310.557707 100.771902 
L 310.77826 100.771902 
L 324.311236 100.771902 
L 324.311236 97.821659 
L 331.308694 97.821659 
L 331.308694 94.871415 
L 334.863939 94.871415 
L 334.863939 91.921171 
L 347.140987 91.921171 
L 347.140987 88.970927 
L 347.179385 88.970927 
L 347.179385 86.020683 
L 351.962538 86.020683 
L 351.962538 83.070439 
L 356.527031 83.070439 
L 356.527031 80.120195 
L 359.821143 80.120195 
L 359.821143 77.169951 
L 369.778709 77.169951 
L 369.778709 74.219707 
L 370.587829 74.219707 
L 370.587829 71.269463 
L 372.145196 71.269463 
L 372.145196 68.31922 
L 373.43244 68.31922 
L 373.444415 68.31922 
L 377.078053 68.31922 
L 377.078053 65.368976 
L 377.665877 65.368976 
L 377.665877 62.418732 
L 381.241872 62.418732 
L 381.26098 62.418732 
L 389.030089 62.418732 
L 389.030089 59.468488 
L 396.983576 59.468488 
L 396.983576 56.518244 
L 398.134296 56.518244 
L 398.134296 53.568 
L 398.487273 53.568 
" style="fill:none;stroke:#ffff00;stroke-linecap:square;stroke-width:1.5;"/>
   </g>
   <g id="line2d_53">
    <path clip-path="url(#p23162ac03d)" d="M -1 283.687024 
L 73.832727 283.687024 
L 73.832727 251.234341 
L 111.833673 251.234341 
L 111.833673 242.38361 
L 129.503107 242.38361 
L 129.503107 230.582634 
L 135.809601 230.582634 
L 135.809601 227.63239 
L 141.141665 227.63239 
L 141.141665 224.682146 
L 149.834619 224.682146 
L 149.834619 218.781659 
L 153.479034 218.781659 
L 153.479034 215.831415 
L 156.775809 215.831415 
L 156.775809 209.930927 
L 165.117593 209.930927 
L 165.117593 206.980683 
L 169.736437 206.980683 
L 169.736437 204.030439 
L 179.142611 204.030439 
L 179.142611 201.080195 
L 180.751736 201.080195 
L 180.751736 198.129951 
L 182.28932 198.129951 
L 182.28932 195.179707 
L 183.761455 195.179707 
L 183.761455 186.328976 
L 185.173486 186.328976 
L 185.173486 180.428488 
L 187.835565 180.428488 
L 187.835565 177.478244 
L 193.712364 177.478244 
L 193.712364 174.528 
L 197.786474 174.528 
L 197.786474 171.577756 
L 198.734203 171.577756 
L 198.734203 168.627512 
L 204.727664 168.627512 
L 204.727664 165.677268 
L 209.149414 165.677268 
L 209.149414 162.727024 
L 211.811492 162.727024 
L 211.811492 159.77678 
L 213.069447 159.77678 
L 213.069447 150.926049 
L 222.71013 150.926049 
L 222.71013 147.975805 
L 226.68021 147.975805 
L 226.68021 145.025561 
L 227.908385 145.025561 
L 227.908385 142.075317 
L 232.071759 142.075317 
L 232.071759 139.125073 
L 243.761222 139.125073 
L 245.497283 139.125073 
L 247.835331 139.125073 
L 247.835331 136.174829 
L 252.482424 136.174829 
L 252.482424 133.224585 
L 253.264151 133.224585 
L 253.264151 130.274341 
L 254.404583 130.274341 
L 254.404583 127.324098 
L 257.955385 127.324098 
L 257.955385 118.473366 
L 260.240458 118.473366 
L 260.240458 115.523122 
L 260.711076 115.523122 
L 260.711076 112.572878 
L 282.433838 112.572878 
L 282.433838 106.67239 
L 288.44808 106.67239 
L 288.44808 103.722146 
L 290.549193 103.722146 
L 290.549193 100.771902 
L 290.876442 100.771902 
L 290.876442 97.821659 
L 297.28051 97.821659 
L 297.28051 94.871415 
L 297.603783 94.871415 
L 297.603783 91.921171 
L 318.962649 91.921171 
L 318.962649 88.970927 
L 326.796666 88.970927 
L 326.796666 86.020683 
L 330.302444 86.020683 
L 330.427243 86.020683 
L 335.676158 86.020683 
L 335.676158 83.070439 
L 344.313568 83.070439 
L 344.313568 80.120195 
L 348.828027 80.120195 
L 348.828027 77.169951 
L 361.896732 77.169951 
L 361.896732 74.219707 
L 362.722702 74.219707 
L 362.722702 71.269463 
L 364.035996 71.269463 
L 364.035996 68.31922 
L 369.605225 68.31922 
L 369.6186 68.31922 
L 375.58576 68.31922 
L 375.58576 65.368976 
L 377.373214 65.368976 
L 377.373214 62.418732 
L 383.088658 62.418732 
L 383.106773 62.418732 
L 394.638447 62.418732 
L 394.638447 59.468488 
L 394.916305 59.468488 
L 394.916305 56.518244 
L 397.300405 56.518244 
L 397.300405 53.568 
L 398.487273 53.568 
" style="fill:none;stroke:#008000;stroke-linecap:square;stroke-width:1.5;"/>
   </g>
   <g id="line2d_54">
    <path clip-path="url(#p23162ac03d)" d="M -1 254.184585 
L 73.832727 254.184585 
L 73.832727 248.284098 
L 111.833673 248.284098 
L 111.833673 245.333854 
L 121.784582 245.333854 
L 121.784582 242.38361 
L 135.809601 242.38361 
L 135.809601 236.483122 
L 145.76051 236.483122 
L 145.76051 221.731902 
L 149.834619 221.731902 
L 149.834619 215.831415 
L 165.117593 215.831415 
L 165.117593 212.881171 
L 167.504053 212.881171 
L 167.504053 209.930927 
L 173.810546 209.930927 
L 173.810546 206.980683 
L 175.680729 206.980683 
L 175.680729 204.030439 
L 177.454962 204.030439 
L 177.454962 201.080195 
L 185.173486 201.080195 
L 185.173486 198.129951 
L 190.307327 198.129951 
L 190.307327 195.179707 
L 196.812045 195.179707 
L 196.812045 180.428488 
L 201.430889 180.428488 
L 201.430889 177.478244 
L 221.762401 177.478244 
L 221.762401 174.528 
L 222.239512 174.528 
L 222.239512 171.577756 
L 244.763899 171.577756 
L 244.763899 168.627512 
L 249.598258 168.627512 
L 249.598258 165.677268 
L 250.0253 165.677268 
L 250.0253 162.727024 
L 258.62381 162.727024 
L 258.62381 159.77678 
L 259.279564 159.77678 
L 259.279564 156.826537 
L 259.923116 156.826537 
L 259.923116 153.876293 
L 260.711076 153.876293 
L 260.711076 150.926049 
L 264.681156 150.926049 
L 264.681156 147.975805 
L 265.640147 147.975805 
L 265.640147 145.025561 
L 268.491869 145.025561 
L 268.491869 142.075317 
L 272.371886 142.075317 
L 272.371886 139.125073 
L 278.38051 139.125073 
L 278.38051 133.224585 
L 279.39387 133.224585 
L 279.39387 130.274341 
L 282.183488 130.274341 
L 282.183488 127.324098 
L 288.795721 127.324098 
L 288.795721 124.373854 
L 291.071315 124.373854 
L 291.071315 121.42361 
L 300.77846 121.42361 
L 300.77846 118.473366 
L 303.954937 118.473366 
L 303.954937 115.523122 
L 306.075561 115.523122 
L 306.075561 112.572878 
L 307.63504 112.572878 
L 307.63504 109.622634 
L 309.165645 109.622634 
L 309.165645 106.67239 
L 316.131256 106.67239 
L 316.131256 103.722146 
L 320.379307 103.722146 
L 320.379307 100.771902 
L 326.704303 100.771902 
L 326.704303 97.821659 
L 326.957711 97.821659 
L 327.003586 97.821659 
L 327.391089 97.821659 
L 327.391089 94.871415 
L 327.819104 94.871415 
L 327.819104 91.921171 
L 328.131129 91.921171 
L 328.131129 88.970927 
L 328.197627 88.970927 
L 328.197627 86.020683 
L 341.836659 86.020683 
L 341.836659 83.070439 
L 345.809436 83.070439 
L 345.809436 80.120195 
L 346.127385 80.120195 
L 346.127385 77.169951 
L 346.767595 77.169951 
L 346.84518 77.169951 
L 349.766525 77.169951 
L 349.766525 74.219707 
L 349.813974 74.219707 
L 349.813974 71.269463 
L 360.112819 71.269463 
L 360.112819 68.31922 
L 362.43585 68.31922 
L 362.43585 65.368976 
L 372.207296 65.368976 
L 372.207296 62.418732 
L 375.115527 62.418732 
L 375.138336 62.418732 
L 382.179914 62.418732 
L 382.179914 59.468488 
L 383.228799 59.468488 
L 383.228799 56.518244 
L 385.705072 56.518244 
L 386.010311 56.518244 
L 386.159853 56.518244 
L 386.159853 53.568 
L 398.487273 53.568 
" style="fill:none;stroke:#ffc0cb;stroke-linecap:square;stroke-width:1.5;"/>
   </g>
   <g id="line2d_55">
    <path clip-path="url(#p23162ac03d)" d="M -1 265.985561 
L 97.808655 265.985561 
L 97.808655 227.63239 
L 111.833673 227.63239 
L 111.833673 206.980683 
L 141.141665 206.980683 
L 141.141665 195.179707 
L 149.834619 195.179707 
L 149.834619 192.229463 
L 153.479034 192.229463 
L 153.479034 186.328976 
L 162.554201 186.328976 
L 162.554201 183.378732 
L 171.83344 183.378732 
L 171.83344 180.428488 
L 173.810546 180.428488 
L 173.810546 177.478244 
L 175.680729 177.478244 
L 175.680729 171.577756 
L 185.173486 171.577756 
L 185.173486 168.627512 
L 202.285005 168.627512 
L 202.285005 165.677268 
L 203.118538 165.677268 
L 203.118538 156.826537 
L 203.932457 156.826537 
L 203.932457 153.876293 
L 209.149414 153.876293 
L 209.149414 145.025561 
L 209.834386 145.025561 
L 209.834386 142.075317 
L 220.290266 142.075317 
L 220.290266 139.125073 
L 223.632584 139.125073 
L 223.632584 136.174829 
L 231.71331 136.174829 
L 231.71331 133.224585 
L 234.147779 133.224585 
L 234.147779 130.274341 
L 234.481984 130.274341 
L 234.481984 127.324098 
L 234.81299 127.324098 
L 234.81299 124.373854 
L 236.735149 124.373854 
L 236.735149 121.42361 
L 238.850477 121.42361 
L 238.850477 118.473366 
L 241.119484 118.473366 
L 241.119484 115.523122 
L 242.728609 115.523122 
L 242.728609 112.572878 
L 248.284558 112.572878 
L 248.284558 109.622634 
L 249.382744 109.622634 
L 249.382744 106.67239 
L 249.598258 106.67239 
L 249.598258 103.722146 
L 250.656137 103.722146 
L 250.656137 100.771902 
L 252.482424 100.771902 
L 252.482424 97.821659 
L 253.456853 97.821659 
L 253.456853 91.921171 
L 256.225527 91.921171 
L 256.225527 88.970927 
L 259.923116 88.970927 
L 259.923116 86.020683 
L 261.63353 86.020683 
L 261.63353 83.070439 
L 262.235109 83.070439 
L 262.235109 80.120195 
L 274.632065 80.120195 
L 274.632065 77.169951 
L 275.759541 77.169951 
L 275.759541 74.219707 
L 281.163563 74.219707 
L 281.163563 71.269463 
L 285.685229 71.269463 
L 285.685229 68.31922 
L 286.507948 68.31922 
L 286.507948 65.368976 
L 292.092495 65.368976 
L 292.092495 62.418732 
L 302.168958 62.418732 
L 302.168958 59.468488 
L 302.309663 59.468488 
L 302.309663 56.518244 
L 328.550139 56.518244 
L 328.68141 56.518244 
L 330.819494 56.518244 
L 330.819494 53.568 
L 345.096771 53.568 
L 345.123932 53.568 
L 362.991 53.568 
L 363.02338 53.568 
L 398.487273 53.568 
" style="fill:none;stroke:#ee82ee;stroke-linecap:square;stroke-width:1.5;"/>
   </g>
   <g id="patch_3">
    <path d="M 57.6 307.584 
L 57.6 41.472 
" style="fill:none;stroke:#000000;stroke-linecap:square;stroke-linejoin:miter;stroke-width:0.8;"/>
   </g>
   <g id="patch_4">
    <path d="M 414.72 307.584 
L 414.72 41.472 
" style="fill:none;stroke:#000000;stroke-linecap:square;stroke-linejoin:miter;stroke-width:0.8;"/>
   </g>
   <g id="patch_5">
    <path d="M 57.6 307.584 
L 414.72 307.584 
" style="fill:none;stroke:#000000;stroke-linecap:square;stroke-linejoin:miter;stroke-width:0.8;"/>
   </g>
   <g id="patch_6">
    <path d="M 57.6 41.472 
L 414.72 41.472 
" style="fill:none;stroke:#000000;stroke-linecap:square;stroke-linejoin:miter;stroke-width:0.8;"/>
   </g>
   <g id="legend_1">
    <g id="line2d_56">
     <path d="M 65.7 52.722 
L 83.7 52.722 
" style="fill:none;stroke:#ff0000;stroke-linecap:square;stroke-width:1.5;"/>
    </g>
    <g id="line2d_57"/>
    <g id="text_14">
     <!-- rbf_c=4.00_gamma=0.00 -->
     <defs>
      <path d="M 22.3125 45.65625 
L 22.3125 35.296875 
Q 26.859375 42.390625 30.265625 44.703125 
Q 33.6875 47.015625 36.859375 47.015625 
Q 39.59375 47.015625 41.234375 45.328125 
Q 42.875 43.65625 42.875 40.578125 
Q 42.875 37.3125 41.28125 35.5 
Q 39.703125 33.6875 37.453125 33.6875 
Q 34.859375 33.6875 32.953125 35.34375 
Q 31.0625 37.015625 30.71875 37.203125 
Q 30.21875 37.5 29.59375 37.5 
Q 28.171875 37.5 26.90625 36.421875 
Q 24.90625 34.765625 23.875 31.6875 
Q 22.3125 26.953125 22.3125 21.234375 
L 22.3125 10.75 
L 22.359375 8.015625 
Q 22.359375 5.21875 22.703125 4.4375 
Q 23.296875 3.125 24.4375 2.515625 
Q 25.59375 1.90625 28.328125 1.765625 
L 28.328125 0 
L 3.65625 0 
L 3.65625 1.765625 
Q 6.640625 2 7.6875 3.390625 
Q 8.734375 4.78125 8.734375 10.75 
L 8.734375 35.984375 
Q 8.734375 39.890625 8.34375 40.96875 
Q 7.859375 42.328125 6.921875 42.96875 
Q 6 43.609375 3.65625 43.84375 
L 3.65625 45.65625 
z
" id="TimesNewRomanPS-BoldMT-114"/>
      <path d="M 21.046875 66.21875 
L 21.046875 41.0625 
Q 26.8125 47.015625 33.640625 47.015625 
Q 38.328125 47.015625 42.46875 44.25 
Q 46.625 41.5 48.96875 36.421875 
Q 51.3125 31.34375 51.3125 24.703125 
Q 51.3125 17.234375 48.328125 11.125 
Q 45.359375 5.03125 40.375 1.828125 
Q 35.40625 -1.375 29 -1.375 
Q 25.296875 -1.375 22.40625 -0.1875 
Q 19.53125 0.984375 16.75 3.609375 
L 9.1875 -1.3125 
L 7.515625 -1.3125 
L 7.515625 56.734375 
Q 7.515625 60.6875 7.171875 61.625 
Q 6.6875 62.984375 5.640625 63.640625 
Q 4.59375 64.3125 2.09375 64.40625 
L 2.09375 66.21875 
z
M 21.046875 36.71875 
L 21.046875 16.40625 
Q 21.046875 10.203125 21.34375 8.5 
Q 21.828125 5.609375 23.671875 3.828125 
Q 25.53125 2.046875 28.421875 2.046875 
Q 30.90625 2.046875 32.6875 3.46875 
Q 34.46875 4.890625 35.65625 9.078125 
Q 36.859375 13.28125 36.859375 24.21875 
Q 36.859375 34.71875 34.234375 38.625 
Q 32.328125 41.453125 29.109375 41.453125 
Q 24.90625 41.453125 21.046875 36.71875 
z
" id="TimesNewRomanPS-BoldMT-98"/>
      <path d="M 23.390625 40.875 
L 23.390625 9.1875 
Q 23.390625 4.59375 24.359375 3.421875 
Q 25.921875 1.609375 30.125 1.765625 
L 30.125 0 
L 3.21875 0 
L 3.21875 1.765625 
Q 6.296875 1.8125 7.59375 2.46875 
Q 8.890625 3.125 9.375 4.296875 
Q 9.859375 5.46875 9.859375 9.1875 
L 9.859375 40.875 
L 3.21875 40.875 
L 3.21875 45.65625 
L 9.859375 45.65625 
L 9.859375 49.03125 
L 9.8125 51.3125 
Q 9.8125 58.34375 14.96875 63.03125 
Q 20.125 67.71875 28.90625 67.71875 
Q 34.90625 67.71875 37.8125 65.46875 
Q 40.71875 63.234375 40.71875 60.5 
Q 40.71875 58.296875 38.90625 56.6875 
Q 37.109375 55.078125 34.125 55.078125 
Q 31.59375 55.078125 30.09375 56.390625 
Q 28.609375 57.71875 28.609375 59.328125 
Q 28.609375 59.765625 28.90625 61.140625 
Q 29.109375 61.96875 29.109375 62.703125 
Q 29.109375 63.71875 28.515625 64.203125 
Q 27.734375 64.9375 26.609375 64.9375 
Q 25.203125 64.9375 24.25 63.765625 
Q 23.296875 62.59375 23.296875 60.015625 
L 23.390625 51.46875 
L 23.390625 45.65625 
L 30.125 45.65625 
L 30.125 40.875 
z
" id="TimesNewRomanPS-BoldMT-102"/>
      <path d="M -0.921875 -15.1875 
L 50.921875 -15.1875 
L 50.921875 -21.578125 
L -0.921875 -21.578125 
z
" id="TimesNewRomanPS-BoldMT-95"/>
      <path d="M 40.625 11.765625 
L 42.140625 10.59375 
Q 38.921875 4.546875 34.109375 1.578125 
Q 29.296875 -1.375 23.875 -1.375 
Q 14.75 -1.375 9.28125 5.515625 
Q 3.8125 12.40625 3.8125 22.078125 
Q 3.8125 31.390625 8.796875 38.484375 
Q 14.796875 47.015625 25.34375 47.015625 
Q 32.421875 47.015625 36.59375 43.453125 
Q 40.765625 39.890625 40.765625 35.5 
Q 40.765625 32.71875 39.078125 31.046875 
Q 37.40625 29.390625 34.671875 29.390625 
Q 31.78125 29.390625 29.90625 31.296875 
Q 28.03125 33.203125 27.59375 38.09375 
Q 27.296875 41.15625 26.171875 42.390625 
Q 25.046875 43.609375 23.53125 43.609375 
Q 21.1875 43.609375 19.53125 41.109375 
Q 17 37.359375 17 29.59375 
Q 17 23.140625 19.046875 17.25 
Q 21.09375 11.375 24.65625 8.5 
Q 27.34375 6.390625 31 6.390625 
Q 33.40625 6.390625 35.546875 7.515625 
Q 37.703125 8.640625 40.625 11.765625 
z
" id="TimesNewRomanPS-BoldMT-99"/>
      <path d="M 1.953125 44.140625 
L 55.375 44.140625 
L 55.375 37.796875 
L 1.953125 37.796875 
z
M 1.953125 28.171875 
L 55.375 28.171875 
L 55.375 21.828125 
L 1.953125 21.828125 
z
" id="TimesNewRomanPS-BoldMT-61"/>
      <path d="M 2.484375 24.953125 
L 33.9375 67.578125 
L 39.890625 67.578125 
L 39.890625 24.953125 
L 45.953125 24.953125 
L 45.953125 14.84375 
L 39.890625 14.84375 
L 39.890625 0 
L 26.46875 0 
L 26.46875 14.84375 
L 2.484375 14.84375 
z
M 7.234375 24.953125 
L 26.46875 24.953125 
L 26.46875 51.078125 
z
" id="TimesNewRomanPS-BoldMT-52"/>
      <path d="M 12.5 15.046875 
Q 15.921875 15.046875 18.28125 12.640625 
Q 20.65625 10.25 20.65625 6.890625 
Q 20.65625 3.515625 18.265625 1.140625 
Q 15.875 -1.21875 12.5 -1.21875 
Q 9.125 -1.21875 6.75 1.140625 
Q 4.390625 3.515625 4.390625 6.890625 
Q 4.390625 10.25 6.75 12.640625 
Q 9.125 15.046875 12.5 15.046875 
z
" id="TimesNewRomanPS-BoldMT-46"/>
      <path d="M 46.34375 33.109375 
Q 46.34375 23.1875 43.5625 14.59375 
Q 41.890625 9.328125 39.078125 5.953125 
Q 36.28125 2.59375 32.71875 0.609375 
Q 29.15625 -1.375 24.953125 -1.375 
Q 20.171875 -1.375 16.3125 1.0625 
Q 12.453125 3.515625 9.46875 8.0625 
Q 7.328125 11.375 5.71875 16.890625 
Q 3.609375 24.359375 3.609375 32.328125 
Q 3.609375 43.109375 6.640625 52.15625 
Q 9.125 59.625 14.203125 63.59375 
Q 19.28125 67.578125 24.953125 67.578125 
Q 30.71875 67.578125 35.71875 63.640625 
Q 40.71875 59.71875 43.0625 53.078125 
Q 46.34375 43.953125 46.34375 33.109375 
z
M 31.296875 33.203125 
Q 31.296875 50.59375 31.109375 53.46875 
Q 30.609375 60.25 28.765625 62.640625 
Q 27.546875 64.203125 24.8125 64.203125 
Q 22.703125 64.203125 21.484375 63.03125 
Q 19.671875 61.328125 19.03125 57 
Q 18.40625 52.6875 18.40625 26.859375 
Q 18.40625 12.796875 19.390625 8.015625 
Q 20.125 4.546875 21.484375 3.375 
Q 22.859375 2.203125 25.09375 2.203125 
Q 27.546875 2.203125 28.765625 3.765625 
Q 30.8125 6.5 31.109375 12.203125 
z
" id="TimesNewRomanPS-BoldMT-48"/>
      <path d="M 32.671875 45.125 
L 48.046875 45.125 
L 48.046875 39.75 
L 39.3125 39.75 
Q 41.703125 37.359375 42.625 35.40625 
Q 43.796875 32.765625 43.796875 29.890625 
Q 43.796875 25 41.078125 21.40625 
Q 38.375 17.828125 33.703125 15.796875 
Q 29.046875 13.765625 25.4375 13.765625 
Q 25.140625 13.765625 19.578125 14.015625 
Q 17.390625 14.015625 15.890625 12.578125 
Q 14.40625 11.140625 14.40625 9.125 
Q 14.40625 7.375 15.75 6.25 
Q 17.09375 5.125 20.125 5.125 
L 28.5625 5.21875 
Q 38.8125 5.21875 42.671875 2.984375 
Q 48.1875 -0.140625 48.1875 -6.640625 
Q 48.1875 -10.796875 45.640625 -14.1875 
Q 43.109375 -17.578125 38.96875 -19.1875 
Q 32.671875 -21.578125 24.46875 -21.578125 
Q 18.3125 -21.578125 13.234375 -20.375 
Q 8.15625 -19.1875 5.953125 -17.0625 
Q 3.765625 -14.9375 3.765625 -12.59375 
Q 3.765625 -10.359375 5.4375 -8.5625 
Q 7.125 -6.78125 11.71875 -5.5625 
Q 5.375 -2.4375 5.375 3.125 
Q 5.375 6.5 7.953125 9.671875 
Q 10.546875 12.84375 16.15625 15.1875 
Q 9.625 17.578125 6.6875 21.484375 
Q 3.765625 25.390625 3.765625 30.515625 
Q 3.765625 37.203125 9.234375 42.109375 
Q 14.703125 47.015625 23.296875 47.015625 
Q 27.828125 47.015625 32.671875 45.125 
z
M 24.21875 44 
Q 21.390625 44 19.4375 41.140625 
Q 17.484375 38.28125 17.484375 29.296875 
Q 17.484375 22.015625 19.40625 19.3125 
Q 21.34375 16.609375 23.96875 16.609375 
Q 26.90625 16.609375 28.859375 19.28125 
Q 30.8125 21.96875 30.8125 29.734375 
Q 30.8125 38.484375 28.609375 41.65625 
Q 27.046875 44 24.21875 44 
z
M 21.34375 -6.734375 
Q 16.359375 -6.734375 14.75 -7.5625 
Q 11.96875 -9.078125 11.96875 -11.671875 
Q 11.96875 -14.15625 14.84375 -16.1875 
Q 17.71875 -18.21875 25.6875 -18.21875 
Q 32.46875 -18.21875 36.34375 -16.40625 
Q 40.234375 -14.59375 40.234375 -11.328125 
Q 40.234375 -10.109375 39.5 -9.28125 
Q 38.1875 -7.8125 35.515625 -7.265625 
Q 32.859375 -6.734375 21.34375 -6.734375 
z
" id="TimesNewRomanPS-BoldMT-103"/>
      <path d="M 28.5625 6.734375 
Q 20.21875 -0.640625 13.578125 -0.640625 
Q 9.671875 -0.640625 7.078125 1.921875 
Q 4.5 4.5 4.5 8.34375 
Q 4.5 13.578125 8.984375 17.75 
Q 13.484375 21.921875 28.5625 28.859375 
L 28.5625 33.453125 
Q 28.5625 38.625 28 39.96875 
Q 27.4375 41.3125 25.875 42.3125 
Q 24.3125 43.3125 22.359375 43.3125 
Q 19.1875 43.3125 17.140625 41.890625 
Q 15.875 41.015625 15.875 39.84375 
Q 15.875 38.8125 17.234375 37.3125 
Q 19.09375 35.203125 19.09375 33.25 
Q 19.09375 30.859375 17.3125 29.171875 
Q 15.53125 27.484375 12.640625 27.484375 
Q 9.578125 27.484375 7.5 29.34375 
Q 5.421875 31.203125 5.421875 33.6875 
Q 5.421875 37.203125 8.203125 40.40625 
Q 10.984375 43.609375 15.96875 45.3125 
Q 20.953125 47.015625 26.3125 47.015625 
Q 32.8125 47.015625 36.59375 44.25 
Q 40.375 41.5 41.5 38.28125 
Q 42.1875 36.234375 42.1875 28.859375 
L 42.1875 11.140625 
Q 42.1875 8.015625 42.421875 7.203125 
Q 42.671875 6.390625 43.15625 6 
Q 43.65625 5.609375 44.28125 5.609375 
Q 45.5625 5.609375 46.875 7.421875 
L 48.34375 6.25 
Q 45.90625 2.640625 43.28125 1 
Q 40.671875 -0.640625 37.359375 -0.640625 
Q 33.453125 -0.640625 31.25 1.1875 
Q 29.046875 3.03125 28.5625 6.734375 
z
M 28.5625 10.296875 
L 28.5625 25.59375 
Q 22.65625 22.125 19.78125 18.171875 
Q 17.875 15.53125 17.875 12.84375 
Q 17.875 10.59375 19.484375 8.890625 
Q 20.703125 7.5625 22.90625 7.5625 
Q 25.34375 7.5625 28.5625 10.296875 
z
" id="TimesNewRomanPS-BoldMT-97"/>
      <path d="M 22.3125 45.65625 
L 22.3125 39.65625 
Q 26.078125 43.75 29.265625 45.375 
Q 32.46875 47.015625 36.28125 47.015625 
Q 40.671875 47.015625 43.640625 44.96875 
Q 46.625 42.921875 48.25 38.71875 
Q 52.15625 43.109375 55.734375 45.0625 
Q 59.328125 47.015625 63.234375 47.015625 
Q 67.96875 47.015625 70.765625 44.84375 
Q 73.578125 42.671875 74.671875 39.328125 
Q 75.78125 35.984375 75.78125 28.65625 
L 75.78125 9.96875 
Q 75.78125 4.6875 76.734375 3.421875 
Q 77.6875 2.15625 80.71875 1.765625 
L 80.71875 0 
L 57.125 0 
L 57.125 1.765625 
Q 59.90625 2 61.234375 3.90625 
Q 62.109375 5.21875 62.109375 9.96875 
L 62.109375 29.59375 
Q 62.109375 35.6875 61.625 37.34375 
Q 61.140625 39.015625 60.078125 39.8125 
Q 59.03125 40.625 57.625 40.625 
Q 55.515625 40.625 53.359375 39.078125 
Q 51.21875 37.546875 49.03125 34.46875 
L 49.03125 9.96875 
Q 49.03125 5.03125 49.859375 3.765625 
Q 50.984375 1.953125 54.15625 1.765625 
L 54.15625 0 
L 30.515625 0 
L 30.515625 1.765625 
Q 32.421875 1.859375 33.515625 2.703125 
Q 34.625 3.5625 34.984375 4.75 
Q 35.359375 5.953125 35.359375 9.96875 
L 35.359375 29.59375 
Q 35.359375 35.796875 34.859375 37.359375 
Q 34.375 38.921875 33.21875 39.796875 
Q 32.078125 40.671875 30.765625 40.671875 
Q 28.8125 40.671875 27.203125 39.65625 
Q 24.90625 38.140625 22.3125 34.46875 
L 22.3125 9.96875 
Q 22.3125 5.125 23.265625 3.578125 
Q 24.21875 2.046875 27.25 1.765625 
L 27.25 0 
L 3.71875 0 
L 3.71875 1.765625 
Q 6.59375 2.046875 7.8125 3.609375 
Q 8.640625 4.6875 8.640625 9.96875 
L 8.640625 35.75 
Q 8.640625 40.921875 7.6875 42.1875 
Q 6.734375 43.453125 3.71875 43.84375 
L 3.71875 45.65625 
z
" id="TimesNewRomanPS-BoldMT-109"/>
     </defs>
     <g transform="translate(90.9 55.872)scale(0.09 -0.09)">
      <use xlink:href="#TimesNewRomanPS-BoldMT-114"/>
      <use x="44.384766" xlink:href="#TimesNewRomanPS-BoldMT-98"/>
      <use x="100" xlink:href="#TimesNewRomanPS-BoldMT-102"/>
      <use x="133.300781" xlink:href="#TimesNewRomanPS-BoldMT-95"/>
      <use x="183.300781" xlink:href="#TimesNewRomanPS-BoldMT-99"/>
      <use x="227.685547" xlink:href="#TimesNewRomanPS-BoldMT-61"/>
      <use x="284.667969" xlink:href="#TimesNewRomanPS-BoldMT-52"/>
      <use x="334.667969" xlink:href="#TimesNewRomanPS-BoldMT-46"/>
      <use x="359.667969" xlink:href="#TimesNewRomanPS-BoldMT-48"/>
      <use x="409.667969" xlink:href="#TimesNewRomanPS-BoldMT-48"/>
      <use x="459.667969" xlink:href="#TimesNewRomanPS-BoldMT-95"/>
      <use x="509.667969" xlink:href="#TimesNewRomanPS-BoldMT-103"/>
      <use x="559.667969" xlink:href="#TimesNewRomanPS-BoldMT-97"/>
      <use x="609.667969" xlink:href="#TimesNewRomanPS-BoldMT-109"/>
      <use x="692.96875" xlink:href="#TimesNewRomanPS-BoldMT-109"/>
      <use x="776.269531" xlink:href="#TimesNewRomanPS-BoldMT-97"/>
      <use x="826.269531" xlink:href="#TimesNewRomanPS-BoldMT-61"/>
      <use x="883.251953" xlink:href="#TimesNewRomanPS-BoldMT-48"/>
      <use x="933.251953" xlink:href="#TimesNewRomanPS-BoldMT-46"/>
      <use x="958.251953" xlink:href="#TimesNewRomanPS-BoldMT-48"/>
      <use x="1008.251953" xlink:href="#TimesNewRomanPS-BoldMT-48"/>
     </g>
    </g>
    <g id="line2d_58">
     <path d="M 65.7 65.464031 
L 83.7 65.464031 
" style="fill:none;stroke:#0000ff;stroke-linecap:square;stroke-width:1.5;"/>
    </g>
    <g id="line2d_59"/>
    <g id="text_15">
     <!-- rbf_c=4.00_gamma=0.01 -->
     <defs>
      <path d="M 32.5625 67.578125 
L 32.5625 13.421875 
Q 32.5625 7.328125 33.09375 5.640625 
Q 33.640625 3.953125 35.34375 2.875 
Q 37.0625 1.8125 40.828125 1.8125 
L 42.328125 1.8125 
L 42.328125 0 
L 7.46875 0 
L 7.46875 1.8125 
L 9.234375 1.8125 
Q 13.484375 1.8125 15.28125 2.78125 
Q 17.09375 3.765625 17.71875 5.46875 
Q 18.359375 7.171875 18.359375 13.421875 
L 18.359375 47.75 
Q 18.359375 52.34375 17.921875 53.484375 
Q 17.484375 54.640625 16.28125 55.4375 
Q 15.09375 56.25 13.53125 56.25 
Q 11.03125 56.25 7.46875 54.6875 
L 6.59375 56.453125 
L 30.953125 67.578125 
z
" id="TimesNewRomanPS-BoldMT-49"/>
     </defs>
     <g transform="translate(90.9 68.614031)scale(0.09 -0.09)">
      <use xlink:href="#TimesNewRomanPS-BoldMT-114"/>
      <use x="44.384766" xlink:href="#TimesNewRomanPS-BoldMT-98"/>
      <use x="100" xlink:href="#TimesNewRomanPS-BoldMT-102"/>
      <use x="133.300781" xlink:href="#TimesNewRomanPS-BoldMT-95"/>
      <use x="183.300781" xlink:href="#TimesNewRomanPS-BoldMT-99"/>
      <use x="227.685547" xlink:href="#TimesNewRomanPS-BoldMT-61"/>
      <use x="284.667969" xlink:href="#TimesNewRomanPS-BoldMT-52"/>
      <use x="334.667969" xlink:href="#TimesNewRomanPS-BoldMT-46"/>
      <use x="359.667969" xlink:href="#TimesNewRomanPS-BoldMT-48"/>
      <use x="409.667969" xlink:href="#TimesNewRomanPS-BoldMT-48"/>
      <use x="459.667969" xlink:href="#TimesNewRomanPS-BoldMT-95"/>
      <use x="509.667969" xlink:href="#TimesNewRomanPS-BoldMT-103"/>
      <use x="559.667969" xlink:href="#TimesNewRomanPS-BoldMT-97"/>
      <use x="609.667969" xlink:href="#TimesNewRomanPS-BoldMT-109"/>
      <use x="692.96875" xlink:href="#TimesNewRomanPS-BoldMT-109"/>
      <use x="776.269531" xlink:href="#TimesNewRomanPS-BoldMT-97"/>
      <use x="826.269531" xlink:href="#TimesNewRomanPS-BoldMT-61"/>
      <use x="883.251953" xlink:href="#TimesNewRomanPS-BoldMT-48"/>
      <use x="933.251953" xlink:href="#TimesNewRomanPS-BoldMT-46"/>
      <use x="958.251953" xlink:href="#TimesNewRomanPS-BoldMT-48"/>
      <use x="1008.251953" xlink:href="#TimesNewRomanPS-BoldMT-49"/>
     </g>
    </g>
    <g id="line2d_60">
     <path d="M 65.7 78.206063 
L 83.7 78.206063 
" style="fill:none;stroke:#000000;stroke-linecap:square;stroke-width:1.5;"/>
    </g>
    <g id="line2d_61"/>
    <g id="text_16">
     <!-- rbf_c=4.00_gamma=0.10 -->
     <g transform="translate(90.9 81.356063)scale(0.09 -0.09)">
      <use xlink:href="#TimesNewRomanPS-BoldMT-114"/>
      <use x="44.384766" xlink:href="#TimesNewRomanPS-BoldMT-98"/>
      <use x="100" xlink:href="#TimesNewRomanPS-BoldMT-102"/>
      <use x="133.300781" xlink:href="#TimesNewRomanPS-BoldMT-95"/>
      <use x="183.300781" xlink:href="#TimesNewRomanPS-BoldMT-99"/>
      <use x="227.685547" xlink:href="#TimesNewRomanPS-BoldMT-61"/>
      <use x="284.667969" xlink:href="#TimesNewRomanPS-BoldMT-52"/>
      <use x="334.667969" xlink:href="#TimesNewRomanPS-BoldMT-46"/>
      <use x="359.667969" xlink:href="#TimesNewRomanPS-BoldMT-48"/>
      <use x="409.667969" xlink:href="#TimesNewRomanPS-BoldMT-48"/>
      <use x="459.667969" xlink:href="#TimesNewRomanPS-BoldMT-95"/>
      <use x="509.667969" xlink:href="#TimesNewRomanPS-BoldMT-103"/>
      <use x="559.667969" xlink:href="#TimesNewRomanPS-BoldMT-97"/>
      <use x="609.667969" xlink:href="#TimesNewRomanPS-BoldMT-109"/>
      <use x="692.96875" xlink:href="#TimesNewRomanPS-BoldMT-109"/>
      <use x="776.269531" xlink:href="#TimesNewRomanPS-BoldMT-97"/>
      <use x="826.269531" xlink:href="#TimesNewRomanPS-BoldMT-61"/>
      <use x="883.251953" xlink:href="#TimesNewRomanPS-BoldMT-48"/>
      <use x="933.251953" xlink:href="#TimesNewRomanPS-BoldMT-46"/>
      <use x="958.251953" xlink:href="#TimesNewRomanPS-BoldMT-49"/>
      <use x="1008.251953" xlink:href="#TimesNewRomanPS-BoldMT-48"/>
     </g>
    </g>
    <g id="line2d_62">
     <path d="M 65.7 90.948094 
L 83.7 90.948094 
" style="fill:none;stroke:#d2691e;stroke-linecap:square;stroke-width:1.5;"/>
    </g>
    <g id="line2d_63"/>
    <g id="text_17">
     <!-- rbf_c=4.00_gamma=1.00 -->
     <g transform="translate(90.9 94.098094)scale(0.09 -0.09)">
      <use xlink:href="#TimesNewRomanPS-BoldMT-114"/>
      <use x="44.384766" xlink:href="#TimesNewRomanPS-BoldMT-98"/>
      <use x="100" xlink:href="#TimesNewRomanPS-BoldMT-102"/>
      <use x="133.300781" xlink:href="#TimesNewRomanPS-BoldMT-95"/>
      <use x="183.300781" xlink:href="#TimesNewRomanPS-BoldMT-99"/>
      <use x="227.685547" xlink:href="#TimesNewRomanPS-BoldMT-61"/>
      <use x="284.667969" xlink:href="#TimesNewRomanPS-BoldMT-52"/>
      <use x="334.667969" xlink:href="#TimesNewRomanPS-BoldMT-46"/>
      <use x="359.667969" xlink:href="#TimesNewRomanPS-BoldMT-48"/>
      <use x="409.667969" xlink:href="#TimesNewRomanPS-BoldMT-48"/>
      <use x="459.667969" xlink:href="#TimesNewRomanPS-BoldMT-95"/>
      <use x="509.667969" xlink:href="#TimesNewRomanPS-BoldMT-103"/>
      <use x="559.667969" xlink:href="#TimesNewRomanPS-BoldMT-97"/>
      <use x="609.667969" xlink:href="#TimesNewRomanPS-BoldMT-109"/>
      <use x="692.96875" xlink:href="#TimesNewRomanPS-BoldMT-109"/>
      <use x="776.269531" xlink:href="#TimesNewRomanPS-BoldMT-97"/>
      <use x="826.269531" xlink:href="#TimesNewRomanPS-BoldMT-61"/>
      <use x="883.251953" xlink:href="#TimesNewRomanPS-BoldMT-49"/>
      <use x="933.251953" xlink:href="#TimesNewRomanPS-BoldMT-46"/>
      <use x="958.251953" xlink:href="#TimesNewRomanPS-BoldMT-48"/>
      <use x="1008.251953" xlink:href="#TimesNewRomanPS-BoldMT-48"/>
     </g>
    </g>
    <g id="line2d_64">
     <path d="M 65.7 103.690125 
L 83.7 103.690125 
" style="fill:none;stroke:#ffff00;stroke-linecap:square;stroke-width:1.5;"/>
    </g>
    <g id="line2d_65"/>
    <g id="text_18">
     <!-- rbf_c=16.00_gamma=0.00 -->
     <defs>
      <path d="M 46.96875 67.578125 
L 46.96875 66.21875 
Q 38.140625 63.96875 32.78125 60.421875 
Q 27.4375 56.890625 24.328125 51.828125 
Q 21.234375 46.78125 19.53125 39.3125 
Q 21.6875 40.765625 23.09375 41.21875 
Q 26.265625 42.1875 29.5 42.1875 
Q 36.921875 42.1875 41.875 36.78125 
Q 46.828125 31.390625 46.828125 22.078125 
Q 46.828125 15.53125 44.140625 10.0625 
Q 41.453125 4.59375 36.515625 1.609375 
Q 31.59375 -1.375 25.984375 -1.375 
Q 19.875 -1.375 14.6875 1.96875 
Q 9.515625 5.328125 6.609375 11.765625 
Q 3.71875 18.21875 3.71875 25.78125 
Q 3.71875 36.921875 9.0625 46.515625 
Q 14.40625 56.109375 24.234375 61.796875 
Q 34.078125 67.484375 46.96875 67.578125 
z
M 18.890625 35.359375 
Q 18.5 28.609375 18.5 25.484375 
Q 18.5 18.75 19.796875 12.453125 
Q 21.09375 6.15625 23.34375 3.609375 
Q 24.953125 1.8125 27.15625 1.8125 
Q 29.390625 1.8125 31.140625 4.421875 
Q 32.90625 7.03125 32.90625 15.046875 
Q 32.90625 28.515625 29.640625 33.640625 
Q 27.546875 36.96875 23.96875 36.96875 
Q 22.015625 36.96875 18.890625 35.359375 
z
" id="TimesNewRomanPS-BoldMT-54"/>
     </defs>
     <g transform="translate(90.9 106.840125)scale(0.09 -0.09)">
      <use xlink:href="#TimesNewRomanPS-BoldMT-114"/>
      <use x="44.384766" xlink:href="#TimesNewRomanPS-BoldMT-98"/>
      <use x="100" xlink:href="#TimesNewRomanPS-BoldMT-102"/>
      <use x="133.300781" xlink:href="#TimesNewRomanPS-BoldMT-95"/>
      <use x="183.300781" xlink:href="#TimesNewRomanPS-BoldMT-99"/>
      <use x="227.685547" xlink:href="#TimesNewRomanPS-BoldMT-61"/>
      <use x="284.667969" xlink:href="#TimesNewRomanPS-BoldMT-49"/>
      <use x="334.667969" xlink:href="#TimesNewRomanPS-BoldMT-54"/>
      <use x="384.667969" xlink:href="#TimesNewRomanPS-BoldMT-46"/>
      <use x="409.667969" xlink:href="#TimesNewRomanPS-BoldMT-48"/>
      <use x="459.667969" xlink:href="#TimesNewRomanPS-BoldMT-48"/>
      <use x="509.667969" xlink:href="#TimesNewRomanPS-BoldMT-95"/>
      <use x="559.667969" xlink:href="#TimesNewRomanPS-BoldMT-103"/>
      <use x="609.667969" xlink:href="#TimesNewRomanPS-BoldMT-97"/>
      <use x="659.667969" xlink:href="#TimesNewRomanPS-BoldMT-109"/>
      <use x="742.96875" xlink:href="#TimesNewRomanPS-BoldMT-109"/>
      <use x="826.269531" xlink:href="#TimesNewRomanPS-BoldMT-97"/>
      <use x="876.269531" xlink:href="#TimesNewRomanPS-BoldMT-61"/>
      <use x="933.251953" xlink:href="#TimesNewRomanPS-BoldMT-48"/>
      <use x="983.251953" xlink:href="#TimesNewRomanPS-BoldMT-46"/>
      <use x="1008.251953" xlink:href="#TimesNewRomanPS-BoldMT-48"/>
      <use x="1058.251953" xlink:href="#TimesNewRomanPS-BoldMT-48"/>
     </g>
    </g>
    <g id="line2d_66">
     <path d="M 65.7 116.432156 
L 83.7 116.432156 
" style="fill:none;stroke:#008000;stroke-linecap:square;stroke-width:1.5;"/>
    </g>
    <g id="line2d_67"/>
    <g id="text_19">
     <!-- rbf_c=16.00_gamma=0.01 -->
     <g transform="translate(90.9 119.582156)scale(0.09 -0.09)">
      <use xlink:href="#TimesNewRomanPS-BoldMT-114"/>
      <use x="44.384766" xlink:href="#TimesNewRomanPS-BoldMT-98"/>
      <use x="100" xlink:href="#TimesNewRomanPS-BoldMT-102"/>
      <use x="133.300781" xlink:href="#TimesNewRomanPS-BoldMT-95"/>
      <use x="183.300781" xlink:href="#TimesNewRomanPS-BoldMT-99"/>
      <use x="227.685547" xlink:href="#TimesNewRomanPS-BoldMT-61"/>
      <use x="284.667969" xlink:href="#TimesNewRomanPS-BoldMT-49"/>
      <use x="334.667969" xlink:href="#TimesNewRomanPS-BoldMT-54"/>
      <use x="384.667969" xlink:href="#TimesNewRomanPS-BoldMT-46"/>
      <use x="409.667969" xlink:href="#TimesNewRomanPS-BoldMT-48"/>
      <use x="459.667969" xlink:href="#TimesNewRomanPS-BoldMT-48"/>
      <use x="509.667969" xlink:href="#TimesNewRomanPS-BoldMT-95"/>
      <use x="559.667969" xlink:href="#TimesNewRomanPS-BoldMT-103"/>
      <use x="609.667969" xlink:href="#TimesNewRomanPS-BoldMT-97"/>
      <use x="659.667969" xlink:href="#TimesNewRomanPS-BoldMT-109"/>
      <use x="742.96875" xlink:href="#TimesNewRomanPS-BoldMT-109"/>
      <use x="826.269531" xlink:href="#TimesNewRomanPS-BoldMT-97"/>
      <use x="876.269531" xlink:href="#TimesNewRomanPS-BoldMT-61"/>
      <use x="933.251953" xlink:href="#TimesNewRomanPS-BoldMT-48"/>
      <use x="983.251953" xlink:href="#TimesNewRomanPS-BoldMT-46"/>
      <use x="1008.251953" xlink:href="#TimesNewRomanPS-BoldMT-48"/>
      <use x="1058.251953" xlink:href="#TimesNewRomanPS-BoldMT-49"/>
     </g>
    </g>
    <g id="line2d_68">
     <path d="M 65.7 129.174187 
L 83.7 129.174187 
" style="fill:none;stroke:#ffc0cb;stroke-linecap:square;stroke-width:1.5;"/>
    </g>
    <g id="line2d_69"/>
    <g id="text_20">
     <!-- rbf_c=16.00_gamma=0.10 -->
     <g transform="translate(90.9 132.324187)scale(0.09 -0.09)">
      <use xlink:href="#TimesNewRomanPS-BoldMT-114"/>
      <use x="44.384766" xlink:href="#TimesNewRomanPS-BoldMT-98"/>
      <use x="100" xlink:href="#TimesNewRomanPS-BoldMT-102"/>
      <use x="133.300781" xlink:href="#TimesNewRomanPS-BoldMT-95"/>
      <use x="183.300781" xlink:href="#TimesNewRomanPS-BoldMT-99"/>
      <use x="227.685547" xlink:href="#TimesNewRomanPS-BoldMT-61"/>
      <use x="284.667969" xlink:href="#TimesNewRomanPS-BoldMT-49"/>
      <use x="334.667969" xlink:href="#TimesNewRomanPS-BoldMT-54"/>
      <use x="384.667969" xlink:href="#TimesNewRomanPS-BoldMT-46"/>
      <use x="409.667969" xlink:href="#TimesNewRomanPS-BoldMT-48"/>
      <use x="459.667969" xlink:href="#TimesNewRomanPS-BoldMT-48"/>
      <use x="509.667969" xlink:href="#TimesNewRomanPS-BoldMT-95"/>
      <use x="559.667969" xlink:href="#TimesNewRomanPS-BoldMT-103"/>
      <use x="609.667969" xlink:href="#TimesNewRomanPS-BoldMT-97"/>
      <use x="659.667969" xlink:href="#TimesNewRomanPS-BoldMT-109"/>
      <use x="742.96875" xlink:href="#TimesNewRomanPS-BoldMT-109"/>
      <use x="826.269531" xlink:href="#TimesNewRomanPS-BoldMT-97"/>
      <use x="876.269531" xlink:href="#TimesNewRomanPS-BoldMT-61"/>
      <use x="933.251953" xlink:href="#TimesNewRomanPS-BoldMT-48"/>
      <use x="983.251953" xlink:href="#TimesNewRomanPS-BoldMT-46"/>
      <use x="1008.251953" xlink:href="#TimesNewRomanPS-BoldMT-49"/>
      <use x="1058.251953" xlink:href="#TimesNewRomanPS-BoldMT-48"/>
     </g>
    </g>
    <g id="line2d_70">
     <path d="M 65.7 141.916219 
L 83.7 141.916219 
" style="fill:none;stroke:#ee82ee;stroke-linecap:square;stroke-width:1.5;"/>
    </g>
    <g id="line2d_71"/>
    <g id="text_21">
     <!-- rbf_c=16.00_gamma=1.00 -->
     <g transform="translate(90.9 145.066219)scale(0.09 -0.09)">
      <use xlink:href="#TimesNewRomanPS-BoldMT-114"/>
      <use x="44.384766" xlink:href="#TimesNewRomanPS-BoldMT-98"/>
      <use x="100" xlink:href="#TimesNewRomanPS-BoldMT-102"/>
      <use x="133.300781" xlink:href="#TimesNewRomanPS-BoldMT-95"/>
      <use x="183.300781" xlink:href="#TimesNewRomanPS-BoldMT-99"/>
      <use x="227.685547" xlink:href="#TimesNewRomanPS-BoldMT-61"/>
      <use x="284.667969" xlink:href="#TimesNewRomanPS-BoldMT-49"/>
      <use x="334.667969" xlink:href="#TimesNewRomanPS-BoldMT-54"/>
      <use x="384.667969" xlink:href="#TimesNewRomanPS-BoldMT-46"/>
      <use x="409.667969" xlink:href="#TimesNewRomanPS-BoldMT-48"/>
      <use x="459.667969" xlink:href="#TimesNewRomanPS-BoldMT-48"/>
      <use x="509.667969" xlink:href="#TimesNewRomanPS-BoldMT-95"/>
      <use x="559.667969" xlink:href="#TimesNewRomanPS-BoldMT-103"/>
      <use x="609.667969" xlink:href="#TimesNewRomanPS-BoldMT-97"/>
      <use x="659.667969" xlink:href="#TimesNewRomanPS-BoldMT-109"/>
      <use x="742.96875" xlink:href="#TimesNewRomanPS-BoldMT-109"/>
      <use x="826.269531" xlink:href="#TimesNewRomanPS-BoldMT-97"/>
      <use x="876.269531" xlink:href="#TimesNewRomanPS-BoldMT-61"/>
      <use x="933.251953" xlink:href="#TimesNewRomanPS-BoldMT-49"/>
      <use x="983.251953" xlink:href="#TimesNewRomanPS-BoldMT-46"/>
      <use x="1008.251953" xlink:href="#TimesNewRomanPS-BoldMT-48"/>
      <use x="1058.251953" xlink:href="#TimesNewRomanPS-BoldMT-48"/>
     </g>
    </g>
   </g>
  </g>
 </g>
 <defs>
  <clipPath id="p23162ac03d">
   <rect height="266.112" width="357.12" x="57.6" y="41.472"/>
  </clipPath>
 </defs>
</svg>
