<?xml version="1.0" encoding="utf-8" standalone="no"?>
<!DOCTYPE svg PUBLIC "-//W3C//DTD SVG 1.1//EN"
  "http://www.w3.org/Graphics/SVG/1.1/DTD/svg11.dtd">
<!-- Created with matplotlib (https://matplotlib.org/) -->
<svg height="345.6pt" version="1.1" viewBox="0 0 460.8 345.6" width="460.8pt" xmlns="http://www.w3.org/2000/svg" xmlns:xlink="http://www.w3.org/1999/xlink">
 <defs>
  <style type="text/css">
*{stroke-linecap:butt;stroke-linejoin:round;}
  </style>
 </defs>
 <g id="figure_1">
  <g id="patch_1">
   <path d="M 0 345.6 
L 460.8 345.6 
L 460.8 0 
L 0 0 
z
" style="fill:#ffffff;"/>
  </g>
  <g id="axes_1">
   <g id="patch_2">
    <path d="M 57.6 307.584 
L 414.72 307.584 
L 414.72 41.472 
L 57.6 41.472 
z
" style="fill:#ffffff;"/>
   </g>
   <g id="matplotlib.axis_1">
    <g id="xtick_1">
     <g id="line2d_1">
      <defs>
       <path d="M 0 0 
L 0 3.5 
" id="m535eafda43" style="stroke:#000000;stroke-width:0.8;"/>
      </defs>
      <g>
       <use style="stroke:#000000;stroke-width:0.8;" x="79.890651" xlink:href="#m535eafda43" y="307.584"/>
      </g>
     </g>
     <g id="text_1">
      <!-- $\mathdefault{10^{-4}}$ -->
      <defs>
       <path d="M 12.40625 8.296875 
L 28.515625 8.296875 
L 28.515625 63.921875 
L 10.984375 60.40625 
L 10.984375 69.390625 
L 28.421875 72.90625 
L 38.28125 72.90625 
L 38.28125 8.296875 
L 54.390625 8.296875 
L 54.390625 0 
L 12.40625 0 
z
" id="DejaVuSans-49"/>
       <path d="M 31.78125 66.40625 
Q 24.171875 66.40625 20.328125 58.90625 
Q 16.5 51.421875 16.5 36.375 
Q 16.5 21.390625 20.328125 13.890625 
Q 24.171875 6.390625 31.78125 6.390625 
Q 39.453125 6.390625 43.28125 13.890625 
Q 47.125 21.390625 47.125 36.375 
Q 47.125 51.421875 43.28125 58.90625 
Q 39.453125 66.40625 31.78125 66.40625 
z
M 31.78125 74.21875 
Q 44.046875 74.21875 50.515625 64.515625 
Q 56.984375 54.828125 56.984375 36.375 
Q 56.984375 17.96875 50.515625 8.265625 
Q 44.046875 -1.421875 31.78125 -1.421875 
Q 19.53125 -1.421875 13.0625 8.265625 
Q 6.59375 17.96875 6.59375 36.375 
Q 6.59375 54.828125 13.0625 64.515625 
Q 19.53125 74.21875 31.78125 74.21875 
z
" id="DejaVuSans-48"/>
       <path d="M 10.59375 35.5 
L 73.1875 35.5 
L 73.1875 27.203125 
L 10.59375 27.203125 
z
" id="DejaVuSans-8722"/>
       <path d="M 37.796875 64.3125 
L 12.890625 25.390625 
L 37.796875 25.390625 
z
M 35.203125 72.90625 
L 47.609375 72.90625 
L 47.609375 25.390625 
L 58.015625 25.390625 
L 58.015625 17.1875 
L 47.609375 17.1875 
L 47.609375 0 
L 37.796875 0 
L 37.796875 17.1875 
L 4.890625 17.1875 
L 4.890625 26.703125 
z
" id="DejaVuSans-52"/>
      </defs>
      <g transform="translate(68.140651 322.182437)scale(0.1 -0.1)">
       <use transform="translate(0 0.684375)" xlink:href="#DejaVuSans-49"/>
       <use transform="translate(63.623047 0.684375)" xlink:href="#DejaVuSans-48"/>
       <use transform="translate(128.203125 38.965625)scale(0.7)" xlink:href="#DejaVuSans-8722"/>
       <use transform="translate(186.855469 38.965625)scale(0.7)" xlink:href="#DejaVuSans-52"/>
      </g>
     </g>
    </g>
    <g id="xtick_2">
     <g id="line2d_2">
      <g>
       <use style="stroke:#000000;stroke-width:0.8;" x="159.539806" xlink:href="#m535eafda43" y="307.584"/>
      </g>
     </g>
     <g id="text_2">
      <!-- $\mathdefault{10^{-3}}$ -->
      <defs>
       <path d="M 40.578125 39.3125 
Q 47.65625 37.796875 51.625 33 
Q 55.609375 28.21875 55.609375 21.1875 
Q 55.609375 10.40625 48.1875 4.484375 
Q 40.765625 -1.421875 27.09375 -1.421875 
Q 22.515625 -1.421875 17.65625 -0.515625 
Q 12.796875 0.390625 7.625 2.203125 
L 7.625 11.71875 
Q 11.71875 9.328125 16.59375 8.109375 
Q 21.484375 6.890625 26.8125 6.890625 
Q 36.078125 6.890625 40.9375 10.546875 
Q 45.796875 14.203125 45.796875 21.1875 
Q 45.796875 27.640625 41.28125 31.265625 
Q 36.765625 34.90625 28.71875 34.90625 
L 20.21875 34.90625 
L 20.21875 43.015625 
L 29.109375 43.015625 
Q 36.375 43.015625 40.234375 45.921875 
Q 44.09375 48.828125 44.09375 54.296875 
Q 44.09375 59.90625 40.109375 62.90625 
Q 36.140625 65.921875 28.71875 65.921875 
Q 24.65625 65.921875 20.015625 65.03125 
Q 15.375 64.15625 9.8125 62.3125 
L 9.8125 71.09375 
Q 15.4375 72.65625 20.34375 73.4375 
Q 25.25 74.21875 29.59375 74.21875 
Q 40.828125 74.21875 47.359375 69.109375 
Q 53.90625 64.015625 53.90625 55.328125 
Q 53.90625 49.265625 50.4375 45.09375 
Q 46.96875 40.921875 40.578125 39.3125 
z
" id="DejaVuSans-51"/>
      </defs>
      <g transform="translate(147.789806 322.182437)scale(0.1 -0.1)">
       <use transform="translate(0 0.765625)" xlink:href="#DejaVuSans-49"/>
       <use transform="translate(63.623047 0.765625)" xlink:href="#DejaVuSans-48"/>
       <use transform="translate(128.203125 39.046875)scale(0.7)" xlink:href="#DejaVuSans-8722"/>
       <use transform="translate(186.855469 39.046875)scale(0.7)" xlink:href="#DejaVuSans-51"/>
      </g>
     </g>
    </g>
    <g id="xtick_3">
     <g id="line2d_3">
      <g>
       <use style="stroke:#000000;stroke-width:0.8;" x="239.188962" xlink:href="#m535eafda43" y="307.584"/>
      </g>
     </g>
     <g id="text_3">
      <!-- $\mathdefault{10^{-2}}$ -->
      <defs>
       <path d="M 19.1875 8.296875 
L 53.609375 8.296875 
L 53.609375 0 
L 7.328125 0 
L 7.328125 8.296875 
Q 12.9375 14.109375 22.625 23.890625 
Q 32.328125 33.6875 34.8125 36.53125 
Q 39.546875 41.84375 41.421875 45.53125 
Q 43.3125 49.21875 43.3125 52.78125 
Q 43.3125 58.59375 39.234375 62.25 
Q 35.15625 65.921875 28.609375 65.921875 
Q 23.96875 65.921875 18.8125 64.3125 
Q 13.671875 62.703125 7.8125 59.421875 
L 7.8125 69.390625 
Q 13.765625 71.78125 18.9375 73 
Q 24.125 74.21875 28.421875 74.21875 
Q 39.75 74.21875 46.484375 68.546875 
Q 53.21875 62.890625 53.21875 53.421875 
Q 53.21875 48.921875 51.53125 44.890625 
Q 49.859375 40.875 45.40625 35.40625 
Q 44.1875 33.984375 37.640625 27.21875 
Q 31.109375 20.453125 19.1875 8.296875 
z
" id="DejaVuSans-50"/>
      </defs>
      <g transform="translate(227.438962 322.182437)scale(0.1 -0.1)">
       <use transform="translate(0 0.765625)" xlink:href="#DejaVuSans-49"/>
       <use transform="translate(63.623047 0.765625)" xlink:href="#DejaVuSans-48"/>
       <use transform="translate(128.203125 39.046875)scale(0.7)" xlink:href="#DejaVuSans-8722"/>
       <use transform="translate(186.855469 39.046875)scale(0.7)" xlink:href="#DejaVuSans-50"/>
      </g>
     </g>
    </g>
    <g id="xtick_4">
     <g id="line2d_4">
      <g>
       <use style="stroke:#000000;stroke-width:0.8;" x="318.838117" xlink:href="#m535eafda43" y="307.584"/>
      </g>
     </g>
     <g id="text_4">
      <!-- $\mathdefault{10^{-1}}$ -->
      <g transform="translate(307.088117 322.182437)scale(0.1 -0.1)">
       <use transform="translate(0 0.684375)" xlink:href="#DejaVuSans-49"/>
       <use transform="translate(63.623047 0.684375)" xlink:href="#DejaVuSans-48"/>
       <use transform="translate(128.203125 38.965625)scale(0.7)" xlink:href="#DejaVuSans-8722"/>
       <use transform="translate(186.855469 38.965625)scale(0.7)" xlink:href="#DejaVuSans-49"/>
      </g>
     </g>
    </g>
    <g id="xtick_5">
     <g id="line2d_5">
      <g>
       <use style="stroke:#000000;stroke-width:0.8;" x="398.487273" xlink:href="#m535eafda43" y="307.584"/>
      </g>
     </g>
     <g id="text_5">
      <!-- $\mathdefault{10^{0}}$ -->
      <g transform="translate(389.687273 322.182437)scale(0.1 -0.1)">
       <use transform="translate(0 0.765625)" xlink:href="#DejaVuSans-49"/>
       <use transform="translate(63.623047 0.765625)" xlink:href="#DejaVuSans-48"/>
       <use transform="translate(128.203125 39.046875)scale(0.7)" xlink:href="#DejaVuSans-48"/>
      </g>
     </g>
    </g>
    <g id="xtick_6">
     <g id="line2d_6">
      <defs>
       <path d="M 0 0 
L 0 2 
" id="m43d4bdd5fd" style="stroke:#000000;stroke-width:0.6;"/>
      </defs>
      <g>
       <use style="stroke:#000000;stroke-width:0.6;" x="62.220585" xlink:href="#m43d4bdd5fd" y="307.584"/>
      </g>
     </g>
    </g>
    <g id="xtick_7">
     <g id="line2d_7">
      <g>
       <use style="stroke:#000000;stroke-width:0.6;" x="67.55284" xlink:href="#m43d4bdd5fd" y="307.584"/>
      </g>
     </g>
    </g>
    <g id="xtick_8">
     <g id="line2d_8">
      <g>
       <use style="stroke:#000000;stroke-width:0.6;" x="72.17185" xlink:href="#m43d4bdd5fd" y="307.584"/>
      </g>
     </g>
    </g>
    <g id="xtick_9">
     <g id="line2d_9">
      <g>
       <use style="stroke:#000000;stroke-width:0.6;" x="76.246105" xlink:href="#m43d4bdd5fd" y="307.584"/>
      </g>
     </g>
    </g>
    <g id="xtick_10">
     <g id="line2d_10">
      <g>
       <use style="stroke:#000000;stroke-width:0.6;" x="103.867435" xlink:href="#m43d4bdd5fd" y="307.584"/>
      </g>
     </g>
    </g>
    <g id="xtick_11">
     <g id="line2d_11">
      <g>
       <use style="stroke:#000000;stroke-width:0.6;" x="117.892956" xlink:href="#m43d4bdd5fd" y="307.584"/>
      </g>
     </g>
    </g>
    <g id="xtick_12">
     <g id="line2d_12">
      <g>
       <use style="stroke:#000000;stroke-width:0.6;" x="127.84422" xlink:href="#m43d4bdd5fd" y="307.584"/>
      </g>
     </g>
    </g>
    <g id="xtick_13">
     <g id="line2d_13">
      <g>
       <use style="stroke:#000000;stroke-width:0.6;" x="135.563021" xlink:href="#m43d4bdd5fd" y="307.584"/>
      </g>
     </g>
    </g>
    <g id="xtick_14">
     <g id="line2d_14">
      <g>
       <use style="stroke:#000000;stroke-width:0.6;" x="141.869741" xlink:href="#m43d4bdd5fd" y="307.584"/>
      </g>
     </g>
    </g>
    <g id="xtick_15">
     <g id="line2d_15">
      <g>
       <use style="stroke:#000000;stroke-width:0.6;" x="147.201996" xlink:href="#m43d4bdd5fd" y="307.584"/>
      </g>
     </g>
    </g>
    <g id="xtick_16">
     <g id="line2d_16">
      <g>
       <use style="stroke:#000000;stroke-width:0.6;" x="151.821005" xlink:href="#m43d4bdd5fd" y="307.584"/>
      </g>
     </g>
    </g>
    <g id="xtick_17">
     <g id="line2d_17">
      <g>
       <use style="stroke:#000000;stroke-width:0.6;" x="155.895261" xlink:href="#m43d4bdd5fd" y="307.584"/>
      </g>
     </g>
    </g>
    <g id="xtick_18">
     <g id="line2d_18">
      <g>
       <use style="stroke:#000000;stroke-width:0.6;" x="183.516591" xlink:href="#m43d4bdd5fd" y="307.584"/>
      </g>
     </g>
    </g>
    <g id="xtick_19">
     <g id="line2d_19">
      <g>
       <use style="stroke:#000000;stroke-width:0.6;" x="197.542111" xlink:href="#m43d4bdd5fd" y="307.584"/>
      </g>
     </g>
    </g>
    <g id="xtick_20">
     <g id="line2d_20">
      <g>
       <use style="stroke:#000000;stroke-width:0.6;" x="207.493376" xlink:href="#m43d4bdd5fd" y="307.584"/>
      </g>
     </g>
    </g>
    <g id="xtick_21">
     <g id="line2d_21">
      <g>
       <use style="stroke:#000000;stroke-width:0.6;" x="215.212177" xlink:href="#m43d4bdd5fd" y="307.584"/>
      </g>
     </g>
    </g>
    <g id="xtick_22">
     <g id="line2d_22">
      <g>
       <use style="stroke:#000000;stroke-width:0.6;" x="221.518896" xlink:href="#m43d4bdd5fd" y="307.584"/>
      </g>
     </g>
    </g>
    <g id="xtick_23">
     <g id="line2d_23">
      <g>
       <use style="stroke:#000000;stroke-width:0.6;" x="226.851151" xlink:href="#m43d4bdd5fd" y="307.584"/>
      </g>
     </g>
    </g>
    <g id="xtick_24">
     <g id="line2d_24">
      <g>
       <use style="stroke:#000000;stroke-width:0.6;" x="231.470161" xlink:href="#m43d4bdd5fd" y="307.584"/>
      </g>
     </g>
    </g>
    <g id="xtick_25">
     <g id="line2d_25">
      <g>
       <use style="stroke:#000000;stroke-width:0.6;" x="235.544416" xlink:href="#m43d4bdd5fd" y="307.584"/>
      </g>
     </g>
    </g>
    <g id="xtick_26">
     <g id="line2d_26">
      <g>
       <use style="stroke:#000000;stroke-width:0.6;" x="263.165747" xlink:href="#m43d4bdd5fd" y="307.584"/>
      </g>
     </g>
    </g>
    <g id="xtick_27">
     <g id="line2d_27">
      <g>
       <use style="stroke:#000000;stroke-width:0.6;" x="277.191267" xlink:href="#m43d4bdd5fd" y="307.584"/>
      </g>
     </g>
    </g>
    <g id="xtick_28">
     <g id="line2d_28">
      <g>
       <use style="stroke:#000000;stroke-width:0.6;" x="287.142532" xlink:href="#m43d4bdd5fd" y="307.584"/>
      </g>
     </g>
    </g>
    <g id="xtick_29">
     <g id="line2d_29">
      <g>
       <use style="stroke:#000000;stroke-width:0.6;" x="294.861332" xlink:href="#m43d4bdd5fd" y="307.584"/>
      </g>
     </g>
    </g>
    <g id="xtick_30">
     <g id="line2d_30">
      <g>
       <use style="stroke:#000000;stroke-width:0.6;" x="301.168052" xlink:href="#m43d4bdd5fd" y="307.584"/>
      </g>
     </g>
    </g>
    <g id="xtick_31">
     <g id="line2d_31">
      <g>
       <use style="stroke:#000000;stroke-width:0.6;" x="306.500307" xlink:href="#m43d4bdd5fd" y="307.584"/>
      </g>
     </g>
    </g>
    <g id="xtick_32">
     <g id="line2d_32">
      <g>
       <use style="stroke:#000000;stroke-width:0.6;" x="311.119316" xlink:href="#m43d4bdd5fd" y="307.584"/>
      </g>
     </g>
    </g>
    <g id="xtick_33">
     <g id="line2d_33">
      <g>
       <use style="stroke:#000000;stroke-width:0.6;" x="315.193572" xlink:href="#m43d4bdd5fd" y="307.584"/>
      </g>
     </g>
    </g>
    <g id="xtick_34">
     <g id="line2d_34">
      <g>
       <use style="stroke:#000000;stroke-width:0.6;" x="342.814902" xlink:href="#m43d4bdd5fd" y="307.584"/>
      </g>
     </g>
    </g>
    <g id="xtick_35">
     <g id="line2d_35">
      <g>
       <use style="stroke:#000000;stroke-width:0.6;" x="356.840422" xlink:href="#m43d4bdd5fd" y="307.584"/>
      </g>
     </g>
    </g>
    <g id="xtick_36">
     <g id="line2d_36">
      <g>
       <use style="stroke:#000000;stroke-width:0.6;" x="366.791687" xlink:href="#m43d4bdd5fd" y="307.584"/>
      </g>
     </g>
    </g>
    <g id="xtick_37">
     <g id="line2d_37">
      <g>
       <use style="stroke:#000000;stroke-width:0.6;" x="374.510488" xlink:href="#m43d4bdd5fd" y="307.584"/>
      </g>
     </g>
    </g>
    <g id="xtick_38">
     <g id="line2d_38">
      <g>
       <use style="stroke:#000000;stroke-width:0.6;" x="380.817207" xlink:href="#m43d4bdd5fd" y="307.584"/>
      </g>
     </g>
    </g>
    <g id="xtick_39">
     <g id="line2d_39">
      <g>
       <use style="stroke:#000000;stroke-width:0.6;" x="386.149462" xlink:href="#m43d4bdd5fd" y="307.584"/>
      </g>
     </g>
    </g>
    <g id="xtick_40">
     <g id="line2d_40">
      <g>
       <use style="stroke:#000000;stroke-width:0.6;" x="390.768472" xlink:href="#m43d4bdd5fd" y="307.584"/>
      </g>
     </g>
    </g>
    <g id="xtick_41">
     <g id="line2d_41">
      <g>
       <use style="stroke:#000000;stroke-width:0.6;" x="394.842727" xlink:href="#m43d4bdd5fd" y="307.584"/>
      </g>
     </g>
    </g>
    <g id="text_6">
     <!-- False Alarm Rate -->
     <defs>
      <path d="M 9.8125 72.90625 
L 51.703125 72.90625 
L 51.703125 64.59375 
L 19.671875 64.59375 
L 19.671875 43.109375 
L 48.578125 43.109375 
L 48.578125 34.8125 
L 19.671875 34.8125 
L 19.671875 0 
L 9.8125 0 
z
" id="DejaVuSans-70"/>
      <path d="M 34.28125 27.484375 
Q 23.390625 27.484375 19.1875 25 
Q 14.984375 22.515625 14.984375 16.5 
Q 14.984375 11.71875 18.140625 8.90625 
Q 21.296875 6.109375 26.703125 6.109375 
Q 34.1875 6.109375 38.703125 11.40625 
Q 43.21875 16.703125 43.21875 25.484375 
L 43.21875 27.484375 
z
M 52.203125 31.203125 
L 52.203125 0 
L 43.21875 0 
L 43.21875 8.296875 
Q 40.140625 3.328125 35.546875 0.953125 
Q 30.953125 -1.421875 24.3125 -1.421875 
Q 15.921875 -1.421875 10.953125 3.296875 
Q 6 8.015625 6 15.921875 
Q 6 25.140625 12.171875 29.828125 
Q 18.359375 34.515625 30.609375 34.515625 
L 43.21875 34.515625 
L 43.21875 35.40625 
Q 43.21875 41.609375 39.140625 45 
Q 35.0625 48.390625 27.6875 48.390625 
Q 23 48.390625 18.546875 47.265625 
Q 14.109375 46.140625 10.015625 43.890625 
L 10.015625 52.203125 
Q 14.9375 54.109375 19.578125 55.046875 
Q 24.21875 56 28.609375 56 
Q 40.484375 56 46.34375 49.84375 
Q 52.203125 43.703125 52.203125 31.203125 
z
" id="DejaVuSans-97"/>
      <path d="M 9.421875 75.984375 
L 18.40625 75.984375 
L 18.40625 0 
L 9.421875 0 
z
" id="DejaVuSans-108"/>
      <path d="M 44.28125 53.078125 
L 44.28125 44.578125 
Q 40.484375 46.53125 36.375 47.5 
Q 32.28125 48.484375 27.875 48.484375 
Q 21.1875 48.484375 17.84375 46.4375 
Q 14.5 44.390625 14.5 40.28125 
Q 14.5 37.15625 16.890625 35.375 
Q 19.28125 33.59375 26.515625 31.984375 
L 29.59375 31.296875 
Q 39.15625 29.25 43.1875 25.515625 
Q 47.21875 21.78125 47.21875 15.09375 
Q 47.21875 7.46875 41.1875 3.015625 
Q 35.15625 -1.421875 24.609375 -1.421875 
Q 20.21875 -1.421875 15.453125 -0.5625 
Q 10.6875 0.296875 5.421875 2 
L 5.421875 11.28125 
Q 10.40625 8.6875 15.234375 7.390625 
Q 20.0625 6.109375 24.8125 6.109375 
Q 31.15625 6.109375 34.5625 8.28125 
Q 37.984375 10.453125 37.984375 14.40625 
Q 37.984375 18.0625 35.515625 20.015625 
Q 33.0625 21.96875 24.703125 23.78125 
L 21.578125 24.515625 
Q 13.234375 26.265625 9.515625 29.90625 
Q 5.8125 33.546875 5.8125 39.890625 
Q 5.8125 47.609375 11.28125 51.796875 
Q 16.75 56 26.8125 56 
Q 31.78125 56 36.171875 55.265625 
Q 40.578125 54.546875 44.28125 53.078125 
z
" id="DejaVuSans-115"/>
      <path d="M 56.203125 29.59375 
L 56.203125 25.203125 
L 14.890625 25.203125 
Q 15.484375 15.921875 20.484375 11.0625 
Q 25.484375 6.203125 34.421875 6.203125 
Q 39.59375 6.203125 44.453125 7.46875 
Q 49.3125 8.734375 54.109375 11.28125 
L 54.109375 2.78125 
Q 49.265625 0.734375 44.1875 -0.34375 
Q 39.109375 -1.421875 33.890625 -1.421875 
Q 20.796875 -1.421875 13.15625 6.1875 
Q 5.515625 13.8125 5.515625 26.8125 
Q 5.515625 40.234375 12.765625 48.109375 
Q 20.015625 56 32.328125 56 
Q 43.359375 56 49.78125 48.890625 
Q 56.203125 41.796875 56.203125 29.59375 
z
M 47.21875 32.234375 
Q 47.125 39.59375 43.09375 43.984375 
Q 39.0625 48.390625 32.421875 48.390625 
Q 24.90625 48.390625 20.390625 44.140625 
Q 15.875 39.890625 15.1875 32.171875 
z
" id="DejaVuSans-101"/>
      <path id="DejaVuSans-32"/>
      <path d="M 34.1875 63.1875 
L 20.796875 26.90625 
L 47.609375 26.90625 
z
M 28.609375 72.90625 
L 39.796875 72.90625 
L 67.578125 0 
L 57.328125 0 
L 50.6875 18.703125 
L 17.828125 18.703125 
L 11.1875 0 
L 0.78125 0 
z
" id="DejaVuSans-65"/>
      <path d="M 41.109375 46.296875 
Q 39.59375 47.171875 37.8125 47.578125 
Q 36.03125 48 33.890625 48 
Q 26.265625 48 22.1875 43.046875 
Q 18.109375 38.09375 18.109375 28.8125 
L 18.109375 0 
L 9.078125 0 
L 9.078125 54.6875 
L 18.109375 54.6875 
L 18.109375 46.1875 
Q 20.953125 51.171875 25.484375 53.578125 
Q 30.03125 56 36.53125 56 
Q 37.453125 56 38.578125 55.875 
Q 39.703125 55.765625 41.0625 55.515625 
z
" id="DejaVuSans-114"/>
      <path d="M 52 44.1875 
Q 55.375 50.25 60.0625 53.125 
Q 64.75 56 71.09375 56 
Q 79.640625 56 84.28125 50.015625 
Q 88.921875 44.046875 88.921875 33.015625 
L 88.921875 0 
L 79.890625 0 
L 79.890625 32.71875 
Q 79.890625 40.578125 77.09375 44.375 
Q 74.3125 48.1875 68.609375 48.1875 
Q 61.625 48.1875 57.5625 43.546875 
Q 53.515625 38.921875 53.515625 30.90625 
L 53.515625 0 
L 44.484375 0 
L 44.484375 32.71875 
Q 44.484375 40.625 41.703125 44.40625 
Q 38.921875 48.1875 33.109375 48.1875 
Q 26.21875 48.1875 22.15625 43.53125 
Q 18.109375 38.875 18.109375 30.90625 
L 18.109375 0 
L 9.078125 0 
L 9.078125 54.6875 
L 18.109375 54.6875 
L 18.109375 46.1875 
Q 21.1875 51.21875 25.484375 53.609375 
Q 29.78125 56 35.6875 56 
Q 41.65625 56 45.828125 52.96875 
Q 50 49.953125 52 44.1875 
z
" id="DejaVuSans-109"/>
      <path d="M 44.390625 34.1875 
Q 47.5625 33.109375 50.5625 29.59375 
Q 53.5625 26.078125 56.59375 19.921875 
L 66.609375 0 
L 56 0 
L 46.6875 18.703125 
Q 43.0625 26.03125 39.671875 28.421875 
Q 36.28125 30.8125 30.421875 30.8125 
L 19.671875 30.8125 
L 19.671875 0 
L 9.8125 0 
L 9.8125 72.90625 
L 32.078125 72.90625 
Q 44.578125 72.90625 50.734375 67.671875 
Q 56.890625 62.453125 56.890625 51.90625 
Q 56.890625 45.015625 53.6875 40.46875 
Q 50.484375 35.9375 44.390625 34.1875 
z
M 19.671875 64.796875 
L 19.671875 38.921875 
L 32.078125 38.921875 
Q 39.203125 38.921875 42.84375 42.21875 
Q 46.484375 45.515625 46.484375 51.90625 
Q 46.484375 58.296875 42.84375 61.546875 
Q 39.203125 64.796875 32.078125 64.796875 
z
" id="DejaVuSans-82"/>
      <path d="M 18.3125 70.21875 
L 18.3125 54.6875 
L 36.8125 54.6875 
L 36.8125 47.703125 
L 18.3125 47.703125 
L 18.3125 18.015625 
Q 18.3125 11.328125 20.140625 9.421875 
Q 21.96875 7.515625 27.59375 7.515625 
L 36.8125 7.515625 
L 36.8125 0 
L 27.59375 0 
Q 17.1875 0 13.234375 3.875 
Q 9.28125 7.765625 9.28125 18.015625 
L 9.28125 47.703125 
L 2.6875 47.703125 
L 2.6875 54.6875 
L 9.28125 54.6875 
L 9.28125 70.21875 
z
" id="DejaVuSans-116"/>
     </defs>
     <g transform="translate(193.606875 335.860562)scale(0.1 -0.1)">
      <use xlink:href="#DejaVuSans-70"/>
      <use x="57.378906" xlink:href="#DejaVuSans-97"/>
      <use x="118.658203" xlink:href="#DejaVuSans-108"/>
      <use x="146.441406" xlink:href="#DejaVuSans-115"/>
      <use x="198.541016" xlink:href="#DejaVuSans-101"/>
      <use x="260.064453" xlink:href="#DejaVuSans-32"/>
      <use x="291.851562" xlink:href="#DejaVuSans-65"/>
      <use x="360.259766" xlink:href="#DejaVuSans-108"/>
      <use x="388.042969" xlink:href="#DejaVuSans-97"/>
      <use x="449.322266" xlink:href="#DejaVuSans-114"/>
      <use x="490.419922" xlink:href="#DejaVuSans-109"/>
      <use x="587.832031" xlink:href="#DejaVuSans-32"/>
      <use x="619.619141" xlink:href="#DejaVuSans-82"/>
      <use x="689.070312" xlink:href="#DejaVuSans-97"/>
      <use x="750.349609" xlink:href="#DejaVuSans-116"/>
      <use x="789.558594" xlink:href="#DejaVuSans-101"/>
     </g>
    </g>
   </g>
   <g id="matplotlib.axis_2">
    <g id="ytick_1">
     <g id="line2d_42">
      <defs>
       <path d="M 0 0 
L -3.5 0 
" id="m07880887ca" style="stroke:#000000;stroke-width:0.8;"/>
      </defs>
      <g>
       <use style="stroke:#000000;stroke-width:0.8;" x="57.6" xlink:href="#m07880887ca" y="295.488"/>
      </g>
     </g>
     <g id="text_7">
      <!-- 0.0 -->
      <defs>
       <path d="M 10.6875 12.40625 
L 21 12.40625 
L 21 0 
L 10.6875 0 
z
" id="DejaVuSans-46"/>
      </defs>
      <g transform="translate(34.696875 299.287219)scale(0.1 -0.1)">
       <use xlink:href="#DejaVuSans-48"/>
       <use x="63.623047" xlink:href="#DejaVuSans-46"/>
       <use x="95.410156" xlink:href="#DejaVuSans-48"/>
      </g>
     </g>
    </g>
    <g id="ytick_2">
     <g id="line2d_43">
      <g>
       <use style="stroke:#000000;stroke-width:0.8;" x="57.6" xlink:href="#m07880887ca" y="247.104"/>
      </g>
     </g>
     <g id="text_8">
      <!-- 0.2 -->
      <g transform="translate(34.696875 250.903219)scale(0.1 -0.1)">
       <use xlink:href="#DejaVuSans-48"/>
       <use x="63.623047" xlink:href="#DejaVuSans-46"/>
       <use x="95.410156" xlink:href="#DejaVuSans-50"/>
      </g>
     </g>
    </g>
    <g id="ytick_3">
     <g id="line2d_44">
      <g>
       <use style="stroke:#000000;stroke-width:0.8;" x="57.6" xlink:href="#m07880887ca" y="198.72"/>
      </g>
     </g>
     <g id="text_9">
      <!-- 0.4 -->
      <g transform="translate(34.696875 202.519219)scale(0.1 -0.1)">
       <use xlink:href="#DejaVuSans-48"/>
       <use x="63.623047" xlink:href="#DejaVuSans-46"/>
       <use x="95.410156" xlink:href="#DejaVuSans-52"/>
      </g>
     </g>
    </g>
    <g id="ytick_4">
     <g id="line2d_45">
      <g>
       <use style="stroke:#000000;stroke-width:0.8;" x="57.6" xlink:href="#m07880887ca" y="150.336"/>
      </g>
     </g>
     <g id="text_10">
      <!-- 0.6 -->
      <defs>
       <path d="M 33.015625 40.375 
Q 26.375 40.375 22.484375 35.828125 
Q 18.609375 31.296875 18.609375 23.390625 
Q 18.609375 15.53125 22.484375 10.953125 
Q 26.375 6.390625 33.015625 6.390625 
Q 39.65625 6.390625 43.53125 10.953125 
Q 47.40625 15.53125 47.40625 23.390625 
Q 47.40625 31.296875 43.53125 35.828125 
Q 39.65625 40.375 33.015625 40.375 
z
M 52.59375 71.296875 
L 52.59375 62.3125 
Q 48.875 64.0625 45.09375 64.984375 
Q 41.3125 65.921875 37.59375 65.921875 
Q 27.828125 65.921875 22.671875 59.328125 
Q 17.53125 52.734375 16.796875 39.40625 
Q 19.671875 43.65625 24.015625 45.921875 
Q 28.375 48.1875 33.59375 48.1875 
Q 44.578125 48.1875 50.953125 41.515625 
Q 57.328125 34.859375 57.328125 23.390625 
Q 57.328125 12.15625 50.6875 5.359375 
Q 44.046875 -1.421875 33.015625 -1.421875 
Q 20.359375 -1.421875 13.671875 8.265625 
Q 6.984375 17.96875 6.984375 36.375 
Q 6.984375 53.65625 15.1875 63.9375 
Q 23.390625 74.21875 37.203125 74.21875 
Q 40.921875 74.21875 44.703125 73.484375 
Q 48.484375 72.75 52.59375 71.296875 
z
" id="DejaVuSans-54"/>
      </defs>
      <g transform="translate(34.696875 154.135219)scale(0.1 -0.1)">
       <use xlink:href="#DejaVuSans-48"/>
       <use x="63.623047" xlink:href="#DejaVuSans-46"/>
       <use x="95.410156" xlink:href="#DejaVuSans-54"/>
      </g>
     </g>
    </g>
    <g id="ytick_5">
     <g id="line2d_46">
      <g>
       <use style="stroke:#000000;stroke-width:0.8;" x="57.6" xlink:href="#m07880887ca" y="101.952"/>
      </g>
     </g>
     <g id="text_11">
      <!-- 0.8 -->
      <defs>
       <path d="M 31.78125 34.625 
Q 24.75 34.625 20.71875 30.859375 
Q 16.703125 27.09375 16.703125 20.515625 
Q 16.703125 13.921875 20.71875 10.15625 
Q 24.75 6.390625 31.78125 6.390625 
Q 38.8125 6.390625 42.859375 10.171875 
Q 46.921875 13.96875 46.921875 20.515625 
Q 46.921875 27.09375 42.890625 30.859375 
Q 38.875 34.625 31.78125 34.625 
z
M 21.921875 38.8125 
Q 15.578125 40.375 12.03125 44.71875 
Q 8.5 49.078125 8.5 55.328125 
Q 8.5 64.0625 14.71875 69.140625 
Q 20.953125 74.21875 31.78125 74.21875 
Q 42.671875 74.21875 48.875 69.140625 
Q 55.078125 64.0625 55.078125 55.328125 
Q 55.078125 49.078125 51.53125 44.71875 
Q 48 40.375 41.703125 38.8125 
Q 48.828125 37.15625 52.796875 32.3125 
Q 56.78125 27.484375 56.78125 20.515625 
Q 56.78125 9.90625 50.3125 4.234375 
Q 43.84375 -1.421875 31.78125 -1.421875 
Q 19.734375 -1.421875 13.25 4.234375 
Q 6.78125 9.90625 6.78125 20.515625 
Q 6.78125 27.484375 10.78125 32.3125 
Q 14.796875 37.15625 21.921875 38.8125 
z
M 18.3125 54.390625 
Q 18.3125 48.734375 21.84375 45.5625 
Q 25.390625 42.390625 31.78125 42.390625 
Q 38.140625 42.390625 41.71875 45.5625 
Q 45.3125 48.734375 45.3125 54.390625 
Q 45.3125 60.0625 41.71875 63.234375 
Q 38.140625 66.40625 31.78125 66.40625 
Q 25.390625 66.40625 21.84375 63.234375 
Q 18.3125 60.0625 18.3125 54.390625 
z
" id="DejaVuSans-56"/>
      </defs>
      <g transform="translate(34.696875 105.751219)scale(0.1 -0.1)">
       <use xlink:href="#DejaVuSans-48"/>
       <use x="63.623047" xlink:href="#DejaVuSans-46"/>
       <use x="95.410156" xlink:href="#DejaVuSans-56"/>
      </g>
     </g>
    </g>
    <g id="ytick_6">
     <g id="line2d_47">
      <g>
       <use style="stroke:#000000;stroke-width:0.8;" x="57.6" xlink:href="#m07880887ca" y="53.568"/>
      </g>
     </g>
     <g id="text_12">
      <!-- 1.0 -->
      <g transform="translate(34.696875 57.367219)scale(0.1 -0.1)">
       <use xlink:href="#DejaVuSans-49"/>
       <use x="63.623047" xlink:href="#DejaVuSans-46"/>
       <use x="95.410156" xlink:href="#DejaVuSans-48"/>
      </g>
     </g>
    </g>
    <g id="text_13">
     <!-- Recall -->
     <defs>
      <path d="M 48.78125 52.59375 
L 48.78125 44.1875 
Q 44.96875 46.296875 41.140625 47.34375 
Q 37.3125 48.390625 33.40625 48.390625 
Q 24.65625 48.390625 19.8125 42.84375 
Q 14.984375 37.3125 14.984375 27.296875 
Q 14.984375 17.28125 19.8125 11.734375 
Q 24.65625 6.203125 33.40625 6.203125 
Q 37.3125 6.203125 41.140625 7.25 
Q 44.96875 8.296875 48.78125 10.40625 
L 48.78125 2.09375 
Q 45.015625 0.34375 40.984375 -0.53125 
Q 36.96875 -1.421875 32.421875 -1.421875 
Q 20.0625 -1.421875 12.78125 6.34375 
Q 5.515625 14.109375 5.515625 27.296875 
Q 5.515625 40.671875 12.859375 48.328125 
Q 20.21875 56 33.015625 56 
Q 37.15625 56 41.109375 55.140625 
Q 45.0625 54.296875 48.78125 52.59375 
z
" id="DejaVuSans-99"/>
     </defs>
     <g transform="translate(28.617187 189.667062)rotate(-90)scale(0.1 -0.1)">
      <use xlink:href="#DejaVuSans-82"/>
      <use x="69.419922" xlink:href="#DejaVuSans-101"/>
      <use x="130.943359" xlink:href="#DejaVuSans-99"/>
      <use x="185.923828" xlink:href="#DejaVuSans-97"/>
      <use x="247.203125" xlink:href="#DejaVuSans-108"/>
      <use x="274.986328" xlink:href="#DejaVuSans-108"/>
     </g>
    </g>
   </g>
   <g id="line2d_48">
    <path clip-path="url(#p8a8515c3a0)" d="M -1 261.731721 
L 73.832727 261.731721 
L 73.832727 239.227535 
L 97.809512 239.227535 
L 97.809512 197.032186 
L 111.835032 197.032186 
L 111.835032 194.219163 
L 129.505098 194.219163 
L 129.505098 188.593116 
L 135.811817 188.593116 
L 135.811817 180.154047 
L 153.481883 180.154047 
L 153.481883 177.341023 
L 159.788602 177.341023 
L 159.788602 174.528 
L 162.557375 174.528 
L 162.557375 168.901953 
L 165.120857 168.901953 
L 165.120857 160.462884 
L 167.507403 160.462884 
L 167.507403 157.64986 
L 171.836945 157.64986 
L 171.836945 154.836837 
L 175.684372 154.836837 
L 175.684372 149.210791 
L 179.146378 149.210791 
L 179.146378 143.584744 
L 180.75556 143.584744 
L 180.75556 135.145674 
L 189.097642 135.145674 
L 189.097642 129.519628 
L 190.311493 129.519628 
L 190.311493 123.893581 
L 191.484188 123.893581 
L 191.484188 121.080558 
L 192.618427 121.080558 
L 192.618427 118.267535 
L 195.81373 118.267535 
L 195.81373 115.454512 
L 196.816443 115.454512 
L 196.816443 101.389395 
L 203.93711 101.389395 
L 203.93711 95.763349 
L 206.269984 95.763349 
L 206.269984 92.950326 
L 209.154253 92.950326 
L 209.154253 90.137302 
L 209.83925 90.137302 
L 209.83925 87.324279 
L 211.169844 87.324279 
L 211.169844 84.511256 
L 218.229745 84.511256 
L 218.229745 81.698233 
L 219.278043 81.698233 
L 219.278043 76.072186 
L 224.536465 76.072186 
L 224.536465 73.259163 
L 227.913895 73.259163 
L 227.913895 70.44614 
L 228.70913 70.44614 
L 228.70913 67.633116 
L 239.437758 67.633116 
L 239.437758 64.820093 
L 256.408988 64.820093 
L 256.408988 62.00707 
L 263.270112 62.00707 
L 263.270112 59.194047 
L 273.795517 59.194047 
L 273.795517 56.381023 
L 327.445464 56.381023 
L 327.535898 56.381023 
L 331.175927 56.381023 
L 331.175927 53.568 
L 334.190835 53.568 
L 334.22807 53.568 
L 337.946965 53.568 
L 337.98037 53.568 
L 340.506867 53.568 
L 340.553392 53.568 
L 346.018231 53.568 
L 346.044687 53.568 
L 346.150309 53.568 
L 346.176664 53.568 
L 350.886117 53.568 
L 350.909101 53.568 
L 353.572552 53.568 
L 353.593819 53.568 
L 359.857991 53.568 
L 359.875725 53.568 
L 364.101339 53.568 
L 364.132707 53.568 
L 382.28383 53.568 
L 382.293105 53.568 
L 387.782656 53.568 
L 387.794523 53.568 
L 390.233763 53.568 
L 390.241134 53.568 
L 396.629441 53.568 
L 396.635568 53.568 
L 398.487273 53.568 
" style="fill:none;stroke:#ff0000;stroke-linecap:square;stroke-width:1.5;"/>
   </g>
   <g id="line2d_49">
    <path clip-path="url(#p8a8515c3a0)" d="M -1 284.235907 
L 97.809512 284.235907 
L 97.809512 281.422884 
L 135.811817 281.422884 
L 135.811817 275.796837 
L 141.144073 275.796837 
L 141.144073 272.983814 
L 145.763082 272.983814 
L 145.763082 270.170791 
L 156.778775 270.170791 
L 156.778775 267.357767 
L 165.120857 267.357767 
L 165.120857 264.544744 
L 197.790907 264.544744 
L 197.790907 258.918698 
L 199.661157 258.918698 
L 199.661157 253.292651 
L 204.732345 253.292651 
L 204.732345 250.479628 
L 205.509708 250.479628 
L 205.509708 244.853581 
L 206.269984 244.853581 
L 206.269984 239.227535 
L 208.455418 239.227535 
L 208.455418 236.414512 
L 210.510945 236.414512 
L 210.510945 230.788465 
L 211.816427 230.788465 
L 211.816427 225.162419 
L 212.451146 225.162419 
L 212.451146 222.349395 
L 213.074427 222.349395 
L 213.074427 213.910326 
L 213.686677 213.910326 
L 213.686677 208.284279 
L 215.460973 208.284279 
L 215.460973 205.471256 
L 216.595212 205.471256 
L 216.595212 202.658233 
L 218.229745 202.658233 
L 218.229745 199.845209 
L 219.278043 199.845209 
L 219.278043 197.032186 
L 219.790515 197.032186 
L 219.790515 194.219163 
L 220.295505 194.219163 
L 220.295505 191.40614 
L 220.793228 191.40614 
L 220.793228 188.593116 
L 221.283891 188.593116 
L 221.283891 185.780093 
L 222.715455 185.780093 
L 222.715455 182.96707 
L 223.637942 182.96707 
L 223.637942 180.154047 
L 224.09012 180.154047 
L 224.09012 174.528 
L 224.536465 174.528 
L 224.536465 168.901953 
L 224.977123 168.901953 
L 224.977123 166.08893 
L 227.509315 166.08893 
L 227.509315 160.462884 
L 228.70913 160.462884 
L 228.70913 154.836837 
L 229.099995 154.836837 
L 229.099995 152.023814 
L 229.486493 152.023814 
L 229.486493 149.210791 
L 230.246769 149.210791 
L 230.246769 146.397767 
L 231.356742 146.397767 
L 231.356742 132.332651 
L 231.718957 132.332651 
L 231.718957 126.706605 
L 233.816035 126.706605 
L 233.816035 123.893581 
L 234.487729 123.893581 
L 234.487729 121.080558 
L 237.96557 121.080558 
L 237.96557 115.454512 
L 241.125468 115.454512 
L 241.125468 112.641488 
L 241.670222 112.641488 
L 241.670222 109.828465 
L 243.512013 109.828465 
L 243.512013 107.015442 
L 244.272289 107.015442 
L 244.272289 104.202419 
L 245.983863 104.202419 
L 245.983863 101.389395 
L 246.221605 101.389395 
L 246.221605 98.576372 
L 246.457723 98.576372 
L 246.457723 95.763349 
L 249.172149 95.763349 
L 249.172149 92.950326 
L 250.453451 92.950326 
L 250.453451 90.137302 
L 251.076732 90.137302 
L 251.076732 87.324279 
L 251.688982 87.324279 
L 251.688982 84.511256 
L 252.290583 84.511256 
L 252.290583 81.698233 
L 254.96748 81.698233 
L 254.96748 78.885209 
L 256.23205 78.885209 
L 256.23205 76.072186 
L 265.9162 76.072186 
L 265.9162 73.259163 
L 270.434508 73.259163 
L 270.434508 70.44614 
L 272.155818 70.44614 
L 272.155818 67.633116 
L 274.847002 67.633116 
L 274.847002 64.820093 
L 275.766763 64.820093 
L 275.766763 62.00707 
L 277.343842 62.00707 
L 277.343842 59.194047 
L 280.998022 59.194047 
L 280.998022 56.381023 
L 288.455756 56.381023 
L 288.455756 53.568 
L 398.487273 53.568 
L 398.487273 53.568 
" style="fill:none;stroke:#0000ff;stroke-linecap:square;stroke-width:1.5;"/>
   </g>
   <g id="line2d_50">
    <path clip-path="url(#p8a8515c3a0)" d="M -1 292.674977 
L 73.832727 292.674977 
L 73.832727 289.861953 
L 141.144073 289.861953 
L 141.144073 284.235907 
L 149.837337 284.235907 
L 149.837337 281.422884 
L 153.481883 281.422884 
L 153.481883 278.60986 
L 167.507403 278.60986 
L 167.507403 275.796837 
L 190.311493 275.796837 
L 190.311493 267.357767 
L 192.618427 267.357767 
L 192.618427 264.544744 
L 194.78108 264.544744 
L 194.78108 261.731721 
L 197.790907 261.731721 
L 197.790907 258.918698 
L 199.661157 258.918698 
L 199.661157 256.105674 
L 207.742172 256.105674 
L 207.742172 253.292651 
L 209.154253 253.292651 
L 209.154253 250.479628 
L 209.83925 250.479628 
L 209.83925 247.666605 
L 210.510945 247.666605 
L 210.510945 244.853581 
L 211.169844 244.853581 
L 211.169844 242.040558 
L 219.790515 242.040558 
L 219.790515 239.227535 
L 220.295505 239.227535 
L 220.295505 236.414512 
L 221.767692 236.414512 
L 221.767692 233.601488 
L 222.24482 233.601488 
L 222.24482 230.788465 
L 223.637942 230.788465 
L 223.637942 227.975442 
L 224.09012 227.975442 
L 224.09012 225.162419 
L 227.099947 225.162419 
L 227.099947 219.536372 
L 230.246769 219.536372 
L 230.246769 216.723349 
L 230.620732 216.723349 
L 230.620732 213.910326 
L 237.663462 213.910326 
L 237.663462 211.097302 
L 237.96557 211.097302 
L 237.96557 208.284279 
L 239.14829 208.284279 
L 239.14829 205.471256 
L 240.009526 205.471256 
L 240.009526 202.658233 
L 240.571997 202.658233 
L 240.571997 199.845209 
L 240.849839 199.845209 
L 240.849839 197.032186 
L 241.939415 197.032186 
L 241.939415 191.40614 
L 243.512013 191.40614 
L 243.512013 188.593116 
L 245.503423 188.593116 
L 245.503423 185.780093 
L 245.983863 185.780093 
L 245.983863 182.96707 
L 246.221605 182.96707 
L 246.221605 180.154047 
L 246.69224 180.154047 
L 246.69224 177.341023 
L 247.156558 177.341023 
L 247.156558 174.528 
L 247.386401 174.528 
L 247.386401 171.714977 
L 250.662462 171.714977 
L 250.662462 168.901953 
L 250.870217 168.901953 
L 250.870217 166.08893 
L 251.4861 166.08893 
L 251.4861 163.275907 
L 252.091209 163.275907 
L 252.091209 160.462884 
L 252.685915 160.462884 
L 252.685915 157.64986 
L 253.07678 157.64986 
L 253.07678 154.836837 
L 253.654919 154.836837 
L 253.654919 152.023814 
L 254.035046 152.023814 
L 254.035046 149.210791 
L 256.23205 149.210791 
L 256.23205 143.584744 
L 256.76017 143.584744 
L 256.76017 140.771721 
L 257.622838 140.771721 
L 257.622838 137.958698 
L 259.123414 137.958698 
L 259.123414 135.145674 
L 261.640247 135.145674 
L 261.640247 129.519628 
L 262.979428 129.519628 
L 262.979428 126.706605 
L 263.844252 126.706605 
L 263.844252 123.893581 
L 263.986311 123.893581 
L 263.986311 121.080558 
L 264.127788 121.080558 
L 264.127788 118.267535 
L 264.687982 118.267535 
L 264.687982 115.454512 
L 264.826624 115.454512 
L 264.826624 112.641488 
L 264.964713 112.641488 
L 264.964713 109.828465 
L 265.239247 109.828465 
L 265.239247 107.015442 
L 267.231613 107.015442 
L 267.231613 104.202419 
L 268.870118 104.202419 
L 268.870118 101.389395 
L 268.993 101.389395 
L 268.993 98.576372 
L 269.960648 98.576372 
L 269.960648 95.763349 
L 271.133343 95.763349 
L 271.133343 92.950326 
L 271.248456 92.950326 
L 271.248456 87.324279 
L 272.821053 87.324279 
L 272.821053 84.511256 
L 275.258807 84.511256 
L 275.258807 81.698233 
L 277.727128 81.698233 
L 277.727128 78.885209 
L 278.106214 78.885209 
L 278.106214 76.072186 
L 279.219163 76.072186 
L 279.219163 73.259163 
L 281.343074 73.259163 
L 281.343074 70.44614 
L 283.666617 70.44614 
L 283.666617 67.633116 
L 284.302795 67.633116 
L 284.302795 64.820093 
L 286.144002 64.820093 
L 286.144002 62.00707 
L 287.246897 62.00707 
L 287.246897 59.194047 
L 287.535158 59.194047 
L 287.535158 56.381023 
L 329.403771 56.381023 
L 329.403771 53.568 
L 398.487273 53.568 
L 398.487273 53.568 
" style="fill:none;stroke:#000000;stroke-linecap:square;stroke-width:1.5;"/>
   </g>
   <g id="patch_3">
    <path d="M 57.6 307.584 
L 57.6 41.472 
" style="fill:none;stroke:#000000;stroke-linecap:square;stroke-linejoin:miter;stroke-width:0.8;"/>
   </g>
   <g id="patch_4">
    <path d="M 414.72 307.584 
L 414.72 41.472 
" style="fill:none;stroke:#000000;stroke-linecap:square;stroke-linejoin:miter;stroke-width:0.8;"/>
   </g>
   <g id="patch_5">
    <path d="M 57.6 307.584 
L 414.72 307.584 
" style="fill:none;stroke:#000000;stroke-linecap:square;stroke-linejoin:miter;stroke-width:0.8;"/>
   </g>
   <g id="patch_6">
    <path d="M 57.6 41.472 
L 414.72 41.472 
" style="fill:none;stroke:#000000;stroke-linecap:square;stroke-linejoin:miter;stroke-width:0.8;"/>
   </g>
   <g id="legend_1">
    <g id="line2d_51">
     <path d="M 65.7 52.722 
L 83.7 52.722 
" style="fill:none;stroke:#ff0000;stroke-linecap:square;stroke-width:1.5;"/>
    </g>
    <g id="line2d_52"/>
    <g id="text_14">
     <!-- nodes in hidden layer= 2 -->
     <defs>
      <path d="M 22.015625 45.65625 
L 22.015625 39.75 
Q 25.53125 43.5625 28.75 45.28125 
Q 31.984375 47.015625 35.6875 47.015625 
Q 40.140625 47.015625 43.0625 44.546875 
Q 46 42.09375 46.96875 38.421875 
Q 47.75 35.640625 47.75 27.734375 
L 47.75 9.96875 
Q 47.75 4.6875 48.703125 3.390625 
Q 49.65625 2.09375 52.6875 1.765625 
L 52.6875 0 
L 29.59375 0 
L 29.59375 1.765625 
Q 32.171875 2.09375 33.296875 3.90625 
Q 34.078125 5.125 34.078125 9.96875 
L 34.078125 30.28125 
Q 34.078125 35.890625 33.640625 37.34375 
Q 33.203125 38.8125 32.15625 39.625 
Q 31.109375 40.4375 29.828125 40.4375 
Q 25.640625 40.4375 22.015625 34.421875 
L 22.015625 9.96875 
Q 22.015625 4.828125 22.96875 3.453125 
Q 23.921875 2.09375 26.515625 1.765625 
L 26.515625 0 
L 3.421875 0 
L 3.421875 1.765625 
Q 6.296875 2.046875 7.515625 3.609375 
Q 8.34375 4.6875 8.34375 9.96875 
L 8.34375 35.75 
Q 8.34375 40.921875 7.390625 42.1875 
Q 6.453125 43.453125 3.421875 43.84375 
L 3.421875 45.65625 
z
" id="TimesNewRomanPS-BoldMT-110"/>
      <path d="M 24.90625 47.015625 
Q 30.859375 47.015625 35.984375 43.9375 
Q 41.109375 40.875 43.765625 35.203125 
Q 46.4375 29.546875 46.4375 22.796875 
Q 46.4375 13.09375 41.5 6.546875 
Q 35.546875 -1.375 25.046875 -1.375 
Q 14.75 -1.375 9.171875 5.859375 
Q 3.609375 13.09375 3.609375 22.609375 
Q 3.609375 32.421875 9.296875 39.71875 
Q 14.984375 47.015625 24.90625 47.015625 
z
M 25.09375 43.5625 
Q 22.609375 43.5625 20.828125 41.671875 
Q 19.046875 39.796875 18.484375 34.25 
Q 17.921875 28.71875 17.921875 18.84375 
Q 17.921875 13.625 18.609375 9.078125 
Q 19.140625 5.609375 20.890625 3.796875 
Q 22.65625 2 24.90625 2 
Q 27.09375 2 28.5625 3.21875 
Q 30.46875 4.890625 31.109375 7.859375 
Q 32.078125 12.5 32.078125 26.609375 
Q 32.078125 34.90625 31.140625 38 
Q 30.21875 41.109375 28.421875 42.53125 
Q 27.15625 43.5625 25.09375 43.5625 
z
" id="TimesNewRomanPS-BoldMT-111"/>
      <path d="M 47.75 66.21875 
L 47.75 13.671875 
Q 47.75 8.34375 48.046875 7.375 
Q 48.4375 5.765625 49.53125 4.984375 
Q 50.640625 4.203125 53.375 4 
L 53.375 2.390625 
L 34.078125 -1.375 
L 34.078125 5.859375 
Q 30.609375 1.65625 27.90625 0.140625 
Q 25.203125 -1.375 21.78125 -1.375 
Q 13.03125 -1.375 7.953125 6.453125 
Q 3.859375 12.796875 3.859375 22.015625 
Q 3.859375 29.390625 6.390625 35.21875 
Q 8.9375 41.0625 13.359375 44.03125 
Q 17.78125 47.015625 22.859375 47.015625 
Q 26.125 47.015625 28.65625 45.75 
Q 31.203125 44.484375 34.078125 41.3125 
L 34.078125 55.078125 
Q 34.078125 60.296875 33.640625 61.375 
Q 33.0625 62.796875 31.890625 63.46875 
Q 30.71875 64.15625 27.484375 64.15625 
L 27.484375 66.21875 
z
M 34.078125 35.25 
Q 30.46875 42.1875 25.25 42.1875 
Q 23.4375 42.1875 22.265625 41.21875 
Q 20.453125 39.703125 19.3125 35.890625 
Q 18.171875 32.078125 18.171875 24.21875 
Q 18.171875 15.578125 19.4375 11.421875 
Q 20.703125 7.28125 22.90625 5.421875 
Q 24.03125 4.5 25.984375 4.5 
Q 30.28125 4.5 34.078125 11.234375 
z
" id="TimesNewRomanPS-BoldMT-100"/>
      <path d="M 42.046875 24.46875 
L 17 24.46875 
Q 17.4375 15.375 21.828125 10.109375 
Q 25.203125 6.0625 29.9375 6.0625 
Q 32.859375 6.0625 35.25 7.6875 
Q 37.640625 9.328125 40.375 13.578125 
L 42.046875 12.5 
Q 38.328125 4.9375 33.828125 1.78125 
Q 29.34375 -1.375 23.4375 -1.375 
Q 13.28125 -1.375 8.0625 6.453125 
Q 3.859375 12.75 3.859375 22.078125 
Q 3.859375 33.5 10.03125 40.25 
Q 16.21875 47.015625 24.515625 47.015625 
Q 31.453125 47.015625 36.546875 41.328125 
Q 41.65625 35.640625 42.046875 24.46875 
z
M 30.03125 27.734375 
Q 30.03125 35.59375 29.171875 38.515625 
Q 28.328125 41.453125 26.515625 42.96875 
Q 25.484375 43.84375 23.78125 43.84375 
Q 21.234375 43.84375 19.625 41.359375 
Q 16.75 37.015625 16.75 29.4375 
L 16.75 27.734375 
z
" id="TimesNewRomanPS-BoldMT-101"/>
      <path d="M 32.234375 46.921875 
L 32.953125 31.34375 
L 31.296875 31.34375 
Q 28.328125 38.28125 25.125 40.8125 
Q 21.921875 43.359375 18.75 43.359375 
Q 16.75 43.359375 15.328125 42.015625 
Q 13.921875 40.671875 13.921875 38.921875 
Q 13.921875 37.59375 14.890625 36.375 
Q 16.453125 34.375 23.625 29.515625 
Q 30.8125 24.65625 33.078125 21.265625 
Q 35.359375 17.875 35.359375 13.671875 
Q 35.359375 9.859375 33.453125 6.203125 
Q 31.546875 2.546875 28.078125 0.578125 
Q 24.609375 -1.375 20.40625 -1.375 
Q 17.140625 -1.375 11.671875 0.6875 
Q 10.203125 1.21875 9.671875 1.21875 
Q 8.0625 1.21875 6.984375 -1.21875 
L 5.375 -1.21875 
L 4.59375 15.1875 
L 6.25 15.1875 
Q 8.453125 8.734375 12.28125 5.515625 
Q 16.109375 2.296875 19.53125 2.296875 
Q 21.875 2.296875 23.359375 3.734375 
Q 24.859375 5.171875 24.859375 7.234375 
Q 24.859375 9.578125 23.390625 11.28125 
Q 21.921875 12.984375 16.84375 16.453125 
Q 9.375 21.625 7.171875 24.359375 
Q 3.953125 28.375 3.953125 33.203125 
Q 3.953125 38.484375 7.59375 42.75 
Q 11.234375 47.015625 18.109375 47.015625 
Q 21.828125 47.015625 25.296875 45.21875 
Q 26.609375 44.484375 27.4375 44.484375 
Q 28.328125 44.484375 28.859375 44.84375 
Q 29.390625 45.21875 30.5625 46.921875 
z
" id="TimesNewRomanPS-BoldMT-115"/>
      <path id="TimesNewRomanPS-BoldMT-32"/>
      <path d="M 14.359375 67.78125 
Q 17.53125 67.78125 19.71875 65.546875 
Q 21.921875 63.328125 21.921875 60.203125 
Q 21.921875 57.078125 19.703125 54.875 
Q 17.484375 52.6875 14.359375 52.6875 
Q 11.234375 52.6875 9.03125 54.875 
Q 6.84375 57.078125 6.84375 60.203125 
Q 6.84375 63.328125 9.03125 65.546875 
Q 11.234375 67.78125 14.359375 67.78125 
z
M 21.1875 45.65625 
L 21.1875 9.46875 
Q 21.1875 4.640625 22.3125 3.296875 
Q 23.4375 1.953125 26.703125 1.765625 
L 26.703125 0 
L 2.046875 0 
L 2.046875 1.765625 
Q 5.078125 1.859375 6.546875 3.515625 
Q 7.515625 4.640625 7.515625 9.46875 
L 7.515625 36.140625 
Q 7.515625 40.96875 6.390625 42.3125 
Q 5.28125 43.65625 2.046875 43.84375 
L 2.046875 45.65625 
z
" id="TimesNewRomanPS-BoldMT-105"/>
      <path d="M 22.015625 66.21875 
L 22.015625 39.796875 
Q 25.78125 43.75 28.90625 45.375 
Q 32.03125 47.015625 35.40625 47.015625 
Q 39.703125 47.015625 42.75 44.578125 
Q 45.796875 42.140625 46.796875 38.84375 
Q 47.796875 35.546875 47.796875 27.734375 
L 47.796875 9.90625 
Q 47.796875 4.6875 48.765625 3.390625 
Q 49.75 2.09375 52.734375 1.765625 
L 52.734375 0 
L 29.59375 0 
L 29.59375 1.765625 
Q 32.03125 2.09375 33.25 3.71875 
Q 34.125 4.984375 34.125 9.90625 
L 34.125 30.28125 
Q 34.125 35.9375 33.6875 37.375 
Q 33.25 38.8125 32.203125 39.625 
Q 31.15625 40.4375 29.828125 40.4375 
Q 27.875 40.4375 26.015625 39.09375 
Q 24.171875 37.75 22.015625 34.375 
L 22.015625 9.90625 
Q 22.015625 5.03125 22.75 3.8125 
Q 23.6875 2.15625 26.5625 1.765625 
L 26.5625 0 
L 3.421875 0 
L 3.421875 1.765625 
Q 6.296875 2.046875 7.515625 3.609375 
Q 8.34375 4.6875 8.34375 9.90625 
L 8.34375 56.296875 
Q 8.34375 61.46875 7.390625 62.734375 
Q 6.453125 64.015625 3.421875 64.40625 
L 3.421875 66.21875 
z
" id="TimesNewRomanPS-BoldMT-104"/>
      <path d="M 21.234375 66.21875 
L 21.234375 9.46875 
Q 21.234375 4.640625 22.359375 3.296875 
Q 23.484375 1.953125 26.765625 1.765625 
L 26.765625 0 
L 2.09375 0 
L 2.09375 1.765625 
Q 5.125 1.859375 6.59375 3.515625 
Q 7.5625 4.640625 7.5625 9.46875 
L 7.5625 56.734375 
Q 7.5625 61.53125 6.4375 62.859375 
Q 5.328125 64.203125 2.09375 64.40625 
L 2.09375 66.21875 
z
" id="TimesNewRomanPS-BoldMT-108"/>
      <path d="M 28.5625 6.734375 
Q 20.21875 -0.640625 13.578125 -0.640625 
Q 9.671875 -0.640625 7.078125 1.921875 
Q 4.5 4.5 4.5 8.34375 
Q 4.5 13.578125 8.984375 17.75 
Q 13.484375 21.921875 28.5625 28.859375 
L 28.5625 33.453125 
Q 28.5625 38.625 28 39.96875 
Q 27.4375 41.3125 25.875 42.3125 
Q 24.3125 43.3125 22.359375 43.3125 
Q 19.1875 43.3125 17.140625 41.890625 
Q 15.875 41.015625 15.875 39.84375 
Q 15.875 38.8125 17.234375 37.3125 
Q 19.09375 35.203125 19.09375 33.25 
Q 19.09375 30.859375 17.3125 29.171875 
Q 15.53125 27.484375 12.640625 27.484375 
Q 9.578125 27.484375 7.5 29.34375 
Q 5.421875 31.203125 5.421875 33.6875 
Q 5.421875 37.203125 8.203125 40.40625 
Q 10.984375 43.609375 15.96875 45.3125 
Q 20.953125 47.015625 26.3125 47.015625 
Q 32.8125 47.015625 36.59375 44.25 
Q 40.375 41.5 41.5 38.28125 
Q 42.1875 36.234375 42.1875 28.859375 
L 42.1875 11.140625 
Q 42.1875 8.015625 42.421875 7.203125 
Q 42.671875 6.390625 43.15625 6 
Q 43.65625 5.609375 44.28125 5.609375 
Q 45.5625 5.609375 46.875 7.421875 
L 48.34375 6.25 
Q 45.90625 2.640625 43.28125 1 
Q 40.671875 -0.640625 37.359375 -0.640625 
Q 33.453125 -0.640625 31.25 1.1875 
Q 29.046875 3.03125 28.5625 6.734375 
z
M 28.5625 10.296875 
L 28.5625 25.59375 
Q 22.65625 22.125 19.78125 18.171875 
Q 17.875 15.53125 17.875 12.84375 
Q 17.875 10.59375 19.484375 8.890625 
Q 20.703125 7.5625 22.90625 7.5625 
Q 25.34375 7.5625 28.5625 10.296875 
z
" id="TimesNewRomanPS-BoldMT-97"/>
      <path d="M 24.3125 -1.859375 
L 9.578125 31.984375 
Q 6.25 39.65625 4.65625 41.40625 
Q 3.078125 43.171875 0.828125 43.84375 
L 0.828125 45.65625 
L 25.09375 45.65625 
L 25.09375 43.84375 
Q 22.703125 43.75 21.71875 42.921875 
Q 20.75 42.09375 20.75 40.921875 
Q 20.75 39.0625 23.1875 33.59375 
L 31 15.71875 
L 36.328125 29.546875 
Q 39.203125 36.921875 39.203125 39.796875 
Q 39.203125 41.609375 38 42.671875 
Q 36.8125 43.75 33.796875 43.84375 
L 33.796875 45.65625 
L 49.078125 45.65625 
L 49.078125 43.84375 
Q 46.828125 43.609375 45.40625 42.109375 
Q 44 40.625 40.671875 31.984375 
L 27.640625 -1.859375 
Q 22.703125 -14.546875 20.3125 -17.484375 
Q 16.9375 -21.578125 11.859375 -21.578125 
Q 7.8125 -21.578125 5.296875 -19.25 
Q 2.78125 -16.9375 2.78125 -13.671875 
Q 2.78125 -10.84375 4.515625 -8.984375 
Q 6.25 -7.125 8.796875 -7.125 
Q 11.234375 -7.125 12.71875 -8.6875 
Q 14.203125 -10.25 14.265625 -13.53125 
Q 14.3125 -15.375 14.703125 -15.921875 
Q 15.09375 -16.453125 15.828125 -16.453125 
Q 17 -16.453125 18.3125 -15.046875 
Q 20.265625 -12.984375 22.90625 -5.671875 
z
" id="TimesNewRomanPS-BoldMT-121"/>
      <path d="M 22.3125 45.65625 
L 22.3125 35.296875 
Q 26.859375 42.390625 30.265625 44.703125 
Q 33.6875 47.015625 36.859375 47.015625 
Q 39.59375 47.015625 41.234375 45.328125 
Q 42.875 43.65625 42.875 40.578125 
Q 42.875 37.3125 41.28125 35.5 
Q 39.703125 33.6875 37.453125 33.6875 
Q 34.859375 33.6875 32.953125 35.34375 
Q 31.0625 37.015625 30.71875 37.203125 
Q 30.21875 37.5 29.59375 37.5 
Q 28.171875 37.5 26.90625 36.421875 
Q 24.90625 34.765625 23.875 31.6875 
Q 22.3125 26.953125 22.3125 21.234375 
L 22.3125 10.75 
L 22.359375 8.015625 
Q 22.359375 5.21875 22.703125 4.4375 
Q 23.296875 3.125 24.4375 2.515625 
Q 25.59375 1.90625 28.328125 1.765625 
L 28.328125 0 
L 3.65625 0 
L 3.65625 1.765625 
Q 6.640625 2 7.6875 3.390625 
Q 8.734375 4.78125 8.734375 10.75 
L 8.734375 35.984375 
Q 8.734375 39.890625 8.34375 40.96875 
Q 7.859375 42.328125 6.921875 42.96875 
Q 6 43.609375 3.65625 43.84375 
L 3.65625 45.65625 
z
" id="TimesNewRomanPS-BoldMT-114"/>
      <path d="M 1.953125 44.140625 
L 55.375 44.140625 
L 55.375 37.796875 
L 1.953125 37.796875 
z
M 1.953125 28.171875 
L 55.375 28.171875 
L 55.375 21.828125 
L 1.953125 21.828125 
z
" id="TimesNewRomanPS-BoldMT-61"/>
      <path d="M 41.40625 0 
L 2.4375 0 
L 2.4375 1.078125 
Q 20.359375 22.40625 24.1875 29.78125 
Q 28.03125 37.15625 28.03125 44.1875 
Q 28.03125 49.3125 24.859375 52.703125 
Q 21.6875 56.109375 17.09375 56.109375 
Q 9.578125 56.109375 5.421875 48.578125 
L 3.609375 49.21875 
Q 6.25 58.59375 11.625 63.078125 
Q 17 67.578125 24.03125 67.578125 
Q 29.046875 67.578125 33.203125 65.234375 
Q 37.359375 62.890625 39.703125 58.8125 
Q 42.046875 54.734375 42.046875 51.171875 
Q 42.046875 44.671875 38.421875 37.984375 
Q 33.5 28.953125 16.890625 12.796875 
L 31.203125 12.796875 
Q 36.46875 12.796875 38.0625 13.234375 
Q 39.65625 13.671875 40.671875 14.71875 
Q 41.703125 15.765625 43.359375 19.140625 
L 45.125 19.140625 
z
" id="TimesNewRomanPS-BoldMT-50"/>
     </defs>
     <g transform="translate(90.9 55.872)scale(0.09 -0.09)">
      <use xlink:href="#TimesNewRomanPS-BoldMT-110"/>
      <use x="55.615234" xlink:href="#TimesNewRomanPS-BoldMT-111"/>
      <use x="105.615234" xlink:href="#TimesNewRomanPS-BoldMT-100"/>
      <use x="161.230469" xlink:href="#TimesNewRomanPS-BoldMT-101"/>
      <use x="205.615234" xlink:href="#TimesNewRomanPS-BoldMT-115"/>
      <use x="244.53125" xlink:href="#TimesNewRomanPS-BoldMT-32"/>
      <use x="269.53125" xlink:href="#TimesNewRomanPS-BoldMT-105"/>
      <use x="297.314453" xlink:href="#TimesNewRomanPS-BoldMT-110"/>
      <use x="352.929688" xlink:href="#TimesNewRomanPS-BoldMT-32"/>
      <use x="377.929688" xlink:href="#TimesNewRomanPS-BoldMT-104"/>
      <use x="433.544922" xlink:href="#TimesNewRomanPS-BoldMT-105"/>
      <use x="461.328125" xlink:href="#TimesNewRomanPS-BoldMT-100"/>
      <use x="516.943359" xlink:href="#TimesNewRomanPS-BoldMT-100"/>
      <use x="572.558594" xlink:href="#TimesNewRomanPS-BoldMT-101"/>
      <use x="616.943359" xlink:href="#TimesNewRomanPS-BoldMT-110"/>
      <use x="672.558594" xlink:href="#TimesNewRomanPS-BoldMT-32"/>
      <use x="697.558594" xlink:href="#TimesNewRomanPS-BoldMT-108"/>
      <use x="725.341797" xlink:href="#TimesNewRomanPS-BoldMT-97"/>
      <use x="775.341797" xlink:href="#TimesNewRomanPS-BoldMT-121"/>
      <use x="825.341797" xlink:href="#TimesNewRomanPS-BoldMT-101"/>
      <use x="869.726562" xlink:href="#TimesNewRomanPS-BoldMT-114"/>
      <use x="914.111328" xlink:href="#TimesNewRomanPS-BoldMT-61"/>
      <use x="971.09375" xlink:href="#TimesNewRomanPS-BoldMT-32"/>
      <use x="996.09375" xlink:href="#TimesNewRomanPS-BoldMT-50"/>
     </g>
    </g>
    <g id="line2d_53">
     <path d="M 65.7 65.464031 
L 83.7 65.464031 
" style="fill:none;stroke:#0000ff;stroke-linecap:square;stroke-width:1.5;"/>
    </g>
    <g id="line2d_54"/>
    <g id="text_15">
     <!-- nodes in hidden layer= 20 -->
     <defs>
      <path d="M 46.34375 33.109375 
Q 46.34375 23.1875 43.5625 14.59375 
Q 41.890625 9.328125 39.078125 5.953125 
Q 36.28125 2.59375 32.71875 0.609375 
Q 29.15625 -1.375 24.953125 -1.375 
Q 20.171875 -1.375 16.3125 1.0625 
Q 12.453125 3.515625 9.46875 8.0625 
Q 7.328125 11.375 5.71875 16.890625 
Q 3.609375 24.359375 3.609375 32.328125 
Q 3.609375 43.109375 6.640625 52.15625 
Q 9.125 59.625 14.203125 63.59375 
Q 19.28125 67.578125 24.953125 67.578125 
Q 30.71875 67.578125 35.71875 63.640625 
Q 40.71875 59.71875 43.0625 53.078125 
Q 46.34375 43.953125 46.34375 33.109375 
z
M 31.296875 33.203125 
Q 31.296875 50.59375 31.109375 53.46875 
Q 30.609375 60.25 28.765625 62.640625 
Q 27.546875 64.203125 24.8125 64.203125 
Q 22.703125 64.203125 21.484375 63.03125 
Q 19.671875 61.328125 19.03125 57 
Q 18.40625 52.6875 18.40625 26.859375 
Q 18.40625 12.796875 19.390625 8.015625 
Q 20.125 4.546875 21.484375 3.375 
Q 22.859375 2.203125 25.09375 2.203125 
Q 27.546875 2.203125 28.765625 3.765625 
Q 30.8125 6.5 31.109375 12.203125 
z
" id="TimesNewRomanPS-BoldMT-48"/>
     </defs>
     <g transform="translate(90.9 68.614031)scale(0.09 -0.09)">
      <use xlink:href="#TimesNewRomanPS-BoldMT-110"/>
      <use x="55.615234" xlink:href="#TimesNewRomanPS-BoldMT-111"/>
      <use x="105.615234" xlink:href="#TimesNewRomanPS-BoldMT-100"/>
      <use x="161.230469" xlink:href="#TimesNewRomanPS-BoldMT-101"/>
      <use x="205.615234" xlink:href="#TimesNewRomanPS-BoldMT-115"/>
      <use x="244.53125" xlink:href="#TimesNewRomanPS-BoldMT-32"/>
      <use x="269.53125" xlink:href="#TimesNewRomanPS-BoldMT-105"/>
      <use x="297.314453" xlink:href="#TimesNewRomanPS-BoldMT-110"/>
      <use x="352.929688" xlink:href="#TimesNewRomanPS-BoldMT-32"/>
      <use x="377.929688" xlink:href="#TimesNewRomanPS-BoldMT-104"/>
      <use x="433.544922" xlink:href="#TimesNewRomanPS-BoldMT-105"/>
      <use x="461.328125" xlink:href="#TimesNewRomanPS-BoldMT-100"/>
      <use x="516.943359" xlink:href="#TimesNewRomanPS-BoldMT-100"/>
      <use x="572.558594" xlink:href="#TimesNewRomanPS-BoldMT-101"/>
      <use x="616.943359" xlink:href="#TimesNewRomanPS-BoldMT-110"/>
      <use x="672.558594" xlink:href="#TimesNewRomanPS-BoldMT-32"/>
      <use x="697.558594" xlink:href="#TimesNewRomanPS-BoldMT-108"/>
      <use x="725.341797" xlink:href="#TimesNewRomanPS-BoldMT-97"/>
      <use x="775.341797" xlink:href="#TimesNewRomanPS-BoldMT-121"/>
      <use x="825.341797" xlink:href="#TimesNewRomanPS-BoldMT-101"/>
      <use x="869.726562" xlink:href="#TimesNewRomanPS-BoldMT-114"/>
      <use x="914.111328" xlink:href="#TimesNewRomanPS-BoldMT-61"/>
      <use x="971.09375" xlink:href="#TimesNewRomanPS-BoldMT-32"/>
      <use x="996.09375" xlink:href="#TimesNewRomanPS-BoldMT-50"/>
      <use x="1046.09375" xlink:href="#TimesNewRomanPS-BoldMT-48"/>
     </g>
    </g>
    <g id="line2d_55">
     <path d="M 65.7 78.206062 
L 83.7 78.206062 
" style="fill:none;stroke:#000000;stroke-linecap:square;stroke-width:1.5;"/>
    </g>
    <g id="line2d_56"/>
    <g id="text_16">
     <!-- nodes in hidden layer= 100 -->
     <defs>
      <path d="M 32.5625 67.578125 
L 32.5625 13.421875 
Q 32.5625 7.328125 33.09375 5.640625 
Q 33.640625 3.953125 35.34375 2.875 
Q 37.0625 1.8125 40.828125 1.8125 
L 42.328125 1.8125 
L 42.328125 0 
L 7.46875 0 
L 7.46875 1.8125 
L 9.234375 1.8125 
Q 13.484375 1.8125 15.28125 2.78125 
Q 17.09375 3.765625 17.71875 5.46875 
Q 18.359375 7.171875 18.359375 13.421875 
L 18.359375 47.75 
Q 18.359375 52.34375 17.921875 53.484375 
Q 17.484375 54.640625 16.28125 55.4375 
Q 15.09375 56.25 13.53125 56.25 
Q 11.03125 56.25 7.46875 54.6875 
L 6.59375 56.453125 
L 30.953125 67.578125 
z
" id="TimesNewRomanPS-BoldMT-49"/>
     </defs>
     <g transform="translate(90.9 81.356062)scale(0.09 -0.09)">
      <use xlink:href="#TimesNewRomanPS-BoldMT-110"/>
      <use x="55.615234" xlink:href="#TimesNewRomanPS-BoldMT-111"/>
      <use x="105.615234" xlink:href="#TimesNewRomanPS-BoldMT-100"/>
      <use x="161.230469" xlink:href="#TimesNewRomanPS-BoldMT-101"/>
      <use x="205.615234" xlink:href="#TimesNewRomanPS-BoldMT-115"/>
      <use x="244.53125" xlink:href="#TimesNewRomanPS-BoldMT-32"/>
      <use x="269.53125" xlink:href="#TimesNewRomanPS-BoldMT-105"/>
      <use x="297.314453" xlink:href="#TimesNewRomanPS-BoldMT-110"/>
      <use x="352.929688" xlink:href="#TimesNewRomanPS-BoldMT-32"/>
      <use x="377.929688" xlink:href="#TimesNewRomanPS-BoldMT-104"/>
      <use x="433.544922" xlink:href="#TimesNewRomanPS-BoldMT-105"/>
      <use x="461.328125" xlink:href="#TimesNewRomanPS-BoldMT-100"/>
      <use x="516.943359" xlink:href="#TimesNewRomanPS-BoldMT-100"/>
      <use x="572.558594" xlink:href="#TimesNewRomanPS-BoldMT-101"/>
      <use x="616.943359" xlink:href="#TimesNewRomanPS-BoldMT-110"/>
      <use x="672.558594" xlink:href="#TimesNewRomanPS-BoldMT-32"/>
      <use x="697.558594" xlink:href="#TimesNewRomanPS-BoldMT-108"/>
      <use x="725.341797" xlink:href="#TimesNewRomanPS-BoldMT-97"/>
      <use x="775.341797" xlink:href="#TimesNewRomanPS-BoldMT-121"/>
      <use x="825.341797" xlink:href="#TimesNewRomanPS-BoldMT-101"/>
      <use x="869.726562" xlink:href="#TimesNewRomanPS-BoldMT-114"/>
      <use x="914.111328" xlink:href="#TimesNewRomanPS-BoldMT-61"/>
      <use x="971.09375" xlink:href="#TimesNewRomanPS-BoldMT-32"/>
      <use x="996.09375" xlink:href="#TimesNewRomanPS-BoldMT-49"/>
      <use x="1046.09375" xlink:href="#TimesNewRomanPS-BoldMT-48"/>
      <use x="1096.09375" xlink:href="#TimesNewRomanPS-BoldMT-48"/>
     </g>
    </g>
   </g>
  </g>
 </g>
 <defs>
  <clipPath id="p8a8515c3a0">
   <rect height="266.112" width="357.12" x="57.6" y="41.472"/>
  </clipPath>
 </defs>
</svg>
