<?xml version="1.0" encoding="utf-8" standalone="no"?>
<!DOCTYPE svg PUBLIC "-//W3C//DTD SVG 1.1//EN"
  "http://www.w3.org/Graphics/SVG/1.1/DTD/svg11.dtd">
<!-- Created with matplotlib (https://matplotlib.org/) -->
<svg height="345.6pt" version="1.1" viewBox="0 0 460.8 345.6" width="460.8pt" xmlns="http://www.w3.org/2000/svg" xmlns:xlink="http://www.w3.org/1999/xlink">
 <metadata>
  <rdf:RDF xmlns:cc="http://creativecommons.org/ns#" xmlns:dc="http://purl.org/dc/elements/1.1/" xmlns:rdf="http://www.w3.org/1999/02/22-rdf-syntax-ns#">
   <cc:Work>
    <dc:type rdf:resource="http://purl.org/dc/dcmitype/StillImage"/>
    <dc:date>2020-08-03T13:43:57.539752</dc:date>
    <dc:format>image/svg+xml</dc:format>
    <dc:creator>
     <cc:Agent>
      <dc:title>Matplotlib v3.3.0, https://matplotlib.org/</dc:title>
     </cc:Agent>
    </dc:creator>
   </cc:Work>
  </rdf:RDF>
 </metadata>
 <defs>
  <style type="text/css">*{stroke-linecap:butt;stroke-linejoin:round;}</style>
 </defs>
 <g id="figure_1">
  <g id="patch_1">
   <path d="M 0 345.6 
L 460.8 345.6 
L 460.8 0 
L 0 0 
z
" style="fill:#ffffff;"/>
  </g>
  <g id="axes_1">
   <g id="patch_2">
    <path d="M 57.6 307.584 
L 414.72 307.584 
L 414.72 41.472 
L 57.6 41.472 
z
" style="fill:#ffffff;"/>
   </g>
   <g id="matplotlib.axis_1">
    <g id="xtick_1">
     <g id="line2d_1">
      <defs>
       <path d="M 0 0 
L 0 3.5 
" id="m9f5b51c5d5" style="stroke:#000000;stroke-width:0.8;"/>
      </defs>
      <g>
       <use style="stroke:#000000;stroke-width:0.8;" x="79.853586" xlink:href="#m9f5b51c5d5" y="307.584"/>
      </g>
     </g>
     <g id="text_1">
      <!-- $\mathdefault{10^{-4}}$ -->
      <g transform="translate(68.103586 322.182437)scale(0.1 -0.1)">
       <defs>
        <path d="M 12.40625 8.296875 
L 28.515625 8.296875 
L 28.515625 63.921875 
L 10.984375 60.40625 
L 10.984375 69.390625 
L 28.421875 72.90625 
L 38.28125 72.90625 
L 38.28125 8.296875 
L 54.390625 8.296875 
L 54.390625 0 
L 12.40625 0 
z
" id="DejaVuSans-49"/>
        <path d="M 31.78125 66.40625 
Q 24.171875 66.40625 20.328125 58.90625 
Q 16.5 51.421875 16.5 36.375 
Q 16.5 21.390625 20.328125 13.890625 
Q 24.171875 6.390625 31.78125 6.390625 
Q 39.453125 6.390625 43.28125 13.890625 
Q 47.125 21.390625 47.125 36.375 
Q 47.125 51.421875 43.28125 58.90625 
Q 39.453125 66.40625 31.78125 66.40625 
z
M 31.78125 74.21875 
Q 44.046875 74.21875 50.515625 64.515625 
Q 56.984375 54.828125 56.984375 36.375 
Q 56.984375 17.96875 50.515625 8.265625 
Q 44.046875 -1.421875 31.78125 -1.421875 
Q 19.53125 -1.421875 13.0625 8.265625 
Q 6.59375 17.96875 6.59375 36.375 
Q 6.59375 54.828125 13.0625 64.515625 
Q 19.53125 74.21875 31.78125 74.21875 
z
" id="DejaVuSans-48"/>
        <path d="M 10.59375 35.5 
L 73.1875 35.5 
L 73.1875 27.203125 
L 10.59375 27.203125 
z
" id="DejaVuSans-8722"/>
        <path d="M 37.796875 64.3125 
L 12.890625 25.390625 
L 37.796875 25.390625 
z
M 35.203125 72.90625 
L 47.609375 72.90625 
L 47.609375 25.390625 
L 58.015625 25.390625 
L 58.015625 17.1875 
L 47.609375 17.1875 
L 47.609375 0 
L 37.796875 0 
L 37.796875 17.1875 
L 4.890625 17.1875 
L 4.890625 26.703125 
z
" id="DejaVuSans-52"/>
       </defs>
       <use transform="translate(0 0.684375)" xlink:href="#DejaVuSans-49"/>
       <use transform="translate(63.623047 0.684375)" xlink:href="#DejaVuSans-48"/>
       <use transform="translate(128.203125 38.965625)scale(0.7)" xlink:href="#DejaVuSans-8722"/>
       <use transform="translate(186.855469 38.965625)scale(0.7)" xlink:href="#DejaVuSans-52"/>
      </g>
     </g>
    </g>
    <g id="xtick_2">
     <g id="line2d_2">
      <g>
       <use style="stroke:#000000;stroke-width:0.8;" x="159.512008" xlink:href="#m9f5b51c5d5" y="307.584"/>
      </g>
     </g>
     <g id="text_2">
      <!-- $\mathdefault{10^{-3}}$ -->
      <g transform="translate(147.762008 322.182437)scale(0.1 -0.1)">
       <defs>
        <path d="M 40.578125 39.3125 
Q 47.65625 37.796875 51.625 33 
Q 55.609375 28.21875 55.609375 21.1875 
Q 55.609375 10.40625 48.1875 4.484375 
Q 40.765625 -1.421875 27.09375 -1.421875 
Q 22.515625 -1.421875 17.65625 -0.515625 
Q 12.796875 0.390625 7.625 2.203125 
L 7.625 11.71875 
Q 11.71875 9.328125 16.59375 8.109375 
Q 21.484375 6.890625 26.8125 6.890625 
Q 36.078125 6.890625 40.9375 10.546875 
Q 45.796875 14.203125 45.796875 21.1875 
Q 45.796875 27.640625 41.28125 31.265625 
Q 36.765625 34.90625 28.71875 34.90625 
L 20.21875 34.90625 
L 20.21875 43.015625 
L 29.109375 43.015625 
Q 36.375 43.015625 40.234375 45.921875 
Q 44.09375 48.828125 44.09375 54.296875 
Q 44.09375 59.90625 40.109375 62.90625 
Q 36.140625 65.921875 28.71875 65.921875 
Q 24.65625 65.921875 20.015625 65.03125 
Q 15.375 64.15625 9.8125 62.3125 
L 9.8125 71.09375 
Q 15.4375 72.65625 20.34375 73.4375 
Q 25.25 74.21875 29.59375 74.21875 
Q 40.828125 74.21875 47.359375 69.109375 
Q 53.90625 64.015625 53.90625 55.328125 
Q 53.90625 49.265625 50.4375 45.09375 
Q 46.96875 40.921875 40.578125 39.3125 
z
" id="DejaVuSans-51"/>
       </defs>
       <use transform="translate(0 0.765625)" xlink:href="#DejaVuSans-49"/>
       <use transform="translate(63.623047 0.765625)" xlink:href="#DejaVuSans-48"/>
       <use transform="translate(128.203125 39.046875)scale(0.7)" xlink:href="#DejaVuSans-8722"/>
       <use transform="translate(186.855469 39.046875)scale(0.7)" xlink:href="#DejaVuSans-51"/>
      </g>
     </g>
    </g>
    <g id="xtick_3">
     <g id="line2d_3">
      <g>
       <use style="stroke:#000000;stroke-width:0.8;" x="239.170429" xlink:href="#m9f5b51c5d5" y="307.584"/>
      </g>
     </g>
     <g id="text_3">
      <!-- $\mathdefault{10^{-2}}$ -->
      <g transform="translate(227.420429 322.182437)scale(0.1 -0.1)">
       <defs>
        <path d="M 19.1875 8.296875 
L 53.609375 8.296875 
L 53.609375 0 
L 7.328125 0 
L 7.328125 8.296875 
Q 12.9375 14.109375 22.625 23.890625 
Q 32.328125 33.6875 34.8125 36.53125 
Q 39.546875 41.84375 41.421875 45.53125 
Q 43.3125 49.21875 43.3125 52.78125 
Q 43.3125 58.59375 39.234375 62.25 
Q 35.15625 65.921875 28.609375 65.921875 
Q 23.96875 65.921875 18.8125 64.3125 
Q 13.671875 62.703125 7.8125 59.421875 
L 7.8125 69.390625 
Q 13.765625 71.78125 18.9375 73 
Q 24.125 74.21875 28.421875 74.21875 
Q 39.75 74.21875 46.484375 68.546875 
Q 53.21875 62.890625 53.21875 53.421875 
Q 53.21875 48.921875 51.53125 44.890625 
Q 49.859375 40.875 45.40625 35.40625 
Q 44.1875 33.984375 37.640625 27.21875 
Q 31.109375 20.453125 19.1875 8.296875 
z
" id="DejaVuSans-50"/>
       </defs>
       <use transform="translate(0 0.765625)" xlink:href="#DejaVuSans-49"/>
       <use transform="translate(63.623047 0.765625)" xlink:href="#DejaVuSans-48"/>
       <use transform="translate(128.203125 39.046875)scale(0.7)" xlink:href="#DejaVuSans-8722"/>
       <use transform="translate(186.855469 39.046875)scale(0.7)" xlink:href="#DejaVuSans-50"/>
      </g>
     </g>
    </g>
    <g id="xtick_4">
     <g id="line2d_4">
      <g>
       <use style="stroke:#000000;stroke-width:0.8;" x="318.828851" xlink:href="#m9f5b51c5d5" y="307.584"/>
      </g>
     </g>
     <g id="text_4">
      <!-- $\mathdefault{10^{-1}}$ -->
      <g transform="translate(307.078851 322.182437)scale(0.1 -0.1)">
       <use transform="translate(0 0.684375)" xlink:href="#DejaVuSans-49"/>
       <use transform="translate(63.623047 0.684375)" xlink:href="#DejaVuSans-48"/>
       <use transform="translate(128.203125 38.965625)scale(0.7)" xlink:href="#DejaVuSans-8722"/>
       <use transform="translate(186.855469 38.965625)scale(0.7)" xlink:href="#DejaVuSans-49"/>
      </g>
     </g>
    </g>
    <g id="xtick_5">
     <g id="line2d_5">
      <g>
       <use style="stroke:#000000;stroke-width:0.8;" x="398.487273" xlink:href="#m9f5b51c5d5" y="307.584"/>
      </g>
     </g>
     <g id="text_5">
      <!-- $\mathdefault{10^{0}}$ -->
      <g transform="translate(389.687273 322.182437)scale(0.1 -0.1)">
       <use transform="translate(0 0.765625)" xlink:href="#DejaVuSans-49"/>
       <use transform="translate(63.623047 0.765625)" xlink:href="#DejaVuSans-48"/>
       <use transform="translate(128.203125 39.046875)scale(0.7)" xlink:href="#DejaVuSans-48"/>
      </g>
     </g>
    </g>
    <g id="xtick_6">
     <g id="line2d_6">
      <defs>
       <path d="M 0 0 
L 0 2 
" id="m92cd8dc491" style="stroke:#000000;stroke-width:0.6;"/>
      </defs>
      <g>
       <use style="stroke:#000000;stroke-width:0.6;" x="62.181465" xlink:href="#m92cd8dc491" y="307.584"/>
      </g>
     </g>
    </g>
    <g id="xtick_7">
     <g id="line2d_7">
      <g>
       <use style="stroke:#000000;stroke-width:0.6;" x="67.51434" xlink:href="#m92cd8dc491" y="307.584"/>
      </g>
     </g>
    </g>
    <g id="xtick_8">
     <g id="line2d_8">
      <g>
       <use style="stroke:#000000;stroke-width:0.6;" x="72.133887" xlink:href="#m92cd8dc491" y="307.584"/>
      </g>
     </g>
    </g>
    <g id="xtick_9">
     <g id="line2d_9">
      <g>
       <use style="stroke:#000000;stroke-width:0.6;" x="76.208617" xlink:href="#m92cd8dc491" y="307.584"/>
      </g>
     </g>
    </g>
    <g id="xtick_10">
     <g id="line2d_10">
      <g>
       <use style="stroke:#000000;stroke-width:0.6;" x="103.83316" xlink:href="#m92cd8dc491" y="307.584"/>
      </g>
     </g>
    </g>
    <g id="xtick_11">
     <g id="line2d_11">
      <g>
       <use style="stroke:#000000;stroke-width:0.6;" x="117.860312" xlink:href="#m92cd8dc491" y="307.584"/>
      </g>
     </g>
    </g>
    <g id="xtick_12">
     <g id="line2d_12">
      <g>
       <use style="stroke:#000000;stroke-width:0.6;" x="127.812735" xlink:href="#m92cd8dc491" y="307.584"/>
      </g>
     </g>
    </g>
    <g id="xtick_13">
     <g id="line2d_13">
      <g>
       <use style="stroke:#000000;stroke-width:0.6;" x="135.532433" xlink:href="#m92cd8dc491" y="307.584"/>
      </g>
     </g>
    </g>
    <g id="xtick_14">
     <g id="line2d_14">
      <g>
       <use style="stroke:#000000;stroke-width:0.6;" x="141.839886" xlink:href="#m92cd8dc491" y="307.584"/>
      </g>
     </g>
    </g>
    <g id="xtick_15">
     <g id="line2d_15">
      <g>
       <use style="stroke:#000000;stroke-width:0.6;" x="147.172762" xlink:href="#m92cd8dc491" y="307.584"/>
      </g>
     </g>
    </g>
    <g id="xtick_16">
     <g id="line2d_16">
      <g>
       <use style="stroke:#000000;stroke-width:0.6;" x="151.792309" xlink:href="#m92cd8dc491" y="307.584"/>
      </g>
     </g>
    </g>
    <g id="xtick_17">
     <g id="line2d_17">
      <g>
       <use style="stroke:#000000;stroke-width:0.6;" x="155.867038" xlink:href="#m92cd8dc491" y="307.584"/>
      </g>
     </g>
    </g>
    <g id="xtick_18">
     <g id="line2d_18">
      <g>
       <use style="stroke:#000000;stroke-width:0.6;" x="183.491582" xlink:href="#m92cd8dc491" y="307.584"/>
      </g>
     </g>
    </g>
    <g id="xtick_19">
     <g id="line2d_19">
      <g>
       <use style="stroke:#000000;stroke-width:0.6;" x="197.518734" xlink:href="#m92cd8dc491" y="307.584"/>
      </g>
     </g>
    </g>
    <g id="xtick_20">
     <g id="line2d_20">
      <g>
       <use style="stroke:#000000;stroke-width:0.6;" x="207.471156" xlink:href="#m92cd8dc491" y="307.584"/>
      </g>
     </g>
    </g>
    <g id="xtick_21">
     <g id="line2d_21">
      <g>
       <use style="stroke:#000000;stroke-width:0.6;" x="215.190855" xlink:href="#m92cd8dc491" y="307.584"/>
      </g>
     </g>
    </g>
    <g id="xtick_22">
     <g id="line2d_22">
      <g>
       <use style="stroke:#000000;stroke-width:0.6;" x="221.498308" xlink:href="#m92cd8dc491" y="307.584"/>
      </g>
     </g>
    </g>
    <g id="xtick_23">
     <g id="line2d_23">
      <g>
       <use style="stroke:#000000;stroke-width:0.6;" x="226.831184" xlink:href="#m92cd8dc491" y="307.584"/>
      </g>
     </g>
    </g>
    <g id="xtick_24">
     <g id="line2d_24">
      <g>
       <use style="stroke:#000000;stroke-width:0.6;" x="231.450731" xlink:href="#m92cd8dc491" y="307.584"/>
      </g>
     </g>
    </g>
    <g id="xtick_25">
     <g id="line2d_25">
      <g>
       <use style="stroke:#000000;stroke-width:0.6;" x="235.52546" xlink:href="#m92cd8dc491" y="307.584"/>
      </g>
     </g>
    </g>
    <g id="xtick_26">
     <g id="line2d_26">
      <g>
       <use style="stroke:#000000;stroke-width:0.6;" x="263.150004" xlink:href="#m92cd8dc491" y="307.584"/>
      </g>
     </g>
    </g>
    <g id="xtick_27">
     <g id="line2d_27">
      <g>
       <use style="stroke:#000000;stroke-width:0.6;" x="277.177155" xlink:href="#m92cd8dc491" y="307.584"/>
      </g>
     </g>
    </g>
    <g id="xtick_28">
     <g id="line2d_28">
      <g>
       <use style="stroke:#000000;stroke-width:0.6;" x="287.129578" xlink:href="#m92cd8dc491" y="307.584"/>
      </g>
     </g>
    </g>
    <g id="xtick_29">
     <g id="line2d_29">
      <g>
       <use style="stroke:#000000;stroke-width:0.6;" x="294.849277" xlink:href="#m92cd8dc491" y="307.584"/>
      </g>
     </g>
    </g>
    <g id="xtick_30">
     <g id="line2d_30">
      <g>
       <use style="stroke:#000000;stroke-width:0.6;" x="301.15673" xlink:href="#m92cd8dc491" y="307.584"/>
      </g>
     </g>
    </g>
    <g id="xtick_31">
     <g id="line2d_31">
      <g>
       <use style="stroke:#000000;stroke-width:0.6;" x="306.489605" xlink:href="#m92cd8dc491" y="307.584"/>
      </g>
     </g>
    </g>
    <g id="xtick_32">
     <g id="line2d_32">
      <g>
       <use style="stroke:#000000;stroke-width:0.6;" x="311.109152" xlink:href="#m92cd8dc491" y="307.584"/>
      </g>
     </g>
    </g>
    <g id="xtick_33">
     <g id="line2d_33">
      <g>
       <use style="stroke:#000000;stroke-width:0.6;" x="315.183882" xlink:href="#m92cd8dc491" y="307.584"/>
      </g>
     </g>
    </g>
    <g id="xtick_34">
     <g id="line2d_34">
      <g>
       <use style="stroke:#000000;stroke-width:0.6;" x="342.808425" xlink:href="#m92cd8dc491" y="307.584"/>
      </g>
     </g>
    </g>
    <g id="xtick_35">
     <g id="line2d_35">
      <g>
       <use style="stroke:#000000;stroke-width:0.6;" x="356.835577" xlink:href="#m92cd8dc491" y="307.584"/>
      </g>
     </g>
    </g>
    <g id="xtick_36">
     <g id="line2d_36">
      <g>
       <use style="stroke:#000000;stroke-width:0.6;" x="366.788" xlink:href="#m92cd8dc491" y="307.584"/>
      </g>
     </g>
    </g>
    <g id="xtick_37">
     <g id="line2d_37">
      <g>
       <use style="stroke:#000000;stroke-width:0.6;" x="374.507698" xlink:href="#m92cd8dc491" y="307.584"/>
      </g>
     </g>
    </g>
    <g id="xtick_38">
     <g id="line2d_38">
      <g>
       <use style="stroke:#000000;stroke-width:0.6;" x="380.815151" xlink:href="#m92cd8dc491" y="307.584"/>
      </g>
     </g>
    </g>
    <g id="xtick_39">
     <g id="line2d_39">
      <g>
       <use style="stroke:#000000;stroke-width:0.6;" x="386.148027" xlink:href="#m92cd8dc491" y="307.584"/>
      </g>
     </g>
    </g>
    <g id="xtick_40">
     <g id="line2d_40">
      <g>
       <use style="stroke:#000000;stroke-width:0.6;" x="390.767574" xlink:href="#m92cd8dc491" y="307.584"/>
      </g>
     </g>
    </g>
    <g id="xtick_41">
     <g id="line2d_41">
      <g>
       <use style="stroke:#000000;stroke-width:0.6;" x="394.842303" xlink:href="#m92cd8dc491" y="307.584"/>
      </g>
     </g>
    </g>
    <g id="text_6">
     <!-- False Alarm Rate -->
     <g transform="translate(194.25375 335.860562)scale(0.1 -0.1)">
      <defs>
       <path d="M 9.8125 72.90625 
L 51.703125 72.90625 
L 51.703125 64.59375 
L 19.671875 64.59375 
L 19.671875 43.109375 
L 48.578125 43.109375 
L 48.578125 34.8125 
L 19.671875 34.8125 
L 19.671875 0 
L 9.8125 0 
z
" id="DejaVuSans-70"/>
       <path d="M 34.28125 27.484375 
Q 23.390625 27.484375 19.1875 25 
Q 14.984375 22.515625 14.984375 16.5 
Q 14.984375 11.71875 18.140625 8.90625 
Q 21.296875 6.109375 26.703125 6.109375 
Q 34.1875 6.109375 38.703125 11.40625 
Q 43.21875 16.703125 43.21875 25.484375 
L 43.21875 27.484375 
z
M 52.203125 31.203125 
L 52.203125 0 
L 43.21875 0 
L 43.21875 8.296875 
Q 40.140625 3.328125 35.546875 0.953125 
Q 30.953125 -1.421875 24.3125 -1.421875 
Q 15.921875 -1.421875 10.953125 3.296875 
Q 6 8.015625 6 15.921875 
Q 6 25.140625 12.171875 29.828125 
Q 18.359375 34.515625 30.609375 34.515625 
L 43.21875 34.515625 
L 43.21875 35.40625 
Q 43.21875 41.609375 39.140625 45 
Q 35.0625 48.390625 27.6875 48.390625 
Q 23 48.390625 18.546875 47.265625 
Q 14.109375 46.140625 10.015625 43.890625 
L 10.015625 52.203125 
Q 14.9375 54.109375 19.578125 55.046875 
Q 24.21875 56 28.609375 56 
Q 40.484375 56 46.34375 49.84375 
Q 52.203125 43.703125 52.203125 31.203125 
z
" id="DejaVuSans-97"/>
       <path d="M 9.421875 75.984375 
L 18.40625 75.984375 
L 18.40625 0 
L 9.421875 0 
z
" id="DejaVuSans-108"/>
       <path d="M 44.28125 53.078125 
L 44.28125 44.578125 
Q 40.484375 46.53125 36.375 47.5 
Q 32.28125 48.484375 27.875 48.484375 
Q 21.1875 48.484375 17.84375 46.4375 
Q 14.5 44.390625 14.5 40.28125 
Q 14.5 37.15625 16.890625 35.375 
Q 19.28125 33.59375 26.515625 31.984375 
L 29.59375 31.296875 
Q 39.15625 29.25 43.1875 25.515625 
Q 47.21875 21.78125 47.21875 15.09375 
Q 47.21875 7.46875 41.1875 3.015625 
Q 35.15625 -1.421875 24.609375 -1.421875 
Q 20.21875 -1.421875 15.453125 -0.5625 
Q 10.6875 0.296875 5.421875 2 
L 5.421875 11.28125 
Q 10.40625 8.6875 15.234375 7.390625 
Q 20.0625 6.109375 24.8125 6.109375 
Q 31.15625 6.109375 34.5625 8.28125 
Q 37.984375 10.453125 37.984375 14.40625 
Q 37.984375 18.0625 35.515625 20.015625 
Q 33.0625 21.96875 24.703125 23.78125 
L 21.578125 24.515625 
Q 13.234375 26.265625 9.515625 29.90625 
Q 5.8125 33.546875 5.8125 39.890625 
Q 5.8125 47.609375 11.28125 51.796875 
Q 16.75 56 26.8125 56 
Q 31.78125 56 36.171875 55.265625 
Q 40.578125 54.546875 44.28125 53.078125 
z
" id="DejaVuSans-115"/>
       <path d="M 56.203125 29.59375 
L 56.203125 25.203125 
L 14.890625 25.203125 
Q 15.484375 15.921875 20.484375 11.0625 
Q 25.484375 6.203125 34.421875 6.203125 
Q 39.59375 6.203125 44.453125 7.46875 
Q 49.3125 8.734375 54.109375 11.28125 
L 54.109375 2.78125 
Q 49.265625 0.734375 44.1875 -0.34375 
Q 39.109375 -1.421875 33.890625 -1.421875 
Q 20.796875 -1.421875 13.15625 6.1875 
Q 5.515625 13.8125 5.515625 26.8125 
Q 5.515625 40.234375 12.765625 48.109375 
Q 20.015625 56 32.328125 56 
Q 43.359375 56 49.78125 48.890625 
Q 56.203125 41.796875 56.203125 29.59375 
z
M 47.21875 32.234375 
Q 47.125 39.59375 43.09375 43.984375 
Q 39.0625 48.390625 32.421875 48.390625 
Q 24.90625 48.390625 20.390625 44.140625 
Q 15.875 39.890625 15.1875 32.171875 
z
" id="DejaVuSans-101"/>
       <path id="DejaVuSans-32"/>
       <path d="M 34.1875 63.1875 
L 20.796875 26.90625 
L 47.609375 26.90625 
z
M 28.609375 72.90625 
L 39.796875 72.90625 
L 67.578125 0 
L 57.328125 0 
L 50.6875 18.703125 
L 17.828125 18.703125 
L 11.1875 0 
L 0.78125 0 
z
" id="DejaVuSans-65"/>
       <path d="M 41.109375 46.296875 
Q 39.59375 47.171875 37.8125 47.578125 
Q 36.03125 48 33.890625 48 
Q 26.265625 48 22.1875 43.046875 
Q 18.109375 38.09375 18.109375 28.8125 
L 18.109375 0 
L 9.078125 0 
L 9.078125 54.6875 
L 18.109375 54.6875 
L 18.109375 46.1875 
Q 20.953125 51.171875 25.484375 53.578125 
Q 30.03125 56 36.53125 56 
Q 37.453125 56 38.578125 55.875 
Q 39.703125 55.765625 41.0625 55.515625 
z
" id="DejaVuSans-114"/>
       <path d="M 52 44.1875 
Q 55.375 50.25 60.0625 53.125 
Q 64.75 56 71.09375 56 
Q 79.640625 56 84.28125 50.015625 
Q 88.921875 44.046875 88.921875 33.015625 
L 88.921875 0 
L 79.890625 0 
L 79.890625 32.71875 
Q 79.890625 40.578125 77.09375 44.375 
Q 74.3125 48.1875 68.609375 48.1875 
Q 61.625 48.1875 57.5625 43.546875 
Q 53.515625 38.921875 53.515625 30.90625 
L 53.515625 0 
L 44.484375 0 
L 44.484375 32.71875 
Q 44.484375 40.625 41.703125 44.40625 
Q 38.921875 48.1875 33.109375 48.1875 
Q 26.21875 48.1875 22.15625 43.53125 
Q 18.109375 38.875 18.109375 30.90625 
L 18.109375 0 
L 9.078125 0 
L 9.078125 54.6875 
L 18.109375 54.6875 
L 18.109375 46.1875 
Q 21.1875 51.21875 25.484375 53.609375 
Q 29.78125 56 35.6875 56 
Q 41.65625 56 45.828125 52.96875 
Q 50 49.953125 52 44.1875 
z
" id="DejaVuSans-109"/>
       <path d="M 44.390625 34.1875 
Q 47.5625 33.109375 50.5625 29.59375 
Q 53.5625 26.078125 56.59375 19.921875 
L 66.609375 0 
L 56 0 
L 46.6875 18.703125 
Q 43.0625 26.03125 39.671875 28.421875 
Q 36.28125 30.8125 30.421875 30.8125 
L 19.671875 30.8125 
L 19.671875 0 
L 9.8125 0 
L 9.8125 72.90625 
L 32.078125 72.90625 
Q 44.578125 72.90625 50.734375 67.671875 
Q 56.890625 62.453125 56.890625 51.90625 
Q 56.890625 45.015625 53.6875 40.46875 
Q 50.484375 35.9375 44.390625 34.1875 
z
M 19.671875 64.796875 
L 19.671875 38.921875 
L 32.078125 38.921875 
Q 39.203125 38.921875 42.84375 42.21875 
Q 46.484375 45.515625 46.484375 51.90625 
Q 46.484375 58.296875 42.84375 61.546875 
Q 39.203125 64.796875 32.078125 64.796875 
z
" id="DejaVuSans-82"/>
       <path d="M 18.3125 70.21875 
L 18.3125 54.6875 
L 36.8125 54.6875 
L 36.8125 47.703125 
L 18.3125 47.703125 
L 18.3125 18.015625 
Q 18.3125 11.328125 20.140625 9.421875 
Q 21.96875 7.515625 27.59375 7.515625 
L 36.8125 7.515625 
L 36.8125 0 
L 27.59375 0 
Q 17.1875 0 13.234375 3.875 
Q 9.28125 7.765625 9.28125 18.015625 
L 9.28125 47.703125 
L 2.6875 47.703125 
L 2.6875 54.6875 
L 9.28125 54.6875 
L 9.28125 70.21875 
z
" id="DejaVuSans-116"/>
      </defs>
      <use xlink:href="#DejaVuSans-70"/>
      <use x="48.394531" xlink:href="#DejaVuSans-97"/>
      <use x="109.673828" xlink:href="#DejaVuSans-108"/>
      <use x="137.457031" xlink:href="#DejaVuSans-115"/>
      <use x="189.556641" xlink:href="#DejaVuSans-101"/>
      <use x="251.080078" xlink:href="#DejaVuSans-32"/>
      <use x="282.867188" xlink:href="#DejaVuSans-65"/>
      <use x="351.275391" xlink:href="#DejaVuSans-108"/>
      <use x="379.058594" xlink:href="#DejaVuSans-97"/>
      <use x="440.337891" xlink:href="#DejaVuSans-114"/>
      <use x="479.701172" xlink:href="#DejaVuSans-109"/>
      <use x="577.113281" xlink:href="#DejaVuSans-32"/>
      <use x="608.900391" xlink:href="#DejaVuSans-82"/>
      <use x="676.132812" xlink:href="#DejaVuSans-97"/>
      <use x="737.412109" xlink:href="#DejaVuSans-116"/>
      <use x="776.621094" xlink:href="#DejaVuSans-101"/>
     </g>
    </g>
   </g>
   <g id="matplotlib.axis_2">
    <g id="ytick_1">
     <g id="line2d_42">
      <defs>
       <path d="M 0 0 
L -3.5 0 
" id="m25cf94f842" style="stroke:#000000;stroke-width:0.8;"/>
      </defs>
      <g>
       <use style="stroke:#000000;stroke-width:0.8;" x="57.6" xlink:href="#m25cf94f842" y="295.488"/>
      </g>
     </g>
     <g id="text_7">
      <!-- 0.0 -->
      <g transform="translate(34.696875 299.287219)scale(0.1 -0.1)">
       <defs>
        <path d="M 10.6875 12.40625 
L 21 12.40625 
L 21 0 
L 10.6875 0 
z
" id="DejaVuSans-46"/>
       </defs>
       <use xlink:href="#DejaVuSans-48"/>
       <use x="63.623047" xlink:href="#DejaVuSans-46"/>
       <use x="95.410156" xlink:href="#DejaVuSans-48"/>
      </g>
     </g>
    </g>
    <g id="ytick_2">
     <g id="line2d_43">
      <g>
       <use style="stroke:#000000;stroke-width:0.8;" x="57.6" xlink:href="#m25cf94f842" y="247.104"/>
      </g>
     </g>
     <g id="text_8">
      <!-- 0.2 -->
      <g transform="translate(34.696875 250.903219)scale(0.1 -0.1)">
       <use xlink:href="#DejaVuSans-48"/>
       <use x="63.623047" xlink:href="#DejaVuSans-46"/>
       <use x="95.410156" xlink:href="#DejaVuSans-50"/>
      </g>
     </g>
    </g>
    <g id="ytick_3">
     <g id="line2d_44">
      <g>
       <use style="stroke:#000000;stroke-width:0.8;" x="57.6" xlink:href="#m25cf94f842" y="198.72"/>
      </g>
     </g>
     <g id="text_9">
      <!-- 0.4 -->
      <g transform="translate(34.696875 202.519219)scale(0.1 -0.1)">
       <use xlink:href="#DejaVuSans-48"/>
       <use x="63.623047" xlink:href="#DejaVuSans-46"/>
       <use x="95.410156" xlink:href="#DejaVuSans-52"/>
      </g>
     </g>
    </g>
    <g id="ytick_4">
     <g id="line2d_45">
      <g>
       <use style="stroke:#000000;stroke-width:0.8;" x="57.6" xlink:href="#m25cf94f842" y="150.336"/>
      </g>
     </g>
     <g id="text_10">
      <!-- 0.6 -->
      <g transform="translate(34.696875 154.135219)scale(0.1 -0.1)">
       <defs>
        <path d="M 33.015625 40.375 
Q 26.375 40.375 22.484375 35.828125 
Q 18.609375 31.296875 18.609375 23.390625 
Q 18.609375 15.53125 22.484375 10.953125 
Q 26.375 6.390625 33.015625 6.390625 
Q 39.65625 6.390625 43.53125 10.953125 
Q 47.40625 15.53125 47.40625 23.390625 
Q 47.40625 31.296875 43.53125 35.828125 
Q 39.65625 40.375 33.015625 40.375 
z
M 52.59375 71.296875 
L 52.59375 62.3125 
Q 48.875 64.0625 45.09375 64.984375 
Q 41.3125 65.921875 37.59375 65.921875 
Q 27.828125 65.921875 22.671875 59.328125 
Q 17.53125 52.734375 16.796875 39.40625 
Q 19.671875 43.65625 24.015625 45.921875 
Q 28.375 48.1875 33.59375 48.1875 
Q 44.578125 48.1875 50.953125 41.515625 
Q 57.328125 34.859375 57.328125 23.390625 
Q 57.328125 12.15625 50.6875 5.359375 
Q 44.046875 -1.421875 33.015625 -1.421875 
Q 20.359375 -1.421875 13.671875 8.265625 
Q 6.984375 17.96875 6.984375 36.375 
Q 6.984375 53.65625 15.1875 63.9375 
Q 23.390625 74.21875 37.203125 74.21875 
Q 40.921875 74.21875 44.703125 73.484375 
Q 48.484375 72.75 52.59375 71.296875 
z
" id="DejaVuSans-54"/>
       </defs>
       <use xlink:href="#DejaVuSans-48"/>
       <use x="63.623047" xlink:href="#DejaVuSans-46"/>
       <use x="95.410156" xlink:href="#DejaVuSans-54"/>
      </g>
     </g>
    </g>
    <g id="ytick_5">
     <g id="line2d_46">
      <g>
       <use style="stroke:#000000;stroke-width:0.8;" x="57.6" xlink:href="#m25cf94f842" y="101.952"/>
      </g>
     </g>
     <g id="text_11">
      <!-- 0.8 -->
      <g transform="translate(34.696875 105.751219)scale(0.1 -0.1)">
       <defs>
        <path d="M 31.78125 34.625 
Q 24.75 34.625 20.71875 30.859375 
Q 16.703125 27.09375 16.703125 20.515625 
Q 16.703125 13.921875 20.71875 10.15625 
Q 24.75 6.390625 31.78125 6.390625 
Q 38.8125 6.390625 42.859375 10.171875 
Q 46.921875 13.96875 46.921875 20.515625 
Q 46.921875 27.09375 42.890625 30.859375 
Q 38.875 34.625 31.78125 34.625 
z
M 21.921875 38.8125 
Q 15.578125 40.375 12.03125 44.71875 
Q 8.5 49.078125 8.5 55.328125 
Q 8.5 64.0625 14.71875 69.140625 
Q 20.953125 74.21875 31.78125 74.21875 
Q 42.671875 74.21875 48.875 69.140625 
Q 55.078125 64.0625 55.078125 55.328125 
Q 55.078125 49.078125 51.53125 44.71875 
Q 48 40.375 41.703125 38.8125 
Q 48.828125 37.15625 52.796875 32.3125 
Q 56.78125 27.484375 56.78125 20.515625 
Q 56.78125 9.90625 50.3125 4.234375 
Q 43.84375 -1.421875 31.78125 -1.421875 
Q 19.734375 -1.421875 13.25 4.234375 
Q 6.78125 9.90625 6.78125 20.515625 
Q 6.78125 27.484375 10.78125 32.3125 
Q 14.796875 37.15625 21.921875 38.8125 
z
M 18.3125 54.390625 
Q 18.3125 48.734375 21.84375 45.5625 
Q 25.390625 42.390625 31.78125 42.390625 
Q 38.140625 42.390625 41.71875 45.5625 
Q 45.3125 48.734375 45.3125 54.390625 
Q 45.3125 60.0625 41.71875 63.234375 
Q 38.140625 66.40625 31.78125 66.40625 
Q 25.390625 66.40625 21.84375 63.234375 
Q 18.3125 60.0625 18.3125 54.390625 
z
" id="DejaVuSans-56"/>
       </defs>
       <use xlink:href="#DejaVuSans-48"/>
       <use x="63.623047" xlink:href="#DejaVuSans-46"/>
       <use x="95.410156" xlink:href="#DejaVuSans-56"/>
      </g>
     </g>
    </g>
    <g id="ytick_6">
     <g id="line2d_47">
      <g>
       <use style="stroke:#000000;stroke-width:0.8;" x="57.6" xlink:href="#m25cf94f842" y="53.568"/>
      </g>
     </g>
     <g id="text_12">
      <!-- 1.0 -->
      <g transform="translate(34.696875 57.367219)scale(0.1 -0.1)">
       <use xlink:href="#DejaVuSans-49"/>
       <use x="63.623047" xlink:href="#DejaVuSans-46"/>
       <use x="95.410156" xlink:href="#DejaVuSans-48"/>
      </g>
     </g>
    </g>
    <g id="text_13">
     <!-- Recall -->
     <g transform="translate(28.617187 189.445188)rotate(-90)scale(0.1 -0.1)">
      <defs>
       <path d="M 48.78125 52.59375 
L 48.78125 44.1875 
Q 44.96875 46.296875 41.140625 47.34375 
Q 37.3125 48.390625 33.40625 48.390625 
Q 24.65625 48.390625 19.8125 42.84375 
Q 14.984375 37.3125 14.984375 27.296875 
Q 14.984375 17.28125 19.8125 11.734375 
Q 24.65625 6.203125 33.40625 6.203125 
Q 37.3125 6.203125 41.140625 7.25 
Q 44.96875 8.296875 48.78125 10.40625 
L 48.78125 2.09375 
Q 45.015625 0.34375 40.984375 -0.53125 
Q 36.96875 -1.421875 32.421875 -1.421875 
Q 20.0625 -1.421875 12.78125 6.34375 
Q 5.515625 14.109375 5.515625 27.296875 
Q 5.515625 40.671875 12.859375 48.328125 
Q 20.21875 56 33.015625 56 
Q 37.15625 56 41.109375 55.140625 
Q 45.0625 54.296875 48.78125 52.59375 
z
" id="DejaVuSans-99"/>
      </defs>
      <use xlink:href="#DejaVuSans-82"/>
      <use x="64.982422" xlink:href="#DejaVuSans-101"/>
      <use x="126.505859" xlink:href="#DejaVuSans-99"/>
      <use x="181.486328" xlink:href="#DejaVuSans-97"/>
      <use x="242.765625" xlink:href="#DejaVuSans-108"/>
      <use x="270.548828" xlink:href="#DejaVuSans-108"/>
     </g>
    </g>
   </g>
   <g id="line2d_48">
    <path clip-path="url(#p0a7737e7de)" d="M -1 288.157091 
L 73.832727 288.157091 
L 73.832727 271.051636 
L 97.812302 271.051636 
L 97.812302 268.608 
L 135.819028 268.608 
L 135.819028 266.164364 
L 167.518301 266.164364 
L 167.518301 263.720727 
L 182.305817 263.720727 
L 182.305817 261.277091 
L 190.325044 261.277091 
L 190.325044 258.833455 
L 196.830751 258.833455 
L 196.830751 256.389818 
L 203.952246 256.389818 
L 203.952246 253.946182 
L 211.185822 253.946182 
L 211.185822 251.502545 
L 236.759928 251.502545 
L 236.759928 249.058909 
L 252.509598 249.058909 
L 252.509598 246.615273 
L 269.260194 246.615273 
L 269.260194 244.171636 
L 294.141519 244.171636 
L 294.141519 241.728 
L 297.422608 241.728 
L 297.422608 239.284364 
L 311.789896 239.284364 
L 311.789896 236.840727 
L 320.61062 236.840727 
L 320.61062 234.397091 
L 322.255112 234.397091 
L 322.255112 231.953455 
L 335.947156 231.953455 
L 335.947156 229.509818 
L 337.217326 229.509818 
L 337.217326 227.066182 
L 340.100564 227.066182 
L 340.100564 224.622545 
L 343.9352 224.622545 
L 343.9352 222.178909 
L 350.408735 222.178909 
L 350.408735 219.735273 
L 351.511098 219.735273 
L 351.511098 217.291636 
L 354.704446 217.291636 
L 354.704446 214.848 
L 358.745953 214.848 
L 358.745953 212.404364 
L 362.057397 212.404364 
L 362.057397 209.960727 
L 369.576543 209.960727 
L 369.576543 207.517091 
L 369.703694 207.517091 
L 369.703694 205.073455 
L 370.398069 205.073455 
L 370.502665 200.186182 
L 372.690484 200.186182 
L 372.690484 197.742545 
L 375.26958 197.742545 
L 375.26958 195.298909 
L 375.72159 195.298909 
L 375.72159 192.855273 
L 375.956552 192.855273 
L 375.956552 190.411636 
L 376.073437 190.411636 
L 376.073437 187.968 
L 376.799237 187.968 
L 376.799237 185.524364 
L 377.504792 185.524364 
L 377.504792 183.080727 
L 378.28497 183.080727 
L 378.28497 180.637091 
L 380.417535 180.637091 
L 380.417535 178.193455 
L 380.821934 178.193455 
L 380.821934 175.749818 
L 381.455493 175.749818 
L 381.455493 173.306182 
L 382.068314 173.306182 
L 382.068314 170.862545 
L 383.063133 170.862545 
L 383.063133 168.418909 
L 383.302923 168.418909 
L 383.302923 165.975273 
L 385.953549 165.975273 
L 385.953549 163.531636 
L 387.914015 163.531636 
L 387.914015 161.088 
L 388.590038 161.088 
L 388.590038 158.644364 
L 390.307415 158.644364 
L 390.307415 156.200727 
L 390.483715 156.200727 
L 390.483715 153.757091 
L 390.619003 153.757091 
L 390.619003 151.313455 
L 390.989241 151.313455 
L 391.028934 146.426182 
L 393.388097 146.426182 
L 393.388097 143.982545 
L 393.535998 143.982545 
L 393.623097 136.651636 
L 393.766667 136.651636 
L 393.853188 131.764364 
L 393.979254 131.764364 
L 393.979254 129.320727 
L 395.857912 129.320727 
L 395.857912 126.877091 
L 395.998766 126.877091 
L 396.098581 121.989818 
L 396.229152 121.989818 
L 396.229152 119.546182 
L 396.368506 119.546182 
L 396.368506 117.102545 
L 396.862534 117.102545 
L 396.862534 114.658909 
L 397.075148 114.658909 
L 397.123563 109.771636 
L 397.187004 109.771636 
L 397.280444 102.440727 
L 397.397639 102.440727 
L 397.490513 92.666182 
L 397.53835 92.666182 
L 397.639784 85.335273 
L 397.88912 85.335273 
L 397.933456 73.117091 
L 398.004275 73.117091 
L 398.004275 70.673455 
L 398.171893 70.673455 
L 398.277339 65.786182 
L 398.356214 65.786182 
L 398.466918 56.011636 
L 398.478551 56.011636 
L 398.478551 53.568 
L 398.487273 53.568 
" style="fill:none;stroke:#ff0000;stroke-linecap:square;stroke-width:1.5;"/>
   </g>
   <g id="line2d_49">
    <path clip-path="url(#p0a7737e7de)" d="M -1 273.495273 
L 73.832727 273.495273 
L 73.832727 266.164364 
L 121.791876 266.164364 
L 121.791876 261.277091 
L 135.819028 261.277091 
L 135.819028 256.389818 
L 145.77145 256.389818 
L 145.77145 244.171636 
L 167.518301 244.171636 
L 167.518301 241.728 
L 179.158629 241.728 
L 179.158629 239.284364 
L 182.305817 239.284364 
L 182.305817 236.840727 
L 186.547271 236.840727 
L 186.547271 231.953455 
L 191.497875 231.953455 
L 191.497875 227.066182 
L 192.632246 227.066182 
L 192.632246 224.622545 
L 193.730599 224.622545 
L 193.730599 222.178909 
L 194.795151 222.178909 
L 194.795151 219.735273 
L 205.525027 219.735273 
L 205.525027 217.291636 
L 212.467272 217.291636 
L 212.467272 214.848 
L 214.304618 214.848 
L 214.304618 212.404364 
L 222.262085 212.404364 
L 222.262085 209.960727 
L 224.553997 209.960727 
L 224.553997 207.517091 
L 230.638972 207.517091 
L 230.638972 205.073455 
L 235.165396 205.073455 
L 235.165396 202.629818 
L 246.477805 202.629818 
L 246.477805 200.186182 
L 247.406592 200.186182 
L 247.406592 197.742545 
L 250.0521 197.742545 
L 250.0521 195.298909 
L 250.263692 195.298909 
L 250.263692 192.855273 
L 251.506768 192.855273 
L 251.506768 190.411636 
L 253.484175 190.411636 
L 253.484175 187.968 
L 260.583316 187.968 
L 260.583316 185.524364 
L 264.710185 185.524364 
L 264.710185 183.080727 
L 269.62372 183.080727 
L 269.62372 180.637091 
L 269.983465 180.637091 
L 269.983465 178.193455 
L 273.81878 178.193455 
L 273.81878 175.749818 
L 276.091522 175.749818 
L 276.091522 173.306182 
L 276.979893 173.306182 
L 276.979893 170.862545 
L 281.538479 170.862545 
L 281.538479 168.418909 
L 283.449385 168.418909 
L 283.449385 165.975273 
L 298.953386 165.975273 
L 298.953386 163.531636 
L 301.634988 163.531636 
L 301.634988 161.088 
L 308.854135 161.088 
L 308.854135 158.644364 
L 310.924069 158.644364 
L 310.924069 156.200727 
L 312.564974 156.200727 
L 312.564974 153.757091 
L 313.662238 153.757091 
L 313.662238 151.313455 
L 315.342108 151.313455 
L 315.342108 148.869818 
L 317.55272 148.869818 
L 317.55272 146.426182 
L 321.670989 146.426182 
L 321.670989 143.982545 
L 322.334006 143.982545 
L 322.334006 141.538909 
L 323.087518 141.538909 
L 323.087518 139.095273 
L 323.824967 139.095273 
L 323.824967 136.651636 
L 324.670007 136.651636 
L 324.670007 134.208 
L 327.497602 134.208 
L 327.497602 131.764364 
L 328.654591 131.764364 
L 328.654591 129.320727 
L 334.812194 129.320727 
L 334.812194 126.877091 
L 336.839421 126.877091 
L 336.839421 124.433455 
L 340.785332 124.433455 
L 340.785332 121.989818 
L 341.107436 121.989818 
L 341.107436 119.546182 
L 341.877424 119.546182 
L 341.877424 117.102545 
L 343.638486 117.102545 
L 343.638486 114.658909 
L 345.744154 114.658909 
L 345.744154 112.215273 
L 347.779372 112.215273 
L 347.779372 109.771636 
L 348.588144 109.771636 
L 348.588144 107.328 
L 350.5717 107.328 
L 350.5717 104.884364 
L 353.090659 104.884364 
L 353.090659 102.440727 
L 355.909553 102.440727 
L 355.909553 99.997091 
L 356.570031 99.997091 
L 356.570031 97.553455 
L 357.854322 97.553455 
L 357.854322 95.109818 
L 359.749045 95.109818 
L 359.749045 92.666182 
L 365.239345 92.666182 
L 365.254542 87.778909 
L 365.375875 87.778909 
L 365.375875 85.335273 
L 370.280018 85.335273 
L 370.280018 82.891636 
L 370.846899 82.891636 
L 370.846899 80.448 
L 381.52676 80.448 
L 381.52676 78.004364 
L 382.203552 78.004364 
L 382.203552 75.560727 
L 383.199068 75.560727 
L 383.199068 73.117091 
L 385.240481 73.117091 
L 385.26605 68.229818 
L 387.156018 68.229818 
L 387.156018 65.786182 
L 388.50092 65.786182 
L 388.50092 63.342545 
L 389.739385 63.342545 
L 389.739385 60.898909 
L 390.204156 60.898909 
L 390.204156 58.455273 
L 392.11872 58.455273 
L 392.11872 56.011636 
L 397.856571 56.011636 
L 397.856571 53.568 
L 398.487273 53.568 
L 398.487273 53.568 
" style="fill:none;stroke:#0000ff;stroke-linecap:square;stroke-width:1.5;"/>
   </g>
   <g id="line2d_50">
    <path clip-path="url(#p0a7737e7de)" d="M -1 295.488 
L 111.839453 295.488 
L 111.839453 293.044364 
L 121.791876 293.044364 
L 121.791876 288.157091 
L 141.151903 288.157091 
L 141.151903 280.826182 
L 162.567697 280.826182 
L 162.567697 278.382545 
L 165.131478 278.382545 
L 165.131478 275.938909 
L 167.518301 275.938909 
L 167.518301 273.495273 
L 169.751025 273.495273 
L 169.751025 268.608 
L 173.825754 268.608 
L 173.825754 266.164364 
L 185.190422 266.164364 
L 185.190422 261.277091 
L 203.138204 261.277091 
L 203.138204 258.833455 
L 204.747574 258.833455 
L 204.747574 256.389818 
L 205.525027 256.389818 
L 205.525027 253.946182 
L 207.757751 253.946182 
L 207.757751 251.502545 
L 209.169996 251.502545 
L 209.169996 249.058909 
L 210.526845 249.058909 
L 210.526845 246.615273 
L 214.304618 246.615273 
L 214.304618 244.171636 
L 214.896004 244.171636 
L 214.896004 241.728 
L 215.477449 241.728 
L 215.477449 239.284364 
L 217.710173 239.284364 
L 217.710173 231.953455 
L 218.246544 231.953455 
L 218.246544 229.509818 
L 218.774725 229.509818 
L 218.774725 227.066182 
L 219.294964 227.066182 
L 219.294964 222.178909 
L 219.807495 222.178909 
L 219.807495 219.735273 
L 221.784902 219.735273 
L 221.784902 217.291636 
L 224.107601 217.291636 
L 224.107601 214.848 
L 224.994706 214.848 
L 224.994706 212.404364 
L 225.429872 212.404364 
L 225.429872 209.960727 
L 227.527194 209.960727 
L 227.527194 207.517091 
L 229.118058 207.517091 
L 229.118058 205.073455 
L 229.504601 205.073455 
L 229.504601 202.629818 
L 230.264966 202.629818 
L 230.264966 200.186182 
L 232.095828 200.186182 
L 232.095828 197.742545 
L 233.493804 197.742545 
L 233.493804 195.298909 
L 234.50642 195.298909 
L 234.50642 192.855273 
L 237.377716 192.855273 
L 237.377716 190.411636 
L 243.787069 190.411636 
L 243.787069 187.968 
L 250.0521 187.968 
L 250.0521 185.524364 
L 250.683034 185.524364 
L 250.683034 183.080727 
L 251.097352 183.080727 
L 251.097352 180.637091 
L 253.291444 180.637091 
L 253.291444 178.193455 
L 260.268811 178.193455 
L 260.268811 175.749818 
L 260.426421 175.749818 
L 260.426421 173.306182 
L 264.848844 173.306182 
L 264.848844 170.862545 
L 266.338496 170.862545 
L 266.338496 168.418909 
L 267.124785 168.418909 
L 267.124785 165.975273 
L 271.271422 165.975273 
L 271.271422 163.531636 
L 271.614518 163.531636 
L 271.614518 161.088 
L 271.841373 161.088 
L 271.841373 158.644364 
L 276.191364 158.644364 
L 276.191364 156.200727 
L 283.042856 156.200727 
L 283.042856 153.757091 
L 291.746218 153.757091 
L 291.746218 151.313455 
L 293.300622 151.313455 
L 293.300622 148.869818 
L 293.903341 148.869818 
L 293.903341 146.426182 
L 297.314498 146.426182 
L 297.314498 143.982545 
L 299.107944 143.982545 
L 299.107944 141.538909 
L 299.820223 141.538909 
L 299.820223 139.095273 
L 300.121053 139.095273 
L 300.121053 136.651636 
L 302.437916 136.651636 
L 302.437916 134.208 
L 303.585839 134.208 
L 303.585839 131.764364 
L 304.212419 131.764364 
L 304.212419 129.320727 
L 306.068877 129.320727 
L 306.068877 126.877091 
L 306.611067 126.877091 
L 306.611067 124.433455 
L 312.285133 124.433455 
L 312.285133 121.989818 
L 312.704051 121.989818 
L 312.704051 119.546182 
L 313.425168 119.546182 
L 313.425168 117.102545 
L 313.526969 117.102545 
L 314.297645 117.102545 
L 314.297645 114.658909 
L 315.116311 114.658909 
L 315.116311 112.215273 
L 320.720884 112.215273 
L 320.720884 109.771636 
L 328.894458 109.771636 
L 328.894458 107.328 
L 329.646791 107.328 
L 329.646791 104.884364 
L 333.902962 104.884364 
L 333.978087 99.997091 
L 343.424979 99.997091 
L 343.424979 97.553455 
L 349.653814 97.553455 
L 349.653814 95.109818 
L 349.927014 95.109818 
L 349.927014 92.666182 
L 351.904421 92.666182 
L 351.904421 90.222545 
L 352.557494 90.222545 
L 352.557494 87.778909 
L 357.035575 87.778909 
L 357.035575 85.335273 
L 358.571299 85.335273 
L 358.571299 82.891636 
L 361.604507 82.891636 
L 361.604507 80.448 
L 361.772936 80.448 
L 361.772936 78.004364 
L 364.377498 78.004364 
L 364.377498 75.560727 
L 368.618052 75.560727 
L 368.618052 73.117091 
L 372.861627 73.117091 
L 372.861627 70.673455 
L 375.303686 70.673455 
L 375.303686 68.229818 
L 377.403347 68.229818 
L 377.403347 65.786182 
L 379.058137 65.786182 
L 379.058137 63.342545 
L 382.532437 63.342545 
L 382.532437 60.898909 
L 394.654784 60.898909 
L 394.654784 58.455273 
L 396.825955 58.455273 
L 396.825955 56.011636 
L 397.096338 56.011636 
L 397.096338 53.568 
L 398.487273 53.568 
L 398.487273 53.568 
" style="fill:none;stroke:#000000;stroke-linecap:square;stroke-width:1.5;"/>
   </g>
   <g id="line2d_51">
    <path clip-path="url(#p0a7737e7de)" d="M -1 285.713455 
L 73.832727 285.713455 
L 73.832727 258.833455 
L 111.839453 258.833455 
L 111.839453 253.946182 
L 165.131478 253.946182 
L 165.131478 251.502545 
L 169.751025 251.502545 
L 169.751025 249.058909 
L 182.305817 249.058909 
L 182.305817 246.615273 
L 191.497875 246.615273 
L 191.497875 244.171636 
L 197.805328 244.171636 
L 197.805328 241.728 
L 207.757751 241.728 
L 207.757751 239.284364 
L 214.896004 239.284364 
L 214.896004 236.840727 
L 234.50642 236.840727 
L 234.50642 234.397091 
L 235.165396 234.397091 
L 235.165396 231.953455 
L 246.477805 231.953455 
L 246.477805 229.509818 
L 260.583316 229.509818 
L 260.583316 227.066182 
L 263.580445 227.066182 
L 263.580445 224.622545 
L 269.863965 224.622545 
L 269.863965 222.178909 
L 272.734202 222.178909 
L 272.734202 219.735273 
L 277.750849 219.735273 
L 277.750849 217.291636 
L 308.77648 217.291636 
L 308.77648 214.848 
L 309.734858 214.848 
L 309.734858 212.404364 
L 309.998513 212.404364 
L 309.998513 209.960727 
L 310.482891 209.960727 
L 310.482891 207.517091 
L 317.462117 207.517091 
L 317.462117 205.073455 
L 329.197357 205.073455 
L 329.197357 202.629818 
L 341.471919 202.629818 
L 341.471919 200.186182 
L 342.513574 200.186182 
L 342.513574 197.742545 
L 346.977017 197.742545 
L 346.977017 195.298909 
L 347.156934 195.298909 
L 347.156934 192.855273 
L 351.803708 192.855273 
L 351.803708 190.411636 
L 362.380835 190.411636 
L 362.380835 187.968 
L 363.954166 187.968 
L 363.954166 185.524364 
L 366.020851 185.524364 
L 366.087659 180.637091 
L 366.595609 180.637091 
L 366.595609 178.193455 
L 366.726901 178.193455 
L 366.814152 173.306182 
L 367.096209 173.306182 
L 367.096209 170.862545 
L 368.006101 170.862545 
L 368.006101 168.418909 
L 370.756301 168.418909 
L 370.788685 163.531636 
L 373.364024 163.531636 
L 373.364024 161.088 
L 373.430063 161.088 
L 373.675102 161.088 
L 373.675102 158.644364 
L 375.586606 158.644364 
L 375.586606 156.200727 
L 379.554098 156.200727 
L 379.554098 153.757091 
L 384.781293 153.757091 
L 384.781293 151.313455 
L 385.592523 151.313455 
L 385.592523 148.869818 
L 386.746218 148.869818 
L 386.746218 146.426182 
L 387.333038 146.426182 
L 387.333038 143.982545 
L 387.477201 143.982545 
L 387.477201 141.538909 
L 389.020753 141.538909 
L 389.020753 139.095273 
L 389.184702 139.095273 
L 389.184702 136.651636 
L 389.480131 136.651636 
L 389.480131 134.208 
L 389.487673 134.208 
L 390.644538 134.208 
L 390.73922 126.877091 
L 390.848147 126.877091 
L 390.92781 121.989818 
L 391.68267 121.989818 
L 391.68267 119.546182 
L 391.91896 119.546182 
L 391.91896 117.102545 
L 391.971641 117.102545 
L 392.824346 117.102545 
L 392.824346 114.658909 
L 393.95938 114.658909 
L 394.058639 109.771636 
L 394.075155 109.771636 
L 394.180668 104.884364 
L 394.823242 104.884364 
L 394.910387 99.997091 
L 395.46996 99.997091 
L 395.495325 95.109818 
L 395.703883 95.109818 
L 395.810833 90.222545 
L 396.04559 90.222545 
L 396.04559 87.778909 
L 396.260168 87.778909 
L 396.260168 85.335273 
L 396.761847 85.335273 
L 396.780176 80.448 
L 396.978115 80.448 
L 397.002399 75.560727 
L 397.508459 75.560727 
L 397.508459 73.117091 
L 397.717152 73.117091 
L 397.717152 70.673455 
L 397.859532 70.673455 
L 397.968884 63.342545 
L 398.23637 63.342545 
L 398.335782 56.011636 
L 398.350377 56.011636 
L 398.350377 53.568 
L 398.487273 53.568 
L 398.487273 53.568 
" style="fill:none;stroke:#d2691e;stroke-linecap:square;stroke-width:1.5;"/>
   </g>
   <g id="line2d_52">
    <path clip-path="url(#p0a7737e7de)" d="M -1 295.488 
L 73.832727 295.488 
L 73.832727 293.044364 
L 149.846179 293.044364 
L 149.846179 290.600727 
L 153.491149 290.600727 
L 153.491149 288.157091 
L 169.751025 288.157091 
L 169.751025 285.713455 
L 179.158629 285.713455 
L 179.158629 283.269818 
L 183.778176 283.269818 
L 183.778176 280.826182 
L 212.467272 280.826182 
L 212.467272 278.382545 
L 223.65537 278.382545 
L 223.65537 275.938909 
L 234.50642 275.938909 
L 234.50642 273.495273 
L 246.945315 273.495273 
L 246.945315 271.051636 
L 248.974281 271.051636 
L 248.974281 268.608 
L 251.302666 268.608 
L 251.302666 266.164364 
L 259.631094 266.164364 
L 259.631094 263.720727 
L 261.35729 263.720727 
L 261.35729 261.277091 
L 267.639221 261.277091 
L 267.639221 258.833455 
L 268.645698 258.833455 
L 268.645698 256.389818 
L 273.172122 256.389818 
L 273.172122 253.946182 
L 277.367518 253.946182 
L 277.367518 251.502545 
L 279.515819 251.502545 
L 279.515819 249.058909 
L 282.796625 249.058909 
L 282.796625 246.615273 
L 284.010617 246.615273 
L 284.010617 244.171636 
L 287.199274 244.171636 
L 287.199274 241.728 
L 288.550543 241.728 
L 288.550543 239.284364 
L 312.390339 239.284364 
L 312.390339 236.840727 
L 317.763209 236.840727 
L 317.763209 234.397091 
L 319.28799 234.397091 
L 319.28799 231.953455 
L 319.402544 231.953455 
L 319.402544 229.509818 
L 319.772246 229.509818 
L 319.772246 227.066182 
L 324.76808 227.066182 
L 324.76808 224.622545 
L 326.835144 224.622545 
L 326.835144 222.178909 
L 334.221124 222.178909 
L 334.221124 219.735273 
L 341.320517 219.735273 
L 341.320517 217.291636 
L 341.937097 217.291636 
L 341.937097 214.848 
L 343.109431 214.848 
L 343.195776 209.960727 
L 344.354711 209.960727 
L 344.354711 207.517091 
L 345.001884 207.517091 
L 345.001884 205.073455 
L 349.974308 205.073455 
L 349.986121 200.186182 
L 353.764301 200.186182 
L 353.764301 197.742545 
L 355.478922 197.742545 
L 355.478922 195.298909 
L 355.879682 195.298909 
L 355.879682 192.855273 
L 357.246874 192.855273 
L 357.246874 190.411636 
L 359.056308 190.411636 
L 359.056308 187.968 
L 359.757951 187.968 
L 359.757951 185.524364 
L 362.099032 185.524364 
L 362.099032 183.080727 
L 365.557081 183.080727 
L 365.557081 180.637091 
L 367.844359 180.637091 
L 367.949928 175.749818 
L 368.549055 175.749818 
L 368.659385 170.862545 
L 368.988278 170.862545 
L 368.988278 168.418909 
L 369.936704 168.418909 
L 369.936704 165.975273 
L 371.334615 165.975273 
L 371.334615 163.531636 
L 372.487687 163.531636 
L 372.487687 161.088 
L 373.183275 161.088 
L 373.183275 158.644364 
L 374.713476 158.644364 
L 374.713476 156.200727 
L 375.360456 156.200727 
L 375.360456 153.757091 
L 377.231818 153.757091 
L 377.231818 151.313455 
L 380.294795 151.313455 
L 380.294795 148.869818 
L 380.304631 148.869818 
L 381.607351 148.869818 
L 381.607351 146.426182 
L 383.044968 146.426182 
L 383.044968 143.982545 
L 384.346565 143.982545 
L 384.346565 141.538909 
L 384.542869 141.538909 
L 384.577651 136.651636 
L 386.562059 136.651636 
L 386.562059 134.208 
L 387.296903 134.208 
L 387.296903 131.764364 
L 387.692327 131.764364 
L 387.692327 129.320727 
L 390.491041 129.320727 
L 390.491041 126.877091 
L 390.648185 126.877091 
L 390.648185 124.433455 
L 391.014505 124.433455 
L 391.061375 119.546182 
L 391.494604 119.546182 
L 391.494604 117.102545 
L 391.763967 117.102545 
L 391.763967 114.658909 
L 392.34859 114.658909 
L 392.34859 112.215273 
L 392.824346 112.215273 
L 392.824346 109.771636 
L 393.856512 109.771636 
L 393.856512 107.328 
L 394.390735 107.328 
L 394.403822 102.440727 
L 395.106467 102.440727 
L 395.151313 97.553455 
L 395.691279 97.553455 
L 395.691279 95.109818 
L 396.216738 95.109818 
L 396.216738 92.666182 
L 396.430261 92.666182 
L 396.430261 90.222545 
L 397.17191 90.222545 
L 397.196058 85.335273 
L 397.496496 85.335273 
L 397.541337 80.448 
L 397.773581 80.448 
L 397.773581 78.004364 
L 397.96003 78.004364 
L 397.96003 75.560727 
L 397.977735 75.560727 
L 398.124924 75.560727 
L 398.124924 73.117091 
L 398.291959 73.117091 
L 398.359131 68.229818 
L 398.431997 68.229818 
L 398.487273 53.568 
L 398.487273 53.568 
" style="fill:none;stroke:#ffff00;stroke-linecap:square;stroke-width:1.5;"/>
   </g>
   <g id="line2d_53">
    <path clip-path="url(#p0a7737e7de)" d="M -1 293.044364 
L 73.832727 293.044364 
L 73.832727 288.157091 
L 156.788425 288.157091 
L 156.788425 285.713455 
L 167.518301 285.713455 
L 167.518301 283.269818 
L 223.197148 283.269818 
L 223.197148 280.826182 
L 228.727148 280.826182 
L 228.727148 278.382545 
L 234.50642 278.382545 
L 234.50642 275.938909 
L 239.457024 275.938909 
L 239.457024 273.495273 
L 248.087175 273.495273 
L 248.087175 271.051636 
L 249.839206 271.051636 
L 249.839206 268.608 
L 257.129145 268.608 
L 257.129145 266.164364 
L 258.151738 266.164364 
L 258.151738 263.720727 
L 280.054977 263.720727 
L 280.054977 261.277091 
L 280.58586 261.277091 
L 280.58586 258.833455 
L 285.489603 258.833455 
L 285.489603 256.389818 
L 287.488171 256.389818 
L 287.488171 253.946182 
L 287.703271 253.946182 
L 287.703271 251.502545 
L 293.422009 251.502545 
L 293.422009 249.058909 
L 294.554425 249.058909 
L 294.554425 246.615273 
L 296.046324 246.615273 
L 296.046324 244.171636 
L 312.980537 244.171636 
L 312.980537 241.728 
L 313.662238 241.728 
L 313.662238 239.284364 
L 322.176037 239.284364 
L 322.176037 236.840727 
L 322.360265 236.840727 
L 322.360265 234.397091 
L 322.855421 234.397091 
L 322.855421 231.953455 
L 326.417491 231.953455 
L 326.417491 229.509818 
L 326.8582 229.509818 
L 326.904265 224.622545 
L 330.590641 224.622545 
L 330.590641 222.178909 
L 331.549697 222.178909 
L 331.549697 219.735273 
L 332.424063 219.735273 
L 332.424063 217.291636 
L 335.60877 217.291636 
L 335.60877 214.848 
L 340.785332 214.848 
L 340.785332 212.404364 
L 345.877418 212.404364 
L 345.877418 209.960727 
L 347.475903 209.960727 
L 347.475903 207.517091 
L 348.73541 207.517091 
L 348.73541 205.073455 
L 352.601327 205.073455 
L 352.601327 202.629818 
L 354.341864 202.629818 
L 354.341864 200.186182 
L 354.79707 200.186182 
L 354.79707 197.742545 
L 355.559446 197.742545 
L 355.559446 195.298909 
L 357.750673 195.298909 
L 357.750673 192.855273 
L 359.462837 192.855273 
L 359.462837 190.411636 
L 362.248508 190.411636 
L 362.248508 187.968 
L 363.381542 187.968 
L 363.381542 185.524364 
L 367.211263 185.524364 
L 367.211263 183.080727 
L 368.174073 183.080727 
L 368.174073 180.637091 
L 369.717051 180.637091 
L 369.717051 178.193455 
L 370.187922 178.193455 
L 370.187922 175.749818 
L 372.763934 175.749818 
L 372.763934 173.306182 
L 373.031927 173.306182 
L 373.031927 170.862545 
L 376.826433 170.862545 
L 376.826433 168.418909 
L 377.021611 168.418909 
L 377.021611 165.975273 
L 378.461742 165.975273 
L 378.461742 163.531636 
L 380.097503 163.531636 
L 380.097503 161.088 
L 381.283852 161.088 
L 381.283852 158.644364 
L 382.798803 158.644364 
L 382.798803 156.200727 
L 384.690452 156.200727 
L 384.690452 153.757091 
L 385.444508 153.757091 
L 385.444508 151.313455 
L 385.554522 151.313455 
L 385.76511 151.313455 
L 385.781901 146.426182 
L 387.095463 146.426182 
L 387.095463 143.982545 
L 389.139027 143.982545 
L 389.139027 139.095273 
L 389.389498 139.095273 
L 389.389498 136.651636 
L 389.630659 136.651636 
L 389.641923 131.764364 
L 389.985562 131.764364 
L 389.985562 129.320727 
L 390.523991 129.320727 
L 390.523991 126.877091 
L 390.815505 126.877091 
L 390.815505 124.433455 
L 391.978659 124.433455 
L 391.978659 121.989818 
L 393.609712 121.989818 
L 393.609712 119.546182 
L 393.740001 119.546182 
L 393.740001 117.102545 
L 393.896368 117.102545 
L 393.896368 114.658909 
L 394.916834 114.658909 
L 394.916834 112.215273 
L 395.256791 112.215273 
L 395.256791 109.771636 
L 395.301443 109.771636 
L 395.713333 109.771636 
L 395.713333 107.328 
L 395.791984 107.328 
L 395.826533 107.328 
L 395.882995 102.440727 
L 397.301508 102.440727 
L 397.313539 97.553455 
L 397.484528 97.553455 
L 397.484528 95.109818 
L 397.607 95.109818 
L 397.642763 90.222545 
L 397.743893 90.222545 
L 397.841766 80.448 
L 397.892078 80.448 
L 397.986584 75.560727 
L 398.007223 75.560727 
L 398.11611 68.229818 
L 398.318259 68.229818 
L 398.429085 60.898909 
L 398.475643 60.898909 
L 398.481458 53.568 
L 398.487273 53.568 
" style="fill:none;stroke:#008000;stroke-linecap:square;stroke-width:1.5;"/>
   </g>
   <g id="patch_3">
    <path d="M 57.6 307.584 
L 57.6 41.472 
" style="fill:none;stroke:#000000;stroke-linecap:square;stroke-linejoin:miter;stroke-width:0.8;"/>
   </g>
   <g id="patch_4">
    <path d="M 414.72 307.584 
L 414.72 41.472 
" style="fill:none;stroke:#000000;stroke-linecap:square;stroke-linejoin:miter;stroke-width:0.8;"/>
   </g>
   <g id="patch_5">
    <path d="M 57.6 307.584 
L 414.72 307.584 
" style="fill:none;stroke:#000000;stroke-linecap:square;stroke-linejoin:miter;stroke-width:0.8;"/>
   </g>
   <g id="patch_6">
    <path d="M 57.6 41.472 
L 414.72 41.472 
" style="fill:none;stroke:#000000;stroke-linecap:square;stroke-linejoin:miter;stroke-width:0.8;"/>
   </g>
   <g id="legend_1">
    <g id="line2d_54">
     <path d="M 65.7 53.262 
L 83.7 53.262 
" style="fill:none;stroke:#ff0000;stroke-linecap:square;stroke-width:1.5;"/>
    </g>
    <g id="line2d_55"/>
    <g id="text_14">
     <!-- $batch\_size=100$ -->
     <g transform="translate(90.9 56.412)scale(0.09 -0.09)">
      <defs>
       <path d="M 49.515625 33.40625 
Q 49.515625 40.484375 46.265625 44.484375 
Q 43.015625 48.484375 37.3125 48.484375 
Q 33.15625 48.484375 29.515625 46.453125 
Q 25.875 44.4375 23.1875 40.578125 
Q 20.359375 36.53125 18.71875 31.171875 
Q 17.09375 25.828125 17.09375 20.515625 
Q 17.09375 13.765625 20.28125 9.9375 
Q 23.484375 6.109375 29.109375 6.109375 
Q 33.34375 6.109375 36.953125 8.078125 
Q 40.578125 10.0625 43.3125 13.921875 
Q 46.09375 17.921875 47.796875 23.234375 
Q 49.515625 28.5625 49.515625 33.40625 
z
M 21.578125 46.390625 
Q 24.90625 50.875 29.90625 53.4375 
Q 34.90625 56 40.375 56 
Q 48.78125 56 53.734375 50.328125 
Q 58.6875 44.671875 58.6875 35.015625 
Q 58.6875 27.09375 55.78125 19.671875 
Q 52.875 12.25 47.515625 6.5 
Q 44 2.6875 39.40625 0.625 
Q 34.8125 -1.421875 29.78125 -1.421875 
Q 24.46875 -1.421875 20.5625 1.015625 
Q 16.65625 3.46875 14.203125 8.296875 
L 12.59375 0 
L 3.609375 0 
L 18.40625 75.984375 
L 27.390625 75.984375 
z
" id="DejaVuSans-Oblique-98"/>
       <path d="M 53.71875 31.203125 
L 47.609375 0 
L 38.625 0 
L 40.28125 8.296875 
Q 36.328125 3.421875 31.265625 1 
Q 26.21875 -1.421875 20.015625 -1.421875 
Q 13.03125 -1.421875 8.5625 2.84375 
Q 4.109375 7.125 4.109375 13.8125 
Q 4.109375 23.390625 11.75 28.953125 
Q 19.390625 34.515625 32.8125 34.515625 
L 45.3125 34.515625 
L 45.796875 36.921875 
Q 45.90625 37.3125 45.953125 37.765625 
Q 46 38.234375 46 39.203125 
Q 46 43.5625 42.453125 45.96875 
Q 38.921875 48.390625 32.515625 48.390625 
Q 28.125 48.390625 23.5 47.265625 
Q 18.890625 46.140625 14.015625 43.890625 
L 15.578125 52.203125 
Q 20.65625 54.109375 25.515625 55.046875 
Q 30.375 56 34.90625 56 
Q 44.578125 56 49.625 51.796875 
Q 54.6875 47.609375 54.6875 39.59375 
Q 54.6875 37.984375 54.4375 35.8125 
Q 54.203125 33.640625 53.71875 31.203125 
z
M 44 27.484375 
L 35.015625 27.484375 
Q 23.96875 27.484375 18.671875 24.53125 
Q 13.375 21.578125 13.375 15.375 
Q 13.375 11.078125 16.078125 8.640625 
Q 18.796875 6.203125 23.578125 6.203125 
Q 30.90625 6.203125 36.375 11.453125 
Q 41.84375 16.703125 43.609375 25.484375 
z
" id="DejaVuSans-Oblique-97"/>
       <path d="M 42.28125 54.6875 
L 40.921875 47.703125 
L 23 47.703125 
L 17.1875 18.015625 
Q 16.890625 16.359375 16.75 15.234375 
Q 16.609375 14.109375 16.609375 13.484375 
Q 16.609375 10.359375 18.484375 8.9375 
Q 20.359375 7.515625 24.515625 7.515625 
L 33.59375 7.515625 
L 32.078125 0 
L 23.484375 0 
Q 15.484375 0 11.546875 3.125 
Q 7.625 6.25 7.625 12.59375 
Q 7.625 13.71875 7.765625 15.0625 
Q 7.90625 16.40625 8.203125 18.015625 
L 14.015625 47.703125 
L 6.390625 47.703125 
L 7.8125 54.6875 
L 15.28125 54.6875 
L 18.3125 70.21875 
L 27.296875 70.21875 
L 24.3125 54.6875 
z
" id="DejaVuSans-Oblique-116"/>
       <path d="M 53.609375 52.59375 
L 51.8125 43.703125 
Q 48.578125 46.046875 44.9375 47.21875 
Q 41.3125 48.390625 37.40625 48.390625 
Q 33.109375 48.390625 29.21875 46.875 
Q 25.34375 45.359375 22.703125 42.578125 
Q 18.5 38.328125 16.203125 32.609375 
Q 13.921875 26.90625 13.921875 20.796875 
Q 13.921875 13.421875 17.609375 9.8125 
Q 21.296875 6.203125 28.8125 6.203125 
Q 32.515625 6.203125 36.6875 7.328125 
Q 40.875 8.453125 45.40625 10.6875 
L 43.703125 1.8125 
Q 39.796875 0.203125 35.671875 -0.609375 
Q 31.546875 -1.421875 27.203125 -1.421875 
Q 16.3125 -1.421875 10.453125 4.015625 
Q 4.59375 9.46875 4.59375 19.578125 
Q 4.59375 28.078125 7.640625 35.234375 
Q 10.6875 42.390625 16.703125 48.09375 
Q 20.796875 52 26.3125 54 
Q 31.84375 56 38.375 56 
Q 42.1875 56 45.9375 55.140625 
Q 49.703125 54.296875 53.609375 52.59375 
z
" id="DejaVuSans-Oblique-99"/>
       <path d="M 55.71875 33.015625 
L 49.3125 0 
L 40.28125 0 
L 46.6875 32.671875 
Q 47.125 34.96875 47.359375 36.71875 
Q 47.609375 38.484375 47.609375 39.5 
Q 47.609375 43.609375 45.015625 45.890625 
Q 42.4375 48.1875 37.796875 48.1875 
Q 30.5625 48.1875 25.265625 43.296875 
Q 19.96875 38.421875 18.40625 30.328125 
L 12.5 0 
L 3.515625 0 
L 18.3125 75.984375 
L 27.296875 75.984375 
L 21.484375 46.09375 
Q 24.90625 50.6875 30.21875 53.34375 
Q 35.546875 56 41.40625 56 
Q 48.640625 56 52.609375 52.09375 
Q 56.59375 48.1875 56.59375 41.109375 
Q 56.59375 39.359375 56.375 37.359375 
Q 56.15625 35.359375 55.71875 33.015625 
z
" id="DejaVuSans-Oblique-104"/>
       <path d="M 50.984375 -16.609375 
L 50.984375 -23.578125 
L -0.984375 -23.578125 
L -0.984375 -16.609375 
z
" id="DejaVuSans-95"/>
       <path d="M 50 53.078125 
L 48.296875 44.578125 
Q 44.734375 46.53125 40.765625 47.5 
Q 36.8125 48.484375 32.625 48.484375 
Q 25.53125 48.484375 21.453125 46.0625 
Q 17.390625 43.65625 17.390625 39.5 
Q 17.390625 34.671875 26.859375 32.078125 
Q 27.59375 31.890625 27.9375 31.78125 
L 30.8125 30.90625 
Q 39.796875 28.421875 42.796875 25.6875 
Q 45.796875 22.953125 45.796875 18.21875 
Q 45.796875 9.515625 38.890625 4.046875 
Q 31.984375 -1.421875 20.796875 -1.421875 
Q 16.453125 -1.421875 11.671875 -0.578125 
Q 6.890625 0.25 1.125 2 
L 2.875 11.28125 
Q 7.8125 8.734375 12.59375 7.421875 
Q 17.390625 6.109375 21.78125 6.109375 
Q 28.375 6.109375 32.5 8.9375 
Q 36.625 11.765625 36.625 16.109375 
Q 36.625 20.796875 25.78125 23.6875 
L 24.859375 23.921875 
L 21.78125 24.703125 
Q 14.9375 26.515625 11.765625 29.46875 
Q 8.59375 32.421875 8.59375 37.015625 
Q 8.59375 45.75 15.15625 50.875 
Q 21.734375 56 33.015625 56 
Q 37.453125 56 41.671875 55.265625 
Q 45.90625 54.546875 50 53.078125 
z
" id="DejaVuSans-Oblique-115"/>
       <path d="M 18.3125 75.984375 
L 27.296875 75.984375 
L 25.09375 64.59375 
L 16.109375 64.59375 
z
M 14.203125 54.6875 
L 23.1875 54.6875 
L 12.5 0 
L 3.515625 0 
z
" id="DejaVuSans-Oblique-105"/>
       <path d="M 11.625 54.6875 
L 54.296875 54.6875 
L 52.6875 46.484375 
L 11.53125 7.171875 
L 45.515625 7.171875 
L 44.09375 0 
L -0.296875 0 
L 1.3125 8.203125 
L 42.484375 47.515625 
L 10.203125 47.515625 
z
" id="DejaVuSans-Oblique-122"/>
       <path d="M 48.09375 32.234375 
Q 48.25 33.015625 48.3125 33.84375 
Q 48.390625 34.671875 48.390625 35.5 
Q 48.390625 41.453125 44.890625 44.921875 
Q 41.40625 48.390625 35.40625 48.390625 
Q 28.71875 48.390625 23.578125 44.15625 
Q 18.453125 39.9375 15.828125 32.171875 
z
M 55.90625 25.203125 
L 14.109375 25.203125 
Q 13.8125 23.34375 13.71875 22.265625 
Q 13.625 21.1875 13.625 20.40625 
Q 13.625 13.625 17.796875 9.90625 
Q 21.96875 6.203125 29.59375 6.203125 
Q 35.453125 6.203125 40.671875 7.515625 
Q 45.90625 8.84375 50.390625 11.375 
L 48.6875 2.484375 
Q 43.84375 0.53125 38.6875 -0.4375 
Q 33.546875 -1.421875 28.21875 -1.421875 
Q 16.84375 -1.421875 10.71875 4.015625 
Q 4.59375 9.46875 4.59375 19.484375 
Q 4.59375 28.03125 7.640625 35.375 
Q 10.6875 42.71875 16.609375 48.484375 
Q 20.40625 52.09375 25.65625 54.046875 
Q 30.90625 56 36.8125 56 
Q 46.09375 56 51.578125 50.4375 
Q 57.078125 44.875 57.078125 35.5 
Q 57.078125 33.25 56.78125 30.6875 
Q 56.5 28.125 55.90625 25.203125 
z
" id="DejaVuSans-Oblique-101"/>
       <path d="M 10.59375 45.40625 
L 73.1875 45.40625 
L 73.1875 37.203125 
L 10.59375 37.203125 
z
M 10.59375 25.484375 
L 73.1875 25.484375 
L 73.1875 17.1875 
L 10.59375 17.1875 
z
" id="DejaVuSans-61"/>
      </defs>
      <use transform="translate(0 0.015625)" xlink:href="#DejaVuSans-Oblique-98"/>
      <use transform="translate(63.476562 0.015625)" xlink:href="#DejaVuSans-Oblique-97"/>
      <use transform="translate(124.755859 0.015625)" xlink:href="#DejaVuSans-Oblique-116"/>
      <use transform="translate(163.964844 0.015625)" xlink:href="#DejaVuSans-Oblique-99"/>
      <use transform="translate(218.945312 0.015625)" xlink:href="#DejaVuSans-Oblique-104"/>
      <use transform="translate(282.324219 0.015625)" xlink:href="#DejaVuSans-95"/>
      <use transform="translate(332.324219 0.015625)" xlink:href="#DejaVuSans-Oblique-115"/>
      <use transform="translate(384.423828 0.015625)" xlink:href="#DejaVuSans-Oblique-105"/>
      <use transform="translate(412.207031 0.015625)" xlink:href="#DejaVuSans-Oblique-122"/>
      <use transform="translate(464.697266 0.015625)" xlink:href="#DejaVuSans-Oblique-101"/>
      <use transform="translate(545.703125 0.015625)" xlink:href="#DejaVuSans-61"/>
      <use transform="translate(648.974609 0.015625)" xlink:href="#DejaVuSans-49"/>
      <use transform="translate(712.597656 0.015625)" xlink:href="#DejaVuSans-48"/>
      <use transform="translate(776.220703 0.015625)" xlink:href="#DejaVuSans-48"/>
     </g>
    </g>
    <g id="line2d_56">
     <path d="M 65.7 66.762 
L 83.7 66.762 
" style="fill:none;stroke:#0000ff;stroke-linecap:square;stroke-width:1.5;"/>
    </g>
    <g id="line2d_57"/>
    <g id="text_15">
     <!-- $batch\_size=200$ -->
     <g transform="translate(90.9 69.912)scale(0.09 -0.09)">
      <use transform="translate(0 0.015625)" xlink:href="#DejaVuSans-Oblique-98"/>
      <use transform="translate(63.476562 0.015625)" xlink:href="#DejaVuSans-Oblique-97"/>
      <use transform="translate(124.755859 0.015625)" xlink:href="#DejaVuSans-Oblique-116"/>
      <use transform="translate(163.964844 0.015625)" xlink:href="#DejaVuSans-Oblique-99"/>
      <use transform="translate(218.945312 0.015625)" xlink:href="#DejaVuSans-Oblique-104"/>
      <use transform="translate(282.324219 0.015625)" xlink:href="#DejaVuSans-95"/>
      <use transform="translate(332.324219 0.015625)" xlink:href="#DejaVuSans-Oblique-115"/>
      <use transform="translate(384.423828 0.015625)" xlink:href="#DejaVuSans-Oblique-105"/>
      <use transform="translate(412.207031 0.015625)" xlink:href="#DejaVuSans-Oblique-122"/>
      <use transform="translate(464.697266 0.015625)" xlink:href="#DejaVuSans-Oblique-101"/>
      <use transform="translate(545.703125 0.015625)" xlink:href="#DejaVuSans-61"/>
      <use transform="translate(648.974609 0.015625)" xlink:href="#DejaVuSans-50"/>
      <use transform="translate(712.597656 0.015625)" xlink:href="#DejaVuSans-48"/>
      <use transform="translate(776.220703 0.015625)" xlink:href="#DejaVuSans-48"/>
     </g>
    </g>
    <g id="line2d_58">
     <path d="M 65.7 80.262 
L 83.7 80.262 
" style="fill:none;stroke:#000000;stroke-linecap:square;stroke-width:1.5;"/>
    </g>
    <g id="line2d_59"/>
    <g id="text_16">
     <!-- $batch\_size=300$ -->
     <g transform="translate(90.9 83.412)scale(0.09 -0.09)">
      <use transform="translate(0 0.015625)" xlink:href="#DejaVuSans-Oblique-98"/>
      <use transform="translate(63.476562 0.015625)" xlink:href="#DejaVuSans-Oblique-97"/>
      <use transform="translate(124.755859 0.015625)" xlink:href="#DejaVuSans-Oblique-116"/>
      <use transform="translate(163.964844 0.015625)" xlink:href="#DejaVuSans-Oblique-99"/>
      <use transform="translate(218.945312 0.015625)" xlink:href="#DejaVuSans-Oblique-104"/>
      <use transform="translate(282.324219 0.015625)" xlink:href="#DejaVuSans-95"/>
      <use transform="translate(332.324219 0.015625)" xlink:href="#DejaVuSans-Oblique-115"/>
      <use transform="translate(384.423828 0.015625)" xlink:href="#DejaVuSans-Oblique-105"/>
      <use transform="translate(412.207031 0.015625)" xlink:href="#DejaVuSans-Oblique-122"/>
      <use transform="translate(464.697266 0.015625)" xlink:href="#DejaVuSans-Oblique-101"/>
      <use transform="translate(545.703125 0.015625)" xlink:href="#DejaVuSans-61"/>
      <use transform="translate(648.974609 0.015625)" xlink:href="#DejaVuSans-51"/>
      <use transform="translate(712.597656 0.015625)" xlink:href="#DejaVuSans-48"/>
      <use transform="translate(776.220703 0.015625)" xlink:href="#DejaVuSans-48"/>
     </g>
    </g>
    <g id="line2d_60">
     <path d="M 65.7 93.762 
L 83.7 93.762 
" style="fill:none;stroke:#d2691e;stroke-linecap:square;stroke-width:1.5;"/>
    </g>
    <g id="line2d_61"/>
    <g id="text_17">
     <!-- $batch\_size=400$ -->
     <g transform="translate(90.9 96.912)scale(0.09 -0.09)">
      <use transform="translate(0 0.015625)" xlink:href="#DejaVuSans-Oblique-98"/>
      <use transform="translate(63.476562 0.015625)" xlink:href="#DejaVuSans-Oblique-97"/>
      <use transform="translate(124.755859 0.015625)" xlink:href="#DejaVuSans-Oblique-116"/>
      <use transform="translate(163.964844 0.015625)" xlink:href="#DejaVuSans-Oblique-99"/>
      <use transform="translate(218.945312 0.015625)" xlink:href="#DejaVuSans-Oblique-104"/>
      <use transform="translate(282.324219 0.015625)" xlink:href="#DejaVuSans-95"/>
      <use transform="translate(332.324219 0.015625)" xlink:href="#DejaVuSans-Oblique-115"/>
      <use transform="translate(384.423828 0.015625)" xlink:href="#DejaVuSans-Oblique-105"/>
      <use transform="translate(412.207031 0.015625)" xlink:href="#DejaVuSans-Oblique-122"/>
      <use transform="translate(464.697266 0.015625)" xlink:href="#DejaVuSans-Oblique-101"/>
      <use transform="translate(545.703125 0.015625)" xlink:href="#DejaVuSans-61"/>
      <use transform="translate(648.974609 0.015625)" xlink:href="#DejaVuSans-52"/>
      <use transform="translate(712.597656 0.015625)" xlink:href="#DejaVuSans-48"/>
      <use transform="translate(776.220703 0.015625)" xlink:href="#DejaVuSans-48"/>
     </g>
    </g>
    <g id="line2d_62">
     <path d="M 65.7 107.262 
L 83.7 107.262 
" style="fill:none;stroke:#ffff00;stroke-linecap:square;stroke-width:1.5;"/>
    </g>
    <g id="line2d_63"/>
    <g id="text_18">
     <!-- $batch\_size=500$ -->
     <g transform="translate(90.9 110.412)scale(0.09 -0.09)">
      <defs>
       <path d="M 10.796875 72.90625 
L 49.515625 72.90625 
L 49.515625 64.59375 
L 19.828125 64.59375 
L 19.828125 46.734375 
Q 21.96875 47.46875 24.109375 47.828125 
Q 26.265625 48.1875 28.421875 48.1875 
Q 40.625 48.1875 47.75 41.5 
Q 54.890625 34.8125 54.890625 23.390625 
Q 54.890625 11.625 47.5625 5.09375 
Q 40.234375 -1.421875 26.90625 -1.421875 
Q 22.3125 -1.421875 17.546875 -0.640625 
Q 12.796875 0.140625 7.71875 1.703125 
L 7.71875 11.625 
Q 12.109375 9.234375 16.796875 8.0625 
Q 21.484375 6.890625 26.703125 6.890625 
Q 35.15625 6.890625 40.078125 11.328125 
Q 45.015625 15.765625 45.015625 23.390625 
Q 45.015625 31 40.078125 35.4375 
Q 35.15625 39.890625 26.703125 39.890625 
Q 22.75 39.890625 18.8125 39.015625 
Q 14.890625 38.140625 10.796875 36.28125 
z
" id="DejaVuSans-53"/>
      </defs>
      <use transform="translate(0 0.015625)" xlink:href="#DejaVuSans-Oblique-98"/>
      <use transform="translate(63.476562 0.015625)" xlink:href="#DejaVuSans-Oblique-97"/>
      <use transform="translate(124.755859 0.015625)" xlink:href="#DejaVuSans-Oblique-116"/>
      <use transform="translate(163.964844 0.015625)" xlink:href="#DejaVuSans-Oblique-99"/>
      <use transform="translate(218.945312 0.015625)" xlink:href="#DejaVuSans-Oblique-104"/>
      <use transform="translate(282.324219 0.015625)" xlink:href="#DejaVuSans-95"/>
      <use transform="translate(332.324219 0.015625)" xlink:href="#DejaVuSans-Oblique-115"/>
      <use transform="translate(384.423828 0.015625)" xlink:href="#DejaVuSans-Oblique-105"/>
      <use transform="translate(412.207031 0.015625)" xlink:href="#DejaVuSans-Oblique-122"/>
      <use transform="translate(464.697266 0.015625)" xlink:href="#DejaVuSans-Oblique-101"/>
      <use transform="translate(545.703125 0.015625)" xlink:href="#DejaVuSans-61"/>
      <use transform="translate(648.974609 0.015625)" xlink:href="#DejaVuSans-53"/>
      <use transform="translate(712.597656 0.015625)" xlink:href="#DejaVuSans-48"/>
      <use transform="translate(776.220703 0.015625)" xlink:href="#DejaVuSans-48"/>
     </g>
    </g>
    <g id="line2d_64">
     <path d="M 65.7 120.762 
L 83.7 120.762 
" style="fill:none;stroke:#008000;stroke-linecap:square;stroke-width:1.5;"/>
    </g>
    <g id="line2d_65"/>
    <g id="text_19">
     <!-- $batch\_size=600$ -->
     <g transform="translate(90.9 123.912)scale(0.09 -0.09)">
      <use transform="translate(0 0.015625)" xlink:href="#DejaVuSans-Oblique-98"/>
      <use transform="translate(63.476562 0.015625)" xlink:href="#DejaVuSans-Oblique-97"/>
      <use transform="translate(124.755859 0.015625)" xlink:href="#DejaVuSans-Oblique-116"/>
      <use transform="translate(163.964844 0.015625)" xlink:href="#DejaVuSans-Oblique-99"/>
      <use transform="translate(218.945312 0.015625)" xlink:href="#DejaVuSans-Oblique-104"/>
      <use transform="translate(282.324219 0.015625)" xlink:href="#DejaVuSans-95"/>
      <use transform="translate(332.324219 0.015625)" xlink:href="#DejaVuSans-Oblique-115"/>
      <use transform="translate(384.423828 0.015625)" xlink:href="#DejaVuSans-Oblique-105"/>
      <use transform="translate(412.207031 0.015625)" xlink:href="#DejaVuSans-Oblique-122"/>
      <use transform="translate(464.697266 0.015625)" xlink:href="#DejaVuSans-Oblique-101"/>
      <use transform="translate(545.703125 0.015625)" xlink:href="#DejaVuSans-61"/>
      <use transform="translate(648.974609 0.015625)" xlink:href="#DejaVuSans-54"/>
      <use transform="translate(712.597656 0.015625)" xlink:href="#DejaVuSans-48"/>
      <use transform="translate(776.220703 0.015625)" xlink:href="#DejaVuSans-48"/>
     </g>
    </g>
   </g>
  </g>
 </g>
 <defs>
  <clipPath id="p0a7737e7de">
   <rect height="266.112" width="357.12" x="57.6" y="41.472"/>
  </clipPath>
 </defs>
</svg>
