<?xml version="1.0" encoding="utf-8" standalone="no"?>
<!DOCTYPE svg PUBLIC "-//W3C//DTD SVG 1.1//EN"
  "http://www.w3.org/Graphics/SVG/1.1/DTD/svg11.dtd">
<!-- Created with matplotlib (https://matplotlib.org/) -->
<svg height="345.6pt" version="1.1" viewBox="0 0 460.8 345.6" width="460.8pt" xmlns="http://www.w3.org/2000/svg" xmlns:xlink="http://www.w3.org/1999/xlink">
 <metadata>
  <rdf:RDF xmlns:cc="http://creativecommons.org/ns#" xmlns:dc="http://purl.org/dc/elements/1.1/" xmlns:rdf="http://www.w3.org/1999/02/22-rdf-syntax-ns#">
   <cc:Work>
    <dc:type rdf:resource="http://purl.org/dc/dcmitype/StillImage"/>
    <dc:date>2020-08-03T12:41:45.429071</dc:date>
    <dc:format>image/svg+xml</dc:format>
    <dc:creator>
     <cc:Agent>
      <dc:title>Matplotlib v3.3.0, https://matplotlib.org/</dc:title>
     </cc:Agent>
    </dc:creator>
   </cc:Work>
  </rdf:RDF>
 </metadata>
 <defs>
  <style type="text/css">*{stroke-linecap:butt;stroke-linejoin:round;}</style>
 </defs>
 <g id="figure_1">
  <g id="patch_1">
   <path d="M 0 345.6 
L 460.8 345.6 
L 460.8 0 
L 0 0 
z
" style="fill:#ffffff;"/>
  </g>
  <g id="axes_1">
   <g id="patch_2">
    <path d="M 57.6 307.584 
L 414.72 307.584 
L 414.72 41.472 
L 57.6 41.472 
z
" style="fill:#ffffff;"/>
   </g>
   <g id="matplotlib.axis_1">
    <g id="xtick_1">
     <g id="line2d_1">
      <defs>
       <path d="M 0 0 
L 0 3.5 
" id="m443e8b58fa" style="stroke:#000000;stroke-width:0.8;"/>
      </defs>
      <g>
       <use style="stroke:#000000;stroke-width:0.8;" x="79.853586" xlink:href="#m443e8b58fa" y="307.584"/>
      </g>
     </g>
     <g id="text_1">
      <!-- $\mathdefault{10^{-4}}$ -->
      <g transform="translate(68.103586 322.182437)scale(0.1 -0.1)">
       <defs>
        <path d="M 12.40625 8.296875 
L 28.515625 8.296875 
L 28.515625 63.921875 
L 10.984375 60.40625 
L 10.984375 69.390625 
L 28.421875 72.90625 
L 38.28125 72.90625 
L 38.28125 8.296875 
L 54.390625 8.296875 
L 54.390625 0 
L 12.40625 0 
z
" id="DejaVuSans-49"/>
        <path d="M 31.78125 66.40625 
Q 24.171875 66.40625 20.328125 58.90625 
Q 16.5 51.421875 16.5 36.375 
Q 16.5 21.390625 20.328125 13.890625 
Q 24.171875 6.390625 31.78125 6.390625 
Q 39.453125 6.390625 43.28125 13.890625 
Q 47.125 21.390625 47.125 36.375 
Q 47.125 51.421875 43.28125 58.90625 
Q 39.453125 66.40625 31.78125 66.40625 
z
M 31.78125 74.21875 
Q 44.046875 74.21875 50.515625 64.515625 
Q 56.984375 54.828125 56.984375 36.375 
Q 56.984375 17.96875 50.515625 8.265625 
Q 44.046875 -1.421875 31.78125 -1.421875 
Q 19.53125 -1.421875 13.0625 8.265625 
Q 6.59375 17.96875 6.59375 36.375 
Q 6.59375 54.828125 13.0625 64.515625 
Q 19.53125 74.21875 31.78125 74.21875 
z
" id="DejaVuSans-48"/>
        <path d="M 10.59375 35.5 
L 73.1875 35.5 
L 73.1875 27.203125 
L 10.59375 27.203125 
z
" id="DejaVuSans-8722"/>
        <path d="M 37.796875 64.3125 
L 12.890625 25.390625 
L 37.796875 25.390625 
z
M 35.203125 72.90625 
L 47.609375 72.90625 
L 47.609375 25.390625 
L 58.015625 25.390625 
L 58.015625 17.1875 
L 47.609375 17.1875 
L 47.609375 0 
L 37.796875 0 
L 37.796875 17.1875 
L 4.890625 17.1875 
L 4.890625 26.703125 
z
" id="DejaVuSans-52"/>
       </defs>
       <use transform="translate(0 0.684375)" xlink:href="#DejaVuSans-49"/>
       <use transform="translate(63.623047 0.684375)" xlink:href="#DejaVuSans-48"/>
       <use transform="translate(128.203125 38.965625)scale(0.7)" xlink:href="#DejaVuSans-8722"/>
       <use transform="translate(186.855469 38.965625)scale(0.7)" xlink:href="#DejaVuSans-52"/>
      </g>
     </g>
    </g>
    <g id="xtick_2">
     <g id="line2d_2">
      <g>
       <use style="stroke:#000000;stroke-width:0.8;" x="159.512008" xlink:href="#m443e8b58fa" y="307.584"/>
      </g>
     </g>
     <g id="text_2">
      <!-- $\mathdefault{10^{-3}}$ -->
      <g transform="translate(147.762008 322.182437)scale(0.1 -0.1)">
       <defs>
        <path d="M 40.578125 39.3125 
Q 47.65625 37.796875 51.625 33 
Q 55.609375 28.21875 55.609375 21.1875 
Q 55.609375 10.40625 48.1875 4.484375 
Q 40.765625 -1.421875 27.09375 -1.421875 
Q 22.515625 -1.421875 17.65625 -0.515625 
Q 12.796875 0.390625 7.625 2.203125 
L 7.625 11.71875 
Q 11.71875 9.328125 16.59375 8.109375 
Q 21.484375 6.890625 26.8125 6.890625 
Q 36.078125 6.890625 40.9375 10.546875 
Q 45.796875 14.203125 45.796875 21.1875 
Q 45.796875 27.640625 41.28125 31.265625 
Q 36.765625 34.90625 28.71875 34.90625 
L 20.21875 34.90625 
L 20.21875 43.015625 
L 29.109375 43.015625 
Q 36.375 43.015625 40.234375 45.921875 
Q 44.09375 48.828125 44.09375 54.296875 
Q 44.09375 59.90625 40.109375 62.90625 
Q 36.140625 65.921875 28.71875 65.921875 
Q 24.65625 65.921875 20.015625 65.03125 
Q 15.375 64.15625 9.8125 62.3125 
L 9.8125 71.09375 
Q 15.4375 72.65625 20.34375 73.4375 
Q 25.25 74.21875 29.59375 74.21875 
Q 40.828125 74.21875 47.359375 69.109375 
Q 53.90625 64.015625 53.90625 55.328125 
Q 53.90625 49.265625 50.4375 45.09375 
Q 46.96875 40.921875 40.578125 39.3125 
z
" id="DejaVuSans-51"/>
       </defs>
       <use transform="translate(0 0.765625)" xlink:href="#DejaVuSans-49"/>
       <use transform="translate(63.623047 0.765625)" xlink:href="#DejaVuSans-48"/>
       <use transform="translate(128.203125 39.046875)scale(0.7)" xlink:href="#DejaVuSans-8722"/>
       <use transform="translate(186.855469 39.046875)scale(0.7)" xlink:href="#DejaVuSans-51"/>
      </g>
     </g>
    </g>
    <g id="xtick_3">
     <g id="line2d_3">
      <g>
       <use style="stroke:#000000;stroke-width:0.8;" x="239.170429" xlink:href="#m443e8b58fa" y="307.584"/>
      </g>
     </g>
     <g id="text_3">
      <!-- $\mathdefault{10^{-2}}$ -->
      <g transform="translate(227.420429 322.182437)scale(0.1 -0.1)">
       <defs>
        <path d="M 19.1875 8.296875 
L 53.609375 8.296875 
L 53.609375 0 
L 7.328125 0 
L 7.328125 8.296875 
Q 12.9375 14.109375 22.625 23.890625 
Q 32.328125 33.6875 34.8125 36.53125 
Q 39.546875 41.84375 41.421875 45.53125 
Q 43.3125 49.21875 43.3125 52.78125 
Q 43.3125 58.59375 39.234375 62.25 
Q 35.15625 65.921875 28.609375 65.921875 
Q 23.96875 65.921875 18.8125 64.3125 
Q 13.671875 62.703125 7.8125 59.421875 
L 7.8125 69.390625 
Q 13.765625 71.78125 18.9375 73 
Q 24.125 74.21875 28.421875 74.21875 
Q 39.75 74.21875 46.484375 68.546875 
Q 53.21875 62.890625 53.21875 53.421875 
Q 53.21875 48.921875 51.53125 44.890625 
Q 49.859375 40.875 45.40625 35.40625 
Q 44.1875 33.984375 37.640625 27.21875 
Q 31.109375 20.453125 19.1875 8.296875 
z
" id="DejaVuSans-50"/>
       </defs>
       <use transform="translate(0 0.765625)" xlink:href="#DejaVuSans-49"/>
       <use transform="translate(63.623047 0.765625)" xlink:href="#DejaVuSans-48"/>
       <use transform="translate(128.203125 39.046875)scale(0.7)" xlink:href="#DejaVuSans-8722"/>
       <use transform="translate(186.855469 39.046875)scale(0.7)" xlink:href="#DejaVuSans-50"/>
      </g>
     </g>
    </g>
    <g id="xtick_4">
     <g id="line2d_4">
      <g>
       <use style="stroke:#000000;stroke-width:0.8;" x="318.828851" xlink:href="#m443e8b58fa" y="307.584"/>
      </g>
     </g>
     <g id="text_4">
      <!-- $\mathdefault{10^{-1}}$ -->
      <g transform="translate(307.078851 322.182437)scale(0.1 -0.1)">
       <use transform="translate(0 0.684375)" xlink:href="#DejaVuSans-49"/>
       <use transform="translate(63.623047 0.684375)" xlink:href="#DejaVuSans-48"/>
       <use transform="translate(128.203125 38.965625)scale(0.7)" xlink:href="#DejaVuSans-8722"/>
       <use transform="translate(186.855469 38.965625)scale(0.7)" xlink:href="#DejaVuSans-49"/>
      </g>
     </g>
    </g>
    <g id="xtick_5">
     <g id="line2d_5">
      <g>
       <use style="stroke:#000000;stroke-width:0.8;" x="398.487273" xlink:href="#m443e8b58fa" y="307.584"/>
      </g>
     </g>
     <g id="text_5">
      <!-- $\mathdefault{10^{0}}$ -->
      <g transform="translate(389.687273 322.182437)scale(0.1 -0.1)">
       <use transform="translate(0 0.765625)" xlink:href="#DejaVuSans-49"/>
       <use transform="translate(63.623047 0.765625)" xlink:href="#DejaVuSans-48"/>
       <use transform="translate(128.203125 39.046875)scale(0.7)" xlink:href="#DejaVuSans-48"/>
      </g>
     </g>
    </g>
    <g id="xtick_6">
     <g id="line2d_6">
      <defs>
       <path d="M 0 0 
L 0 2 
" id="m8a4155f240" style="stroke:#000000;stroke-width:0.6;"/>
      </defs>
      <g>
       <use style="stroke:#000000;stroke-width:0.6;" x="62.181465" xlink:href="#m8a4155f240" y="307.584"/>
      </g>
     </g>
    </g>
    <g id="xtick_7">
     <g id="line2d_7">
      <g>
       <use style="stroke:#000000;stroke-width:0.6;" x="67.51434" xlink:href="#m8a4155f240" y="307.584"/>
      </g>
     </g>
    </g>
    <g id="xtick_8">
     <g id="line2d_8">
      <g>
       <use style="stroke:#000000;stroke-width:0.6;" x="72.133887" xlink:href="#m8a4155f240" y="307.584"/>
      </g>
     </g>
    </g>
    <g id="xtick_9">
     <g id="line2d_9">
      <g>
       <use style="stroke:#000000;stroke-width:0.6;" x="76.208617" xlink:href="#m8a4155f240" y="307.584"/>
      </g>
     </g>
    </g>
    <g id="xtick_10">
     <g id="line2d_10">
      <g>
       <use style="stroke:#000000;stroke-width:0.6;" x="103.83316" xlink:href="#m8a4155f240" y="307.584"/>
      </g>
     </g>
    </g>
    <g id="xtick_11">
     <g id="line2d_11">
      <g>
       <use style="stroke:#000000;stroke-width:0.6;" x="117.860312" xlink:href="#m8a4155f240" y="307.584"/>
      </g>
     </g>
    </g>
    <g id="xtick_12">
     <g id="line2d_12">
      <g>
       <use style="stroke:#000000;stroke-width:0.6;" x="127.812735" xlink:href="#m8a4155f240" y="307.584"/>
      </g>
     </g>
    </g>
    <g id="xtick_13">
     <g id="line2d_13">
      <g>
       <use style="stroke:#000000;stroke-width:0.6;" x="135.532433" xlink:href="#m8a4155f240" y="307.584"/>
      </g>
     </g>
    </g>
    <g id="xtick_14">
     <g id="line2d_14">
      <g>
       <use style="stroke:#000000;stroke-width:0.6;" x="141.839886" xlink:href="#m8a4155f240" y="307.584"/>
      </g>
     </g>
    </g>
    <g id="xtick_15">
     <g id="line2d_15">
      <g>
       <use style="stroke:#000000;stroke-width:0.6;" x="147.172762" xlink:href="#m8a4155f240" y="307.584"/>
      </g>
     </g>
    </g>
    <g id="xtick_16">
     <g id="line2d_16">
      <g>
       <use style="stroke:#000000;stroke-width:0.6;" x="151.792309" xlink:href="#m8a4155f240" y="307.584"/>
      </g>
     </g>
    </g>
    <g id="xtick_17">
     <g id="line2d_17">
      <g>
       <use style="stroke:#000000;stroke-width:0.6;" x="155.867038" xlink:href="#m8a4155f240" y="307.584"/>
      </g>
     </g>
    </g>
    <g id="xtick_18">
     <g id="line2d_18">
      <g>
       <use style="stroke:#000000;stroke-width:0.6;" x="183.491582" xlink:href="#m8a4155f240" y="307.584"/>
      </g>
     </g>
    </g>
    <g id="xtick_19">
     <g id="line2d_19">
      <g>
       <use style="stroke:#000000;stroke-width:0.6;" x="197.518734" xlink:href="#m8a4155f240" y="307.584"/>
      </g>
     </g>
    </g>
    <g id="xtick_20">
     <g id="line2d_20">
      <g>
       <use style="stroke:#000000;stroke-width:0.6;" x="207.471156" xlink:href="#m8a4155f240" y="307.584"/>
      </g>
     </g>
    </g>
    <g id="xtick_21">
     <g id="line2d_21">
      <g>
       <use style="stroke:#000000;stroke-width:0.6;" x="215.190855" xlink:href="#m8a4155f240" y="307.584"/>
      </g>
     </g>
    </g>
    <g id="xtick_22">
     <g id="line2d_22">
      <g>
       <use style="stroke:#000000;stroke-width:0.6;" x="221.498308" xlink:href="#m8a4155f240" y="307.584"/>
      </g>
     </g>
    </g>
    <g id="xtick_23">
     <g id="line2d_23">
      <g>
       <use style="stroke:#000000;stroke-width:0.6;" x="226.831184" xlink:href="#m8a4155f240" y="307.584"/>
      </g>
     </g>
    </g>
    <g id="xtick_24">
     <g id="line2d_24">
      <g>
       <use style="stroke:#000000;stroke-width:0.6;" x="231.450731" xlink:href="#m8a4155f240" y="307.584"/>
      </g>
     </g>
    </g>
    <g id="xtick_25">
     <g id="line2d_25">
      <g>
       <use style="stroke:#000000;stroke-width:0.6;" x="235.52546" xlink:href="#m8a4155f240" y="307.584"/>
      </g>
     </g>
    </g>
    <g id="xtick_26">
     <g id="line2d_26">
      <g>
       <use style="stroke:#000000;stroke-width:0.6;" x="263.150004" xlink:href="#m8a4155f240" y="307.584"/>
      </g>
     </g>
    </g>
    <g id="xtick_27">
     <g id="line2d_27">
      <g>
       <use style="stroke:#000000;stroke-width:0.6;" x="277.177155" xlink:href="#m8a4155f240" y="307.584"/>
      </g>
     </g>
    </g>
    <g id="xtick_28">
     <g id="line2d_28">
      <g>
       <use style="stroke:#000000;stroke-width:0.6;" x="287.129578" xlink:href="#m8a4155f240" y="307.584"/>
      </g>
     </g>
    </g>
    <g id="xtick_29">
     <g id="line2d_29">
      <g>
       <use style="stroke:#000000;stroke-width:0.6;" x="294.849277" xlink:href="#m8a4155f240" y="307.584"/>
      </g>
     </g>
    </g>
    <g id="xtick_30">
     <g id="line2d_30">
      <g>
       <use style="stroke:#000000;stroke-width:0.6;" x="301.15673" xlink:href="#m8a4155f240" y="307.584"/>
      </g>
     </g>
    </g>
    <g id="xtick_31">
     <g id="line2d_31">
      <g>
       <use style="stroke:#000000;stroke-width:0.6;" x="306.489605" xlink:href="#m8a4155f240" y="307.584"/>
      </g>
     </g>
    </g>
    <g id="xtick_32">
     <g id="line2d_32">
      <g>
       <use style="stroke:#000000;stroke-width:0.6;" x="311.109152" xlink:href="#m8a4155f240" y="307.584"/>
      </g>
     </g>
    </g>
    <g id="xtick_33">
     <g id="line2d_33">
      <g>
       <use style="stroke:#000000;stroke-width:0.6;" x="315.183882" xlink:href="#m8a4155f240" y="307.584"/>
      </g>
     </g>
    </g>
    <g id="xtick_34">
     <g id="line2d_34">
      <g>
       <use style="stroke:#000000;stroke-width:0.6;" x="342.808425" xlink:href="#m8a4155f240" y="307.584"/>
      </g>
     </g>
    </g>
    <g id="xtick_35">
     <g id="line2d_35">
      <g>
       <use style="stroke:#000000;stroke-width:0.6;" x="356.835577" xlink:href="#m8a4155f240" y="307.584"/>
      </g>
     </g>
    </g>
    <g id="xtick_36">
     <g id="line2d_36">
      <g>
       <use style="stroke:#000000;stroke-width:0.6;" x="366.788" xlink:href="#m8a4155f240" y="307.584"/>
      </g>
     </g>
    </g>
    <g id="xtick_37">
     <g id="line2d_37">
      <g>
       <use style="stroke:#000000;stroke-width:0.6;" x="374.507698" xlink:href="#m8a4155f240" y="307.584"/>
      </g>
     </g>
    </g>
    <g id="xtick_38">
     <g id="line2d_38">
      <g>
       <use style="stroke:#000000;stroke-width:0.6;" x="380.815151" xlink:href="#m8a4155f240" y="307.584"/>
      </g>
     </g>
    </g>
    <g id="xtick_39">
     <g id="line2d_39">
      <g>
       <use style="stroke:#000000;stroke-width:0.6;" x="386.148027" xlink:href="#m8a4155f240" y="307.584"/>
      </g>
     </g>
    </g>
    <g id="xtick_40">
     <g id="line2d_40">
      <g>
       <use style="stroke:#000000;stroke-width:0.6;" x="390.767574" xlink:href="#m8a4155f240" y="307.584"/>
      </g>
     </g>
    </g>
    <g id="xtick_41">
     <g id="line2d_41">
      <g>
       <use style="stroke:#000000;stroke-width:0.6;" x="394.842303" xlink:href="#m8a4155f240" y="307.584"/>
      </g>
     </g>
    </g>
    <g id="text_6">
     <!-- False Alarm Rate -->
     <g transform="translate(194.25375 335.860562)scale(0.1 -0.1)">
      <defs>
       <path d="M 9.8125 72.90625 
L 51.703125 72.90625 
L 51.703125 64.59375 
L 19.671875 64.59375 
L 19.671875 43.109375 
L 48.578125 43.109375 
L 48.578125 34.8125 
L 19.671875 34.8125 
L 19.671875 0 
L 9.8125 0 
z
" id="DejaVuSans-70"/>
       <path d="M 34.28125 27.484375 
Q 23.390625 27.484375 19.1875 25 
Q 14.984375 22.515625 14.984375 16.5 
Q 14.984375 11.71875 18.140625 8.90625 
Q 21.296875 6.109375 26.703125 6.109375 
Q 34.1875 6.109375 38.703125 11.40625 
Q 43.21875 16.703125 43.21875 25.484375 
L 43.21875 27.484375 
z
M 52.203125 31.203125 
L 52.203125 0 
L 43.21875 0 
L 43.21875 8.296875 
Q 40.140625 3.328125 35.546875 0.953125 
Q 30.953125 -1.421875 24.3125 -1.421875 
Q 15.921875 -1.421875 10.953125 3.296875 
Q 6 8.015625 6 15.921875 
Q 6 25.140625 12.171875 29.828125 
Q 18.359375 34.515625 30.609375 34.515625 
L 43.21875 34.515625 
L 43.21875 35.40625 
Q 43.21875 41.609375 39.140625 45 
Q 35.0625 48.390625 27.6875 48.390625 
Q 23 48.390625 18.546875 47.265625 
Q 14.109375 46.140625 10.015625 43.890625 
L 10.015625 52.203125 
Q 14.9375 54.109375 19.578125 55.046875 
Q 24.21875 56 28.609375 56 
Q 40.484375 56 46.34375 49.84375 
Q 52.203125 43.703125 52.203125 31.203125 
z
" id="DejaVuSans-97"/>
       <path d="M 9.421875 75.984375 
L 18.40625 75.984375 
L 18.40625 0 
L 9.421875 0 
z
" id="DejaVuSans-108"/>
       <path d="M 44.28125 53.078125 
L 44.28125 44.578125 
Q 40.484375 46.53125 36.375 47.5 
Q 32.28125 48.484375 27.875 48.484375 
Q 21.1875 48.484375 17.84375 46.4375 
Q 14.5 44.390625 14.5 40.28125 
Q 14.5 37.15625 16.890625 35.375 
Q 19.28125 33.59375 26.515625 31.984375 
L 29.59375 31.296875 
Q 39.15625 29.25 43.1875 25.515625 
Q 47.21875 21.78125 47.21875 15.09375 
Q 47.21875 7.46875 41.1875 3.015625 
Q 35.15625 -1.421875 24.609375 -1.421875 
Q 20.21875 -1.421875 15.453125 -0.5625 
Q 10.6875 0.296875 5.421875 2 
L 5.421875 11.28125 
Q 10.40625 8.6875 15.234375 7.390625 
Q 20.0625 6.109375 24.8125 6.109375 
Q 31.15625 6.109375 34.5625 8.28125 
Q 37.984375 10.453125 37.984375 14.40625 
Q 37.984375 18.0625 35.515625 20.015625 
Q 33.0625 21.96875 24.703125 23.78125 
L 21.578125 24.515625 
Q 13.234375 26.265625 9.515625 29.90625 
Q 5.8125 33.546875 5.8125 39.890625 
Q 5.8125 47.609375 11.28125 51.796875 
Q 16.75 56 26.8125 56 
Q 31.78125 56 36.171875 55.265625 
Q 40.578125 54.546875 44.28125 53.078125 
z
" id="DejaVuSans-115"/>
       <path d="M 56.203125 29.59375 
L 56.203125 25.203125 
L 14.890625 25.203125 
Q 15.484375 15.921875 20.484375 11.0625 
Q 25.484375 6.203125 34.421875 6.203125 
Q 39.59375 6.203125 44.453125 7.46875 
Q 49.3125 8.734375 54.109375 11.28125 
L 54.109375 2.78125 
Q 49.265625 0.734375 44.1875 -0.34375 
Q 39.109375 -1.421875 33.890625 -1.421875 
Q 20.796875 -1.421875 13.15625 6.1875 
Q 5.515625 13.8125 5.515625 26.8125 
Q 5.515625 40.234375 12.765625 48.109375 
Q 20.015625 56 32.328125 56 
Q 43.359375 56 49.78125 48.890625 
Q 56.203125 41.796875 56.203125 29.59375 
z
M 47.21875 32.234375 
Q 47.125 39.59375 43.09375 43.984375 
Q 39.0625 48.390625 32.421875 48.390625 
Q 24.90625 48.390625 20.390625 44.140625 
Q 15.875 39.890625 15.1875 32.171875 
z
" id="DejaVuSans-101"/>
       <path id="DejaVuSans-32"/>
       <path d="M 34.1875 63.1875 
L 20.796875 26.90625 
L 47.609375 26.90625 
z
M 28.609375 72.90625 
L 39.796875 72.90625 
L 67.578125 0 
L 57.328125 0 
L 50.6875 18.703125 
L 17.828125 18.703125 
L 11.1875 0 
L 0.78125 0 
z
" id="DejaVuSans-65"/>
       <path d="M 41.109375 46.296875 
Q 39.59375 47.171875 37.8125 47.578125 
Q 36.03125 48 33.890625 48 
Q 26.265625 48 22.1875 43.046875 
Q 18.109375 38.09375 18.109375 28.8125 
L 18.109375 0 
L 9.078125 0 
L 9.078125 54.6875 
L 18.109375 54.6875 
L 18.109375 46.1875 
Q 20.953125 51.171875 25.484375 53.578125 
Q 30.03125 56 36.53125 56 
Q 37.453125 56 38.578125 55.875 
Q 39.703125 55.765625 41.0625 55.515625 
z
" id="DejaVuSans-114"/>
       <path d="M 52 44.1875 
Q 55.375 50.25 60.0625 53.125 
Q 64.75 56 71.09375 56 
Q 79.640625 56 84.28125 50.015625 
Q 88.921875 44.046875 88.921875 33.015625 
L 88.921875 0 
L 79.890625 0 
L 79.890625 32.71875 
Q 79.890625 40.578125 77.09375 44.375 
Q 74.3125 48.1875 68.609375 48.1875 
Q 61.625 48.1875 57.5625 43.546875 
Q 53.515625 38.921875 53.515625 30.90625 
L 53.515625 0 
L 44.484375 0 
L 44.484375 32.71875 
Q 44.484375 40.625 41.703125 44.40625 
Q 38.921875 48.1875 33.109375 48.1875 
Q 26.21875 48.1875 22.15625 43.53125 
Q 18.109375 38.875 18.109375 30.90625 
L 18.109375 0 
L 9.078125 0 
L 9.078125 54.6875 
L 18.109375 54.6875 
L 18.109375 46.1875 
Q 21.1875 51.21875 25.484375 53.609375 
Q 29.78125 56 35.6875 56 
Q 41.65625 56 45.828125 52.96875 
Q 50 49.953125 52 44.1875 
z
" id="DejaVuSans-109"/>
       <path d="M 44.390625 34.1875 
Q 47.5625 33.109375 50.5625 29.59375 
Q 53.5625 26.078125 56.59375 19.921875 
L 66.609375 0 
L 56 0 
L 46.6875 18.703125 
Q 43.0625 26.03125 39.671875 28.421875 
Q 36.28125 30.8125 30.421875 30.8125 
L 19.671875 30.8125 
L 19.671875 0 
L 9.8125 0 
L 9.8125 72.90625 
L 32.078125 72.90625 
Q 44.578125 72.90625 50.734375 67.671875 
Q 56.890625 62.453125 56.890625 51.90625 
Q 56.890625 45.015625 53.6875 40.46875 
Q 50.484375 35.9375 44.390625 34.1875 
z
M 19.671875 64.796875 
L 19.671875 38.921875 
L 32.078125 38.921875 
Q 39.203125 38.921875 42.84375 42.21875 
Q 46.484375 45.515625 46.484375 51.90625 
Q 46.484375 58.296875 42.84375 61.546875 
Q 39.203125 64.796875 32.078125 64.796875 
z
" id="DejaVuSans-82"/>
       <path d="M 18.3125 70.21875 
L 18.3125 54.6875 
L 36.8125 54.6875 
L 36.8125 47.703125 
L 18.3125 47.703125 
L 18.3125 18.015625 
Q 18.3125 11.328125 20.140625 9.421875 
Q 21.96875 7.515625 27.59375 7.515625 
L 36.8125 7.515625 
L 36.8125 0 
L 27.59375 0 
Q 17.1875 0 13.234375 3.875 
Q 9.28125 7.765625 9.28125 18.015625 
L 9.28125 47.703125 
L 2.6875 47.703125 
L 2.6875 54.6875 
L 9.28125 54.6875 
L 9.28125 70.21875 
z
" id="DejaVuSans-116"/>
      </defs>
      <use xlink:href="#DejaVuSans-70"/>
      <use x="48.394531" xlink:href="#DejaVuSans-97"/>
      <use x="109.673828" xlink:href="#DejaVuSans-108"/>
      <use x="137.457031" xlink:href="#DejaVuSans-115"/>
      <use x="189.556641" xlink:href="#DejaVuSans-101"/>
      <use x="251.080078" xlink:href="#DejaVuSans-32"/>
      <use x="282.867188" xlink:href="#DejaVuSans-65"/>
      <use x="351.275391" xlink:href="#DejaVuSans-108"/>
      <use x="379.058594" xlink:href="#DejaVuSans-97"/>
      <use x="440.337891" xlink:href="#DejaVuSans-114"/>
      <use x="479.701172" xlink:href="#DejaVuSans-109"/>
      <use x="577.113281" xlink:href="#DejaVuSans-32"/>
      <use x="608.900391" xlink:href="#DejaVuSans-82"/>
      <use x="676.132812" xlink:href="#DejaVuSans-97"/>
      <use x="737.412109" xlink:href="#DejaVuSans-116"/>
      <use x="776.621094" xlink:href="#DejaVuSans-101"/>
     </g>
    </g>
   </g>
   <g id="matplotlib.axis_2">
    <g id="ytick_1">
     <g id="line2d_42">
      <defs>
       <path d="M 0 0 
L -3.5 0 
" id="m773b3a9722" style="stroke:#000000;stroke-width:0.8;"/>
      </defs>
      <g>
       <use style="stroke:#000000;stroke-width:0.8;" x="57.6" xlink:href="#m773b3a9722" y="295.488"/>
      </g>
     </g>
     <g id="text_7">
      <!-- 0.0 -->
      <g transform="translate(34.696875 299.287219)scale(0.1 -0.1)">
       <defs>
        <path d="M 10.6875 12.40625 
L 21 12.40625 
L 21 0 
L 10.6875 0 
z
" id="DejaVuSans-46"/>
       </defs>
       <use xlink:href="#DejaVuSans-48"/>
       <use x="63.623047" xlink:href="#DejaVuSans-46"/>
       <use x="95.410156" xlink:href="#DejaVuSans-48"/>
      </g>
     </g>
    </g>
    <g id="ytick_2">
     <g id="line2d_43">
      <g>
       <use style="stroke:#000000;stroke-width:0.8;" x="57.6" xlink:href="#m773b3a9722" y="247.104"/>
      </g>
     </g>
     <g id="text_8">
      <!-- 0.2 -->
      <g transform="translate(34.696875 250.903219)scale(0.1 -0.1)">
       <use xlink:href="#DejaVuSans-48"/>
       <use x="63.623047" xlink:href="#DejaVuSans-46"/>
       <use x="95.410156" xlink:href="#DejaVuSans-50"/>
      </g>
     </g>
    </g>
    <g id="ytick_3">
     <g id="line2d_44">
      <g>
       <use style="stroke:#000000;stroke-width:0.8;" x="57.6" xlink:href="#m773b3a9722" y="198.72"/>
      </g>
     </g>
     <g id="text_9">
      <!-- 0.4 -->
      <g transform="translate(34.696875 202.519219)scale(0.1 -0.1)">
       <use xlink:href="#DejaVuSans-48"/>
       <use x="63.623047" xlink:href="#DejaVuSans-46"/>
       <use x="95.410156" xlink:href="#DejaVuSans-52"/>
      </g>
     </g>
    </g>
    <g id="ytick_4">
     <g id="line2d_45">
      <g>
       <use style="stroke:#000000;stroke-width:0.8;" x="57.6" xlink:href="#m773b3a9722" y="150.336"/>
      </g>
     </g>
     <g id="text_10">
      <!-- 0.6 -->
      <g transform="translate(34.696875 154.135219)scale(0.1 -0.1)">
       <defs>
        <path d="M 33.015625 40.375 
Q 26.375 40.375 22.484375 35.828125 
Q 18.609375 31.296875 18.609375 23.390625 
Q 18.609375 15.53125 22.484375 10.953125 
Q 26.375 6.390625 33.015625 6.390625 
Q 39.65625 6.390625 43.53125 10.953125 
Q 47.40625 15.53125 47.40625 23.390625 
Q 47.40625 31.296875 43.53125 35.828125 
Q 39.65625 40.375 33.015625 40.375 
z
M 52.59375 71.296875 
L 52.59375 62.3125 
Q 48.875 64.0625 45.09375 64.984375 
Q 41.3125 65.921875 37.59375 65.921875 
Q 27.828125 65.921875 22.671875 59.328125 
Q 17.53125 52.734375 16.796875 39.40625 
Q 19.671875 43.65625 24.015625 45.921875 
Q 28.375 48.1875 33.59375 48.1875 
Q 44.578125 48.1875 50.953125 41.515625 
Q 57.328125 34.859375 57.328125 23.390625 
Q 57.328125 12.15625 50.6875 5.359375 
Q 44.046875 -1.421875 33.015625 -1.421875 
Q 20.359375 -1.421875 13.671875 8.265625 
Q 6.984375 17.96875 6.984375 36.375 
Q 6.984375 53.65625 15.1875 63.9375 
Q 23.390625 74.21875 37.203125 74.21875 
Q 40.921875 74.21875 44.703125 73.484375 
Q 48.484375 72.75 52.59375 71.296875 
z
" id="DejaVuSans-54"/>
       </defs>
       <use xlink:href="#DejaVuSans-48"/>
       <use x="63.623047" xlink:href="#DejaVuSans-46"/>
       <use x="95.410156" xlink:href="#DejaVuSans-54"/>
      </g>
     </g>
    </g>
    <g id="ytick_5">
     <g id="line2d_46">
      <g>
       <use style="stroke:#000000;stroke-width:0.8;" x="57.6" xlink:href="#m773b3a9722" y="101.952"/>
      </g>
     </g>
     <g id="text_11">
      <!-- 0.8 -->
      <g transform="translate(34.696875 105.751219)scale(0.1 -0.1)">
       <defs>
        <path d="M 31.78125 34.625 
Q 24.75 34.625 20.71875 30.859375 
Q 16.703125 27.09375 16.703125 20.515625 
Q 16.703125 13.921875 20.71875 10.15625 
Q 24.75 6.390625 31.78125 6.390625 
Q 38.8125 6.390625 42.859375 10.171875 
Q 46.921875 13.96875 46.921875 20.515625 
Q 46.921875 27.09375 42.890625 30.859375 
Q 38.875 34.625 31.78125 34.625 
z
M 21.921875 38.8125 
Q 15.578125 40.375 12.03125 44.71875 
Q 8.5 49.078125 8.5 55.328125 
Q 8.5 64.0625 14.71875 69.140625 
Q 20.953125 74.21875 31.78125 74.21875 
Q 42.671875 74.21875 48.875 69.140625 
Q 55.078125 64.0625 55.078125 55.328125 
Q 55.078125 49.078125 51.53125 44.71875 
Q 48 40.375 41.703125 38.8125 
Q 48.828125 37.15625 52.796875 32.3125 
Q 56.78125 27.484375 56.78125 20.515625 
Q 56.78125 9.90625 50.3125 4.234375 
Q 43.84375 -1.421875 31.78125 -1.421875 
Q 19.734375 -1.421875 13.25 4.234375 
Q 6.78125 9.90625 6.78125 20.515625 
Q 6.78125 27.484375 10.78125 32.3125 
Q 14.796875 37.15625 21.921875 38.8125 
z
M 18.3125 54.390625 
Q 18.3125 48.734375 21.84375 45.5625 
Q 25.390625 42.390625 31.78125 42.390625 
Q 38.140625 42.390625 41.71875 45.5625 
Q 45.3125 48.734375 45.3125 54.390625 
Q 45.3125 60.0625 41.71875 63.234375 
Q 38.140625 66.40625 31.78125 66.40625 
Q 25.390625 66.40625 21.84375 63.234375 
Q 18.3125 60.0625 18.3125 54.390625 
z
" id="DejaVuSans-56"/>
       </defs>
       <use xlink:href="#DejaVuSans-48"/>
       <use x="63.623047" xlink:href="#DejaVuSans-46"/>
       <use x="95.410156" xlink:href="#DejaVuSans-56"/>
      </g>
     </g>
    </g>
    <g id="ytick_6">
     <g id="line2d_47">
      <g>
       <use style="stroke:#000000;stroke-width:0.8;" x="57.6" xlink:href="#m773b3a9722" y="53.568"/>
      </g>
     </g>
     <g id="text_12">
      <!-- 1.0 -->
      <g transform="translate(34.696875 57.367219)scale(0.1 -0.1)">
       <use xlink:href="#DejaVuSans-49"/>
       <use x="63.623047" xlink:href="#DejaVuSans-46"/>
       <use x="95.410156" xlink:href="#DejaVuSans-48"/>
      </g>
     </g>
    </g>
    <g id="text_13">
     <!-- Recall -->
     <g transform="translate(28.617187 189.445188)rotate(-90)scale(0.1 -0.1)">
      <defs>
       <path d="M 48.78125 52.59375 
L 48.78125 44.1875 
Q 44.96875 46.296875 41.140625 47.34375 
Q 37.3125 48.390625 33.40625 48.390625 
Q 24.65625 48.390625 19.8125 42.84375 
Q 14.984375 37.3125 14.984375 27.296875 
Q 14.984375 17.28125 19.8125 11.734375 
Q 24.65625 6.203125 33.40625 6.203125 
Q 37.3125 6.203125 41.140625 7.25 
Q 44.96875 8.296875 48.78125 10.40625 
L 48.78125 2.09375 
Q 45.015625 0.34375 40.984375 -0.53125 
Q 36.96875 -1.421875 32.421875 -1.421875 
Q 20.0625 -1.421875 12.78125 6.34375 
Q 5.515625 14.109375 5.515625 27.296875 
Q 5.515625 40.671875 12.859375 48.328125 
Q 20.21875 56 33.015625 56 
Q 37.15625 56 41.109375 55.140625 
Q 45.0625 54.296875 48.78125 52.59375 
z
" id="DejaVuSans-99"/>
      </defs>
      <use xlink:href="#DejaVuSans-82"/>
      <use x="64.982422" xlink:href="#DejaVuSans-101"/>
      <use x="126.505859" xlink:href="#DejaVuSans-99"/>
      <use x="181.486328" xlink:href="#DejaVuSans-97"/>
      <use x="242.765625" xlink:href="#DejaVuSans-108"/>
      <use x="270.548828" xlink:href="#DejaVuSans-108"/>
     </g>
    </g>
   </g>
   <g id="line2d_48">
    <path clip-path="url(#p1ffef5ba41)" d="M 0 0 
" style="fill:none;stroke:#ff0000;stroke-linecap:square;stroke-width:1.5;"/>
   </g>
   <g id="line2d_49">
    <path clip-path="url(#p1ffef5ba41)" d="M -1 72.177231 
L 299.289573 72.177231 
L 299.289573 90.786462 
L 316.326902 90.786462 
L 316.326902 109.395692 
L 348.78654 109.395692 
L 348.78654 128.004923 
L 371.031172 128.004923 
L 371.031172 146.614154 
L 377.991385 146.614154 
L 377.991385 165.223385 
L 378.947995 165.223385 
L 378.947995 183.832615 
L 382.245271 183.832615 
L 382.245271 202.441846 
L 386.667694 202.441846 
L 386.667694 221.051077 
L 387.291048 221.051077 
L 387.291048 239.660308 
L 388.38554 239.660308 
L 388.38554 258.269538 
L 392.975147 258.269538 
L 392.975147 276.878769 
L 394.911762 276.878769 
L 394.911762 295.488 
L 395.985324 295.488 
L 396.176988 295.488 
L 398.487273 295.488 
" style="fill:none;stroke:#0000ff;stroke-linecap:square;stroke-width:1.5;"/>
   </g>
   <g id="line2d_50">
    <path clip-path="url(#p1ffef5ba41)" d="M -1 53.568 
L 167.798496 53.568 
L 256.533466 53.568 
L 256.533466 72.177231 
L 259.097247 72.177231 
L 259.097247 90.786462 
L 288.76092 90.786462 
L 288.76092 109.395692 
L 316.227854 109.395692 
L 316.227854 128.004923 
L 339.001899 128.004923 
L 339.001899 146.614154 
L 344.017869 146.614154 
L 344.017869 165.223385 
L 344.648803 165.223385 
L 344.648803 183.832615 
L 350.747221 183.832615 
L 350.747221 202.441846 
L 352.617688 202.441846 
L 352.617688 221.051077 
L 369.95716 221.051077 
L 370.157133 221.051077 
L 370.945662 221.051077 
L 370.945662 239.660308 
L 371.429519 239.660308 
L 371.429519 258.269538 
L 383.682168 258.269538 
L 383.682168 276.878769 
L 387.809309 276.878769 
L 387.809309 295.488 
L 398.487273 295.488 
" style="fill:none;stroke:#000000;stroke-linecap:square;stroke-width:1.5;"/>
   </g>
   <g id="line2d_51">
    <path clip-path="url(#p1ffef5ba41)" d="M -1 66.644757 
L 144.061542 66.644757 
L 144.061542 79.721514 
L 168.041116 79.721514 
L 168.041116 86.259892 
L 199.740389 86.259892 
L 199.740389 92.79827 
L 260.553858 92.79827 
L 260.553858 99.336649 
L 266.056735 99.336649 
L 266.056735 105.875027 
L 289.00354 105.875027 
L 289.00354 112.413405 
L 320.492507 112.413405 
L 320.492507 118.951784 
L 322.540158 118.951784 
L 322.540158 125.490162 
L 342.183059 125.490162 
L 342.183059 132.028541 
L 350.902368 132.028541 
L 350.902368 138.566919 
L 360.079825 138.566919 
L 360.213916 138.566919 
L 363.346554 138.566919 
L 363.346554 145.105297 
L 365.479811 145.105297 
L 365.479811 151.643676 
L 368.609505 151.643676 
L 368.609505 158.182054 
L 369.130527 158.182054 
L 369.130527 164.720432 
L 377.939528 164.720432 
L 378.019609 164.720432 
L 382.793789 164.720432 
L 382.793789 171.258811 
L 383.036807 171.258811 
L 383.036807 177.797189 
L 385.731308 177.797189 
L 385.731308 184.335568 
L 386.208053 184.335568 
L 386.208053 190.873946 
L 387.478597 190.873946 
L 387.478597 197.412324 
L 393.699734 197.412324 
L 393.699734 203.950703 
L 394.503725 203.950703 
L 394.503725 210.489081 
L 395.62768 210.489081 
L 395.62768 217.027459 
L 395.723711 217.027459 
L 395.723711 223.565838 
L 395.86726 223.565838 
L 395.86726 230.104216 
L 395.962629 230.104216 
L 395.962629 236.642595 
L 396.739554 236.642595 
L 396.739554 243.180973 
L 396.994699 243.180973 
L 396.994699 249.719351 
L 397.017801 249.719351 
L 397.017801 256.25773 
L 397.247976 256.25773 
L 397.247976 262.796108 
L 398.019311 262.796108 
L 398.019311 269.334486 
L 398.064153 269.334486 
L 398.064153 275.872865 
L 398.220642 275.872865 
L 398.220642 282.411243 
L 398.287492 282.411243 
L 398.287492 288.949622 
L 398.354214 288.949622 
L 398.354214 295.488 
L 398.487273 295.488 
" style="fill:none;stroke:#d2691e;stroke-linecap:square;stroke-width:1.5;"/>
   </g>
   <g id="line2d_52">
    <path clip-path="url(#p1ffef5ba41)" d="M -1 63.2448 
L 143.79695 63.2448 
L 143.79695 68.0832 
L 195.830828 68.0832 
L 195.830828 72.9216 
L 199.475797 72.9216 
L 199.475797 82.5984 
L 208.552345 82.5984 
L 208.552345 87.4368 
L 242.815399 87.4368 
L 242.815399 92.2752 
L 244.73785 92.2752 
L 244.73785 97.1136 
L 253.014052 97.1136 
L 253.014052 101.952 
L 270.538645 101.952 
L 270.538645 106.7904 
L 270.979354 106.7904 
L 270.979354 111.6288 
L 277.721973 111.6288 
L 277.721973 116.4672 
L 293.39124 116.4672 
L 293.39124 121.3056 
L 294.071823 121.3056 
L 294.071823 126.144 
L 296.248341 126.144 
L 296.248341 130.9824 
L 298.494246 130.9824 
L 298.494246 135.8208 
L 305.93607 135.8208 
L 305.93607 140.6592 
L 310.694833 140.6592 
L 310.694833 145.4976 
L 337.539556 145.4976 
L 337.539556 150.336 
L 338.235915 150.336 
L 338.235915 155.1744 
L 340.185457 155.1744 
L 340.185457 160.0128 
L 342.808425 160.0128 
L 342.808425 164.8512 
L 349.525294 164.8512 
L 349.525294 169.6896 
L 350.637776 169.6896 
L 350.725248 169.6896 
L 353.85534 169.6896 
L 353.935052 169.6896 
L 354.644318 169.6896 
L 354.644318 174.528 
L 356.132924 174.528 
L 356.132924 179.3664 
L 356.652048 179.3664 
L 356.652048 184.2048 
L 358.688699 184.2048 
L 358.688699 189.0432 
L 361.165623 189.0432 
L 361.165623 193.8816 
L 362.026959 193.8816 
L 362.026959 198.72 
L 363.747857 198.72 
L 363.747857 203.5584 
L 368.528164 203.5584 
L 368.528164 208.3968 
L 372.238346 208.3968 
L 372.238346 213.2352 
L 374.485726 213.2352 
L 374.485726 218.0736 
L 375.927851 218.0736 
L 375.927851 222.912 
L 378.211923 222.912 
L 378.211923 227.7504 
L 379.717979 227.7504 
L 379.717979 232.5888 
L 379.755747 232.5888 
L 379.755747 237.4272 
L 380.613215 237.4272 
L 380.650019 237.4272 
L 381.395987 237.4272 
L 381.431968 237.4272 
L 383.525058 237.4272 
L 383.525058 242.2656 
L 385.20974 242.2656 
L 385.20974 247.104 
L 388.644502 247.104 
L 388.644502 251.9424 
L 391.433802 251.9424 
L 391.433802 256.7808 
L 392.715988 256.7808 
L 392.715988 261.6192 
L 395.230609 261.6192 
L 395.230609 266.4576 
L 395.351066 266.4576 
L 395.351066 271.296 
L 395.530968 271.296 
L 395.530968 276.1344 
L 397.212038 276.1344 
L 397.212038 280.9728 
L 397.833154 280.9728 
L 397.833154 285.8112 
L 398.167302 285.8112 
L 398.167302 290.6496 
L 398.211612 290.6496 
L 398.211612 295.488 
L 398.487273 295.488 
" style="fill:none;stroke:#ffff00;stroke-linecap:square;stroke-width:1.5;"/>
   </g>
   <g id="line2d_53">
    <path clip-path="url(#p1ffef5ba41)" d="M -1 53.568 
L 95.586119 53.568 
L 151.264966 53.568 
L 151.264966 62.528 
L 171.599571 62.528 
L 171.599571 67.008 
L 212.078435 67.008 
L 212.078435 71.488 
L 227.278418 71.488 
L 227.278418 75.968 
L 236.05801 75.968 
L 236.05801 80.448 
L 250.48054 80.448 
L 250.48054 84.928 
L 256.590868 84.928 
L 256.590868 89.408 
L 260.920914 89.408 
L 260.920914 93.888 
L 269.159983 93.888 
L 269.159983 98.368 
L 279.736783 98.368 
L 279.736783 102.848 
L 280.570443 102.848 
L 280.570443 107.328 
L 287.422714 107.328 
L 287.422714 111.808 
L 308.367532 111.808 
L 308.367532 116.288 
L 312.335549 116.288 
L 312.335549 120.768 
L 313.753056 120.768 
L 313.753056 125.248 
L 314.564162 125.248 
L 314.564162 129.728 
L 320.706777 129.728 
L 320.706777 134.208 
L 323.244731 134.208 
L 323.340563 134.208 
L 326.537645 134.208 
L 326.537645 138.688 
L 327.057232 138.688 
L 327.057232 143.168 
L 330.993207 143.168 
L 330.993207 147.648 
L 331.526038 147.648 
L 331.526038 152.128 
L 346.398837 152.128 
L 346.398837 156.608 
L 347.224306 156.608 
L 347.224306 161.088 
L 353.862054 161.088 
L 353.901637 161.088 
L 362.982749 161.088 
L 362.982749 165.568 
L 362.997959 165.568 
L 363.028359 165.568 
L 363.361008 165.568 
L 363.391091 165.568 
L 365.020956 165.568 
L 365.020956 170.048 
L 365.843003 170.048 
L 365.843003 174.528 
L 368.614253 174.528 
L 368.614253 179.008 
L 369.178457 179.008 
L 369.178457 183.488 
L 369.758631 183.488 
L 369.783636 183.488 
L 370.25534 183.488 
L 370.279989 183.488 
L 370.659824 183.488 
L 370.659824 187.968 
L 371.680406 187.968 
L 371.680406 192.448 
L 375.037862 192.448 
L 375.037862 196.928 
L 375.326558 196.928 
L 375.326558 201.408 
L 375.538865 201.408 
L 375.560024 201.408 
L 381.511343 201.408 
L 381.511343 205.888 
L 382.390557 205.888 
L 382.390557 210.368 
L 383.568307 210.368 
L 383.568307 214.848 
L 386.115303 214.848 
L 386.115303 219.328 
L 386.556801 219.328 
L 386.556801 223.808 
L 389.47064 223.808 
L 389.47064 228.288 
L 389.534253 228.288 
L 389.534253 232.768 
L 390.823407 232.768 
L 390.837011 232.768 
L 391.590427 232.768 
L 391.590427 237.248 
L 392.112155 237.248 
L 392.112155 241.728 
L 392.800058 241.728 
L 392.800058 246.208 
L 393.769459 246.208 
L 393.769459 250.688 
L 395.117416 250.688 
L 395.117416 255.168 
L 396.466868 255.168 
L 396.466868 259.648 
L 396.754635 259.648 
L 396.754635 264.128 
L 396.897626 264.128 
L 396.897626 268.608 
L 397.503037 268.608 
L 397.503037 273.088 
L 397.508645 273.088 
L 397.508645 277.568 
L 398.19713 277.568 
L 398.19713 282.048 
L 398.432715 282.048 
L 398.432715 286.528 
L 398.454548 286.528 
L 398.454548 291.008 
L 398.481821 291.008 
L 398.481821 295.488 
L 398.487273 295.488 
" style="fill:none;stroke:#008000;stroke-linecap:square;stroke-width:1.5;"/>
   </g>
   <g id="line2d_54">
    <path clip-path="url(#p1ffef5ba41)" d="M -1 69.175742 
L 81.602607 69.175742 
L 81.602607 79.580903 
L 105.582181 79.580903 
L 105.582181 84.783484 
L 119.609333 84.783484 
L 119.609333 92.587355 
L 143.588907 92.587355 
L 143.588907 95.188645 
L 148.921783 95.188645 
L 148.921783 97.789935 
L 172.901357 97.789935 
L 172.901357 100.391226 
L 177.520904 100.391226 
L 177.520904 102.992516 
L 179.618226 102.992516 
L 179.618226 108.195097 
L 196.880931 108.195097 
L 196.880931 110.796387 
L 201.500478 110.796387 
L 201.500478 113.397677 
L 210.908083 113.397677 
L 210.908083 115.998968 
L 213.294906 115.998968 
L 213.294906 118.600258 
L 217.624952 118.600258 
L 217.624952 123.802839 
L 220.237152 123.802839 
L 220.237152 126.404129 
L 224.935235 126.404129 
L 224.935235 134.208 
L 226.544605 134.208 
L 226.544605 136.80929 
L 228.580204 136.80929 
L 228.580204 139.410581 
L 236.497027 139.410581 
L 236.497027 142.011871 
L 242.607356 142.011871 
L 242.607356 144.613161 
L 252.311783 144.613161 
L 252.311783 147.214452 
L 268.819654 147.214452 
L 268.819654 149.815742 
L 269.279908 149.815742 
L 269.279908 152.417032 
L 271.350325 152.417032 
L 271.350325 155.018323 
L 272.201069 155.018323 
L 272.201069 157.619613 
L 275.915999 157.619613 
L 275.915999 160.220903 
L 281.266841 160.220903 
L 281.266841 162.822194 
L 281.481719 162.822194 
L 281.481719 165.423484 
L 283.154321 165.423484 
L 283.154321 168.024774 
L 290.566505 168.024774 
L 290.566505 170.626065 
L 291.93919 170.626065 
L 291.93919 175.828645 
L 295.186052 175.828645 
L 295.186052 178.429935 
L 302.674343 178.429935 
L 302.674343 181.031226 
L 302.73234 181.031226 
L 304.758005 181.031226 
L 304.758005 183.632516 
L 308.484856 183.632516 
L 308.484856 186.233806 
L 309.165121 186.233806 
L 309.165121 188.835097 
L 311.580802 188.835097 
L 311.580802 191.436387 
L 320.543259 191.436387 
L 320.543259 194.037677 
L 322.232814 194.037677 
L 322.232814 196.638968 
L 334.466365 196.638968 
L 334.466365 199.240258 
L 340.272345 199.240258 
L 340.272345 201.841548 
L 344.43615 201.841548 
L 344.43615 204.442839 
L 347.443434 204.442839 
L 347.475246 209.645419 
L 349.811156 209.645419 
L 349.811156 212.24671 
L 352.771763 212.24671 
L 352.771763 214.848 
L 357.50707 214.848 
L 357.50707 217.44929 
L 360.643912 217.44929 
L 360.643912 220.050581 
L 361.118713 220.050581 
L 361.118713 222.651871 
L 365.821219 222.651871 
L 365.821219 225.253161 
L 365.905313 225.253161 
L 366.405627 225.253161 
L 366.405627 227.854452 
L 368.735373 227.854452 
L 368.735373 230.455742 
L 369.128699 230.455742 
L 369.128699 233.057032 
L 371.597612 233.057032 
L 371.597612 235.658323 
L 374.642077 235.658323 
L 374.642077 238.259613 
L 377.238983 238.259613 
L 377.238983 240.860903 
L 377.520301 240.860903 
L 377.520301 243.462194 
L 378.610315 243.462194 
L 378.610315 246.063484 
L 379.002387 246.063484 
L 379.002387 248.664774 
L 379.142707 248.664774 
L 379.142707 251.266065 
L 380.977309 251.266065 
L 380.977309 253.867355 
L 381.882901 253.867355 
L 381.882901 256.468645 
L 382.175686 256.468645 
L 382.175686 259.069935 
L 383.124662 259.069935 
L 383.124662 261.671226 
L 387.763351 261.671226 
L 387.763351 264.272516 
L 389.945495 264.272516 
L 389.945495 266.873806 
L 391.654023 266.873806 
L 391.654023 269.475097 
L 393.518189 269.475097 
L 393.518189 272.076387 
L 394.479344 272.076387 
L 394.479344 274.677677 
L 394.617986 274.677677 
L 394.617986 277.278968 
L 395.876714 277.278968 
L 395.876714 279.880258 
L 396.146425 279.880258 
L 396.146425 282.481548 
L 396.870798 282.481548 
L 396.870798 285.082839 
L 398.003569 285.082839 
L 398.003569 287.684129 
L 398.128808 287.684129 
L 398.128808 292.88671 
L 398.487273 292.88671 
L 398.487273 295.488 
L 398.487273 295.488 
" style="fill:none;stroke:#ffc0cb;stroke-linecap:square;stroke-width:1.5;"/>
   </g>
   <g id="line2d_55">
    <path clip-path="url(#p1ffef5ba41)" d="M -1 56.011636 
L 73.832727 56.011636 
L 73.832727 58.455273 
L 111.839453 58.455273 
L 111.839453 60.898909 
L 121.791876 60.898909 
L 121.791876 63.342545 
L 149.846179 63.342545 
L 149.846179 65.786182 
L 159.798602 65.786182 
L 159.798602 68.229818 
L 182.305817 68.229818 
L 182.305817 70.673455 
L 197.805328 70.673455 
L 197.805328 73.117091 
L 200.574423 73.117091 
L 200.574423 75.560727 
L 209.169996 75.560727 
L 209.169996 78.004364 
L 211.83248 78.004364 
L 211.83248 82.891636 
L 217.710173 82.891636 
L 217.710173 85.335273 
L 219.807495 85.335273 
L 219.807495 87.778909 
L 222.732776 87.778909 
L 222.732776 90.222545 
L 240.028858 90.222545 
L 240.028858 92.666182 
L 241.418411 92.666182 
L 241.418411 95.109818 
L 242.7543 95.109818 
L 242.7543 97.553455 
L 246.71235 97.553455 
L 246.71235 99.997091 
L 248.311093 99.997091 
L 248.311093 102.440727 
L 249.624993 102.440727 
L 249.624993 104.884364 
L 255.354643 104.884364 
L 255.354643 107.328 
L 258.651918 107.328 
L 258.651918 109.771636 
L 260.110481 109.771636 
L 260.110481 112.215273 
L 263.866358 112.215273 
L 263.866358 114.658909 
L 275.179736 114.658909 
L 275.179736 117.102545 
L 277.940933 117.102545 
L 277.940933 119.546182 
L 280.761026 119.546182 
L 280.761026 121.989818 
L 280.935309 121.989818 
L 280.935309 124.433455 
L 283.042856 124.433455 
L 283.042856 126.877091 
L 285.489603 126.877091 
L 285.489603 129.320727 
L 287.774675 129.320727 
L 287.774675 131.764364 
L 294.84637 131.764364 
L 294.84637 134.208 
L 298.901712 134.208 
L 298.901712 136.651636 
L 305.94254 136.651636 
L 305.94254 139.095273 
L 308.346234 139.095273 
L 308.346234 141.538909 
L 310.630577 141.538909 
L 310.630577 143.982545 
L 313.493068 143.982545 
L 313.493068 146.426182 
L 313.998117 146.426182 
L 313.998117 148.869818 
L 319.373941 148.869818 
L 319.373941 151.313455 
L 319.800521 151.313455 
L 319.800521 153.757091 
L 321.777929 153.757091 
L 321.777929 156.200727 
L 323.164539 156.200727 
L 323.164539 158.644364 
L 326.112685 158.644364 
L 326.112685 161.088 
L 327.924847 161.088 
L 327.924847 163.531636 
L 329.283415 163.531636 
L 329.283415 165.975273 
L 331.630105 165.975273 
L 331.630105 168.418909 
L 332.91119 168.418909 
L 332.91119 170.862545 
L 333.334261 170.862545 
L 333.334261 173.306182 
L 333.581847 173.306182 
L 333.581847 175.749818 
L 336.770265 175.749818 
L 336.770265 178.193455 
L 337.927517 178.193455 
L 337.927517 180.637091 
L 338.491943 180.637091 
L 338.491943 183.080727 
L 339.958813 183.080727 
L 339.958813 185.524364 
L 344.796651 185.524364 
L 344.796651 187.968 
L 347.425065 187.968 
L 347.425065 190.411636 
L 349.24596 190.411636 
L 349.24596 192.855273 
L 350.860815 192.855273 
L 350.860815 195.298909 
L 352.601327 195.298909 
L 352.601327 197.742545 
L 353.880587 197.742545 
L 353.880587 200.186182 
L 357.02594 200.186182 
L 357.02594 202.629818 
L 358.626548 202.629818 
L 358.626548 205.073455 
L 358.974426 205.073455 
L 358.974426 207.517091 
L 359.192349 207.517091 
L 359.192349 209.960727 
L 361.739316 209.960727 
L 361.739316 212.404364 
L 362.561962 212.404364 
L 362.561962 214.848 
L 364.064417 214.848 
L 364.064417 217.291636 
L 364.811105 217.291636 
L 364.811105 219.735273 
L 365.216537 219.735273 
L 365.315262 224.622545 
L 365.322844 224.622545 
L 367.239967 224.622545 
L 367.239967 227.066182 
L 370.227422 227.066182 
L 370.227422 229.509818 
L 371.19414 229.509818 
L 371.19414 231.953455 
L 371.51892 231.953455 
L 371.51892 234.397091 
L 374.077721 234.397091 
L 374.077721 236.840727 
L 376.272897 236.840727 
L 376.272897 239.284364 
L 377.669671 239.284364 
L 377.669671 241.728 
L 378.704625 241.728 
L 378.704625 244.171636 
L 379.413119 244.171636 
L 379.413119 246.615273 
L 379.719518 246.615273 
L 379.719518 249.058909 
L 380.456719 249.058909 
L 380.456719 253.946182 
L 382.273296 253.946182 
L 382.273296 256.389818 
L 384.906349 256.389818 
L 384.906349 258.833455 
L 385.013795 258.833455 
L 385.274569 258.833455 
L 385.274569 261.277091 
L 385.291601 261.277091 
L 385.986942 261.277091 
L 385.986942 263.720727 
L 386.036971 263.720727 
L 388.165647 263.720727 
L 388.165647 266.164364 
L 388.539695 266.164364 
L 388.539695 268.608 
L 389.97441 268.608 
L 389.97441 271.051636 
L 390.877136 271.051636 
L 390.877136 273.495273 
L 391.437628 273.495273 
L 391.437628 275.938909 
L 392.355532 275.938909 
L 392.355532 278.382545 
L 392.97808 278.382545 
L 393.080191 283.269818 
L 393.569523 283.269818 
L 393.569523 285.713455 
L 393.899687 285.713455 
L 393.899687 288.157091 
L 394.302268 288.157091 
L 394.302268 290.600727 
L 397.406638 290.600727 
L 397.406638 293.044364 
L 398.397041 293.044364 
L 398.397041 295.488 
L 398.487273 295.488 
" style="fill:none;stroke:#ee82ee;stroke-linecap:square;stroke-width:1.5;"/>
   </g>
   <g id="patch_3">
    <path d="M 57.6 307.584 
L 57.6 41.472 
" style="fill:none;stroke:#000000;stroke-linecap:square;stroke-linejoin:miter;stroke-width:0.8;"/>
   </g>
   <g id="patch_4">
    <path d="M 414.72 307.584 
L 414.72 41.472 
" style="fill:none;stroke:#000000;stroke-linecap:square;stroke-linejoin:miter;stroke-width:0.8;"/>
   </g>
   <g id="patch_5">
    <path d="M 57.6 307.584 
L 414.72 307.584 
" style="fill:none;stroke:#000000;stroke-linecap:square;stroke-linejoin:miter;stroke-width:0.8;"/>
   </g>
   <g id="patch_6">
    <path d="M 57.6 41.472 
L 414.72 41.472 
" style="fill:none;stroke:#000000;stroke-linecap:square;stroke-linejoin:miter;stroke-width:0.8;"/>
   </g>
   <g id="legend_1">
    <g id="line2d_56">
     <path d="M 306.54 52.722 
L 324.54 52.722 
" style="fill:none;stroke:#ff0000;stroke-linecap:square;stroke-width:1.5;"/>
    </g>
    <g id="line2d_57"/>
    <g id="text_14">
     <!-- $number=1000$ -->
     <g transform="translate(331.74 55.872)scale(0.09 -0.09)">
      <defs>
       <path d="M 55.71875 33.015625 
L 49.3125 0 
L 40.28125 0 
L 46.6875 32.671875 
Q 47.125 34.96875 47.359375 36.71875 
Q 47.609375 38.484375 47.609375 39.5 
Q 47.609375 43.609375 45.015625 45.890625 
Q 42.4375 48.1875 37.796875 48.1875 
Q 30.5625 48.1875 25.34375 43.375 
Q 20.125 38.578125 18.5 30.328125 
L 12.5 0 
L 3.515625 0 
L 14.109375 54.6875 
L 23.09375 54.6875 
L 21.296875 46.09375 
Q 25.046875 50.828125 30.3125 53.40625 
Q 35.59375 56 41.40625 56 
Q 48.640625 56 52.609375 52.09375 
Q 56.59375 48.1875 56.59375 41.109375 
Q 56.59375 39.359375 56.375 37.359375 
Q 56.15625 35.359375 55.71875 33.015625 
z
" id="DejaVuSans-Oblique-110"/>
       <path d="M 6.6875 21.6875 
L 13.09375 54.6875 
L 22.125 54.6875 
L 15.71875 22.015625 
Q 15.234375 19.625 15.015625 17.921875 
Q 14.796875 16.21875 14.796875 15.09375 
Q 14.796875 10.9375 17.328125 8.65625 
Q 19.875 6.390625 24.515625 6.390625 
Q 31.734375 6.390625 37 11.265625 
Q 42.28125 16.15625 43.890625 24.421875 
L 49.90625 54.6875 
L 58.890625 54.6875 
L 48.296875 0 
L 39.3125 0 
L 41.109375 8.59375 
Q 37.3125 3.8125 32.0625 1.1875 
Q 26.8125 -1.421875 20.90625 -1.421875 
Q 13.71875 -1.421875 9.71875 2.515625 
Q 5.71875 6.453125 5.71875 13.484375 
Q 5.71875 14.9375 5.953125 17.140625 
Q 6.203125 19.34375 6.6875 21.6875 
z
" id="DejaVuSans-Oblique-117"/>
       <path d="M 89.796875 33.015625 
L 83.40625 0 
L 74.421875 0 
L 80.71875 32.71875 
Q 81.109375 34.8125 81.296875 36.328125 
Q 81.5 37.84375 81.5 38.921875 
Q 81.5 43.3125 79.046875 45.75 
Q 76.609375 48.1875 72.21875 48.1875 
Q 65.671875 48.1875 60.546875 43.28125 
Q 55.421875 38.375 53.90625 30.515625 
L 47.90625 0 
L 38.921875 0 
L 45.3125 32.71875 
Q 45.703125 34.515625 45.890625 36.046875 
Q 46.09375 37.59375 46.09375 38.8125 
Q 46.09375 43.265625 43.65625 45.71875 
Q 41.21875 48.1875 36.921875 48.1875 
Q 30.28125 48.1875 25.140625 43.28125 
Q 20.015625 38.375 18.5 30.515625 
L 12.5 0 
L 3.515625 0 
L 14.203125 54.6875 
L 23.1875 54.6875 
L 21.484375 46.1875 
Q 25.140625 50.984375 30.046875 53.484375 
Q 34.96875 56 40.578125 56 
Q 46.53125 56 50.359375 52.875 
Q 54.203125 49.75 54.984375 44.1875 
Q 59.078125 49.953125 64.46875 52.96875 
Q 69.875 56 75.875 56 
Q 82.90625 56 86.734375 51.953125 
Q 90.578125 47.90625 90.578125 40.484375 
Q 90.578125 38.875 90.375 36.9375 
Q 90.1875 35.015625 89.796875 33.015625 
z
" id="DejaVuSans-Oblique-109"/>
       <path d="M 49.515625 33.40625 
Q 49.515625 40.484375 46.265625 44.484375 
Q 43.015625 48.484375 37.3125 48.484375 
Q 33.15625 48.484375 29.515625 46.453125 
Q 25.875 44.4375 23.1875 40.578125 
Q 20.359375 36.53125 18.71875 31.171875 
Q 17.09375 25.828125 17.09375 20.515625 
Q 17.09375 13.765625 20.28125 9.9375 
Q 23.484375 6.109375 29.109375 6.109375 
Q 33.34375 6.109375 36.953125 8.078125 
Q 40.578125 10.0625 43.3125 13.921875 
Q 46.09375 17.921875 47.796875 23.234375 
Q 49.515625 28.5625 49.515625 33.40625 
z
M 21.578125 46.390625 
Q 24.90625 50.875 29.90625 53.4375 
Q 34.90625 56 40.375 56 
Q 48.78125 56 53.734375 50.328125 
Q 58.6875 44.671875 58.6875 35.015625 
Q 58.6875 27.09375 55.78125 19.671875 
Q 52.875 12.25 47.515625 6.5 
Q 44 2.6875 39.40625 0.625 
Q 34.8125 -1.421875 29.78125 -1.421875 
Q 24.46875 -1.421875 20.5625 1.015625 
Q 16.65625 3.46875 14.203125 8.296875 
L 12.59375 0 
L 3.609375 0 
L 18.40625 75.984375 
L 27.390625 75.984375 
z
" id="DejaVuSans-Oblique-98"/>
       <path d="M 48.09375 32.234375 
Q 48.25 33.015625 48.3125 33.84375 
Q 48.390625 34.671875 48.390625 35.5 
Q 48.390625 41.453125 44.890625 44.921875 
Q 41.40625 48.390625 35.40625 48.390625 
Q 28.71875 48.390625 23.578125 44.15625 
Q 18.453125 39.9375 15.828125 32.171875 
z
M 55.90625 25.203125 
L 14.109375 25.203125 
Q 13.8125 23.34375 13.71875 22.265625 
Q 13.625 21.1875 13.625 20.40625 
Q 13.625 13.625 17.796875 9.90625 
Q 21.96875 6.203125 29.59375 6.203125 
Q 35.453125 6.203125 40.671875 7.515625 
Q 45.90625 8.84375 50.390625 11.375 
L 48.6875 2.484375 
Q 43.84375 0.53125 38.6875 -0.4375 
Q 33.546875 -1.421875 28.21875 -1.421875 
Q 16.84375 -1.421875 10.71875 4.015625 
Q 4.59375 9.46875 4.59375 19.484375 
Q 4.59375 28.03125 7.640625 35.375 
Q 10.6875 42.71875 16.609375 48.484375 
Q 20.40625 52.09375 25.65625 54.046875 
Q 30.90625 56 36.8125 56 
Q 46.09375 56 51.578125 50.4375 
Q 57.078125 44.875 57.078125 35.5 
Q 57.078125 33.25 56.78125 30.6875 
Q 56.5 28.125 55.90625 25.203125 
z
" id="DejaVuSans-Oblique-101"/>
       <path d="M 44.578125 46.390625 
Q 43.21875 47.125 41.453125 47.515625 
Q 39.703125 47.90625 37.703125 47.90625 
Q 30.515625 47.90625 25.140625 42.453125 
Q 19.78125 37.015625 18.015625 27.875 
L 12.5 0 
L 3.515625 0 
L 14.203125 54.6875 
L 23.1875 54.6875 
L 21.484375 46.1875 
Q 25.046875 50.921875 30 53.453125 
Q 34.96875 56 40.578125 56 
Q 42.046875 56 43.453125 55.828125 
Q 44.875 55.671875 46.296875 55.28125 
z
" id="DejaVuSans-Oblique-114"/>
       <path d="M 10.59375 45.40625 
L 73.1875 45.40625 
L 73.1875 37.203125 
L 10.59375 37.203125 
z
M 10.59375 25.484375 
L 73.1875 25.484375 
L 73.1875 17.1875 
L 10.59375 17.1875 
z
" id="DejaVuSans-61"/>
      </defs>
      <use transform="translate(0 0.015625)" xlink:href="#DejaVuSans-Oblique-110"/>
      <use transform="translate(63.378906 0.015625)" xlink:href="#DejaVuSans-Oblique-117"/>
      <use transform="translate(126.757812 0.015625)" xlink:href="#DejaVuSans-Oblique-109"/>
      <use transform="translate(224.169922 0.015625)" xlink:href="#DejaVuSans-Oblique-98"/>
      <use transform="translate(287.646484 0.015625)" xlink:href="#DejaVuSans-Oblique-101"/>
      <use transform="translate(349.169922 0.015625)" xlink:href="#DejaVuSans-Oblique-114"/>
      <use transform="translate(409.765625 0.015625)" xlink:href="#DejaVuSans-61"/>
      <use transform="translate(513.037109 0.015625)" xlink:href="#DejaVuSans-49"/>
      <use transform="translate(576.660156 0.015625)" xlink:href="#DejaVuSans-48"/>
      <use transform="translate(640.283203 0.015625)" xlink:href="#DejaVuSans-48"/>
      <use transform="translate(703.90625 0.015625)" xlink:href="#DejaVuSans-48"/>
     </g>
    </g>
    <g id="line2d_58">
     <path d="M 306.54 65.447156 
L 324.54 65.447156 
" style="fill:none;stroke:#0000ff;stroke-linecap:square;stroke-width:1.5;"/>
    </g>
    <g id="line2d_59"/>
    <g id="text_15">
     <!-- $number=2000$ -->
     <g transform="translate(331.74 68.597156)scale(0.09 -0.09)">
      <use transform="translate(0 0.015625)" xlink:href="#DejaVuSans-Oblique-110"/>
      <use transform="translate(63.378906 0.015625)" xlink:href="#DejaVuSans-Oblique-117"/>
      <use transform="translate(126.757812 0.015625)" xlink:href="#DejaVuSans-Oblique-109"/>
      <use transform="translate(224.169922 0.015625)" xlink:href="#DejaVuSans-Oblique-98"/>
      <use transform="translate(287.646484 0.015625)" xlink:href="#DejaVuSans-Oblique-101"/>
      <use transform="translate(349.169922 0.015625)" xlink:href="#DejaVuSans-Oblique-114"/>
      <use transform="translate(409.765625 0.015625)" xlink:href="#DejaVuSans-61"/>
      <use transform="translate(513.037109 0.015625)" xlink:href="#DejaVuSans-50"/>
      <use transform="translate(576.660156 0.015625)" xlink:href="#DejaVuSans-48"/>
      <use transform="translate(640.283203 0.015625)" xlink:href="#DejaVuSans-48"/>
      <use transform="translate(703.90625 0.015625)" xlink:href="#DejaVuSans-48"/>
     </g>
    </g>
    <g id="line2d_60">
     <path d="M 306.54 78.172313 
L 324.54 78.172313 
" style="fill:none;stroke:#000000;stroke-linecap:square;stroke-width:1.5;"/>
    </g>
    <g id="line2d_61"/>
    <g id="text_16">
     <!-- $number=4000$ -->
     <g transform="translate(331.74 81.322313)scale(0.09 -0.09)">
      <use transform="translate(0 0.015625)" xlink:href="#DejaVuSans-Oblique-110"/>
      <use transform="translate(63.378906 0.015625)" xlink:href="#DejaVuSans-Oblique-117"/>
      <use transform="translate(126.757812 0.015625)" xlink:href="#DejaVuSans-Oblique-109"/>
      <use transform="translate(224.169922 0.015625)" xlink:href="#DejaVuSans-Oblique-98"/>
      <use transform="translate(287.646484 0.015625)" xlink:href="#DejaVuSans-Oblique-101"/>
      <use transform="translate(349.169922 0.015625)" xlink:href="#DejaVuSans-Oblique-114"/>
      <use transform="translate(409.765625 0.015625)" xlink:href="#DejaVuSans-61"/>
      <use transform="translate(513.037109 0.015625)" xlink:href="#DejaVuSans-52"/>
      <use transform="translate(576.660156 0.015625)" xlink:href="#DejaVuSans-48"/>
      <use transform="translate(640.283203 0.015625)" xlink:href="#DejaVuSans-48"/>
      <use transform="translate(703.90625 0.015625)" xlink:href="#DejaVuSans-48"/>
     </g>
    </g>
    <g id="line2d_62">
     <path d="M 306.54 90.897469 
L 324.54 90.897469 
" style="fill:none;stroke:#d2691e;stroke-linecap:square;stroke-width:1.5;"/>
    </g>
    <g id="line2d_63"/>
    <g id="text_17">
     <!-- $number=8000$ -->
     <g transform="translate(331.74 94.047469)scale(0.09 -0.09)">
      <use transform="translate(0 0.015625)" xlink:href="#DejaVuSans-Oblique-110"/>
      <use transform="translate(63.378906 0.015625)" xlink:href="#DejaVuSans-Oblique-117"/>
      <use transform="translate(126.757812 0.015625)" xlink:href="#DejaVuSans-Oblique-109"/>
      <use transform="translate(224.169922 0.015625)" xlink:href="#DejaVuSans-Oblique-98"/>
      <use transform="translate(287.646484 0.015625)" xlink:href="#DejaVuSans-Oblique-101"/>
      <use transform="translate(349.169922 0.015625)" xlink:href="#DejaVuSans-Oblique-114"/>
      <use transform="translate(409.765625 0.015625)" xlink:href="#DejaVuSans-61"/>
      <use transform="translate(513.037109 0.015625)" xlink:href="#DejaVuSans-56"/>
      <use transform="translate(576.660156 0.015625)" xlink:href="#DejaVuSans-48"/>
      <use transform="translate(640.283203 0.015625)" xlink:href="#DejaVuSans-48"/>
      <use transform="translate(703.90625 0.015625)" xlink:href="#DejaVuSans-48"/>
     </g>
    </g>
    <g id="line2d_64">
     <path d="M 306.54 103.622625 
L 324.54 103.622625 
" style="fill:none;stroke:#ffff00;stroke-linecap:square;stroke-width:1.5;"/>
    </g>
    <g id="line2d_65"/>
    <g id="text_18">
     <!-- $number=16000$ -->
     <g transform="translate(331.74 106.772625)scale(0.09 -0.09)">
      <use transform="translate(0 0.015625)" xlink:href="#DejaVuSans-Oblique-110"/>
      <use transform="translate(63.378906 0.015625)" xlink:href="#DejaVuSans-Oblique-117"/>
      <use transform="translate(126.757812 0.015625)" xlink:href="#DejaVuSans-Oblique-109"/>
      <use transform="translate(224.169922 0.015625)" xlink:href="#DejaVuSans-Oblique-98"/>
      <use transform="translate(287.646484 0.015625)" xlink:href="#DejaVuSans-Oblique-101"/>
      <use transform="translate(349.169922 0.015625)" xlink:href="#DejaVuSans-Oblique-114"/>
      <use transform="translate(409.765625 0.015625)" xlink:href="#DejaVuSans-61"/>
      <use transform="translate(513.037109 0.015625)" xlink:href="#DejaVuSans-49"/>
      <use transform="translate(576.660156 0.015625)" xlink:href="#DejaVuSans-54"/>
      <use transform="translate(640.283203 0.015625)" xlink:href="#DejaVuSans-48"/>
      <use transform="translate(703.90625 0.015625)" xlink:href="#DejaVuSans-48"/>
      <use transform="translate(767.529297 0.015625)" xlink:href="#DejaVuSans-48"/>
     </g>
    </g>
    <g id="line2d_66">
     <path d="M 306.54 116.347781 
L 324.54 116.347781 
" style="fill:none;stroke:#008000;stroke-linecap:square;stroke-width:1.5;"/>
    </g>
    <g id="line2d_67"/>
    <g id="text_19">
     <!-- $number=32000$ -->
     <g transform="translate(331.74 119.497781)scale(0.09 -0.09)">
      <use transform="translate(0 0.015625)" xlink:href="#DejaVuSans-Oblique-110"/>
      <use transform="translate(63.378906 0.015625)" xlink:href="#DejaVuSans-Oblique-117"/>
      <use transform="translate(126.757812 0.015625)" xlink:href="#DejaVuSans-Oblique-109"/>
      <use transform="translate(224.169922 0.015625)" xlink:href="#DejaVuSans-Oblique-98"/>
      <use transform="translate(287.646484 0.015625)" xlink:href="#DejaVuSans-Oblique-101"/>
      <use transform="translate(349.169922 0.015625)" xlink:href="#DejaVuSans-Oblique-114"/>
      <use transform="translate(409.765625 0.015625)" xlink:href="#DejaVuSans-61"/>
      <use transform="translate(513.037109 0.015625)" xlink:href="#DejaVuSans-51"/>
      <use transform="translate(576.660156 0.015625)" xlink:href="#DejaVuSans-50"/>
      <use transform="translate(640.283203 0.015625)" xlink:href="#DejaVuSans-48"/>
      <use transform="translate(703.90625 0.015625)" xlink:href="#DejaVuSans-48"/>
      <use transform="translate(767.529297 0.015625)" xlink:href="#DejaVuSans-48"/>
     </g>
    </g>
    <g id="line2d_68">
     <path d="M 306.54 129.072937 
L 324.54 129.072937 
" style="fill:none;stroke:#ffc0cb;stroke-linecap:square;stroke-width:1.5;"/>
    </g>
    <g id="line2d_69"/>
    <g id="text_20">
     <!-- $number=48000$ -->
     <g transform="translate(331.74 132.222938)scale(0.09 -0.09)">
      <use transform="translate(0 0.015625)" xlink:href="#DejaVuSans-Oblique-110"/>
      <use transform="translate(63.378906 0.015625)" xlink:href="#DejaVuSans-Oblique-117"/>
      <use transform="translate(126.757812 0.015625)" xlink:href="#DejaVuSans-Oblique-109"/>
      <use transform="translate(224.169922 0.015625)" xlink:href="#DejaVuSans-Oblique-98"/>
      <use transform="translate(287.646484 0.015625)" xlink:href="#DejaVuSans-Oblique-101"/>
      <use transform="translate(349.169922 0.015625)" xlink:href="#DejaVuSans-Oblique-114"/>
      <use transform="translate(409.765625 0.015625)" xlink:href="#DejaVuSans-61"/>
      <use transform="translate(513.037109 0.015625)" xlink:href="#DejaVuSans-52"/>
      <use transform="translate(576.660156 0.015625)" xlink:href="#DejaVuSans-56"/>
      <use transform="translate(640.283203 0.015625)" xlink:href="#DejaVuSans-48"/>
      <use transform="translate(703.90625 0.015625)" xlink:href="#DejaVuSans-48"/>
      <use transform="translate(767.529297 0.015625)" xlink:href="#DejaVuSans-48"/>
     </g>
    </g>
    <g id="line2d_70">
     <path d="M 306.54 141.798094 
L 324.54 141.798094 
" style="fill:none;stroke:#ee82ee;stroke-linecap:square;stroke-width:1.5;"/>
    </g>
    <g id="line2d_71"/>
    <g id="text_21">
     <!-- $number=60000$ -->
     <g transform="translate(331.74 144.948094)scale(0.09 -0.09)">
      <use transform="translate(0 0.015625)" xlink:href="#DejaVuSans-Oblique-110"/>
      <use transform="translate(63.378906 0.015625)" xlink:href="#DejaVuSans-Oblique-117"/>
      <use transform="translate(126.757812 0.015625)" xlink:href="#DejaVuSans-Oblique-109"/>
      <use transform="translate(224.169922 0.015625)" xlink:href="#DejaVuSans-Oblique-98"/>
      <use transform="translate(287.646484 0.015625)" xlink:href="#DejaVuSans-Oblique-101"/>
      <use transform="translate(349.169922 0.015625)" xlink:href="#DejaVuSans-Oblique-114"/>
      <use transform="translate(409.765625 0.015625)" xlink:href="#DejaVuSans-61"/>
      <use transform="translate(513.037109 0.015625)" xlink:href="#DejaVuSans-54"/>
      <use transform="translate(576.660156 0.015625)" xlink:href="#DejaVuSans-48"/>
      <use transform="translate(640.283203 0.015625)" xlink:href="#DejaVuSans-48"/>
      <use transform="translate(703.90625 0.015625)" xlink:href="#DejaVuSans-48"/>
      <use transform="translate(767.529297 0.015625)" xlink:href="#DejaVuSans-48"/>
     </g>
    </g>
   </g>
  </g>
 </g>
 <defs>
  <clipPath id="p1ffef5ba41">
   <rect height="266.112" width="357.12" x="57.6" y="41.472"/>
  </clipPath>
 </defs>
</svg>
