<?xml version="1.0" encoding="utf-8" standalone="no"?>
<!DOCTYPE svg PUBLIC "-//W3C//DTD SVG 1.1//EN"
  "http://www.w3.org/Graphics/SVG/1.1/DTD/svg11.dtd">
<!-- Created with matplotlib (https://matplotlib.org/) -->
<svg height="345.6pt" version="1.1" viewBox="0 0 460.8 345.6" width="460.8pt" xmlns="http://www.w3.org/2000/svg" xmlns:xlink="http://www.w3.org/1999/xlink">
 <metadata>
  <rdf:RDF xmlns:cc="http://creativecommons.org/ns#" xmlns:dc="http://purl.org/dc/elements/1.1/" xmlns:rdf="http://www.w3.org/1999/02/22-rdf-syntax-ns#">
   <cc:Work>
    <dc:type rdf:resource="http://purl.org/dc/dcmitype/StillImage"/>
    <dc:date>2020-08-03T13:41:40.029505</dc:date>
    <dc:format>image/svg+xml</dc:format>
    <dc:creator>
     <cc:Agent>
      <dc:title>Matplotlib v3.3.0, https://matplotlib.org/</dc:title>
     </cc:Agent>
    </dc:creator>
   </cc:Work>
  </rdf:RDF>
 </metadata>
 <defs>
  <style type="text/css">*{stroke-linecap:butt;stroke-linejoin:round;}</style>
 </defs>
 <g id="figure_1">
  <g id="patch_1">
   <path d="M 0 345.6 
L 460.8 345.6 
L 460.8 0 
L 0 0 
z
" style="fill:#ffffff;"/>
  </g>
  <g id="axes_1">
   <g id="patch_2">
    <path d="M 57.6 307.584 
L 414.72 307.584 
L 414.72 41.472 
L 57.6 41.472 
z
" style="fill:#ffffff;"/>
   </g>
   <g id="matplotlib.axis_1">
    <g id="xtick_1">
     <g id="line2d_1">
      <defs>
       <path d="M 0 0 
L 0 3.5 
" id="m7929a413d1" style="stroke:#000000;stroke-width:0.8;"/>
      </defs>
      <g>
       <use style="stroke:#000000;stroke-width:0.8;" x="79.853586" xlink:href="#m7929a413d1" y="307.584"/>
      </g>
     </g>
     <g id="text_1">
      <!-- $\mathdefault{10^{-4}}$ -->
      <g transform="translate(68.103586 322.182437)scale(0.1 -0.1)">
       <defs>
        <path d="M 12.40625 8.296875 
L 28.515625 8.296875 
L 28.515625 63.921875 
L 10.984375 60.40625 
L 10.984375 69.390625 
L 28.421875 72.90625 
L 38.28125 72.90625 
L 38.28125 8.296875 
L 54.390625 8.296875 
L 54.390625 0 
L 12.40625 0 
z
" id="DejaVuSans-49"/>
        <path d="M 31.78125 66.40625 
Q 24.171875 66.40625 20.328125 58.90625 
Q 16.5 51.421875 16.5 36.375 
Q 16.5 21.390625 20.328125 13.890625 
Q 24.171875 6.390625 31.78125 6.390625 
Q 39.453125 6.390625 43.28125 13.890625 
Q 47.125 21.390625 47.125 36.375 
Q 47.125 51.421875 43.28125 58.90625 
Q 39.453125 66.40625 31.78125 66.40625 
z
M 31.78125 74.21875 
Q 44.046875 74.21875 50.515625 64.515625 
Q 56.984375 54.828125 56.984375 36.375 
Q 56.984375 17.96875 50.515625 8.265625 
Q 44.046875 -1.421875 31.78125 -1.421875 
Q 19.53125 -1.421875 13.0625 8.265625 
Q 6.59375 17.96875 6.59375 36.375 
Q 6.59375 54.828125 13.0625 64.515625 
Q 19.53125 74.21875 31.78125 74.21875 
z
" id="DejaVuSans-48"/>
        <path d="M 10.59375 35.5 
L 73.1875 35.5 
L 73.1875 27.203125 
L 10.59375 27.203125 
z
" id="DejaVuSans-8722"/>
        <path d="M 37.796875 64.3125 
L 12.890625 25.390625 
L 37.796875 25.390625 
z
M 35.203125 72.90625 
L 47.609375 72.90625 
L 47.609375 25.390625 
L 58.015625 25.390625 
L 58.015625 17.1875 
L 47.609375 17.1875 
L 47.609375 0 
L 37.796875 0 
L 37.796875 17.1875 
L 4.890625 17.1875 
L 4.890625 26.703125 
z
" id="DejaVuSans-52"/>
       </defs>
       <use transform="translate(0 0.684375)" xlink:href="#DejaVuSans-49"/>
       <use transform="translate(63.623047 0.684375)" xlink:href="#DejaVuSans-48"/>
       <use transform="translate(128.203125 38.965625)scale(0.7)" xlink:href="#DejaVuSans-8722"/>
       <use transform="translate(186.855469 38.965625)scale(0.7)" xlink:href="#DejaVuSans-52"/>
      </g>
     </g>
    </g>
    <g id="xtick_2">
     <g id="line2d_2">
      <g>
       <use style="stroke:#000000;stroke-width:0.8;" x="159.512008" xlink:href="#m7929a413d1" y="307.584"/>
      </g>
     </g>
     <g id="text_2">
      <!-- $\mathdefault{10^{-3}}$ -->
      <g transform="translate(147.762008 322.182437)scale(0.1 -0.1)">
       <defs>
        <path d="M 40.578125 39.3125 
Q 47.65625 37.796875 51.625 33 
Q 55.609375 28.21875 55.609375 21.1875 
Q 55.609375 10.40625 48.1875 4.484375 
Q 40.765625 -1.421875 27.09375 -1.421875 
Q 22.515625 -1.421875 17.65625 -0.515625 
Q 12.796875 0.390625 7.625 2.203125 
L 7.625 11.71875 
Q 11.71875 9.328125 16.59375 8.109375 
Q 21.484375 6.890625 26.8125 6.890625 
Q 36.078125 6.890625 40.9375 10.546875 
Q 45.796875 14.203125 45.796875 21.1875 
Q 45.796875 27.640625 41.28125 31.265625 
Q 36.765625 34.90625 28.71875 34.90625 
L 20.21875 34.90625 
L 20.21875 43.015625 
L 29.109375 43.015625 
Q 36.375 43.015625 40.234375 45.921875 
Q 44.09375 48.828125 44.09375 54.296875 
Q 44.09375 59.90625 40.109375 62.90625 
Q 36.140625 65.921875 28.71875 65.921875 
Q 24.65625 65.921875 20.015625 65.03125 
Q 15.375 64.15625 9.8125 62.3125 
L 9.8125 71.09375 
Q 15.4375 72.65625 20.34375 73.4375 
Q 25.25 74.21875 29.59375 74.21875 
Q 40.828125 74.21875 47.359375 69.109375 
Q 53.90625 64.015625 53.90625 55.328125 
Q 53.90625 49.265625 50.4375 45.09375 
Q 46.96875 40.921875 40.578125 39.3125 
z
" id="DejaVuSans-51"/>
       </defs>
       <use transform="translate(0 0.765625)" xlink:href="#DejaVuSans-49"/>
       <use transform="translate(63.623047 0.765625)" xlink:href="#DejaVuSans-48"/>
       <use transform="translate(128.203125 39.046875)scale(0.7)" xlink:href="#DejaVuSans-8722"/>
       <use transform="translate(186.855469 39.046875)scale(0.7)" xlink:href="#DejaVuSans-51"/>
      </g>
     </g>
    </g>
    <g id="xtick_3">
     <g id="line2d_3">
      <g>
       <use style="stroke:#000000;stroke-width:0.8;" x="239.170429" xlink:href="#m7929a413d1" y="307.584"/>
      </g>
     </g>
     <g id="text_3">
      <!-- $\mathdefault{10^{-2}}$ -->
      <g transform="translate(227.420429 322.182437)scale(0.1 -0.1)">
       <defs>
        <path d="M 19.1875 8.296875 
L 53.609375 8.296875 
L 53.609375 0 
L 7.328125 0 
L 7.328125 8.296875 
Q 12.9375 14.109375 22.625 23.890625 
Q 32.328125 33.6875 34.8125 36.53125 
Q 39.546875 41.84375 41.421875 45.53125 
Q 43.3125 49.21875 43.3125 52.78125 
Q 43.3125 58.59375 39.234375 62.25 
Q 35.15625 65.921875 28.609375 65.921875 
Q 23.96875 65.921875 18.8125 64.3125 
Q 13.671875 62.703125 7.8125 59.421875 
L 7.8125 69.390625 
Q 13.765625 71.78125 18.9375 73 
Q 24.125 74.21875 28.421875 74.21875 
Q 39.75 74.21875 46.484375 68.546875 
Q 53.21875 62.890625 53.21875 53.421875 
Q 53.21875 48.921875 51.53125 44.890625 
Q 49.859375 40.875 45.40625 35.40625 
Q 44.1875 33.984375 37.640625 27.21875 
Q 31.109375 20.453125 19.1875 8.296875 
z
" id="DejaVuSans-50"/>
       </defs>
       <use transform="translate(0 0.765625)" xlink:href="#DejaVuSans-49"/>
       <use transform="translate(63.623047 0.765625)" xlink:href="#DejaVuSans-48"/>
       <use transform="translate(128.203125 39.046875)scale(0.7)" xlink:href="#DejaVuSans-8722"/>
       <use transform="translate(186.855469 39.046875)scale(0.7)" xlink:href="#DejaVuSans-50"/>
      </g>
     </g>
    </g>
    <g id="xtick_4">
     <g id="line2d_4">
      <g>
       <use style="stroke:#000000;stroke-width:0.8;" x="318.828851" xlink:href="#m7929a413d1" y="307.584"/>
      </g>
     </g>
     <g id="text_4">
      <!-- $\mathdefault{10^{-1}}$ -->
      <g transform="translate(307.078851 322.182437)scale(0.1 -0.1)">
       <use transform="translate(0 0.684375)" xlink:href="#DejaVuSans-49"/>
       <use transform="translate(63.623047 0.684375)" xlink:href="#DejaVuSans-48"/>
       <use transform="translate(128.203125 38.965625)scale(0.7)" xlink:href="#DejaVuSans-8722"/>
       <use transform="translate(186.855469 38.965625)scale(0.7)" xlink:href="#DejaVuSans-49"/>
      </g>
     </g>
    </g>
    <g id="xtick_5">
     <g id="line2d_5">
      <g>
       <use style="stroke:#000000;stroke-width:0.8;" x="398.487273" xlink:href="#m7929a413d1" y="307.584"/>
      </g>
     </g>
     <g id="text_5">
      <!-- $\mathdefault{10^{0}}$ -->
      <g transform="translate(389.687273 322.182437)scale(0.1 -0.1)">
       <use transform="translate(0 0.765625)" xlink:href="#DejaVuSans-49"/>
       <use transform="translate(63.623047 0.765625)" xlink:href="#DejaVuSans-48"/>
       <use transform="translate(128.203125 39.046875)scale(0.7)" xlink:href="#DejaVuSans-48"/>
      </g>
     </g>
    </g>
    <g id="xtick_6">
     <g id="line2d_6">
      <defs>
       <path d="M 0 0 
L 0 2 
" id="meecae30364" style="stroke:#000000;stroke-width:0.6;"/>
      </defs>
      <g>
       <use style="stroke:#000000;stroke-width:0.6;" x="62.181465" xlink:href="#meecae30364" y="307.584"/>
      </g>
     </g>
    </g>
    <g id="xtick_7">
     <g id="line2d_7">
      <g>
       <use style="stroke:#000000;stroke-width:0.6;" x="67.51434" xlink:href="#meecae30364" y="307.584"/>
      </g>
     </g>
    </g>
    <g id="xtick_8">
     <g id="line2d_8">
      <g>
       <use style="stroke:#000000;stroke-width:0.6;" x="72.133887" xlink:href="#meecae30364" y="307.584"/>
      </g>
     </g>
    </g>
    <g id="xtick_9">
     <g id="line2d_9">
      <g>
       <use style="stroke:#000000;stroke-width:0.6;" x="76.208617" xlink:href="#meecae30364" y="307.584"/>
      </g>
     </g>
    </g>
    <g id="xtick_10">
     <g id="line2d_10">
      <g>
       <use style="stroke:#000000;stroke-width:0.6;" x="103.83316" xlink:href="#meecae30364" y="307.584"/>
      </g>
     </g>
    </g>
    <g id="xtick_11">
     <g id="line2d_11">
      <g>
       <use style="stroke:#000000;stroke-width:0.6;" x="117.860312" xlink:href="#meecae30364" y="307.584"/>
      </g>
     </g>
    </g>
    <g id="xtick_12">
     <g id="line2d_12">
      <g>
       <use style="stroke:#000000;stroke-width:0.6;" x="127.812735" xlink:href="#meecae30364" y="307.584"/>
      </g>
     </g>
    </g>
    <g id="xtick_13">
     <g id="line2d_13">
      <g>
       <use style="stroke:#000000;stroke-width:0.6;" x="135.532433" xlink:href="#meecae30364" y="307.584"/>
      </g>
     </g>
    </g>
    <g id="xtick_14">
     <g id="line2d_14">
      <g>
       <use style="stroke:#000000;stroke-width:0.6;" x="141.839886" xlink:href="#meecae30364" y="307.584"/>
      </g>
     </g>
    </g>
    <g id="xtick_15">
     <g id="line2d_15">
      <g>
       <use style="stroke:#000000;stroke-width:0.6;" x="147.172762" xlink:href="#meecae30364" y="307.584"/>
      </g>
     </g>
    </g>
    <g id="xtick_16">
     <g id="line2d_16">
      <g>
       <use style="stroke:#000000;stroke-width:0.6;" x="151.792309" xlink:href="#meecae30364" y="307.584"/>
      </g>
     </g>
    </g>
    <g id="xtick_17">
     <g id="line2d_17">
      <g>
       <use style="stroke:#000000;stroke-width:0.6;" x="155.867038" xlink:href="#meecae30364" y="307.584"/>
      </g>
     </g>
    </g>
    <g id="xtick_18">
     <g id="line2d_18">
      <g>
       <use style="stroke:#000000;stroke-width:0.6;" x="183.491582" xlink:href="#meecae30364" y="307.584"/>
      </g>
     </g>
    </g>
    <g id="xtick_19">
     <g id="line2d_19">
      <g>
       <use style="stroke:#000000;stroke-width:0.6;" x="197.518734" xlink:href="#meecae30364" y="307.584"/>
      </g>
     </g>
    </g>
    <g id="xtick_20">
     <g id="line2d_20">
      <g>
       <use style="stroke:#000000;stroke-width:0.6;" x="207.471156" xlink:href="#meecae30364" y="307.584"/>
      </g>
     </g>
    </g>
    <g id="xtick_21">
     <g id="line2d_21">
      <g>
       <use style="stroke:#000000;stroke-width:0.6;" x="215.190855" xlink:href="#meecae30364" y="307.584"/>
      </g>
     </g>
    </g>
    <g id="xtick_22">
     <g id="line2d_22">
      <g>
       <use style="stroke:#000000;stroke-width:0.6;" x="221.498308" xlink:href="#meecae30364" y="307.584"/>
      </g>
     </g>
    </g>
    <g id="xtick_23">
     <g id="line2d_23">
      <g>
       <use style="stroke:#000000;stroke-width:0.6;" x="226.831184" xlink:href="#meecae30364" y="307.584"/>
      </g>
     </g>
    </g>
    <g id="xtick_24">
     <g id="line2d_24">
      <g>
       <use style="stroke:#000000;stroke-width:0.6;" x="231.450731" xlink:href="#meecae30364" y="307.584"/>
      </g>
     </g>
    </g>
    <g id="xtick_25">
     <g id="line2d_25">
      <g>
       <use style="stroke:#000000;stroke-width:0.6;" x="235.52546" xlink:href="#meecae30364" y="307.584"/>
      </g>
     </g>
    </g>
    <g id="xtick_26">
     <g id="line2d_26">
      <g>
       <use style="stroke:#000000;stroke-width:0.6;" x="263.150004" xlink:href="#meecae30364" y="307.584"/>
      </g>
     </g>
    </g>
    <g id="xtick_27">
     <g id="line2d_27">
      <g>
       <use style="stroke:#000000;stroke-width:0.6;" x="277.177155" xlink:href="#meecae30364" y="307.584"/>
      </g>
     </g>
    </g>
    <g id="xtick_28">
     <g id="line2d_28">
      <g>
       <use style="stroke:#000000;stroke-width:0.6;" x="287.129578" xlink:href="#meecae30364" y="307.584"/>
      </g>
     </g>
    </g>
    <g id="xtick_29">
     <g id="line2d_29">
      <g>
       <use style="stroke:#000000;stroke-width:0.6;" x="294.849277" xlink:href="#meecae30364" y="307.584"/>
      </g>
     </g>
    </g>
    <g id="xtick_30">
     <g id="line2d_30">
      <g>
       <use style="stroke:#000000;stroke-width:0.6;" x="301.15673" xlink:href="#meecae30364" y="307.584"/>
      </g>
     </g>
    </g>
    <g id="xtick_31">
     <g id="line2d_31">
      <g>
       <use style="stroke:#000000;stroke-width:0.6;" x="306.489605" xlink:href="#meecae30364" y="307.584"/>
      </g>
     </g>
    </g>
    <g id="xtick_32">
     <g id="line2d_32">
      <g>
       <use style="stroke:#000000;stroke-width:0.6;" x="311.109152" xlink:href="#meecae30364" y="307.584"/>
      </g>
     </g>
    </g>
    <g id="xtick_33">
     <g id="line2d_33">
      <g>
       <use style="stroke:#000000;stroke-width:0.6;" x="315.183882" xlink:href="#meecae30364" y="307.584"/>
      </g>
     </g>
    </g>
    <g id="xtick_34">
     <g id="line2d_34">
      <g>
       <use style="stroke:#000000;stroke-width:0.6;" x="342.808425" xlink:href="#meecae30364" y="307.584"/>
      </g>
     </g>
    </g>
    <g id="xtick_35">
     <g id="line2d_35">
      <g>
       <use style="stroke:#000000;stroke-width:0.6;" x="356.835577" xlink:href="#meecae30364" y="307.584"/>
      </g>
     </g>
    </g>
    <g id="xtick_36">
     <g id="line2d_36">
      <g>
       <use style="stroke:#000000;stroke-width:0.6;" x="366.788" xlink:href="#meecae30364" y="307.584"/>
      </g>
     </g>
    </g>
    <g id="xtick_37">
     <g id="line2d_37">
      <g>
       <use style="stroke:#000000;stroke-width:0.6;" x="374.507698" xlink:href="#meecae30364" y="307.584"/>
      </g>
     </g>
    </g>
    <g id="xtick_38">
     <g id="line2d_38">
      <g>
       <use style="stroke:#000000;stroke-width:0.6;" x="380.815151" xlink:href="#meecae30364" y="307.584"/>
      </g>
     </g>
    </g>
    <g id="xtick_39">
     <g id="line2d_39">
      <g>
       <use style="stroke:#000000;stroke-width:0.6;" x="386.148027" xlink:href="#meecae30364" y="307.584"/>
      </g>
     </g>
    </g>
    <g id="xtick_40">
     <g id="line2d_40">
      <g>
       <use style="stroke:#000000;stroke-width:0.6;" x="390.767574" xlink:href="#meecae30364" y="307.584"/>
      </g>
     </g>
    </g>
    <g id="xtick_41">
     <g id="line2d_41">
      <g>
       <use style="stroke:#000000;stroke-width:0.6;" x="394.842303" xlink:href="#meecae30364" y="307.584"/>
      </g>
     </g>
    </g>
    <g id="text_6">
     <!-- False Alarm Rate -->
     <g transform="translate(194.25375 335.860562)scale(0.1 -0.1)">
      <defs>
       <path d="M 9.8125 72.90625 
L 51.703125 72.90625 
L 51.703125 64.59375 
L 19.671875 64.59375 
L 19.671875 43.109375 
L 48.578125 43.109375 
L 48.578125 34.8125 
L 19.671875 34.8125 
L 19.671875 0 
L 9.8125 0 
z
" id="DejaVuSans-70"/>
       <path d="M 34.28125 27.484375 
Q 23.390625 27.484375 19.1875 25 
Q 14.984375 22.515625 14.984375 16.5 
Q 14.984375 11.71875 18.140625 8.90625 
Q 21.296875 6.109375 26.703125 6.109375 
Q 34.1875 6.109375 38.703125 11.40625 
Q 43.21875 16.703125 43.21875 25.484375 
L 43.21875 27.484375 
z
M 52.203125 31.203125 
L 52.203125 0 
L 43.21875 0 
L 43.21875 8.296875 
Q 40.140625 3.328125 35.546875 0.953125 
Q 30.953125 -1.421875 24.3125 -1.421875 
Q 15.921875 -1.421875 10.953125 3.296875 
Q 6 8.015625 6 15.921875 
Q 6 25.140625 12.171875 29.828125 
Q 18.359375 34.515625 30.609375 34.515625 
L 43.21875 34.515625 
L 43.21875 35.40625 
Q 43.21875 41.609375 39.140625 45 
Q 35.0625 48.390625 27.6875 48.390625 
Q 23 48.390625 18.546875 47.265625 
Q 14.109375 46.140625 10.015625 43.890625 
L 10.015625 52.203125 
Q 14.9375 54.109375 19.578125 55.046875 
Q 24.21875 56 28.609375 56 
Q 40.484375 56 46.34375 49.84375 
Q 52.203125 43.703125 52.203125 31.203125 
z
" id="DejaVuSans-97"/>
       <path d="M 9.421875 75.984375 
L 18.40625 75.984375 
L 18.40625 0 
L 9.421875 0 
z
" id="DejaVuSans-108"/>
       <path d="M 44.28125 53.078125 
L 44.28125 44.578125 
Q 40.484375 46.53125 36.375 47.5 
Q 32.28125 48.484375 27.875 48.484375 
Q 21.1875 48.484375 17.84375 46.4375 
Q 14.5 44.390625 14.5 40.28125 
Q 14.5 37.15625 16.890625 35.375 
Q 19.28125 33.59375 26.515625 31.984375 
L 29.59375 31.296875 
Q 39.15625 29.25 43.1875 25.515625 
Q 47.21875 21.78125 47.21875 15.09375 
Q 47.21875 7.46875 41.1875 3.015625 
Q 35.15625 -1.421875 24.609375 -1.421875 
Q 20.21875 -1.421875 15.453125 -0.5625 
Q 10.6875 0.296875 5.421875 2 
L 5.421875 11.28125 
Q 10.40625 8.6875 15.234375 7.390625 
Q 20.0625 6.109375 24.8125 6.109375 
Q 31.15625 6.109375 34.5625 8.28125 
Q 37.984375 10.453125 37.984375 14.40625 
Q 37.984375 18.0625 35.515625 20.015625 
Q 33.0625 21.96875 24.703125 23.78125 
L 21.578125 24.515625 
Q 13.234375 26.265625 9.515625 29.90625 
Q 5.8125 33.546875 5.8125 39.890625 
Q 5.8125 47.609375 11.28125 51.796875 
Q 16.75 56 26.8125 56 
Q 31.78125 56 36.171875 55.265625 
Q 40.578125 54.546875 44.28125 53.078125 
z
" id="DejaVuSans-115"/>
       <path d="M 56.203125 29.59375 
L 56.203125 25.203125 
L 14.890625 25.203125 
Q 15.484375 15.921875 20.484375 11.0625 
Q 25.484375 6.203125 34.421875 6.203125 
Q 39.59375 6.203125 44.453125 7.46875 
Q 49.3125 8.734375 54.109375 11.28125 
L 54.109375 2.78125 
Q 49.265625 0.734375 44.1875 -0.34375 
Q 39.109375 -1.421875 33.890625 -1.421875 
Q 20.796875 -1.421875 13.15625 6.1875 
Q 5.515625 13.8125 5.515625 26.8125 
Q 5.515625 40.234375 12.765625 48.109375 
Q 20.015625 56 32.328125 56 
Q 43.359375 56 49.78125 48.890625 
Q 56.203125 41.796875 56.203125 29.59375 
z
M 47.21875 32.234375 
Q 47.125 39.59375 43.09375 43.984375 
Q 39.0625 48.390625 32.421875 48.390625 
Q 24.90625 48.390625 20.390625 44.140625 
Q 15.875 39.890625 15.1875 32.171875 
z
" id="DejaVuSans-101"/>
       <path id="DejaVuSans-32"/>
       <path d="M 34.1875 63.1875 
L 20.796875 26.90625 
L 47.609375 26.90625 
z
M 28.609375 72.90625 
L 39.796875 72.90625 
L 67.578125 0 
L 57.328125 0 
L 50.6875 18.703125 
L 17.828125 18.703125 
L 11.1875 0 
L 0.78125 0 
z
" id="DejaVuSans-65"/>
       <path d="M 41.109375 46.296875 
Q 39.59375 47.171875 37.8125 47.578125 
Q 36.03125 48 33.890625 48 
Q 26.265625 48 22.1875 43.046875 
Q 18.109375 38.09375 18.109375 28.8125 
L 18.109375 0 
L 9.078125 0 
L 9.078125 54.6875 
L 18.109375 54.6875 
L 18.109375 46.1875 
Q 20.953125 51.171875 25.484375 53.578125 
Q 30.03125 56 36.53125 56 
Q 37.453125 56 38.578125 55.875 
Q 39.703125 55.765625 41.0625 55.515625 
z
" id="DejaVuSans-114"/>
       <path d="M 52 44.1875 
Q 55.375 50.25 60.0625 53.125 
Q 64.75 56 71.09375 56 
Q 79.640625 56 84.28125 50.015625 
Q 88.921875 44.046875 88.921875 33.015625 
L 88.921875 0 
L 79.890625 0 
L 79.890625 32.71875 
Q 79.890625 40.578125 77.09375 44.375 
Q 74.3125 48.1875 68.609375 48.1875 
Q 61.625 48.1875 57.5625 43.546875 
Q 53.515625 38.921875 53.515625 30.90625 
L 53.515625 0 
L 44.484375 0 
L 44.484375 32.71875 
Q 44.484375 40.625 41.703125 44.40625 
Q 38.921875 48.1875 33.109375 48.1875 
Q 26.21875 48.1875 22.15625 43.53125 
Q 18.109375 38.875 18.109375 30.90625 
L 18.109375 0 
L 9.078125 0 
L 9.078125 54.6875 
L 18.109375 54.6875 
L 18.109375 46.1875 
Q 21.1875 51.21875 25.484375 53.609375 
Q 29.78125 56 35.6875 56 
Q 41.65625 56 45.828125 52.96875 
Q 50 49.953125 52 44.1875 
z
" id="DejaVuSans-109"/>
       <path d="M 44.390625 34.1875 
Q 47.5625 33.109375 50.5625 29.59375 
Q 53.5625 26.078125 56.59375 19.921875 
L 66.609375 0 
L 56 0 
L 46.6875 18.703125 
Q 43.0625 26.03125 39.671875 28.421875 
Q 36.28125 30.8125 30.421875 30.8125 
L 19.671875 30.8125 
L 19.671875 0 
L 9.8125 0 
L 9.8125 72.90625 
L 32.078125 72.90625 
Q 44.578125 72.90625 50.734375 67.671875 
Q 56.890625 62.453125 56.890625 51.90625 
Q 56.890625 45.015625 53.6875 40.46875 
Q 50.484375 35.9375 44.390625 34.1875 
z
M 19.671875 64.796875 
L 19.671875 38.921875 
L 32.078125 38.921875 
Q 39.203125 38.921875 42.84375 42.21875 
Q 46.484375 45.515625 46.484375 51.90625 
Q 46.484375 58.296875 42.84375 61.546875 
Q 39.203125 64.796875 32.078125 64.796875 
z
" id="DejaVuSans-82"/>
       <path d="M 18.3125 70.21875 
L 18.3125 54.6875 
L 36.8125 54.6875 
L 36.8125 47.703125 
L 18.3125 47.703125 
L 18.3125 18.015625 
Q 18.3125 11.328125 20.140625 9.421875 
Q 21.96875 7.515625 27.59375 7.515625 
L 36.8125 7.515625 
L 36.8125 0 
L 27.59375 0 
Q 17.1875 0 13.234375 3.875 
Q 9.28125 7.765625 9.28125 18.015625 
L 9.28125 47.703125 
L 2.6875 47.703125 
L 2.6875 54.6875 
L 9.28125 54.6875 
L 9.28125 70.21875 
z
" id="DejaVuSans-116"/>
      </defs>
      <use xlink:href="#DejaVuSans-70"/>
      <use x="48.394531" xlink:href="#DejaVuSans-97"/>
      <use x="109.673828" xlink:href="#DejaVuSans-108"/>
      <use x="137.457031" xlink:href="#DejaVuSans-115"/>
      <use x="189.556641" xlink:href="#DejaVuSans-101"/>
      <use x="251.080078" xlink:href="#DejaVuSans-32"/>
      <use x="282.867188" xlink:href="#DejaVuSans-65"/>
      <use x="351.275391" xlink:href="#DejaVuSans-108"/>
      <use x="379.058594" xlink:href="#DejaVuSans-97"/>
      <use x="440.337891" xlink:href="#DejaVuSans-114"/>
      <use x="479.701172" xlink:href="#DejaVuSans-109"/>
      <use x="577.113281" xlink:href="#DejaVuSans-32"/>
      <use x="608.900391" xlink:href="#DejaVuSans-82"/>
      <use x="676.132812" xlink:href="#DejaVuSans-97"/>
      <use x="737.412109" xlink:href="#DejaVuSans-116"/>
      <use x="776.621094" xlink:href="#DejaVuSans-101"/>
     </g>
    </g>
   </g>
   <g id="matplotlib.axis_2">
    <g id="ytick_1">
     <g id="line2d_42">
      <defs>
       <path d="M 0 0 
L -3.5 0 
" id="m751facf502" style="stroke:#000000;stroke-width:0.8;"/>
      </defs>
      <g>
       <use style="stroke:#000000;stroke-width:0.8;" x="57.6" xlink:href="#m751facf502" y="295.488"/>
      </g>
     </g>
     <g id="text_7">
      <!-- 0.0 -->
      <g transform="translate(34.696875 299.287219)scale(0.1 -0.1)">
       <defs>
        <path d="M 10.6875 12.40625 
L 21 12.40625 
L 21 0 
L 10.6875 0 
z
" id="DejaVuSans-46"/>
       </defs>
       <use xlink:href="#DejaVuSans-48"/>
       <use x="63.623047" xlink:href="#DejaVuSans-46"/>
       <use x="95.410156" xlink:href="#DejaVuSans-48"/>
      </g>
     </g>
    </g>
    <g id="ytick_2">
     <g id="line2d_43">
      <g>
       <use style="stroke:#000000;stroke-width:0.8;" x="57.6" xlink:href="#m751facf502" y="247.104"/>
      </g>
     </g>
     <g id="text_8">
      <!-- 0.2 -->
      <g transform="translate(34.696875 250.903219)scale(0.1 -0.1)">
       <use xlink:href="#DejaVuSans-48"/>
       <use x="63.623047" xlink:href="#DejaVuSans-46"/>
       <use x="95.410156" xlink:href="#DejaVuSans-50"/>
      </g>
     </g>
    </g>
    <g id="ytick_3">
     <g id="line2d_44">
      <g>
       <use style="stroke:#000000;stroke-width:0.8;" x="57.6" xlink:href="#m751facf502" y="198.72"/>
      </g>
     </g>
     <g id="text_9">
      <!-- 0.4 -->
      <g transform="translate(34.696875 202.519219)scale(0.1 -0.1)">
       <use xlink:href="#DejaVuSans-48"/>
       <use x="63.623047" xlink:href="#DejaVuSans-46"/>
       <use x="95.410156" xlink:href="#DejaVuSans-52"/>
      </g>
     </g>
    </g>
    <g id="ytick_4">
     <g id="line2d_45">
      <g>
       <use style="stroke:#000000;stroke-width:0.8;" x="57.6" xlink:href="#m751facf502" y="150.336"/>
      </g>
     </g>
     <g id="text_10">
      <!-- 0.6 -->
      <g transform="translate(34.696875 154.135219)scale(0.1 -0.1)">
       <defs>
        <path d="M 33.015625 40.375 
Q 26.375 40.375 22.484375 35.828125 
Q 18.609375 31.296875 18.609375 23.390625 
Q 18.609375 15.53125 22.484375 10.953125 
Q 26.375 6.390625 33.015625 6.390625 
Q 39.65625 6.390625 43.53125 10.953125 
Q 47.40625 15.53125 47.40625 23.390625 
Q 47.40625 31.296875 43.53125 35.828125 
Q 39.65625 40.375 33.015625 40.375 
z
M 52.59375 71.296875 
L 52.59375 62.3125 
Q 48.875 64.0625 45.09375 64.984375 
Q 41.3125 65.921875 37.59375 65.921875 
Q 27.828125 65.921875 22.671875 59.328125 
Q 17.53125 52.734375 16.796875 39.40625 
Q 19.671875 43.65625 24.015625 45.921875 
Q 28.375 48.1875 33.59375 48.1875 
Q 44.578125 48.1875 50.953125 41.515625 
Q 57.328125 34.859375 57.328125 23.390625 
Q 57.328125 12.15625 50.6875 5.359375 
Q 44.046875 -1.421875 33.015625 -1.421875 
Q 20.359375 -1.421875 13.671875 8.265625 
Q 6.984375 17.96875 6.984375 36.375 
Q 6.984375 53.65625 15.1875 63.9375 
Q 23.390625 74.21875 37.203125 74.21875 
Q 40.921875 74.21875 44.703125 73.484375 
Q 48.484375 72.75 52.59375 71.296875 
z
" id="DejaVuSans-54"/>
       </defs>
       <use xlink:href="#DejaVuSans-48"/>
       <use x="63.623047" xlink:href="#DejaVuSans-46"/>
       <use x="95.410156" xlink:href="#DejaVuSans-54"/>
      </g>
     </g>
    </g>
    <g id="ytick_5">
     <g id="line2d_46">
      <g>
       <use style="stroke:#000000;stroke-width:0.8;" x="57.6" xlink:href="#m751facf502" y="101.952"/>
      </g>
     </g>
     <g id="text_11">
      <!-- 0.8 -->
      <g transform="translate(34.696875 105.751219)scale(0.1 -0.1)">
       <defs>
        <path d="M 31.78125 34.625 
Q 24.75 34.625 20.71875 30.859375 
Q 16.703125 27.09375 16.703125 20.515625 
Q 16.703125 13.921875 20.71875 10.15625 
Q 24.75 6.390625 31.78125 6.390625 
Q 38.8125 6.390625 42.859375 10.171875 
Q 46.921875 13.96875 46.921875 20.515625 
Q 46.921875 27.09375 42.890625 30.859375 
Q 38.875 34.625 31.78125 34.625 
z
M 21.921875 38.8125 
Q 15.578125 40.375 12.03125 44.71875 
Q 8.5 49.078125 8.5 55.328125 
Q 8.5 64.0625 14.71875 69.140625 
Q 20.953125 74.21875 31.78125 74.21875 
Q 42.671875 74.21875 48.875 69.140625 
Q 55.078125 64.0625 55.078125 55.328125 
Q 55.078125 49.078125 51.53125 44.71875 
Q 48 40.375 41.703125 38.8125 
Q 48.828125 37.15625 52.796875 32.3125 
Q 56.78125 27.484375 56.78125 20.515625 
Q 56.78125 9.90625 50.3125 4.234375 
Q 43.84375 -1.421875 31.78125 -1.421875 
Q 19.734375 -1.421875 13.25 4.234375 
Q 6.78125 9.90625 6.78125 20.515625 
Q 6.78125 27.484375 10.78125 32.3125 
Q 14.796875 37.15625 21.921875 38.8125 
z
M 18.3125 54.390625 
Q 18.3125 48.734375 21.84375 45.5625 
Q 25.390625 42.390625 31.78125 42.390625 
Q 38.140625 42.390625 41.71875 45.5625 
Q 45.3125 48.734375 45.3125 54.390625 
Q 45.3125 60.0625 41.71875 63.234375 
Q 38.140625 66.40625 31.78125 66.40625 
Q 25.390625 66.40625 21.84375 63.234375 
Q 18.3125 60.0625 18.3125 54.390625 
z
" id="DejaVuSans-56"/>
       </defs>
       <use xlink:href="#DejaVuSans-48"/>
       <use x="63.623047" xlink:href="#DejaVuSans-46"/>
       <use x="95.410156" xlink:href="#DejaVuSans-56"/>
      </g>
     </g>
    </g>
    <g id="ytick_6">
     <g id="line2d_47">
      <g>
       <use style="stroke:#000000;stroke-width:0.8;" x="57.6" xlink:href="#m751facf502" y="53.568"/>
      </g>
     </g>
     <g id="text_12">
      <!-- 1.0 -->
      <g transform="translate(34.696875 57.367219)scale(0.1 -0.1)">
       <use xlink:href="#DejaVuSans-49"/>
       <use x="63.623047" xlink:href="#DejaVuSans-46"/>
       <use x="95.410156" xlink:href="#DejaVuSans-48"/>
      </g>
     </g>
    </g>
    <g id="text_13">
     <!-- Recall -->
     <g transform="translate(28.617187 189.445188)rotate(-90)scale(0.1 -0.1)">
      <defs>
       <path d="M 48.78125 52.59375 
L 48.78125 44.1875 
Q 44.96875 46.296875 41.140625 47.34375 
Q 37.3125 48.390625 33.40625 48.390625 
Q 24.65625 48.390625 19.8125 42.84375 
Q 14.984375 37.3125 14.984375 27.296875 
Q 14.984375 17.28125 19.8125 11.734375 
Q 24.65625 6.203125 33.40625 6.203125 
Q 37.3125 6.203125 41.140625 7.25 
Q 44.96875 8.296875 48.78125 10.40625 
L 48.78125 2.09375 
Q 45.015625 0.34375 40.984375 -0.53125 
Q 36.96875 -1.421875 32.421875 -1.421875 
Q 20.0625 -1.421875 12.78125 6.34375 
Q 5.515625 14.109375 5.515625 27.296875 
Q 5.515625 40.671875 12.859375 48.328125 
Q 20.21875 56 33.015625 56 
Q 37.15625 56 41.109375 55.140625 
Q 45.0625 54.296875 48.78125 52.59375 
z
" id="DejaVuSans-99"/>
      </defs>
      <use xlink:href="#DejaVuSans-82"/>
      <use x="64.982422" xlink:href="#DejaVuSans-101"/>
      <use x="126.505859" xlink:href="#DejaVuSans-99"/>
      <use x="181.486328" xlink:href="#DejaVuSans-97"/>
      <use x="242.765625" xlink:href="#DejaVuSans-108"/>
      <use x="270.548828" xlink:href="#DejaVuSans-108"/>
     </g>
    </g>
   </g>
   <g id="line2d_48">
    <path clip-path="url(#p99f952bbcf)" d="M -1 295.488 
L 73.832727 295.488 
L 73.832727 293.044364 
L 162.567697 293.044364 
L 162.567697 285.713455 
L 169.751025 285.713455 
L 169.751025 283.269818 
L 171.848346 283.269818 
L 171.848346 280.826182 
L 203.952246 280.826182 
L 203.952246 278.382545 
L 205.525027 278.382545 
L 205.525027 271.051636 
L 207.757751 271.051636 
L 207.757751 268.608 
L 215.477449 268.608 
L 215.477449 263.720727 
L 217.710173 263.720727 
L 217.710173 261.277091 
L 224.994706 261.277091 
L 224.994706 258.833455 
L 226.284118 258.833455 
L 226.284118 256.389818 
L 227.931821 256.389818 
L 227.931821 253.946182 
L 230.638972 253.946182 
L 230.638972 249.058909 
L 231.008978 249.058909 
L 231.008978 246.615273 
L 233.149571 246.615273 
L 233.149571 244.171636 
L 234.837477 244.171636 
L 234.837477 236.840727 
L 235.165396 236.840727 
L 235.165396 234.397091 
L 242.7543 234.397091 
L 242.7543 231.953455 
L 246.945315 231.953455 
L 246.945315 229.509818 
L 250.263692 229.509818 
L 250.263692 227.066182 
L 253.866447 227.066182 
L 253.866447 224.622545 
L 255.354643 224.622545 
L 255.354643 219.735273 
L 258.151738 219.735273 
L 258.151738 217.291636 
L 259.951422 217.291636 
L 259.951422 214.848 
L 261.203874 214.848 
L 261.203874 212.404364 
L 264.43119 212.404364 
L 264.43119 209.960727 
L 266.072378 209.960727 
L 266.072378 207.517091 
L 270.339508 207.517091 
L 270.339508 205.073455 
L 273.280741 205.073455 
L 273.280741 202.629818 
L 274.137632 202.629818 
L 274.137632 200.186182 
L 275.179736 200.186182 
L 275.179736 197.742545 
L 277.271018 197.742545 
L 277.271018 195.298909 
L 279.606264 195.298909 
L 279.606264 192.855273 
L 282.714158 192.855273 
L 282.714158 190.411636 
L 283.771203 190.411636 
L 283.771203 187.968 
L 284.56289 187.968 
L 284.56289 185.524364 
L 286.466297 185.524364 
L 286.466297 183.080727 
L 290.647865 183.080727 
L 290.647865 180.637091 
L 291.039513 180.637091 
L 291.039513 178.193455 
L 292.313882 178.193455 
L 292.313882 175.749818 
L 298.38069 175.749818 
L 298.38069 173.306182 
L 301.153823 173.306182 
L 301.153823 170.862545 
L 301.967865 170.862545 
L 301.967865 168.418909 
L 302.29757 168.418909 
L 302.29757 165.975273 
L 310.036015 165.975273 
L 310.036015 163.531636 
L 310.445871 163.531636 
L 310.445871 161.088 
L 312.911623 161.088 
L 312.911623 158.644364 
L 318.738619 158.644364 
L 318.738619 156.200727 
L 321.590566 156.200727 
L 321.590566 153.757091 
L 323.266968 153.757091 
L 323.266968 151.313455 
L 323.394578 151.313455 
L 323.394578 148.869818 
L 328.850969 148.869818 
L 328.850969 146.426182 
L 330.961088 146.426182 
L 330.961088 143.982545 
L 331.850266 143.982545 
L 331.870211 139.095273 
L 336.070995 139.095273 
L 336.070995 136.651636 
L 337.793362 136.651636 
L 337.793362 134.208 
L 337.927517 134.208 
L 337.927517 131.764364 
L 338.721703 131.764364 
L 338.721703 129.320727 
L 346.640385 129.320727 
L 346.640385 126.877091 
L 347.01565 126.877091 
L 347.01565 124.433455 
L 350.28015 124.433455 
L 350.28015 121.989818 
L 350.964307 121.989818 
L 350.964307 119.546182 
L 352.557494 119.546182 
L 352.557494 117.102545 
L 353.090659 117.102545 
L 353.090659 114.658909 
L 354.132955 114.658909 
L 354.153903 109.771636 
L 357.189375 109.771636 
L 357.189375 107.328 
L 360.715209 107.328 
L 360.715209 104.884364 
L 365.714862 104.884364 
L 365.714862 102.440727 
L 372.171916 102.440727 
L 372.171916 99.997091 
L 372.916457 99.997091 
L 372.916457 97.553455 
L 375.058511 97.553455 
L 375.058511 95.109818 
L 377.237191 95.109818 
L 377.237191 92.666182 
L 380.383212 92.666182 
L 380.388117 87.778909 
L 380.78801 87.778909 
L 380.78801 85.335273 
L 382.133668 85.335273 
L 382.203552 80.448 
L 383.063133 80.448 
L 383.063133 78.004364 
L 383.8309 78.004364 
L 383.8309 75.560727 
L 384.88482 75.560727 
L 384.88482 73.117091 
L 387.095463 73.117091 
L 387.131809 68.229818 
L 388.512557 68.229818 
L 388.512557 65.786182 
L 392.205972 65.786182 
L 392.205972 63.342545 
L 392.913254 63.342545 
L 392.913254 60.898909 
L 396.151491 60.898909 
L 396.151491 58.455273 
L 396.722102 58.455273 
L 396.722102 56.011636 
L 397.592087 56.011636 
L 397.592087 53.568 
L 398.487273 53.568 
L 398.487273 53.568 
" style="fill:none;stroke:#ff0000;stroke-linecap:square;stroke-width:1.5;"/>
   </g>
   <g id="line2d_49">
    <path clip-path="url(#p99f952bbcf)" d="M -1 295.488 
L 73.832727 295.488 
L 73.832727 293.044364 
L 219.807495 293.044364 
L 219.807495 290.600727 
L 255.172082 290.600727 
L 255.172082 288.157091 
L 255.896615 288.157091 
L 255.896615 285.713455 
L 295.650946 285.713455 
L 295.650946 283.269818 
L 305.174674 283.269818 
L 305.174674 280.826182 
L 309.923388 280.826182 
L 309.923388 278.382545 
L 324.125579 278.382545 
L 324.125579 275.938909 
L 325.398866 275.938909 
L 325.398866 273.495273 
L 326.230236 273.495273 
L 326.230236 271.051636 
L 326.626948 271.051636 
L 326.626948 268.608 
L 327.497602 268.608 
L 327.497602 266.164364 
L 327.655622 266.164364 
L 327.655622 263.720727 
L 327.768054 263.720727 
L 327.768054 261.277091 
L 328.258458 261.277091 
L 328.258458 258.833455 
L 328.632702 258.833455 
L 328.632702 256.389818 
L 335.357298 256.389818 
L 335.393335 251.502545 
L 342.263469 251.502545 
L 342.263469 249.058909 
L 343.36782 249.058909 
L 343.36782 246.615273 
L 344.285144 246.615273 
L 344.299069 241.728 
L 344.97459 241.728 
L 344.97459 239.284364 
L 346.640385 239.284364 
L 346.640385 236.840727 
L 349.028075 236.840727 
L 349.028075 234.397091 
L 352.787 234.397091 
L 352.787 231.953455 
L 356.216715 231.953455 
L 356.216715 229.509818 
L 356.687006 229.509818 
L 356.687006 227.066182 
L 359.784655 227.066182 
L 359.784655 224.622545 
L 360.226716 224.622545 
L 360.226716 222.178909 
L 364.346317 222.178909 
L 364.346317 219.735273 
L 366.2135 219.735273 
L 366.2135 217.291636 
L 367.031323 217.291636 
L 367.031323 214.848 
L 367.992066 214.848 
L 368.076189 209.960727 
L 368.47992 209.960727 
L 368.47992 207.517091 
L 369.589949 207.517091 
L 369.589949 205.073455 
L 372.115892 205.073455 
L 372.115892 202.629818 
L 372.598451 202.629818 
L 372.598451 200.186182 
L 374.248011 200.186182 
L 374.306537 195.298909 
L 374.644054 195.298909 
L 374.644054 192.855273 
L 375.280952 192.855273 
L 375.280952 190.411636 
L 376.012261 190.411636 
L 376.012261 187.968 
L 376.804678 187.968 
L 376.804678 185.524364 
L 377.944489 185.524364 
L 378.002345 178.193455 
L 380.402829 178.193455 
L 380.402829 175.749818 
L 381.345931 175.749818 
L 381.422185 170.862545 
L 382.166298 170.862545 
L 382.166298 168.418909 
L 382.398481 168.418909 
L 382.398481 165.975273 
L 383.728619 165.975273 
L 383.728619 163.531636 
L 385.317132 163.531636 
L 385.317132 161.088 
L 385.676819 161.088 
L 385.676819 158.644364 
L 386.14512 158.644364 
L 386.215651 153.757091 
L 387.329025 153.757091 
L 387.329025 151.313455 
L 387.576963 151.313455 
L 387.576963 148.869818 
L 387.906122 148.869818 
L 387.906122 146.426182 
L 387.992847 146.426182 
L 389.089477 146.426182 
L 389.089477 143.982545 
L 389.419735 143.982545 
L 389.419735 141.538909 
L 390.093179 141.538909 
L 390.093179 139.095273 
L 390.207849 139.095273 
L 390.207849 136.651636 
L 390.461727 136.651636 
L 390.461727 134.208 
L 392.424875 134.208 
L 392.424875 131.764364 
L 392.803797 131.764364 
L 392.803797 129.320727 
L 393.626443 129.320727 
L 393.656539 121.989818 
L 393.886408 121.989818 
L 393.946124 117.102545 
L 394.716431 117.102545 
L 394.755309 112.215273 
L 395.272745 112.215273 
L 395.272745 109.771636 
L 395.911191 109.771636 
L 395.911191 107.328 
L 396.571881 107.328 
L 396.630207 102.440727 
L 396.902119 102.440727 
L 396.902119 99.997091 
L 397.038793 99.997091 
L 397.038793 97.553455 
L 397.355615 97.553455 
L 397.355615 95.109818 
L 397.499487 95.109818 
L 397.499487 92.666182 
L 397.672538 92.666182 
L 397.672538 90.222545 
L 397.785449 90.222545 
L 397.794347 85.335273 
L 397.951175 85.335273 
L 397.951175 82.891636 
L 398.104355 82.891636 
L 398.207077 75.560727 
L 398.300728 75.560727 
L 398.402869 63.342545 
L 398.475643 63.342545 
L 398.487273 53.568 
L 398.487273 53.568 
" style="fill:none;stroke:#0000ff;stroke-linecap:square;stroke-width:1.5;"/>
   </g>
   <g id="line2d_50">
    <path clip-path="url(#p99f952bbcf)" d="M -1 295.488 
L 73.832727 295.488 
L 73.832727 290.600727 
L 141.151903 290.600727 
L 141.151903 283.269818 
L 145.77145 283.269818 
L 145.77145 280.826182 
L 153.491149 280.826182 
L 153.491149 278.382545 
L 156.788425 278.382545 
L 156.788425 275.938909 
L 177.470723 275.938909 
L 177.470723 273.495273 
L 179.158629 273.495273 
L 179.158629 271.051636 
L 180.767999 271.051636 
L 180.767999 268.608 
L 185.190422 268.608 
L 185.190422 266.164364 
L 189.111052 266.164364 
L 189.111052 263.720727 
L 193.730599 263.720727 
L 193.730599 261.277091 
L 195.827921 261.277091 
L 195.827921 258.833455 
L 201.450298 258.833455 
L 201.450298 256.389818 
L 208.471079 256.389818 
L 208.471079 251.502545 
L 210.526845 251.502545 
L 210.526845 249.058909 
L 211.185822 249.058909 
L 211.185822 246.615273 
L 214.896004 246.615273 
L 214.896004 244.171636 
L 225.429872 244.171636 
L 225.429872 241.728 
L 226.703459 241.728 
L 226.703459 239.284364 
L 229.504601 239.284364 
L 229.504601 236.840727 
L 230.264966 236.840727 
L 230.264966 234.397091 
L 234.172164 234.397091 
L 234.172164 231.953455 
L 238.284192 231.953455 
L 238.284192 229.509818 
L 239.167522 229.509818 
L 239.167522 227.066182 
L 240.31127 227.066182 
L 240.31127 224.622545 
L 241.418411 224.622545 
L 241.418411 219.735273 
L 242.491217 219.735273 
L 242.491217 217.291636 
L 253.866447 217.291636 
L 253.866447 214.848 
L 254.432049 214.848 
L 254.432049 212.404364 
L 255.896615 212.404364 
L 255.896615 209.960727 
L 258.817051 209.960727 
L 258.817051 207.517091 
L 261.049775 207.517091 
L 261.049775 205.073455 
L 264.848844 205.073455 
L 264.848844 202.629818 
L 265.804196 202.629818 
L 265.804196 200.186182 
L 275.179736 200.186182 
L 275.179736 197.742545 
L 276.587875 197.742545 
L 276.587875 195.298909 
L 277.367518 195.298909 
L 277.367518 192.855273 
L 281.195099 192.855273 
L 281.195099 190.411636 
L 284.248386 190.411636 
L 284.248386 187.968 
L 287.845932 187.968 
L 287.845932 185.524364 
L 290.647865 185.524364 
L 290.647865 183.080727 
L 293.178808 183.080727 
L 293.178808 180.637091 
L 296.713776 180.637091 
L 296.713776 178.193455 
L 298.064268 178.193455 
L 298.064268 175.749818 
L 298.694244 175.749818 
L 298.694244 173.306182 
L 304.609309 173.306182 
L 304.609309 170.862545 
L 305.77337 170.862545 
L 305.77337 168.418909 
L 307.38852 168.418909 
L 307.38852 165.975273 
L 307.509695 165.975273 
L 307.509695 161.088 
L 317.643086 161.088 
L 317.643086 158.644364 
L 321.670989 158.644364 
L 321.670989 156.200727 
L 325.94744 156.200727 
L 325.94744 153.757091 
L 326.557269 153.757091 
L 326.557269 151.313455 
L 326.904265 151.313455 
L 326.904265 148.869818 
L 327.587988 148.869818 
L 327.587988 146.426182 
L 330.590641 146.426182 
L 330.590641 143.982545 
L 331.710325 143.982545 
L 331.710325 141.538909 
L 334.015589 141.538909 
L 334.015589 139.095273 
L 334.127851 139.095273 
L 334.127851 136.651636 
L 334.462466 136.651636 
L 334.462466 134.208 
L 335.805081 134.208 
L 335.805081 131.764364 
L 339.546015 131.764364 
L 339.546015 129.320727 
L 339.784768 129.320727 
L 339.784768 126.877091 
L 350.033334 126.877091 
L 350.033334 124.433455 
L 352.038252 124.433455 
L 352.038252 121.989818 
L 354.559869 121.989818 
L 354.559869 119.546182 
L 358.423535 119.546182 
L 358.423535 117.102545 
L 358.736783 117.102545 
L 358.736783 114.658909 
L 362.64398 114.658909 
L 362.64398 112.215273 
L 362.937646 112.215273 
L 362.937646 109.771636 
L 363.437632 109.771636 
L 363.437632 107.328 
L 363.453641 107.328 
L 364.025082 107.328 
L 364.025082 104.884364 
L 364.987631 104.884364 
L 364.987631 102.440727 
L 366.573679 102.440727 
L 366.573679 99.997091 
L 368.292562 99.997091 
L 368.292562 97.553455 
L 369.388306 97.553455 
L 369.388306 95.109818 
L 370.775735 95.109818 
L 370.775735 92.666182 
L 375.138527 92.666182 
L 375.138527 90.222545 
L 380.83162 90.222545 
L 380.83162 87.778909 
L 383.888577 87.778909 
L 383.999225 82.891636 
L 384.850346 82.891636 
L 384.850346 80.448 
L 386.409902 80.448 
L 386.409902 78.004364 
L 387.050988 78.004364 
L 387.050988 75.560727 
L 387.469208 75.560727 
L 387.576963 70.673455 
L 390.215234 70.673455 
L 390.215234 68.229818 
L 392.632074 68.229818 
L 392.632074 65.786182 
L 393.246327 65.786182 
L 393.246327 63.342545 
L 394.615793 63.342545 
L 394.615793 60.898909 
L 395.914322 60.898909 
L 395.914322 58.455273 
L 397.598053 58.455273 
L 397.598053 56.011636 
L 398.309495 56.011636 
L 398.309495 53.568 
L 398.487273 53.568 
L 398.487273 53.568 
" style="fill:none;stroke:#000000;stroke-linecap:square;stroke-width:1.5;"/>
   </g>
   <g id="line2d_51">
    <path clip-path="url(#p99f952bbcf)" d="M -1 295.488 
L 73.832727 295.488 
L 73.832727 288.157091 
L 111.839453 288.157091 
L 111.839453 283.269818 
L 121.791876 283.269818 
L 121.791876 275.938909 
L 141.151903 275.938909 
L 141.151903 273.495273 
L 149.846179 273.495273 
L 149.846179 271.051636 
L 156.788425 271.051636 
L 156.788425 266.164364 
L 169.751025 266.164364 
L 169.751025 263.720727 
L 182.305817 263.720727 
L 182.305817 261.277091 
L 186.547271 261.277091 
L 186.547271 258.833455 
L 220.312544 258.833455 
L 220.312544 256.389818 
L 228.33177 256.389818 
L 228.33177 253.946182 
L 232.095828 253.946182 
L 232.095828 251.502545 
L 243.274538 251.502545 
L 243.274538 249.058909 
L 253.484175 249.058909 
L 253.484175 246.615273 
L 259.631094 246.615273 
L 259.631094 241.728 
L 261.510028 241.728 
L 261.510028 239.284364 
L 262.114327 239.284364 
L 262.114327 236.840727 
L 264.710185 236.840727 
L 264.710185 234.397091 
L 265.397986 234.397091 
L 265.397986 231.953455 
L 273.81878 231.953455 
L 273.81878 229.509818 
L 275.890969 229.509818 
L 275.890969 227.066182 
L 282.714158 227.066182 
L 282.714158 224.622545 
L 284.32728 224.622545 
L 284.32728 222.178909 
L 284.719076 222.178909 
L 284.719076 219.735273 
L 291.936476 219.735273 
L 291.936476 217.291636 
L 294.671499 217.291636 
L 294.671499 214.848 
L 299.567518 214.848 
L 299.567518 212.404364 
L 305.560737 212.404364 
L 305.560737 209.960727 
L 306.152846 209.960727 
L 306.152846 207.517091 
L 307.830766 207.517091 
L 307.870691 202.629818 
L 312.460299 202.629818 
L 312.460299 200.186182 
L 315.245518 200.186182 
L 315.245518 197.742545 
L 318.825944 197.742545 
L 318.825944 195.298909 
L 322.647797 195.298909 
L 322.647797 192.855273 
L 326.557269 192.855273 
L 326.557269 190.411636 
L 331.38832 190.411636 
L 331.38832 187.968 
L 331.949878 187.968 
L 331.949878 185.524364 
L 333.21939 185.524364 
L 333.21939 183.080727 
L 333.562864 183.080727 
L 333.562864 180.637091 
L 334.146525 180.637091 
L 334.146525 178.193455 
L 334.591725 178.193455 
L 334.591725 175.749818 
L 335.66242 175.749818 
L 335.66242 173.306182 
L 337.268541 173.306182 
L 337.268541 170.862545 
L 337.370742 170.862545 
L 338.31034 170.862545 
L 338.31034 168.418909 
L 341.577507 168.418909 
L 341.577507 165.975273 
L 342.936094 165.975273 
L 342.936094 163.531636 
L 345.246566 163.531636 
L 345.246566 161.088 
L 345.650563 161.088 
L 345.650563 158.644364 
L 346.96413 158.644364 
L 346.96413 156.200727 
L 347.87994 156.200727 
L 347.87994 153.757091 
L 347.955174 153.757091 
L 348.930795 153.757091 
L 348.930795 151.313455 
L 348.979469 151.313455 
L 353.49855 151.313455 
L 353.49855 148.869818 
L 354.237567 148.869818 
L 354.237567 146.426182 
L 355.327432 146.426182 
L 355.327432 143.982545 
L 356.246297 143.982545 
L 356.246297 141.538909 
L 359.092638 141.538909 
L 359.092638 139.095273 
L 359.201399 139.095273 
L 359.944449 139.095273 
L 359.944449 136.651636 
L 363.397577 136.651636 
L 363.397577 134.208 
L 364.103707 134.208 
L 364.103707 131.764364 
L 365.443939 131.764364 
L 365.443939 129.320727 
L 367.110612 129.320727 
L 367.110612 126.877091 
L 368.292562 126.877091 
L 368.292562 124.433455 
L 369.750422 124.433455 
L 369.750422 121.989818 
L 370.398069 121.989818 
L 370.437329 117.102545 
L 373.06225 117.102545 
L 373.06225 114.658909 
L 373.364024 114.658909 
L 373.364024 112.215273 
L 374.655634 112.215273 
L 374.655634 109.771636 
L 375.428456 109.771636 
L 375.428456 107.328 
L 375.671033 107.328 
L 375.671033 104.884364 
L 376.520617 104.884364 
L 376.520617 102.440727 
L 380.284957 102.440727 
L 380.284957 99.997091 
L 386.057795 99.997091 
L 386.057795 97.553455 
L 387.846867 97.553455 
L 387.850821 92.666182 
L 388.384333 92.666182 
L 388.384333 90.222545 
L 388.559066 90.222545 
L 388.597776 85.335273 
L 389.332732 85.335273 
L 389.332732 82.891636 
L 390.141313 82.891636 
L 390.141313 80.448 
L 390.869891 80.448 
L 390.869891 78.004364 
L 393.015556 78.004364 
L 393.015556 75.560727 
L 394.210286 75.560727 
L 394.210286 73.117091 
L 394.527901 73.117091 
L 394.527901 70.673455 
L 394.968363 70.673455 
L 394.968363 68.229818 
L 395.208887 68.229818 
L 395.208887 65.786182 
L 397.490513 65.786182 
L 397.517429 60.898909 
L 397.85065 60.898909 
L 397.865451 56.011636 
L 398.119049 56.011636 
L 398.119049 53.568 
L 398.487273 53.568 
L 398.487273 53.568 
" style="fill:none;stroke:#d2691e;stroke-linecap:square;stroke-width:1.5;"/>
   </g>
   <g id="line2d_52">
    <path clip-path="url(#p99f952bbcf)" d="M -1 295.488 
L 111.839453 295.488 
L 111.839453 293.044364 
L 145.77145 293.044364 
L 145.77145 290.600727 
L 153.491149 290.600727 
L 153.491149 288.157091 
L 199.675795 288.157091 
L 199.675795 285.713455 
L 213.702947 285.713455 
L 213.702947 283.269818 
L 218.246544 283.269818 
L 218.246544 280.826182 
L 220.312544 280.826182 
L 220.312544 278.382545 
L 231.737325 278.382545 
L 231.737325 275.938909 
L 232.450654 275.938909 
L 232.450654 273.495273 
L 234.50642 273.495273 
L 234.50642 271.051636 
L 240.869269 271.051636 
L 240.869269 268.608 
L 243.015397 268.608 
L 243.015397 266.164364 
L 244.040515 266.164364 
L 244.040515 263.720727 
L 245.03613 263.720727 
L 245.03613 261.277091 
L 255.354643 261.277091 
L 255.354643 258.833455 
L 256.955735 258.833455 
L 256.955735 256.389818 
L 258.151738 256.389818 
L 258.151738 253.946182 
L 264.570969 253.946182 
L 264.570969 251.502545 
L 268.521478 251.502545 
L 268.521478 249.058909 
L 276.290918 249.058909 
L 276.290918 246.615273 
L 281.793795 246.615273 
L 281.793795 244.171636 
L 284.484532 244.171636 
L 284.484532 241.728 
L 288.620221 241.728 
L 288.620221 239.284364 
L 300.665871 239.284364 
L 300.665871 236.840727 
L 303.585839 236.840727 
L 303.585839 234.397091 
L 305.900325 234.397091 
L 305.900325 231.953455 
L 309.354687 231.953455 
L 309.354687 229.509818 
L 311.611294 229.509818 
L 311.611294 227.066182 
L 311.967581 227.066182 
L 311.967581 224.622545 
L 313.323067 224.622545 
L 313.323067 222.178909 
L 317.733217 222.178909 
L 317.733217 219.735273 
L 319.828774 219.735273 
L 319.828774 217.291636 
L 325.35075 217.291636 
L 325.35075 214.848 
L 328.191993 214.848 
L 328.191993 209.960727 
L 329.604239 209.960727 
L 329.604239 207.517091 
L 333.372467 207.517091 
L 333.372467 205.073455 
L 336.666271 205.073455 
L 336.666271 202.629818 
L 338.409514 202.629818 
L 338.409514 200.186182 
L 340.319919 200.186182 
L 340.319919 197.742545 
L 344.562573 197.742545 
L 344.562573 195.298909 
L 345.314227 195.298909 
L 345.314227 192.855273 
L 345.422211 192.855273 
L 351.101817 192.855273 
L 351.101817 190.411636 
L 357.542439 190.411636 
L 357.542439 187.968 
L 360.279386 187.968 
L 360.279386 185.524364 
L 362.937646 185.524364 
L 362.937646 183.080727 
L 364.377498 183.080727 
L 364.377498 180.637091 
L 365.277324 180.637091 
L 365.277324 178.193455 
L 366.726901 178.193455 
L 366.726901 175.749818 
L 368.535239 175.749818 
L 368.631835 170.862545 
L 369.205816 170.862545 
L 369.205816 168.418909 
L 370.121989 168.418909 
L 370.194509 163.531636 
L 370.312851 163.531636 
L 370.312851 161.088 
L 372.727229 161.088 
L 372.727229 158.644364 
L 373.406063 158.644364 
L 373.406063 156.200727 
L 374.224572 156.200727 
L 374.224572 153.757091 
L 374.828871 153.757091 
L 374.828871 151.313455 
L 376.084548 151.313455 
L 376.084548 148.869818 
L 377.870714 148.869818 
L 377.907621 143.982545 
L 378.72007 143.982545 
L 378.72007 141.538909 
L 379.382834 141.538909 
L 379.382834 139.095273 
L 380.962123 139.095273 
L 380.962123 136.651636 
L 381.226448 136.651636 
L 381.226448 134.208 
L 381.866811 134.208 
L 381.866811 131.764364 
L 382.217512 131.764364 
L 382.217512 129.320727 
L 384.764009 129.320727 
L 384.764009 126.877091 
L 385.099511 126.877091 
L 385.099511 124.433455 
L 386.091088 124.433455 
L 386.091088 121.989818 
L 387.616787 121.989818 
L 387.66849 117.102545 
L 388.473751 117.102545 
L 388.481516 112.215273 
L 389.260694 112.215273 
L 389.260694 109.771636 
L 390.971185 109.771636 
L 390.971185 107.328 
L 391.55859 107.328 
L 391.650806 99.997091 
L 391.862679 99.997091 
L 391.862679 97.553455 
L 392.10474 97.553455 
L 392.10474 95.109818 
L 392.587286 95.109818 
L 392.587286 92.666182 
L 395.019815 92.666182 
L 395.019815 90.222545 
L 395.795126 90.222545 
L 395.795126 87.778909 
L 396.541143 87.778909 
L 396.541143 85.335273 
L 396.670058 85.335273 
L 396.670058 82.891636 
L 397.508459 82.891636 
L 397.508459 80.448 
L 397.942317 80.448 
L 397.942317 78.004364 
L 398.127861 78.004364 
L 398.166025 73.117091 
L 398.338701 73.117091 
L 398.426174 63.342545 
L 398.452372 63.342545 
L 398.487273 53.568 
L 398.487273 53.568 
" style="fill:none;stroke:#ffff00;stroke-linecap:square;stroke-width:1.5;"/>
   </g>
   <g id="patch_3">
    <path d="M 57.6 307.584 
L 57.6 41.472 
" style="fill:none;stroke:#000000;stroke-linecap:square;stroke-linejoin:miter;stroke-width:0.8;"/>
   </g>
   <g id="patch_4">
    <path d="M 414.72 307.584 
L 414.72 41.472 
" style="fill:none;stroke:#000000;stroke-linecap:square;stroke-linejoin:miter;stroke-width:0.8;"/>
   </g>
   <g id="patch_5">
    <path d="M 57.6 307.584 
L 414.72 307.584 
" style="fill:none;stroke:#000000;stroke-linecap:square;stroke-linejoin:miter;stroke-width:0.8;"/>
   </g>
   <g id="patch_6">
    <path d="M 57.6 41.472 
L 414.72 41.472 
" style="fill:none;stroke:#000000;stroke-linecap:square;stroke-linejoin:miter;stroke-width:0.8;"/>
   </g>
   <g id="legend_1">
    <g id="line2d_53">
     <path d="M 65.7 52.722 
L 83.7 52.722 
" style="fill:none;stroke:#ff0000;stroke-linecap:square;stroke-width:1.5;"/>
    </g>
    <g id="line2d_54"/>
    <g id="text_14">
     <!-- $lr=0.10$ -->
     <g transform="translate(90.9 55.872)scale(0.09 -0.09)">
      <defs>
       <path d="M 18.3125 75.984375 
L 27.296875 75.984375 
L 12.5 0 
L 3.515625 0 
z
" id="DejaVuSans-Oblique-108"/>
       <path d="M 44.578125 46.390625 
Q 43.21875 47.125 41.453125 47.515625 
Q 39.703125 47.90625 37.703125 47.90625 
Q 30.515625 47.90625 25.140625 42.453125 
Q 19.78125 37.015625 18.015625 27.875 
L 12.5 0 
L 3.515625 0 
L 14.203125 54.6875 
L 23.1875 54.6875 
L 21.484375 46.1875 
Q 25.046875 50.921875 30 53.453125 
Q 34.96875 56 40.578125 56 
Q 42.046875 56 43.453125 55.828125 
Q 44.875 55.671875 46.296875 55.28125 
z
" id="DejaVuSans-Oblique-114"/>
       <path d="M 10.59375 45.40625 
L 73.1875 45.40625 
L 73.1875 37.203125 
L 10.59375 37.203125 
z
M 10.59375 25.484375 
L 73.1875 25.484375 
L 73.1875 17.1875 
L 10.59375 17.1875 
z
" id="DejaVuSans-61"/>
      </defs>
      <use transform="translate(0 0.015625)" xlink:href="#DejaVuSans-Oblique-108"/>
      <use transform="translate(27.783203 0.015625)" xlink:href="#DejaVuSans-Oblique-114"/>
      <use transform="translate(88.378906 0.015625)" xlink:href="#DejaVuSans-61"/>
      <use transform="translate(191.650391 0.015625)" xlink:href="#DejaVuSans-48"/>
      <use transform="translate(255.273438 0.015625)" xlink:href="#DejaVuSans-46"/>
      <use transform="translate(287.060547 0.015625)" xlink:href="#DejaVuSans-49"/>
      <use transform="translate(350.683594 0.015625)" xlink:href="#DejaVuSans-48"/>
     </g>
    </g>
    <g id="line2d_55">
     <path d="M 65.7 65.447156 
L 83.7 65.447156 
" style="fill:none;stroke:#0000ff;stroke-linecap:square;stroke-width:1.5;"/>
    </g>
    <g id="line2d_56"/>
    <g id="text_15">
     <!-- $lr=0.20$ -->
     <g transform="translate(90.9 68.597156)scale(0.09 -0.09)">
      <use transform="translate(0 0.015625)" xlink:href="#DejaVuSans-Oblique-108"/>
      <use transform="translate(27.783203 0.015625)" xlink:href="#DejaVuSans-Oblique-114"/>
      <use transform="translate(88.378906 0.015625)" xlink:href="#DejaVuSans-61"/>
      <use transform="translate(191.650391 0.015625)" xlink:href="#DejaVuSans-48"/>
      <use transform="translate(255.273438 0.015625)" xlink:href="#DejaVuSans-46"/>
      <use transform="translate(281.560547 0.015625)" xlink:href="#DejaVuSans-50"/>
      <use transform="translate(345.183594 0.015625)" xlink:href="#DejaVuSans-48"/>
     </g>
    </g>
    <g id="line2d_57">
     <path d="M 65.7 78.172313 
L 83.7 78.172313 
" style="fill:none;stroke:#000000;stroke-linecap:square;stroke-width:1.5;"/>
    </g>
    <g id="line2d_58"/>
    <g id="text_16">
     <!-- $lr=0.30$ -->
     <g transform="translate(90.9 81.322313)scale(0.09 -0.09)">
      <use transform="translate(0 0.015625)" xlink:href="#DejaVuSans-Oblique-108"/>
      <use transform="translate(27.783203 0.015625)" xlink:href="#DejaVuSans-Oblique-114"/>
      <use transform="translate(88.378906 0.015625)" xlink:href="#DejaVuSans-61"/>
      <use transform="translate(191.650391 0.015625)" xlink:href="#DejaVuSans-48"/>
      <use transform="translate(255.273438 0.015625)" xlink:href="#DejaVuSans-46"/>
      <use transform="translate(287.060547 0.015625)" xlink:href="#DejaVuSans-51"/>
      <use transform="translate(350.683594 0.015625)" xlink:href="#DejaVuSans-48"/>
     </g>
    </g>
    <g id="line2d_59">
     <path d="M 65.7 90.897469 
L 83.7 90.897469 
" style="fill:none;stroke:#d2691e;stroke-linecap:square;stroke-width:1.5;"/>
    </g>
    <g id="line2d_60"/>
    <g id="text_17">
     <!-- $lr=0.40$ -->
     <g transform="translate(90.9 94.047469)scale(0.09 -0.09)">
      <use transform="translate(0 0.015625)" xlink:href="#DejaVuSans-Oblique-108"/>
      <use transform="translate(27.783203 0.015625)" xlink:href="#DejaVuSans-Oblique-114"/>
      <use transform="translate(88.378906 0.015625)" xlink:href="#DejaVuSans-61"/>
      <use transform="translate(191.650391 0.015625)" xlink:href="#DejaVuSans-48"/>
      <use transform="translate(255.273438 0.015625)" xlink:href="#DejaVuSans-46"/>
      <use transform="translate(287.060547 0.015625)" xlink:href="#DejaVuSans-52"/>
      <use transform="translate(350.683594 0.015625)" xlink:href="#DejaVuSans-48"/>
     </g>
    </g>
    <g id="line2d_61">
     <path d="M 65.7 103.622625 
L 83.7 103.622625 
" style="fill:none;stroke:#ffff00;stroke-linecap:square;stroke-width:1.5;"/>
    </g>
    <g id="line2d_62"/>
    <g id="text_18">
     <!-- $lr=0.50$ -->
     <g transform="translate(90.9 106.772625)scale(0.09 -0.09)">
      <defs>
       <path d="M 10.796875 72.90625 
L 49.515625 72.90625 
L 49.515625 64.59375 
L 19.828125 64.59375 
L 19.828125 46.734375 
Q 21.96875 47.46875 24.109375 47.828125 
Q 26.265625 48.1875 28.421875 48.1875 
Q 40.625 48.1875 47.75 41.5 
Q 54.890625 34.8125 54.890625 23.390625 
Q 54.890625 11.625 47.5625 5.09375 
Q 40.234375 -1.421875 26.90625 -1.421875 
Q 22.3125 -1.421875 17.546875 -0.640625 
Q 12.796875 0.140625 7.71875 1.703125 
L 7.71875 11.625 
Q 12.109375 9.234375 16.796875 8.0625 
Q 21.484375 6.890625 26.703125 6.890625 
Q 35.15625 6.890625 40.078125 11.328125 
Q 45.015625 15.765625 45.015625 23.390625 
Q 45.015625 31 40.078125 35.4375 
Q 35.15625 39.890625 26.703125 39.890625 
Q 22.75 39.890625 18.8125 39.015625 
Q 14.890625 38.140625 10.796875 36.28125 
z
" id="DejaVuSans-53"/>
      </defs>
      <use transform="translate(0 0.015625)" xlink:href="#DejaVuSans-Oblique-108"/>
      <use transform="translate(27.783203 0.015625)" xlink:href="#DejaVuSans-Oblique-114"/>
      <use transform="translate(88.378906 0.015625)" xlink:href="#DejaVuSans-61"/>
      <use transform="translate(191.650391 0.015625)" xlink:href="#DejaVuSans-48"/>
      <use transform="translate(255.273438 0.015625)" xlink:href="#DejaVuSans-46"/>
      <use transform="translate(287.060547 0.015625)" xlink:href="#DejaVuSans-53"/>
      <use transform="translate(350.683594 0.015625)" xlink:href="#DejaVuSans-48"/>
     </g>
    </g>
   </g>
  </g>
 </g>
 <defs>
  <clipPath id="p99f952bbcf">
   <rect height="266.112" width="357.12" x="57.6" y="41.472"/>
  </clipPath>
 </defs>
</svg>
